  0
SECTION
  2
HEADER
  9
$ACADVER
  1
AC1024
  9
$ACADMAINTVER
 70
6
  9
$DWGCODEPAGE
  3
ANSI_1252
  9
$LASTSAVEDBY
  1
ezdxf
  9
$INSBASE
 10
0.0
 20
0.0
 30
0.0
  9
$EXTMIN
 10
1e+20
 20
1e+20
 30
1e+20
  9
$EXTMAX
 10
-1e+20
 20
-1e+20
 30
-1e+20
  9
$LIMMIN
 10
0.0
 20
0.0
  9
$LIMMAX
 10
420.0
 20
297.0
  9
$ORTHOMODE
 70
0
  9
$REGENMODE
 70
1
  9
$FILLMODE
 70
1
  9
$QTEXTMODE
 70
0
  9
$MIRRTEXT
 70
1
  9
$LTSCALE
 40
1.0
  9
$ATTMODE
 70
1
  9
$TEXTSIZE
 40
2.5
  9
$TRACEWID
 40
1.0
  9
$TEXTSTYLE
  7
OpenSans
  9
$CLAYER
  8
0
  9
$CELTYPE
  6
ByLayer
  9
$CECOLOR
 62
256
  9
$CELTSCALE
 40
1.0
  9
$DISPSILH
 70
0
  9
$DIMSCALE
 40
1.0
  9
$DIMASZ
 40
0.175
  9
$DIMEXO
 40
0.125
  9
$DIMDLI
 40
3.75
  9
$DIMRND
 40
0.0
  9
$DIMDLE
 40
0.0
  9
$DIMEXE
 40
0.375
  9
$DIMTP
 40
0.0
  9
$DIMTM
 40
0.0
  9
$DIMTXT
 40
0.25
  9
$DIMCEN
 40
2.5
  9
$DIMTSZ
 40
0.0
  9
$DIMTOL
 70
0
  9
$DIMLIM
 70
0
  9
$DIMTIH
 70
0
  9
$DIMTOH
 70
0
  9
$DIMSE1
 70
0
  9
$DIMSE2
 70
0
  9
$DIMTAD
 70
1
  9
$DIMZIN
 70
12
  9
$DIMBLK
  1
ARCHTICK
  9
$DIMASO
 70
1
  9
$DIMSHO
 70
1
  9
$DIMPOST
  1

  9
$DIMAPOST
  1

  9
$DIMALT
 70
0
  9
$DIMALTD
 70
3
  9
$DIMALTF
 40
0.03937007874
  9
$DIMLFAC
 40
100.0
  9
$DIMTOFL
 70
1
  9
$DIMTVP
 40
0.0
  9
$DIMTIX
 70
0
  9
$DIMSOXD
 70
0
  9
$DIMSAH
 70
0
  9
$DIMBLK1
  1

  9
$DIMBLK2
  1

  9
$DIMSTYLE
  2
EZDXF
  9
$DIMCLRD
 70
0
  9
$DIMCLRE
 70
0
  9
$DIMCLRT
 70
0
  9
$DIMTFAC
 40
0.5
  9
$DIMGAP
 40
0.1
  9
$DIMJUST
 70
0
  9
$DIMSD1
 70
0
  9
$DIMSD2
 70
0
  9
$DIMTOLJ
 70
0
  9
$DIMTZIN
 70
8
  9
$DIMALTZ
 70
0
  9
$DIMALTTZ
 70
0
  9
$DIMUPT
 70
1
  9
$DIMDEC
 70
2
  9
$DIMTDEC
 70
2
  9
$DIMALTU
 70
2
  9
$DIMALTTD
 70
3
  9
$DIMTXSTY
  7
OpenSansCondensed-Light
  9
$DIMAUNIT
 70
0
  9
$DIMADEC
 70
2
  9
$DIMALTRND
 40
0.0
  9
$DIMAZIN
 70
3
  9
$DIMDSEP
 70
46
  9
$DIMATFIT
 70
3
  9
$DIMFRAC
 70
0
  9
$DIMLDRBLK
  1

  9
$DIMLUNIT
 70
2
  9
$DIMLWD
 70
-2
  9
$DIMLWE
 70
-2
  9
$DIMTMOVE
 70
2
  9
$DIMFXL
 40
1.0
  9
$DIMFXLON
 70
0
  9
$DIMJOGANG
 40
0.785398163397
  9
$DIMTFILL
 70
0
  9
$DIMTFILLCLR
 70
0
  9
$DIMARCSYM
 70
0
  9
$DIMLTYPE
  6

  9
$DIMLTEX1
  6

  9
$DIMLTEX2
  6

  9
$DIMTXTDIRECTION
 70
0
  9
$LUNITS
 70
2
  9
$LUPREC
 70
4
  9
$SKETCHINC
 40
1.0
  9
$FILLETRAD
 40
10.0
  9
$AUNITS
 70
0
  9
$AUPREC
 70
2
  9
$MENU
  1
.
  9
$ELEVATION
 40
0.0
  9
$PELEVATION
 40
0.0
  9
$THICKNESS
 40
0.0
  9
$LIMCHECK
 70
0
  9
$CHAMFERA
 40
0.0
  9
$CHAMFERB
 40
0.0
  9
$CHAMFERC
 40
0.0
  9
$CHAMFERD
 40
0.0
  9
$SKPOLY
 70
0
  9
$TDCREATE
 40
2461308.706203704
  9
$TDUCREATE
 40
2458532.153996898
  9
$TDUPDATE
 40
2461308.706203704
  9
$TDUUPDATE
 40
2458532.1544311
  9
$TDINDWG
 40
0.0
  9
$TDUSRTIMER
 40
0.0
  9
$USRTIMER
 70
1
  9
$ANGBASE
 50
0.0
  9
$ANGDIR
 70
0
  9
$PDMODE
 70
0
  9
$PDSIZE
 40
0.0
  9
$PLINEWID
 40
0.0
  9
$SPLFRAME
 70
0
  9
$SPLINETYPE
 70
6
  9
$SPLINESEGS
 70
8
  9
$HANDSEED
  5
93
  9
$SURFTAB1
 70
6
  9
$SURFTAB2
 70
6
  9
$SURFTYPE
 70
6
  9
$SURFU
 70
6
  9
$SURFV
 70
6
  9
$UCSBASE
  2

  9
$UCSNAME
  2

  9
$UCSORG
 10
0.0
 20
0.0
 30
0.0
  9
$UCSXDIR
 10
1.0
 20
0.0
 30
0.0
  9
$UCSYDIR
 10
0.0
 20
1.0
 30
0.0
  9
$UCSORTHOREF
  2

  9
$UCSORTHOVIEW
 70
0
  9
$UCSORGTOP
 10
0.0
 20
0.0
 30
0.0
  9
$UCSORGBOTTOM
 10
0.0
 20
0.0
 30
0.0
  9
$UCSORGLEFT
 10
0.0
 20
0.0
 30
0.0
  9
$UCSORGRIGHT
 10
0.0
 20
0.0
 30
0.0
  9
$UCSORGFRONT
 10
0.0
 20
0.0
 30
0.0
  9
$UCSORGBACK
 10
0.0
 20
0.0
 30
0.0
  9
$PUCSBASE
  2

  9
$PUCSNAME
  2

  9
$PUCSORG
 10
0.0
 20
0.0
 30
0.0
  9
$PUCSXDIR
 10
1.0
 20
0.0
 30
0.0
  9
$PUCSYDIR
 10
0.0
 20
1.0
 30
0.0
  9
$PUCSORTHOREF
  2

  9
$PUCSORTHOVIEW
 70
0
  9
$PUCSORGTOP
 10
0.0
 20
0.0
 30
0.0
  9
$PUCSORGBOTTOM
 10
0.0
 20
0.0
 30
0.0
  9
$PUCSORGLEFT
 10
0.0
 20
0.0
 30
0.0
  9
$PUCSORGRIGHT
 10
0.0
 20
0.0
 30
0.0
  9
$PUCSORGFRONT
 10
0.0
 20
0.0
 30
0.0
  9
$PUCSORGBACK
 10
0.0
 20
0.0
 30
0.0
  9
$USERI1
 70
0
  9
$USERI2
 70
0
  9
$USERI3
 70
0
  9
$USERI4
 70
0
  9
$USERI5
 70
0
  9
$USERR1
 40
0.0
  9
$USERR2
 40
0.0
  9
$USERR3
 40
0.0
  9
$USERR4
 40
0.0
  9
$USERR5
 40
0.0
  9
$WORLDVIEW
 70
1
  9
$SHADEDGE
 70
3
  9
$SHADEDIF
 70
70
  9
$TILEMODE
 70
1
  9
$MAXACTVP
 70
64
  9
$PINSBASE
 10
0.0
 20
0.0
 30
0.0
  9
$PLIMCHECK
 70
0
  9
$PEXTMIN
 10
1e+20
 20
1e+20
 30
1e+20
  9
$PEXTMAX
 10
-1e+20
 20
-1e+20
 30
-1e+20
  9
$PLIMMIN
 10
0.0
 20
0.0
  9
$PLIMMAX
 10
420.0
 20
297.0
  9
$UNITMODE
 70
0
  9
$VISRETAIN
 70
1
  9
$PLINEGEN
 70
0
  9
$PSLTSCALE
 70
1
  9
$TREEDEPTH
 70
3020
  9
$CMLSTYLE
  2
Standard
  9
$CMLJUST
 70
0
  9
$CMLSCALE
 40
20.0
  9
$PROXYGRAPHICS
 70
1
  9
$MEASUREMENT
 70
1
  9
$CELWEIGHT
370
-1
  9
$ENDCAPS
280
0
  9
$JOINSTYLE
280
0
  9
$LWDISPLAY
290
0
  9
$INSUNITS
 70
4
  9
$HYPERLINKBASE
  1

  9
$STYLESHEET
  1

  9
$XEDIT
290
1
  9
$CEPSNTYPE
380
0
  9
$PSTYLEMODE
290
1
  9
$FINGERPRINTGUID
  2
{39DBA296-A4DE-43DE-8FA7-47F371695401}
  9
$VERSIONGUID
  2
{06B327BA-6410-463B-B52D-11B31727E532}
  9
$EXTNAMES
290
1
  9
$PSVPSCALE
 40
0.0
  9
$OLESTARTUP
290
0
  9
$SORTENTS
280
127
  9
$INDEXCTL
280
0
  9
$HIDETEXT
280
1
  9
$XCLIPFRAME
280
1
  9
$HALOGAP
280
0
  9
$OBSCOLOR
 70
257
  9
$OBSLTYPE
280
0
  9
$INTERSECTIONDISPLAY
280
0
  9
$INTERSECTIONCOLOR
 70
257
  9
$DIMASSOC
280
2
  9
$PROJECTNAME
  1

  9
$CAMERADISPLAY
290
0
  9
$LENSLENGTH
 40
50.0
  9
$CAMERAHEIGHT
 40
0.0
  9
$STEPSPERSEC
 40
24.0
  9
$STEPSIZE
 40
100.0
  9
$3DDWFPREC
 40
2.0
  9
$PSOLWIDTH
 40
0.005
  9
$PSOLHEIGHT
 40
0.08
  9
$LOFTANG1
 40
1.570796326795
  9
$LOFTANG2
 40
1.570796326795
  9
$LOFTMAG1
 40
0.0
  9
$LOFTMAG2
 40
0.0
  9
$LOFTPARAM
 70
7
  9
$LOFTNORMALS
280
1
  9
$LATITUDE
 40
37.795
  9
$LONGITUDE
 40
-122.394
  9
$NORTHDIRECTION
 40
0.0
  9
$TIMEZONE
 70
-8000
  9
$LIGHTGLYPHDISPLAY
280
1
  9
$TILEMODELIGHTSYNCH
280
1
  9
$CMATERIAL
347
20
  9
$SOLIDHIST
280
0
  9
$SHOWHIST
280
1
  9
$DWFFRAME
280
2
  9
$DGNFRAME
280
2
  9
$REALWORLDSCALE
290
1
  9
$INTERFERECOLOR
 62
256
  9
$CSHADOW
280
0
  9
$SHADOWPLANELOCATION
 40
0.0
  0
ENDSEC
  0
SECTION
  2
CLASSES
  0
CLASS
  1
ACDBDICTIONARYWDFLT
  2
AcDbDictionaryWithDefault
  3
ObjectDBX Classes
 90
0
 91
0
280
0
281
0
  0
CLASS
  1
SUN
  2
AcDbSun
  3
SCENEOE
 90
1153
 91
0
280
0
281
0
  0
CLASS
  1
VISUALSTYLE
  2
AcDbVisualStyle
  3
ObjectDBX Classes
 90
4095
 91
0
280
0
281
0
  0
CLASS
  1
MATERIAL
  2
AcDbMaterial
  3
ObjectDBX Classes
 90
1153
 91
0
280
0
281
0
  0
CLASS
  1
SCALE
  2
AcDbScale
  3
ObjectDBX Classes
 90
1153
 91
0
280
0
281
0
  0
CLASS
  1
TABLESTYLE
  2
AcDbTableStyle
  3
ObjectDBX Classes
 90
4095
 91
0
280
0
281
0
  0
CLASS
  1
MLEADERSTYLE
  2
AcDbMLeaderStyle
  3
ACDB_MLEADERSTYLE_CLASS
 90
4095
 91
0
280
0
281
0
  0
CLASS
  1
DICTIONARYVAR
  2
AcDbDictionaryVar
  3
ObjectDBX Classes
 90
0
 91
0
280
0
281
0
  0
CLASS
  1
CELLSTYLEMAP
  2
AcDbCellStyleMap
  3
ObjectDBX Classes
 90
1152
 91
0
280
0
281
0
  0
CLASS
  1
MENTALRAYRENDERSETTINGS
  2
AcDbMentalRayRenderSettings
  3
SCENEOE
 90
1024
 91
0
280
0
281
0
  0
CLASS
  1
ACDBDETAILVIEWSTYLE
  2
AcDbDetailViewStyle
  3
ObjectDBX Classes
 90
1025
 91
0
280
0
281
0
  0
CLASS
  1
ACDBSECTIONVIEWSTYLE
  2
AcDbSectionViewStyle
  3
ObjectDBX Classes
 90
1025
 91
0
280
0
281
0
  0
CLASS
  1
RASTERVARIABLES
  2
AcDbRasterVariables
  3
ISM
 90
0
 91
0
280
0
281
0
  0
CLASS
  1
LAYOUT
  2
AcDbLayout
  3
ObjectDBX Classes
 90
0
 91
0
280
0
281
0
  0
CLASS
  1
ACDBPLACEHOLDER
  2
AcDbPlaceHolder
  3
ObjectDBX Classes
 90
0
 91
0
280
0
281
0
  0
ENDSEC
  0
SECTION
  2
TABLES
  0
TABLE
  2
VPORT
  5
8
330
0
100
AcDbSymbolTable
 70
1
  0
VPORT
  5
23
330
8
100
AcDbSymbolTableRecord
100
AcDbViewportTableRecord
  2
*Active
 70
0
 10
0.0
 20
0.0
 11
1.0
 21
1.0
 12
0.0
 22
0.0
 13
0.0
 23
0.0
 14
0.5
 24
0.5
 15
0.5
 25
0.5
 16
0.0
 26
0.0
 36
1.0
 17
0.0
 27
0.0
 37
0.0
 40
1000.0
 41
1.34
 42
50.0
 43
0.0
 44
0.0
 50
0.0
 51
0.0
 71
0
 72
1000
 73
1
 74
3
 75
0
 76
0
 77
0
 78
0
281
0
 65
0
146
0.0
  0
ENDTAB
  0
TABLE
  2
LTYPE
  5
2
330
0
100
AcDbSymbolTable
 70
21
  0
LTYPE
  5
24
330
2
100
AcDbSymbolTableRecord
100
AcDbLinetypeTableRecord
  2
ByBlock
 70
0
  3

 72
65
 73
0
 40
0.0
  0
LTYPE
  5
25
330
2
100
AcDbSymbolTableRecord
100
AcDbLinetypeTableRecord
  2
ByLayer
 70
0
  3

 72
65
 73
0
 40
0.0
  0
LTYPE
  5
26
330
2
100
AcDbSymbolTableRecord
100
AcDbLinetypeTableRecord
  2
Continuous
 70
0
  3

 72
65
 73
0
 40
0.0
  0
LTYPE
  5
2F
330
2
100
AcDbSymbolTableRecord
100
AcDbLinetypeTableRecord
  2
CENTER
 70
0
  3
Center ____ _ ____ _ ____ _ ____ _ ____ _ ____
 72
65
 73
4
 40
5.08
 49
3.175
 74
0
 49
-0.635
 74
0
 49
0.635
 74
0
 49
-0.635
 74
0
  0
LTYPE
  5
30
330
2
100
AcDbSymbolTableRecord
100
AcDbLinetypeTableRecord
  2
CENTERX2
 70
0
  3
Center (2x) ________  __  ________  __  ________
 72
65
 73
4
 40
8.89
 49
6.35
 74
0
 49
-0.635
 74
0
 49
1.27
 74
0
 49
-0.635
 74
0
  0
LTYPE
  5
31
330
2
100
AcDbSymbolTableRecord
100
AcDbLinetypeTableRecord
  2
CENTER2
 70
0
  3
Center (.5x) ____ _ ____ _ ____ _ ____ _ ____
 72
65
 73
4
 40
2.54
 49
1.587
 74
0
 49
-0.318
 74
0
 49
0.318
 74
0
 49
-0.318
 74
0
  0
LTYPE
  5
32
330
2
100
AcDbSymbolTableRecord
100
AcDbLinetypeTableRecord
  2
DASHED
 70
0
  3
Dashed __ __ __ __ __ __ __ __ __ __ __ __ __ _
 72
65
 73
2
 40
1.524
 49
1.27
 74
0
 49
-0.254
 74
0
  0
LTYPE
  5
33
330
2
100
AcDbSymbolTableRecord
100
AcDbLinetypeTableRecord
  2
DASHEDX2
 70
0
  3
Dashed (2x) ____  ____  ____  ____  ____  ____
 72
65
 73
2
 40
3.048
 49
2.54
 74
0
 49
-0.508
 74
0
  0
LTYPE
  5
34
330
2
100
AcDbSymbolTableRecord
100
AcDbLinetypeTableRecord
  2
DASHED2
 70
0
  3
Dashed (.5x) _ _ _ _ _ _ _ _ _ _ _ _ _ _
 72
65
 73
2
 40
0.762
 49
0.635
 74
0
 49
-0.127
 74
0
  0
LTYPE
  5
35
330
2
100
AcDbSymbolTableRecord
100
AcDbLinetypeTableRecord
  2
PHANTOM
 70
0
  3
Phantom ______  __  __  ______  __  __  ______
 72
65
 73
6
 40
6.35
 49
3.175
 74
0
 49
-0.635
 74
0
 49
0.635
 74
0
 49
-0.635
 74
0
 49
0.635
 74
0
 49
-0.635
 74
0
  0
LTYPE
  5
36
330
2
100
AcDbSymbolTableRecord
100
AcDbLinetypeTableRecord
  2
PHANTOMX2
 70
0
  3
Phantom (2x)____________    ____    ____    ____________
 72
65
 73
6
 40
10.795
 49
6.35
 74
0
 49
-0.635
 74
0
 49
1.27
 74
0
 49
-0.635
 74
0
 49
1.27
 74
0
 49
-0.635
 74
0
  0
LTYPE
  5
37
330
2
100
AcDbSymbolTableRecord
100
AcDbLinetypeTableRecord
  2
PHANTOM2
 70
0
  3
Phantom (.5x) ___ _ _ ___ _ _ ___ _ _ ___ _ _ ___
 72
65
 73
6
 40
3.175
 49
1.587
 74
0
 49
-0.318
 74
0
 49
0.318
 74
0
 49
-0.318
 74
0
 49
0.318
 74
0
 49
-0.318
 74
0
  0
LTYPE
  5
38
330
2
100
AcDbSymbolTableRecord
100
AcDbLinetypeTableRecord
  2
DASHDOT
 70
0
  3
Dash dot __ . __ . __ . __ . __ . __ . __ . __
 72
65
 73
4
 40
3.556
 49
2.54
 74
0
 49
-0.508
 74
0
 49
0.0
 74
0
 49
-0.508
 74
0
  0
LTYPE
  5
39
330
2
100
AcDbSymbolTableRecord
100
AcDbLinetypeTableRecord
  2
DASHDOTX2
 70
0
  3
Dash dot (2x) ____  .  ____  .  ____  .  ____
 72
65
 73
4
 40
6.096
 49
5.08
 74
0
 49
-0.508
 74
0
 49
0.0
 74
0
 49
-0.508
 74
0
  0
LTYPE
  5
3A
330
2
100
AcDbSymbolTableRecord
100
AcDbLinetypeTableRecord
  2
DASHDOT2
 70
0
  3
Dash dot (.5x) _ . _ . _ . _ . _ . _ . _ . _
 72
65
 73
4
 40
1.778
 49
1.27
 74
0
 49
-0.254
 74
0
 49
0.0
 74
0
 49
-0.254
 74
0
  0
LTYPE
  5
3B
330
2
100
AcDbSymbolTableRecord
100
AcDbLinetypeTableRecord
  2
DOT
 70
0
  3
Dot .  .  .  .  .  .  .  .  .  .  .  .  .  .  .  .
 72
65
 73
2
 40
0.508
 49
0.0
 74
0
 49
-0.508
 74
0
  0
LTYPE
  5
3C
330
2
100
AcDbSymbolTableRecord
100
AcDbLinetypeTableRecord
  2
DOTX2
 70
0
  3
Dot (2x) .    .    .    .    .    .    .    . 
 72
65
 73
2
 40
1.016
 49
0.0
 74
0
 49
-1.016
 74
0
  0
LTYPE
  5
3D
330
2
100
AcDbSymbolTableRecord
100
AcDbLinetypeTableRecord
  2
DOT2
 70
0
  3
Dot (.5) . . . . . . . . . . . . . . . . . . . 
 72
65
 73
2
 40
0.254
 49
0.0
 74
0
 49
-0.254
 74
0
  0
LTYPE
  5
3E
330
2
100
AcDbSymbolTableRecord
100
AcDbLinetypeTableRecord
  2
DIVIDE
 70
0
  3
Divide __ . . __ . . __ . . __ . . __ . . __
 72
65
 73
6
 40
4.064
 49
2.54
 74
0
 49
-0.508
 74
0
 49
0.0
 74
0
 49
-0.508
 74
0
 49
0.0
 74
0
 49
-0.508
 74
0
  0
LTYPE
  5
3F
330
2
100
AcDbSymbolTableRecord
100
AcDbLinetypeTableRecord
  2
DIVIDEX2
 70
0
  3
Divide (2x) ____  . .  ____  . .  ____  . .  ____
 72
65
 73
6
 40
6.604
 49
5.08
 74
0
 49
-0.508
 74
0
 49
0.0
 74
0
 49
-0.508
 74
0
 49
0.0
 74
0
 49
-0.508
 74
0
  0
LTYPE
  5
40
330
2
100
AcDbSymbolTableRecord
100
AcDbLinetypeTableRecord
  2
DIVIDE2
 70
0
  3
Divide(.5x) _ . _ . _ . _ . _ . _ . _ . _
 72
65
 73
6
 40
2.032
 49
1.27
 74
0
 49
-0.254
 74
0
 49
0.0
 74
0
 49
-0.254
 74
0
 49
0.0
 74
0
 49
-0.254
 74
0
  0
ENDTAB
  0
TABLE
  2
LAYER
  5
1
330
0
100
AcDbSymbolTable
 70
4
  0
LAYER
  5
27
330
1
100
AcDbSymbolTableRecord
100
AcDbLayerTableRecord
  2
0
 70
0
 62
7
  6
Continuous
370
-3
390
13
347
21
  0
LAYER
  5
28
330
1
100
AcDbSymbolTableRecord
100
AcDbLayerTableRecord
  2
Defpoints
 70
0
 62
7
  6
Continuous
290
0
370
-3
390
13
347
21
  0
LAYER
  5
8A
330
1
100
AcDbSymbolTableRecord
100
AcDbLayerTableRecord
  2
CUT
 70
0
 62
7
  6
Continuous
370
-3
390
13
347
21
  0
LAYER
  5
8B
330
1
100
AcDbSymbolTableRecord
100
AcDbLayerTableRecord
  2
MARK
 70
0
 62
3
  6
Continuous
370
-3
390
13
347
21
  0
ENDTAB
  0
TABLE
  2
STYLE
  5
5
330
0
100
AcDbSymbolTable
 70
26
  0
STYLE
  5
29
330
5
100
AcDbSymbolTableRecord
100
AcDbTextStyleTableRecord
  2
Standard
 70
0
 40
0.0
 41
1.0
 50
0.0
 71
0
 42
2.5
  3
txt
  4

  0
STYLE
  5
41
330
5
100
AcDbSymbolTableRecord
100
AcDbTextStyleTableRecord
  2
OpenSans-Light
 70
0
 40
0.0
 41
1.0
 50
0.0
 71
0
 42
2.5
  3
OpenSans-Light.ttf
  4

  0
STYLE
  5
42
330
5
100
AcDbSymbolTableRecord
100
AcDbTextStyleTableRecord
  2
OpenSans-Light-Italic
 70
0
 40
0.0
 41
1.0
 50
0.0
 71
0
 42
2.5
  3
OpenSans-LightItalic.ttf
  4

  0
STYLE
  5
43
330
5
100
AcDbSymbolTableRecord
100
AcDbTextStyleTableRecord
  2
OpenSans
 70
0
 40
0.0
 41
1.0
 50
0.0
 71
0
 42
2.5
  3
OpenSans-Regular.ttf
  4

  0
STYLE
  5
44
330
5
100
AcDbSymbolTableRecord
100
AcDbTextStyleTableRecord
  2
OpenSans-Italic
 70
0
 40
0.0
 41
1.0
 50
0.0
 71
0
 42
2.5
  3
OpenSans-Italic.ttf
  4

  0
STYLE
  5
45
330
5
100
AcDbSymbolTableRecord
100
AcDbTextStyleTableRecord
  2
OpenSans-SemiBold
 70
0
 40
0.0
 41
1.0
 50
0.0
 71
0
 42
2.5
  3
OpenSans-SemiBold.ttf
  4

  0
STYLE
  5
46
330
5
100
AcDbSymbolTableRecord
100
AcDbTextStyleTableRecord
  2
OpenSans-SemiBoldItalic
 70
0
 40
0.0
 41
1.0
 50
0.0
 71
0
 42
2.5
  3
OpenSans-SemiBoldItalic.ttf
  4

  0
STYLE
  5
47
330
5
100
AcDbSymbolTableRecord
100
AcDbTextStyleTableRecord
  2
OpenSans-Bold
 70
0
 40
0.0
 41
1.0
 50
0.0
 71
0
 42
2.5
  3
OpenSans-Bold.ttf
  4

  0
STYLE
  5
48
330
5
100
AcDbSymbolTableRecord
100
AcDbTextStyleTableRecord
  2
OpenSans-BoldItalic
 70
0
 40
0.0
 41
1.0
 50
0.0
 71
0
 42
2.5
  3
OpenSans-BoldItalic.ttf
  4

  0
STYLE
  5
49
330
5
100
AcDbSymbolTableRecord
100
AcDbTextStyleTableRecord
  2
OpenSans-ExtraBold
 70
0
 40
0.0
 41
1.0
 50
0.0
 71
0
 42
2.5
  3
OpenSans-ExtraBold.ttf
  4

  0
STYLE
  5
4A
330
5
100
AcDbSymbolTableRecord
100
AcDbTextStyleTableRecord
  2
OpenSans-ExtraBoldItalic
 70
0
 40
0.0
 41
1.0
 50
0.0
 71
0
 42
2.5
  3
OpenSans-ExtraBoldItalic.ttf
  4

  0
STYLE
  5
4B
330
5
100
AcDbSymbolTableRecord
100
AcDbTextStyleTableRecord
  2
OpenSansCondensed-Bold
 70
0
 40
0.0
 41
1.0
 50
0.0
 71
0
 42
2.5
  3
OpenSansCondensed-Bold.ttf
  4

  0
STYLE
  5
4C
330
5
100
AcDbSymbolTableRecord
100
AcDbTextStyleTableRecord
  2
OpenSansCondensed-Light
 70
0
 40
0.0
 41
1.0
 50
0.0
 71
0
 42
2.5
  3
OpenSansCondensed-Light.ttf
  4

  0
STYLE
  5
4D
330
5
100
AcDbSymbolTableRecord
100
AcDbTextStyleTableRecord
  2
OpenSansCondensed-Italic
 70
0
 40
0.0
 41
1.0
 50
0.0
 71
0
 42
2.5
  3
OpenSansCondensed-LightItalic.ttf
  4

  0
STYLE
  5
4E
330
5
100
AcDbSymbolTableRecord
100
AcDbTextStyleTableRecord
  2
LiberationSans
 70
0
 40
0.0
 41
1.0
 50
0.0
 71
0
 42
2.5
  3
LiberationSans-Regular.ttf
  4

  0
STYLE
  5
4F
330
5
100
AcDbSymbolTableRecord
100
AcDbTextStyleTableRecord
  2
LiberationSans-Bold
 70
0
 40
0.0
 41
1.0
 50
0.0
 71
0
 42
2.5
  3
LiberationSans-Bold.ttf
  4

  0
STYLE
  5
50
330
5
100
AcDbSymbolTableRecord
100
AcDbTextStyleTableRecord
  2
LiberationSans-BoldItalic
 70
0
 40
0.0
 41
1.0
 50
0.0
 71
0
 42
2.5
  3
LiberationSans-BoldItalic.ttf
  4

  0
STYLE
  5
51
330
5
100
AcDbSymbolTableRecord
100
AcDbTextStyleTableRecord
  2
LiberationSans-Italic
 70
0
 40
0.0
 41
1.0
 50
0.0
 71
0
 42
2.5
  3
LiberationSans-Italic.ttf
  4

  0
STYLE
  5
52
330
5
100
AcDbSymbolTableRecord
100
AcDbTextStyleTableRecord
  2
LiberationSerif
 70
0
 40
0.0
 41
1.0
 50
0.0
 71
0
 42
2.5
  3
LiberationSerif-Regular.ttf
  4

  0
STYLE
  5
53
330
5
100
AcDbSymbolTableRecord
100
AcDbTextStyleTableRecord
  2
LiberationSerif-Bold
 70
0
 40
0.0
 41
1.0
 50
0.0
 71
0
 42
2.5
  3
LiberationSerif-Bold.ttf
  4

  0
STYLE
  5
54
330
5
100
AcDbSymbolTableRecord
100
AcDbTextStyleTableRecord
  2
LiberationSerif-BoldItalic
 70
0
 40
0.0
 41
1.0
 50
0.0
 71
0
 42
2.5
  3
LiberationSerif-BoldItalic.ttf
  4

  0
STYLE
  5
55
330
5
100
AcDbSymbolTableRecord
100
AcDbTextStyleTableRecord
  2
LiberationSerif-Italic
 70
0
 40
0.0
 41
1.0
 50
0.0
 71
0
 42
2.5
  3
LiberationSerif-Italic.ttf
  4

  0
STYLE
  5
56
330
5
100
AcDbSymbolTableRecord
100
AcDbTextStyleTableRecord
  2
LiberationMono
 70
0
 40
0.0
 41
1.0
 50
0.0
 71
0
 42
2.5
  3
LiberationMono-Regular.ttf
  4

  0
STYLE
  5
57
330
5
100
AcDbSymbolTableRecord
100
AcDbTextStyleTableRecord
  2
LiberationMono-Bold
 70
0
 40
0.0
 41
1.0
 50
0.0
 71
0
 42
2.5
  3
LiberationMono-Bold.ttf
  4

  0
STYLE
  5
58
330
5
100
AcDbSymbolTableRecord
100
AcDbTextStyleTableRecord
  2
LiberationMono-BoldItalic
 70
0
 40
0.0
 41
1.0
 50
0.0
 71
0
 42
2.5
  3
LiberationMono-BoldItalic.ttf
  4

  0
STYLE
  5
59
330
5
100
AcDbSymbolTableRecord
100
AcDbTextStyleTableRecord
  2
LiberationMono-Italic
 70
0
 40
0.0
 41
1.0
 50
0.0
 71
0
 42
2.5
  3
LiberationMono-Italic.ttf
  4

  0
ENDTAB
  0
TABLE
  2
VIEW
  5
7
330
0
100
AcDbSymbolTable
 70
0
  0
ENDTAB
  0
TABLE
  2
UCS
  5
6
330
0
100
AcDbSymbolTable
 70
0
  0
ENDTAB
  0
TABLE
  2
APPID
  5
3
330
0
100
AcDbSymbolTable
 70
3
  0
APPID
  5
2A
330
3
100
AcDbSymbolTableRecord
100
AcDbRegAppTableRecord
  2
ACAD
 70
0
  0
APPID
  5
90
330
3
100
AcDbSymbolTableRecord
100
AcDbRegAppTableRecord
  2
HATCHBACKGROUNDCOLOR
 70
0
  0
APPID
  5
91
330
3
100
AcDbSymbolTableRecord
100
AcDbRegAppTableRecord
  2
EZDXF
 70
0
  0
ENDTAB
  0
TABLE
  2
DIMSTYLE
  5
4
330
0
100
AcDbSymbolTable
 70
12
100
AcDbDimStyleTable
  0
DIMSTYLE
105
2B
330
4
100
AcDbSymbolTableRecord
100
AcDbDimStyleTableRecord
  2
Standard
 70
0
 40
1.0
 41
2.5
 42
0.625
 43
3.75
 44
1.25
 45
0.0
 46
0.0
 47
0.0
 48
0.0
 49
2.5
140
2.5
141
2.5
142
0.0
143
0.03937007874
144
1.0
145
0.0
146
1.0
147
0.625
148
0.0
 69
0
 70
0
 71
0
 72
0
 73
0
 74
0
 75
0
 76
0
 77
1
 78
8
 79
3
170
0
171
3
172
1
173
0
174
0
175
0
176
0
177
0
178
0
179
2
271
2
272
2
273
2
274
3
275
0
276
0
277
2
278
44
279
0
280
0
281
0
282
0
283
0
284
8
285
0
286
0
288
0
289
3
290
0
371
-2
372
-2
  0
DIMSTYLE
105
73
330
4
100
AcDbSymbolTableRecord
100
AcDbDimStyleTableRecord
  2
EZDXF
 70
0
 40
1.0
 41
0.175
 42
0.125
 43
3.75
 44
0.375
 45
0.0
 46
0.0
 47
0.0
 48
0.0
 49
2.5
140
0.25
141
2.5
142
0.0
143
0.03937007874
144
100.0
145
0.0
146
0.5
147
0.1
148
0.0
 69
0
 70
0
 71
0
 72
0
 73
0
 74
0
 75
0
 76
0
 77
1
 78
12
 79
3
170
0
171
3
172
1
173
0
174
0
175
0
176
0
177
0
178
0
179
2
271
2
272
2
273
2
274
3
275
0
276
0
277
2
278
46
279
2
280
0
281
0
282
0
283
0
284
8
285
0
286
0
288
1
289
3
290
0
340
4C
342
74
371
-2
372
-2
  0
DIMSTYLE
105
7C
330
4
100
AcDbSymbolTableRecord
100
AcDbDimStyleTableRecord
  2
EZ_M_100_H25_CM
 70
0
 40
1.0
 41
0.25
 42
0.125
 43
3.75
 44
0.375
 45
0.0
 46
0.0
 47
0.0
 48
0.0
 49
2.5
140
0.25
141
2.5
142
0.125
143
0.03937007874
144
100.0
145
0.0
146
0.5
147
0.1
148
0.0
 69
0
 70
0
 71
0
 72
0
 73
0
 74
0
 75
0
 76
0
 77
1
 78
12
 79
3
170
0
171
3
172
1
173
0
174
0
175
0
176
0
177
0
178
0
179
2
271
2
272
2
273
2
274
3
275
0
276
0
277
2
278
46
279
2
280
0
281
0
282
0
283
0
284
8
285
0
286
0
288
1
289
3
290
0
340
4C
371
-2
372
-2
  0
DIMSTYLE
105
7D
330
4
100
AcDbSymbolTableRecord
100
AcDbDimStyleTableRecord
  2
EZ_M_50_H25_CM
 70
0
 40
1.0
 41
0.125
 42
0.0625
 43
3.75
 44
0.1875
 45
0.0
 46
0.0
 47
0.0
 48
0.0
 49
2.5
140
0.125
141
2.5
142
0.0625
143
0.03937007874
144
100.0
145
0.0
146
0.5
147
0.05
148
0.0
 69
0
 70
0
 71
0
 72
0
 73
0
 74
0
 75
0
 76
0
 77
1
 78
12
 79
3
170
0
171
3
172
1
173
0
174
0
175
0
176
0
177
0
178
0
179
2
271
2
272
2
273
2
274
3
275
0
276
0
277
2
278
46
279
2
280
0
281
0
282
0
283
0
284
8
285
0
286
0
288
1
289
3
290
0
340
4C
371
-2
372
-2
  0
DIMSTYLE
105
7E
330
4
100
AcDbSymbolTableRecord
100
AcDbDimStyleTableRecord
  2
EZ_M_25_H25_CM
 70
0
 40
1.0
 41
0.0625
 42
0.03125
 43
3.75
 44
0.09375
 45
0.0
 46
0.0
 47
0.0
 48
0.0
 49
2.5
140
0.0625
141
2.5
142
0.03125
143
0.03937007874
144
100.0
145
0.0
146
0.5
147
0.025
148
0.0
 69
0
 70
0
 71
0
 72
0
 73
0
 74
0
 75
0
 76
0
 77
1
 78
12
 79
3
170
0
171
3
172
1
173
0
174
0
175
0
176
0
177
0
178
0
179
2
271
2
272
2
273
2
274
3
275
0
276
0
277
2
278
46
279
2
280
0
281
0
282
0
283
0
284
8
285
0
286
0
288
1
289
3
290
0
340
4C
371
-2
372
-2
  0
DIMSTYLE
105
7F
330
4
100
AcDbSymbolTableRecord
100
AcDbDimStyleTableRecord
  2
EZ_M_20_H25_CM
 70
0
 40
1.0
 41
0.05
 42
0.025
 43
3.75
 44
0.07500000000000001
 45
0.0
 46
0.0
 47
0.0
 48
0.0
 49
2.5
140
0.05
141
2.5
142
0.025
143
0.03937007874
144
100.0
145
0.0
146
0.5
147
0.020000000000000004
148
0.0
 69
0
 70
0
 71
0
 72
0
 73
0
 74
0
 75
0
 76
0
 77
1
 78
12
 79
3
170
0
171
3
172
1
173
0
174
0
175
0
176
0
177
0
178
0
179
2
271
2
272
2
273
2
274
3
275
0
276
0
277
2
278
46
279
2
280
0
281
0
282
0
283
0
284
8
285
0
286
0
288
1
289
3
290
0
340
4C
371
-2
372
-2
  0
DIMSTYLE
105
80
330
4
100
AcDbSymbolTableRecord
100
AcDbDimStyleTableRecord
  2
EZ_M_10_H25_CM
 70
0
 40
1.0
 41
0.025
 42
0.0125
 43
3.75
 44
0.037500000000000006
 45
0.0
 46
0.0
 47
0.0
 48
0.0
 49
2.5
140
0.025
141
2.5
142
0.0125
143
0.03937007874
144
100.0
145
0.0
146
0.5
147
0.010000000000000002
148
0.0
 69
0
 70
0
 71
0
 72
0
 73
0
 74
0
 75
0
 76
0
 77
1
 78
12
 79
3
170
0
171
3
172
1
173
0
174
0
175
0
176
0
177
0
178
0
179
2
271
2
272
2
273
2
274
3
275
0
276
0
277
2
278
46
279
2
280
0
281
0
282
0
283
0
284
8
285
0
286
0
288
1
289
3
290
0
340
4C
371
-2
372
-2
  0
DIMSTYLE
105
81
330
4
100
AcDbSymbolTableRecord
100
AcDbDimStyleTableRecord
  2
EZ_M_5_H25_CM
 70
0
 40
1.0
 41
0.0125
 42
0.00625
 43
3.75
 44
0.018750000000000003
 45
0.0
 46
0.0
 47
0.0
 48
0.0
 49
2.5
140
0.0125
141
2.5
142
0.00625
143
0.03937007874
144
100.0
145
0.0
146
0.5
147
0.005000000000000001
148
0.0
 69
0
 70
0
 71
0
 72
0
 73
0
 74
0
 75
0
 76
0
 77
1
 78
12
 79
3
170
0
171
3
172
1
173
0
174
0
175
0
176
0
177
0
178
0
179
2
271
2
272
2
273
2
274
3
275
0
276
0
277
2
278
46
279
2
280
0
281
0
282
0
283
0
284
8
285
0
286
0
288
1
289
3
290
0
340
4C
371
-2
372
-2
  0
DIMSTYLE
105
82
330
4
100
AcDbSymbolTableRecord
100
AcDbDimStyleTableRecord
  2
EZ_M_1_H25_CM
 70
0
 40
1.0
 41
0.0025
 42
0.00125
 43
3.75
 44
0.00375
 45
0.0
 46
0.0
 47
0.0
 48
0.0
 49
2.5
140
0.0025
141
2.5
142
0.00125
143
0.03937007874
144
100.0
145
0.0
146
0.5
147
0.001
148
0.0
 69
0
 70
0
 71
0
 72
0
 73
0
 74
0
 75
0
 76
0
 77
1
 78
12
 79
3
170
0
171
3
172
1
173
0
174
0
175
0
176
0
177
0
178
0
179
2
271
2
272
2
273
2
274
3
275
0
276
0
277
2
278
46
279
2
280
0
281
0
282
0
283
0
284
8
285
0
286
0
288
1
289
3
290
0
340
4C
371
-2
372
-2
  0
DIMSTYLE
105
83
330
4
100
AcDbSymbolTableRecord
100
AcDbDimStyleTableRecord
  2
EZ_RADIUS
 70
0
 40
1.0
 41
0.25
 42
0.125
 43
3.75
 44
0.375
 45
0.0
 46
0.0
 47
0.0
 48
0.0
 49
2.5
140
0.25
141
0.0
142
0.0
143
0.03937007874
144
100.0
145
0.0
146
0.5
147
0.1
148
0.0
 69
0
 70
0
 71
0
 72
0
 73
0
 74
0
 75
0
 76
0
 77
1
 78
12
 79
3
170
0
171
3
172
0
173
0
174
0
175
0
176
0
177
0
178
0
179
2
271
2
272
2
273
2
274
3
275
0
276
0
277
2
278
46
279
1
280
0
281
0
282
0
283
0
284
8
285
0
286
0
288
1
289
3
290
0
340
4C
342
84
371
-2
372
-2
  0
DIMSTYLE
105
88
330
4
100
AcDbSymbolTableRecord
100
AcDbDimStyleTableRecord
  2
EZ_RADIUS_INSIDE
 70
0
 40
1.0
 41
0.25
 42
0.125
 43
3.75
 44
0.375
 45
0.0
 46
0.0
 47
0.0
 48
0.0
 49
2.5
140
0.25
141
0.0
142
0.0
143
0.03937007874
144
100.0
145
0.0
146
0.5
147
0.1
148
0.0
 69
0
 70
0
 71
0
 72
0
 73
0
 74
0
 75
0
 76
0
 77
0
 78
12
 79
3
170
0
171
3
172
0
173
0
174
1
175
0
176
0
177
0
178
0
179
2
271
2
272
2
273
2
274
3
275
0
276
0
277
2
278
46
279
0
280
0
281
0
282
0
283
0
284
8
285
0
286
0
288
1
289
0
290
0
340
4C
342
84
371
-2
372
-2
  0
DIMSTYLE
105
89
330
4
100
AcDbSymbolTableRecord
100
AcDbDimStyleTableRecord
  2
EZ_CURVED
 70
0
 40
1.0
 41
0.25
 42
0.125
 43
3.75
 44
0.375
 45
0.0
 46
0.0
 47
0.0
 48
0.0
 49
2.5
140
0.25
141
2.5
142
0.0
143
0.03937007874
144
100.0
145
0.0
146
0.5
147
0.1
148
0.0
 69
0
 70
0
 71
0
 72
0
 73
0
 74
0
 75
0
 76
0
 77
1
 78
12
 79
2
 90
2
170
0
171
3
172
1
173
0
174
0
175
0
176
0
177
0
178
0
179
2
271
2
272
2
273
2
274
3
275
0
276
0
277
2
278
46
279
2
280
0
281
0
282
0
283
0
284
8
285
0
286
0
288
1
289
3
290
0
340
4C
371
-2
372
-2
  0
ENDTAB
  0
TABLE
  2
BLOCK_RECORD
  5
9
330
0
100
AcDbSymbolTable
 70
5
  0
BLOCK_RECORD
  5
17
330
9
100
AcDbSymbolTableRecord
100
AcDbBlockTableRecord
  2
*Model_Space
340
1A
 70
0
280
1
281
0
  0
BLOCK_RECORD
  5
1B
330
9
100
AcDbSymbolTableRecord
100
AcDbBlockTableRecord
  2
*Paper_Space
340
1E
 70
0
280
1
281
0
  0
BLOCK_RECORD
  5
74
330
9
100
AcDbSymbolTableRecord
100
AcDbBlockTableRecord
  2
_ARCHTICK
340
0
 70
0
280
1
281
0
  0
BLOCK_RECORD
  5
78
330
9
100
AcDbSymbolTableRecord
100
AcDbBlockTableRecord
  2
_CLOSEDFILLED
340
0
 70
0
280
1
281
0
  0
BLOCK_RECORD
  5
84
330
9
100
AcDbSymbolTableRecord
100
AcDbBlockTableRecord
  2
_CLOSEDBLANK
340
0
 70
0
280
1
281
0
  0
ENDTAB
  0
ENDSEC
  0
SECTION
  2
BLOCKS
  0
BLOCK
  5
18
330
17
100
AcDbEntity
  8
0
100
AcDbBlockBegin
  2
*Model_Space
 70
0
 10
0.0
 20
0.0
 30
0.0
  3
*Model_Space
  1

  0
ENDBLK
  5
19
330
17
100
AcDbEntity
  8
0
100
AcDbBlockEnd
  0
BLOCK
  5
1C
330
1B
100
AcDbEntity
  8
0
100
AcDbBlockBegin
  2
*Paper_Space
 70
0
 10
0.0
 20
0.0
 30
0.0
  3
*Paper_Space
  1

  0
ENDBLK
  5
1D
330
1B
100
AcDbEntity
  8
0
100
AcDbBlockEnd
  0
BLOCK
  5
75
330
74
100
AcDbEntity
  8
0
100
AcDbBlockBegin
  2
_ARCHTICK
 70
0
 10
0.0
 20
0.0
 30
0.0
  3
_ARCHTICK
  1

  0
LWPOLYLINE
  5
77
330
74
100
AcDbEntity
  8
0
  6
BYBLOCK
 62
0
100
AcDbPolyline
 90
2
 70
0
 43
0.15
 10
-0.5
 20
-0.5
 10
0.5
 20
0.5
  0
ENDBLK
  5
76
330
74
100
AcDbEntity
  8
0
100
AcDbBlockEnd
  0
BLOCK
  5
79
330
78
100
AcDbEntity
  8
0
100
AcDbBlockBegin
  2
_CLOSEDFILLED
 70
0
 10
0.0
 20
0.0
 30
0.0
  3
_CLOSEDFILLED
  1

  0
SOLID
  5
7B
330
78
100
AcDbEntity
  8
0
  6
BYBLOCK
 62
0
100
AcDbTrace
 10
-1.0
 20
0.16439898372402537
 30
0.0
 11
0.0
 21
0.0
 31
0.0
 12
-1.0
 22
-0.16439898372402537
 32
0.0
 13
-1.0
 23
-0.16439898372402537
 33
0.0
  0
ENDBLK
  5
7A
330
78
100
AcDbEntity
  8
0
100
AcDbBlockEnd
  0
BLOCK
  5
85
330
84
100
AcDbEntity
  8
0
100
AcDbBlockBegin
  2
_CLOSEDBLANK
 70
0
 10
0.0
 20
0.0
 30
0.0
  3
_CLOSEDBLANK
  1

  0
LWPOLYLINE
  5
87
330
84
100
AcDbEntity
  8
0
  6
BYBLOCK
 62
0
100
AcDbPolyline
 90
3
 70
1
 10
-1.0
 20
0.16439898372402537
 10
0.0
 20
0.0
 10
-1.0
 20
-0.16439898372402537
  0
ENDBLK
  5
86
330
84
100
AcDbEntity
  8
0
100
AcDbBlockEnd
  0
ENDSEC
  0
SECTION
  2
ENTITIES
  0
LWPOLYLINE
  5
8C
330
17
100
AcDbEntity
  8
CUT
100
AcDbPolyline
 90
595
 70
1
 10
110.81720937258238
 20
223.04418539368368
 10
110.8673051712149
 20
223.28445504768874
 10
110.91887429368983
 20
223.52441279664365
 10
110.97191479845885
 20
223.7640496062748
 10
111.02642468857697
 20
224.0033564543917
 10
111.0824019117776
 20
224.24232433122685
 10
111.13984436054992
 20
224.4809442397747
 10
111.19874987221824
 20
224.71920719613055
 10
111.2591162290233
 20
224.9571042298288
 10
111.32094115820591
 20
225.19462638418057
 10
111.38422233209242
 20
225.431764716611
 10
111.4489573681824
 20
225.66851029899593
 10
111.51514382923834
 20
225.90485421799795
 10
111.58277922337737
 20
226.1407875754021
 10
111.65186100416514
 20
226.37630148845088
 10
111.72238657071165
 20
226.61138709017848
 10
111.79435326776917
 20
226.84603552974494
 10
111.86775838583225
 20
227.0802379727691
 10
111.94259916123966
 20
227.3139856016614
 10
112.01887277627853
 20
227.54726961595566
 10
112.09657635929035
 20
227.7800812326406
 10
112.17570698477914
 20
228.0124116864905
 10
112.25626167352158
 20
228.24425223039506
 10
112.33823739267916
 20
228.4755941356888
 10
112.4216310559124
 20
228.70642869247976
 10
112.506439523497
 20
228.9367472099774
 10
112.5926596024421
 20
229.1665410168196
 10
112.68028804661044
 20
229.39580146139951
 10
112.76932155684065
 20
229.62451991219095
 10
112.85975678107138
 20
229.8526877580735
 10
112.95159031446754
 20
230.08029640865672
 10
113.04481869954853
 20
230.3073372946036
 10
113.13943842631832
 20
230.53380186795306
 10
113.23544593239768
 20
230.75968160244193
 10
113.33283760315828
 20
230.98496799382588
 10
113.43160977185877
 20
231.20965256019957
 10
113.5317587197828
 20
231.43372684231616
 10
113.6332806763791
 20
231.65718240390547
 10
113.73617181940338
 20
231.880010831992
 10
113.84042827506227
 20
232.10220373721128
 10
113.94604611815912
 20
232.32375275412608
 10
114.05302137224183
 20
232.5446495415411
 10
114.1613500097526
 20
232.76488578281717
 10
114.2710279521794
 20
232.98445318618425
 10
114.38205107020968
 20
233.20334348505375
 10
114.49441518388585
 20
233.4215484383296
 10
114.60811606276249
 20
233.63905983071862
 10
114.72314942606579
 20
233.85586947303992
 10
114.83951094285464
 20
234.07196920253287
 10
114.95719623218373
 20
234.2873508831649
 10
115.07620086326838
 20
234.50200640593744
 10
115.19652035565154
 20
234.71592768919135
 10
115.31815017937228
 20
234.92910667891127
 10
115.44108575513653
 20
235.1415353490287
 10
115.5653224544893
 20
235.35320570172428
 10
115.6908555999891
 20
235.56410976772887
 10
115.81768046538397
 20
235.77423960662358
 10
115.94579227578939
 20
235.98358730713875
 10
116.07518620786811
 20
236.1921449874518
 10
116.20585739001172
 20
236.39990479548388
 10
116.33780090252407
 20
236.60685890919572
 10
116.47101177780647
 20
236.81299953688185
 10
116.6054850005448
 20
237.0183189174642
 10
116.74121550789818
 20
237.22280932078408
 10
116.87819818968977
 20
237.42646304789344
 10
117.016427888599
 20
237.62927243134453
 10
117.1558994003558
 20
237.8312298354787
 10
117.29660747393666
 20
238.03232765671382
 10
117.43854681176205
 20
238.23255832383057
 10
117.58171206989621
 20
238.43191429825754
 10
117.72609785824802
 20
238.63038807435495
 10
117.8716987407742
 20
238.82797217969733
 10
118.0185092356838
 20
239.02465917535474
 10
118.16652381564467
 20
239.22044165617302
 10
118.31573690799151
 20
239.41531225105237
 10
118.46614289493574
 20
239.60926362322508
 10
118.617736113777
 20
239.80228847053158
 10
118.77051085711622
 20
239.99437952569545
 10
118.9244613730707
 20
240.1855295565971
 10
119.07958186549052
 20
240.3757313665458
 10
119.2358664941768
 20
240.56497779455103
 10
119.39330937510164
 20
240.75326171559166
 10
119.55190458062953
 20
240.94057604088448
 10
119.71164613974061
 20
241.12691371815106
 10
119.8725280382555
 20
241.31226773188314
 10
120.03454421906163
 20
241.4966311036069
 10
120.19768858234136
 20
241.67999689214548
 10
120.36195498580163
 20
241.86235819388074
 10
120.5273372449052
 20
242.04370814301262
 10
120.69382913310349
 20
242.22403991181812
 10
120.86142438207098
 20
242.403346710908
 10
121.03011668194132
 20
242.58162178948268
 10
121.19989968154472
 20
242.75885843558615
 10
121.37076698864725
 20
242.93504997635893
 10
121.54271217019134
 20
243.110189778289
 10
121.7157287525381
 20
243.2842712474619
 10
121.88981022171099
 20
243.45728782980865
 10
122.06495002364107
 20
243.62923301135274
 10
122.24114156441384
 20
243.80010031845526
 10
122.41837821051732
 20
243.96988331805866
 10
122.59665328909199
 20
244.138575617929
 10
122.77596008818188
 20
244.3061708668965
 10
122.95629185698736
 20
244.4726627550948
 10
123.13764180611926
 20
244.63804501419835
 10
123.32000310785449
 20
244.80231141765864
 10
123.50336889639311
 20
244.96545578093836
 10
123.68773226811685
 20
245.1274719617445
 10
123.87308628184891
 20
245.28835386025938
 10
124.05942395911552
 20
245.44809541937047
 10
124.24673828440834
 20
245.60669062489836
 10
124.43502220544896
 20
245.76413350582317
 10
124.62426863345416
 20
245.92041813450948
 10
124.81447044340293
 20
246.0755386269293
 10
125.00562047430455
 20
246.22948914288378
 10
125.19771152946842
 20
246.382263886223
 10
125.39073637677491
 20
246.53385710506424
 10
125.58468774894763
 20
246.6842630920085
 10
125.77955834382698
 20
246.83347618435533
 10
125.97534082464523
 20
246.9814907643162
 10
126.17202782030267
 20
247.1283012592258
 10
126.36961192564503
 20
247.27390214175196
 10
126.56808570174243
 20
247.4182879301038
 10
126.7674416761694
 20
247.56145318823792
 10
126.96767234328618
 20
247.70339252606334
 10
127.1687701645213
 20
247.84410059964418
 10
127.37072756865547
 20
247.983572111401
 10
127.57353695210654
 20
248.12180181031022
 10
127.77719067921592
 20
248.25878449210182
 10
127.9816810825358
 20
248.3945149994552
 10
128.18700046311812
 20
248.5289882221935
 10
128.3931410908043
 20
248.66219909747593
 10
128.6000952045161
 20
248.79414260998828
 10
128.8078550125482
 20
248.92481379213189
 10
129.01641269286122
 20
249.05420772421058
 10
129.22576039337642
 20
249.18231953461603
 10
129.43589023227113
 20
249.3091444000109
 10
129.64679429827572
 20
249.43467754551068
 10
129.85846465097129
 20
249.55891424486344
 10
130.07089332108873
 20
249.6818498206277
 10
130.28407231080863
 20
249.80347964434844
 10
130.49799359406254
 20
249.9237991367316
 10
130.7126491168351
 20
250.04280376781628
 10
130.9280307974671
 20
250.16048905714533
 10
131.14413052696008
 20
250.2768505739342
 10
131.36094016928132
 20
250.3918839372375
 10
131.57845156167042
 20
250.50558481611415
 10
131.79665651494625
 20
250.61794892979032
 10
132.01554681381572
 20
250.7289720478206
 10
132.2351142171828
 20
250.8386499902474
 10
132.4553504584589
 20
250.94697862775814
 10
132.67624724587392
 20
251.05395388184087
 10
132.8977962627887
 20
251.15957172493773
 10
133.11998916800803
 20
251.26382818059662
 10
133.3428175960945
 20
251.36671932362088
 10
133.56627315768384
 20
251.4682412802172
 10
133.79034743980037
 20
251.56839022814123
 10
134.01503200617412
 20
251.66716239684172
 10
134.24031839755807
 20
251.76455406760232
 10
134.46619813204694
 20
251.86056157368168
 10
134.6926627053964
 20
251.95518130045144
 10
134.91970359134328
 20
252.04840968553245
 10
135.1473122419265
 20
252.14024321892862
 10
135.37548008780902
 20
252.23067844315935
 10
135.60419853860049
 20
252.31971195338957
 10
135.83345898318038
 20
252.4073403975579
 10
136.0632527900226
 20
252.49356047650298
 10
136.2935713075202
 20
252.57836894408757
 10
136.5244058643112
 20
252.66176260732084
 10
136.75574776960494
 20
252.74373832647842
 10
136.98758831350946
 20
252.82429301522086
 10
137.2199187673594
 20
252.90342364070966
 10
137.45273038404434
 20
252.98112722372147
 10
137.68601439833859
 20
253.05740083876032
 10
137.91976202723086
 20
253.13224161416775
 10
138.15396447025506
 20
253.20564673223083
 10
138.3886129098215
 20
253.27761342928835
 10
138.62369851154912
 20
253.34813899583486
 10
138.85921242459784
 20
253.41722077662263
 10
139.09514578200205
 20
253.48485617076165
 10
139.33148970100405
 20
253.5510426318176
 10
139.56823528338896
 20
253.61577766790757
 10
139.80537361581943
 20
253.67905884179407
 10
140.04289577017119
 20
253.7408837709767
 10
140.28079280386945
 20
253.80125012778177
 10
140.51905576022529
 20
253.86015563945006
 10
140.75767566877317
 20
253.9175980882224
 10
140.9966435456083
 20
253.97357531142302
 10
141.2359503937252
 20
254.02808520154113
 10
141.47558720335633
 20
254.08112570631016
 10
141.71554495231126
 20
254.1326948287851
 10
141.95581460631632
 20
254.1827906274176
 10
142.19638711935485
 20
254.2314112161292
 10
142.43725343400777
 20
254.27855476438222
 10
142.67840448179436
 20
254.32421949724863
 10
142.91983118351405
 20
254.36840369547716
 10
143.16152444958794
 20
254.41110569555764
 10
143.40347518040122
 20
254.45232388978394
 10
143.64567426664553
 20
254.49205672631433
 10
143.88811258966226
 20
254.53030270922997
 10
144.1307810217855
 20
254.56706039859125
 10
144.37367042668603
 20
254.60232841049188
 10
144.61677165971494
 20
254.6361054171112
 10
144.86007556824825
 20
254.66839014676398
 10
145.10357299203136
 20
254.6991813839484
 10
145.3472547635238
 20
254.72847796939178
 10
145.59111170824468
 20
254.75627880009424
 10
145.8351346451178
 20
254.7825828293702
 10
146.07931438681757
 20
254.80738906688788
 10
146.32364174011468
 20
254.8306965787064
 10
146.5681075062224
 20
254.85250448731114
 10
146.81270248114276
 20
254.87281197164663
 10
147.0574174560133
 20
254.8916182671476
 10
147.30224321745342
 20
254.90892266576765
 10
147.54717054791163
 20
254.92472451600597
 10
147.79219022601242
 20
254.93902322293178
 10
148.03729302690328
 20
254.9518182482069
 10
148.28246972260234
 20
254.96310911010582
 10
148.52771108234563
 20
254.97289538353397
 10
148.77300787293453
 20
254.98117670004373
 10
149.0183508590835
 20
254.98795274784817
 10
149.2637308037678
 20
254.99322327183293
 10
149.50913846857117
 20
254.99698807356577
 10
149.75456461403382
 20
254.99924701130405
 10
150.0
 20
255.0
 10
150.24543538596618
 20
254.99924701130405
 10
150.4908615314288
 20
254.99698807356577
 10
150.7362691962322
 20
254.99322327183293
 10
150.9816491409165
 20
254.98795274784817
 10
151.22699212706544
 20
254.98117670004373
 10
151.47228891765437
 20
254.97289538353397
 10
151.71753027739763
 20
254.96310911010582
 10
151.96270697309672
 20
254.9518182482069
 10
152.20780977398758
 20
254.93902322293178
 10
152.45282945208834
 20
254.92472451600597
 10
152.69775678254655
 20
254.90892266576765
 10
152.94258254398667
 20
254.8916182671476
 10
153.1872975188572
 20
254.87281197164663
 10
153.43189249377758
 20
254.85250448731114
 10
153.6763582598853
 20
254.8306965787064
 10
153.9206856131824
 20
254.80738906688788
 10
154.16486535488218
 20
254.7825828293702
 10
154.40888829175532
 20
254.75627880009424
 10
154.65274523647616
 20
254.72847796939178
 10
154.8964270079686
 20
254.6991813839484
 10
155.13992443175172
 20
254.66839014676398
 10
155.38322834028503
 20
254.6361054171112
 10
155.62632957331394
 20
254.60232841049188
 10
155.8692189782145
 20
254.56706039859125
 10
156.11188741033774
 20
254.53030270922997
 10
156.35432573335444
 20
254.49205672631433
 10
156.59652481959878
 20
254.45232388978394
 10
156.83847555041206
 20
254.41110569555764
 10
157.08016881648595
 20
254.36840369547716
 10
157.3215955182056
 20
254.32421949724866
 10
157.56274656599223
 20
254.27855476438222
 10
157.80361288064512
 20
254.23141121612923
 10
158.04418539368368
 20
254.18279062741763
 10
158.28445504768874
 20
254.1326948287851
 10
158.52441279664367
 20
254.08112570631016
 10
158.7640496062748
 20
254.02808520154116
 10
159.0033564543917
 20
253.97357531142305
 10
159.24232433122683
 20
253.9175980882224
 10
159.4809442397747
 20
253.86015563945006
 10
159.71920719613055
 20
253.80125012778177
 10
159.9571042298288
 20
253.7408837709767
 10
160.19462638418057
 20
253.67905884179407
 10
160.431764716611
 20
253.6157776679076
 10
160.66851029899593
 20
253.5510426318176
 10
160.90485421799795
 20
253.48485617076167
 10
161.14078757540213
 20
253.41722077662263
 10
161.37630148845088
 20
253.34813899583486
 10
161.61138709017848
 20
253.27761342928835
 10
161.84603552974494
 20
253.20564673223083
 10
162.0802379727691
 20
253.13224161416775
 10
162.3139856016614
 20
253.05740083876034
 10
162.54726961595566
 20
252.98112722372147
 10
162.7800812326406
 20
252.90342364070966
 10
163.0124116864905
 20
252.82429301522086
 10
163.24425223039503
 20
252.74373832647842
 10
163.4755941356888
 20
252.66176260732084
 10
163.7064286924798
 20
252.5783689440876
 10
163.93674720997737
 20
252.493560476503
 10
164.1665410168196
 20
252.4073403975579
 10
164.39580146139951
 20
252.31971195338957
 10
164.62451991219095
 20
252.23067844315935
 10
164.8526877580735
 20
252.14024321892862
 10
165.08029640865672
 20
252.04840968553248
 10
165.3073372946036
 20
251.95518130045147
 10
165.53380186795306
 20
251.86056157368168
 10
165.7596816024419
 20
251.76455406760232
 10
165.98496799382585
 20
251.66716239684172
 10
166.2096525601996
 20
251.56839022814123
 10
166.43372684231616
 20
251.4682412802172
 10
166.65718240390547
 20
251.36671932362088
 10
166.88001083199197
 20
251.26382818059662
 10
167.10220373721128
 20
251.15957172493773
 10
167.32375275412608
 20
251.05395388184087
 10
167.5446495415411
 20
250.94697862775817
 10
167.76488578281717
 20
250.8386499902474
 10
167.98445318618425
 20
250.7289720478206
 10
168.20334348505375
 20
250.61794892979032
 10
168.42154843832958
 20
250.50558481611415
 10
168.63905983071865
 20
250.3918839372375
 10
168.8558694730399
 20
250.2768505739342
 10
169.07196920253287
 20
250.16048905714536
 10
169.2873508831649
 20
250.04280376781628
 10
169.50200640593744
 20
249.9237991367316
 10
169.71592768919135
 20
249.80347964434844
 10
169.92910667891127
 20
249.68184982062772
 10
170.14153534902871
 20
249.55891424486347
 10
170.35320570172428
 20
249.43467754551068
 10
170.56410976772887
 20
249.3091444000109
 10
170.77423960662355
 20
249.18231953461603
 10
170.98358730713875
 20
249.0542077242106
 10
171.1921449874518
 20
248.92481379213189
 10
171.39990479548388
 20
248.79414260998828
 10
171.6068589091957
 20
248.66219909747593
 10
171.81299953688185
 20
248.5289882221935
 10
172.0183189174642
 20
248.3945149994552
 10
172.22280932078408
 20
248.25878449210182
 10
172.42646304789344
 20
248.12180181031022
 10
172.62927243134453
 20
247.983572111401
 10
172.83122983547867
 20
247.8441005996442
 10
173.0323276567138
 20
247.70339252606337
 10
173.23255832383057
 20
247.56145318823792
 10
173.43191429825754
 20
247.4182879301038
 10
173.63038807435495
 20
247.273902141752
 10
173.82797217969733
 20
247.1283012592258
 10
174.02465917535477
 20
246.9814907643162
 10
174.22044165617302
 20
246.83347618435533
 10
174.41531225105237
 20
246.6842630920085
 10
174.60926362322508
 20
246.53385710506424
 10
174.80228847053155
 20
246.382263886223
 10
174.99437952569545
 20
246.22948914288378
 10
175.18552955659706
 20
246.0755386269293
 10
175.37573136654584
 20
245.92041813450948
 10
175.56497779455103
 20
245.7641335058232
 10
175.75326171559163
 20
245.60669062489836
 10
175.94057604088448
 20
245.44809541937047
 10
176.12691371815106
 20
245.28835386025938
 10
176.31226773188314
 20
245.1274719617445
 10
176.49663110360686
 20
244.96545578093838
 10
176.6799968921455
 20
244.80231141765864
 10
176.86235819388074
 20
244.63804501419835
 10
177.04370814301262
 20
244.4726627550948
 10
177.2240399118181
 20
244.30617086689654
 10
177.403346710908
 20
244.138575617929
 10
177.58162178948268
 20
243.9698833180587
 10
177.75885843558615
 20
243.80010031845526
 10
177.9350499763589
 20
243.62923301135277
 10
178.110189778289
 20
243.45728782980865
 10
178.2842712474619
 20
243.2842712474619
 10
178.45728782980865
 20
243.11018977828903
 10
178.62923301135277
 20
242.9350499763589
 10
178.80010031845526
 20
242.75885843558615
 10
178.96988331805866
 20
242.58162178948268
 10
179.138575617929
 20
242.40334671090804
 10
179.3061708668965
 20
242.22403991181812
 10
179.4726627550948
 20
242.04370814301265
 10
179.63804501419835
 20
241.86235819388074
 10
179.80231141765861
 20
241.6799968921455
 10
179.96545578093838
 20
241.4966311036069
 10
180.1274719617445
 20
241.31226773188314
 10
180.28835386025938
 20
241.1269137181511
 10
180.44809541937047
 20
240.94057604088448
 10
180.60669062489836
 20
240.75326171559166
 10
180.76413350582317
 20
240.56497779455103
 10
180.92041813450948
 20
240.37573136654584
 10
181.0755386269293
 20
240.1855295565971
 10
181.22948914288378
 20
239.99437952569545
 10
181.382263886223
 20
239.80228847053158
 10
181.53385710506424
 20
239.6092636232251
 10
181.6842630920085
 20
239.41531225105237
 10
181.83347618435533
 20
239.22044165617302
 10
181.9814907643162
 20
239.02465917535477
 10
182.1283012592258
 20
238.82797217969733
 10
182.27390214175196
 20
238.63038807435498
 10
182.4182879301038
 20
238.43191429825757
 10
182.56145318823792
 20
238.2325583238306
 10
182.70339252606334
 20
238.03232765671382
 10
182.84410059964418
 20
237.8312298354787
 10
182.983572111401
 20
237.62927243134453
 10
183.12180181031022
 20
237.42646304789346
 10
183.25878449210182
 20
237.22280932078408
 10
183.3945149994552
 20
237.0183189174642
 10
183.5289882221935
 20
236.81299953688188
 10
183.66219909747593
 20
236.6068589091957
 10
183.79414260998828
 20
236.3999047954839
 10
183.92481379213189
 20
236.1921449874518
 10
184.05420772421058
 20
235.98358730713878
 10
184.18231953461603
 20
235.77423960662358
 10
184.3091444000109
 20
235.56410976772887
 10
184.43467754551068
 20
235.3532057017243
 10
184.55891424486344
 20
235.14153534902871
 10
184.6818498206277
 20
234.92910667891127
 10
184.80347964434844
 20
234.71592768919137
 10
184.9237991367316
 20
234.50200640593746
 10
185.04280376781628
 20
234.2873508831649
 10
185.16048905714533
 20
234.0719692025329
 10
185.27685057393418
 20
233.85586947303992
 10
185.39188393723748
 20
233.63905983071868
 10
185.50558481611415
 20
233.4215484383296
 10
185.61794892979032
 20
233.20334348505375
 10
185.7289720478206
 20
232.98445318618428
 10
185.8386499902474
 20
232.7648857828172
 10
185.94697862775814
 20
232.5446495415411
 10
186.05395388184087
 20
232.32375275412608
 10
186.15957172493773
 20
232.1022037372113
 10
186.26382818059662
 20
231.88001083199197
 10
186.36671932362088
 20
231.6571824039055
 10
186.46824128021717
 20
231.43372684231616
 10
186.56839022814123
 20
231.20965256019963
 10
186.66716239684172
 20
230.98496799382588
 10
186.76455406760232
 20
230.75968160244193
 10
186.86056157368168
 20
230.53380186795306
 10
186.95518130045144
 20
230.30733729460363
 10
187.04840968553245
 20
230.08029640865672
 10
187.14024321892862
 20
229.8526877580735
 10
187.23067844315935
 20
229.62451991219098
 10
187.31971195338957
 20
229.39580146139951
 10
187.4073403975579
 20
229.16654101681962
 10
187.49356047650298
 20
228.9367472099774
 10
187.57836894408757
 20
228.7064286924798
 10
187.66176260732084
 20
228.4755941356888
 10
187.74373832647842
 20
228.24425223039506
 10
187.82429301522086
 20
228.01241168649054
 10
187.90342364070966
 20
227.7800812326406
 10
187.98112722372147
 20
227.54726961595566
 10
188.05740083876032
 20
227.31398560166141
 10
188.13224161416775
 20
227.08023797276914
 10
188.20564673223083
 20
226.84603552974494
 10
188.27761342928835
 20
226.6113870901785
 10
188.34813899583486
 20
226.37630148845088
 10
188.41722077662263
 20
226.14078757540216
 10
188.48485617076165
 20
225.90485421799795
 10
188.5510426318176
 20
225.66851029899595
 10
188.61577766790757
 20
225.43176471661104
 10
220.00956940335732
 20
110.14465553812708
 10
220.00980785280404
 20
110.1437035945747
 10
220.00995184726673
 20
110.14273286275784
 10
220.01
 20
110.14175269135454
 10
220.00995314061015
 20
110.14079884656145
 10
114.27621079692565
 20
120.27363867471274
 10
114.1770155578381
 20
120.2832280495141
 10
114.07783638315405
 20
120.29298217047426
 10
113.97867354648821
 20
120.30290101068363
 10
113.87952732141024
 20
120.31298454277818
 10
113.78039798144394
 20
120.32323273893958
 10
113.68128580006658
 20
120.33364557089516
 10
113.58219105070803
 20
120.34422300991808
 10
113.48311400675013
 20
120.35496502682739
 10
113.38405494152585
 20
120.36587159198811
 10
113.28501412831852
 20
120.37694267531128
 10
113.1859918403612
 20
120.38817824625409
 10
113.08698835083575
 20
120.39957827381991
 10
112.98800393287226
 20
120.41114272655847
 10
112.88903885954812
 20
120.42287157256584
 10
112.79009340388743
 20
120.43476477948457
 10
112.6911678388601
 20
120.44682231450378
 10
112.59226243738121
 20
120.45904414435921
 10
112.4933774723102
 20
120.47143023533339
 10
112.39451321645012
 20
120.48398055325568
 10
112.29566994254694
 20
120.49669506350236
 10
112.19684792328864
 20
120.50957373099672
 10
112.09804743130468
 20
120.52261652020923
 10
111.99926873916505
 20
120.53582339515751
 10
111.90051211937963
 20
120.54919431940654
 10
111.8017778443974
 20
120.56272925606874
 10
111.7030661866057
 20
120.57642816780404
 10
111.60437741832948
 20
120.59029101681995
 10
111.50571181183054
 20
120.60431776487178
 10
111.40706963930674
 20
120.61850837326267
 10
111.30845117289137
 20
120.63286280284365
 10
111.20985668465225
 20
120.64738101401383
 10
111.1112864465911
 20
120.66206296672048
 10
111.01274073064268
 20
120.67690862045919
 10
110.91421980867415
 20
120.69191793427383
 10
110.81572395248425
 20
120.70709086675686
 10
110.71725343380257
 20
120.7224273760493
 10
110.61880852428881
 20
120.7379274198409
 10
110.52038949553199
 20
120.7535909553703
 10
110.42199661904976
 20
120.76941793942504
 10
110.32363016628761
 20
120.78540832834173
 10
110.22529040861814
 20
120.80156207800624
 10
110.12697761734029
 20
120.81787914385376
 10
110.02869206367859
 20
120.83435948086884
 10
109.93043401878249
 20
120.8510030435857
 10
109.83220375372548
 20
120.8678097860882
 10
109.73400153950445
 20
120.88477966201003
 10
109.6358276470389
 20
120.90191262453482
 10
109.53768234717016
 20
120.91920862639631
 10
109.43956591066073
 20
120.93666761987839
 10
109.34147860819347
 20
120.95428955681537
 10
109.24342071037084
 20
120.97207438859195
 10
109.14539248771419
 20
120.99002206614352
 10
109.04739421066301
 20
121.00813253995614
 10
108.9494261495742
 20
121.02640576006678
 10
108.85148857472123
 20
121.04484167606341
 10
108.75358175629354
 20
121.06344023708522
 10
108.65570596439566
 20
121.0822013918226
 10
108.55786146904659
 20
121.10112508851742
 10
108.4600485401789
 20
121.12021127496318
 10
108.36226744763817
 20
121.13945989850502
 10
108.26451846118208
 20
121.15887090604002
 10
108.16680185047977
 20
121.17844424401721
 10
108.06911788511107
 20
121.19817985843787
 10
107.9714668345657
 20
121.21807769485548
 10
107.87384896824264
 20
121.23813769837608
 10
107.77626455544926
 20
121.2583598136583
 10
107.67871386540068
 20
121.27874398491352
 10
107.58119716721897
 20
121.29929015590604
 10
107.48371472993244
 20
121.31999826995325
 10
107.38626682247485
 20
121.34086826992576
 10
107.28885371368474
 20
121.36190009824762
 10
107.19147567230459
 20
121.38309369689632
 10
107.09413296698021
 20
121.40444900740319
 10
106.99682586625985
 20
121.42596597085333
 10
106.8995546385936
 20
121.44764452788593
 10
106.80231955233255
 20
121.46948461869437
 10
106.70512087572806
 20
121.49148618302632
 10
106.60795887693112
 20
121.51364916018412
 10
106.51083382399143
 20
121.53597348902466
 10
106.41374598485686
 20
121.5584591079598
 10
106.31669562737257
 20
121.58110595495637
 10
106.21968301928031
 20
121.60391396753641
 10
106.12270842821769
 20
121.6268830827774
 10
106.02577212171745
 20
121.6500132373123
 10
105.92887436720672
 20
121.6733043673298
 10
105.83201543200624
 20
121.69675640857457
 10
105.7351955833297
 20
121.72036929634726
 10
105.63841508828291
 20
121.74414296550484
 10
105.54167421386315
 20
121.76807735046069
 10
105.44497322695837
 20
121.79217238518481
 10
105.3483123943465
 20
121.81642800320404
 10
105.25169198269467
 20
121.84084413760213
 10
105.1551122585585
 20
121.86542072102009
 10
105.0585734883814
 20
121.89015768565619
 10
104.96207593849375
 20
121.91505496326633
 10
104.86561987511223
 20
121.94011248516406
 10
104.76920556433906
 20
121.9653301822209
 10
104.6728332721613
 20
121.99070798486648
 10
104.57650326445003
 20
122.0162458230887
 10
104.48021580695975
 20
122.04194362643398
 10
104.38397116532752
 20
122.0678013240074
 10
104.28776960507231
 20
122.09381884447299
 10
104.19161139159421
 20
122.11999611605381
 10
104.09549679017374
 20
122.1463330665322
 10
103.99942606597112
 20
122.17282962324998
 10
103.90339948402548
 20
122.19948571310866
 10
103.80741730925423
 20
122.22630126256965
 10
103.7114798064522
 20
122.25327619765442
 10
103.61558724029105
 20
122.2804104439447
 10
103.5197398753184
 20
122.3077039265828
 10
103.42393797595722
 20
122.33515657027164
 10
103.32818180650503
 20
122.36276829927507
 10
103.2324716311332
 20
122.39053903741811
 10
103.1368077138862
 20
122.41846870808703
 10
103.04119031868089
 20
122.44655723422969
 10
102.94561970930579
 20
122.4748045383557
 10
102.85009614942034
 20
122.5032105425366
 10
102.75461990255417
 20
122.53177516840614
 10
102.65919123210642
 20
122.56049833716045
 10
102.56381040134494
 20
122.58937996955831
 10
102.4684776734056
 20
122.61841998592124
 10
102.37319331129159
 20
122.64761830613392
 10
102.27795757787266
 20
122.67697484964424
 10
102.18277073588438
 20
122.70648953546359
 10
102.08763304792748
 20
122.7361622821671
 10
101.99254477646704
 20
122.76599300789384
 10
101.89750618383188
 20
122.79598163034703
 10
101.80251753221364
 20
122.82612806679427
 10
101.70757908366633
 20
122.85643223406785
 10
101.61269110010537
 20
122.88689404856486
 10
101.51785384330697
 20
122.91751342624747
 10
101.42306757490742
 20
122.9482902826432
 10
101.32833255640232
 20
122.97922453284508
 10
101.2336490491459
 20
123.01031609151198
 10
101.13901731435024
 20
123.04156487286873
 10
101.04443761308467
 20
123.07297079070645
 10
100.94991020627488
 20
123.10453375838273
 10
100.85543535470237
 20
123.13625368882191
 10
100.76101331900358
 20
123.16813049451528
 10
100.6666443596693
 20
123.2001640875214
 10
100.57232873704388
 20
123.23235437946622
 10
100.47806671132449
 20
123.2647012815434
 10
100.38385854256046
 20
123.2972047045146
 10
100.28970449065255
 20
123.3298645587096
 10
100.19560481535223
 20
123.36268075402667
 10
100.10155977626091
 20
123.39565319993275
 10
100.00756963282933
 20
123.42878180546371
 10
99.91363464435675
 20
123.46206647922463
 10
99.81975506999026
 20
123.49550712939
 10
99.72593116872409
 20
123.529103663704
 10
99.6321631993989
 20
123.56285598948082
 10
90.84684408560722
 20
126.7334265257496
  0
CIRCLE
  5
8D
330
17
100
AcDbEntity
  8
CUT
100
AcDbCircle
 10
150.0
 20
215.0
 30
0.0
 40
14.0
  0
TEXT
  5
8E
330
17
100
AcDbEntity
  8
MARK
100
AcDbText
 10
151.96354616707336
 20
171.8667244399953
 30
0.0
 40
8.0
  1
A5 斗缸耳板
100
AcDbText
  0
TEXT
  5
8F
330
17
100
AcDbEntity
  8
MARK
100
AcDbText
 10
151.96354616707336
 20
160.6667244399953
 30
0.0
 40
8.0
  1
t12  x2  Q355B
100
AcDbText
  0
ENDSEC
  0
SECTION
  2
OBJECTS
  0
DICTIONARY
  5
A
330
0
100
AcDbDictionary
281
1
  3
ACAD_COLOR
350
B
  3
ACAD_GROUP
350
C
  3
ACAD_LAYOUT
350
D
  3
ACAD_MATERIAL
350
E
  3
ACAD_MLEADERSTYLE
350
F
  3
ACAD_MLINESTYLE
350
10
  3
ACAD_PLOTSETTINGS
350
11
  3
ACAD_PLOTSTYLENAME
350
12
  3
ACAD_SCALELIST
350
14
  3
ACAD_TABLESTYLE
350
15
  3
ACAD_VISUALSTYLE
350
16
  3
EZDXF_META
350
2D
  0
DICTIONARY
  5
B
330
A
100
AcDbDictionary
281
1
  0
DICTIONARY
  5
C
330
A
100
AcDbDictionary
281
1
  0
DICTIONARY
  5
D
330
A
100
AcDbDictionary
281
1
  3
Model
350
1A
  3
Layout1
350
1E
  0
DICTIONARY
  5
E
330
A
100
AcDbDictionary
281
1
  3
ByBlock
350
1F
  3
ByLayer
350
20
  3
Global
350
21
  0
DICTIONARY
  5
F
330
A
100
AcDbDictionary
281
1
  3
Standard
350
2C
  0
DICTIONARY
  5
10
330
A
100
AcDbDictionary
281
1
  3
Standard
350
22
  0
DICTIONARY
  5
11
330
A
100
AcDbDictionary
281
1
  0
ACDBDICTIONARYWDFLT
  5
12
330
A
100
AcDbDictionary
281
1
  3
Normal
350
13
100
AcDbDictionaryWithDefault
340
13
  0
ACDBPLACEHOLDER
  5
13
330
12
  0
DICTIONARY
  5
14
330
A
100
AcDbDictionary
281
1
  0
DICTIONARY
  5
15
330
A
100
AcDbDictionary
281
1
  0
DICTIONARY
  5
16
330
A
100
AcDbDictionary
281
1
  3
2dWireframe
350
5A
  3
Basic
350
5B
  3
Brighten
350
5C
  3
ColorChange
350
5D
  3
Conceptual
350
5E
  3
Dim
350
5F
  3
EdgeColorOff
350
60
  3
Facepattern
350
61
  3
Flat
350
62
  3
FlatWithEdges
350
63
  3
Gouraud
350
64
  3
GouraudWithEdges
350
65
  3
Hidden
350
66
  3
JitterOff
350
67
  3
Linepattern
350
68
  3
Modeling
350
69
  3
OverhangOff
350
6A
  3
Realistic
350
6B
  3
Shaded
350
6C
  3
Shaded with edges
350
6D
  3
Shades of Gray
350
6E
  3
Sketchy
350
6F
  3
Thicken
350
70
  3
Wireframe
350
71
  3
X-Ray
350
72
  0
LAYOUT
  5
1A
330
D
100
AcDbPlotSettings
  1

  4
A3
  6

 40
7.5
 41
20.0
 42
7.5
 43
20.0
 44
420.0
 45
297.0
 46
0.0
 47
0.0
 48
0.0
 49
0.0
140
0.0
141
0.0
142
1.0
143
1.0
 70
1024
 72
1
 73
0
 74
5
  7

 75
16
 76
0
 77
2
 78
300
147
1.0
148
0.0
149
0.0
100
AcDbLayout
  1
Model
 70
1
 71
0
 10
0.0
 20
0.0
 11
420.0
 21
297.0
 12
0.0
 22
0.0
 32
0.0
 14
1e+20
 24
1e+20
 34
1e+20
 15
-1e+20
 25
-1e+20
 35
-1e+20
146
0.0
 13
0.0
 23
0.0
 33
0.0
 16
1.0
 26
0.0
 36
0.0
 17
0.0
 27
1.0
 37
0.0
 76
1
330
17
  0
LAYOUT
  5
1E
330
D
100
AcDbPlotSettings
  1

  4
A3
  6

 40
7.5
 41
20.0
 42
7.5
 43
20.0
 44
420.0
 45
297.0
 46
0.0
 47
0.0
 48
0.0
 49
0.0
140
0.0
141
0.0
142
1.0
143
1.0
 70
0
 72
1
 73
0
 74
5
  7

 75
16
 76
0
 77
2
 78
300
147
1.0
148
0.0
149
0.0
100
AcDbLayout
  1
Layout1
 70
1
 71
1
 10
0.0
 20
0.0
 11
420.0
 21
297.0
 12
0.0
 22
0.0
 32
0.0
 14
1e+20
 24
1e+20
 34
1e+20
 15
-1e+20
 25
-1e+20
 35
-1e+20
146
0.0
 13
0.0
 23
0.0
 33
0.0
 16
1.0
 26
0.0
 36
0.0
 17
0.0
 27
1.0
 37
0.0
 76
1
330
1B
  0
MATERIAL
  5
1F
102
{ACAD_REACTORS
330
E
102
}
330
E
100
AcDbMaterial
  1
ByBlock
  2

 70
0
 40
1.0
 71
1
 41
1.0
 91
-1023410177
 42
1.0
 72
1
  3

 73
1
 74
1
 75
1
 44
0.5
 73
0
 45
1.0
 46
1.0
 77
1
  4

 78
1
 79
1
170
1
 48
1.0
171
1
  6

172
1
173
1
174
1
140
1.0
141
1.0
175
1
  7

176
1
177
1
178
1
143
1.0
179
1
  8

270
1
271
1
272
1
145
1.0
146
1.0
273
1
  9

274
1
275
1
276
1
 42
1.0
 72
1
  3

 73
1
 74
1
 75
1
 94
63
  0
MATERIAL
  5
20
102
{ACAD_REACTORS
330
E
102
}
330
E
100
AcDbMaterial
  1
ByLayer
  2

 70
0
 40
1.0
 71
1
 41
1.0
 91
-1023410177
 42
1.0
 72
1
  3

 73
1
 74
1
 75
1
 44
0.5
 73
0
 45
1.0
 46
1.0
 77
1
  4

 78
1
 79
1
170
1
 48
1.0
171
1
  6

172
1
173
1
174
1
140
1.0
141
1.0
175
1
  7

176
1
177
1
178
1
143
1.0
179
1
  8

270
1
271
1
272
1
145
1.0
146
1.0
273
1
  9

274
1
275
1
276
1
 42
1.0
 72
1
  3

 73
1
 74
1
 75
1
 94
63
  0
MATERIAL
  5
21
102
{ACAD_REACTORS
330
E
102
}
330
E
100
AcDbMaterial
  1
Global
  2

 70
0
 40
1.0
 71
1
 41
1.0
 91
-1023410177
 42
1.0
 72
1
  3

 73
1
 74
1
 75
1
 44
0.5
 73
0
 45
1.0
 46
1.0
 77
1
  4

 78
1
 79
1
170
1
 48
1.0
171
1
  6

172
1
173
1
174
1
140
1.0
141
1.0
175
1
  7

176
1
177
1
178
1
143
1.0
179
1
  8

270
1
271
1
272
1
145
1.0
146
1.0
273
1
  9

274
1
275
1
276
1
 42
1.0
 72
1
  3

 73
1
 74
1
 75
1
 94
63
  0
MLINESTYLE
  5
22
102
{ACAD_REACTORS
330
10
102
}
330
10
100
AcDbMlineStyle
  2
Standard
 70
0
  3

 62
256
 51
90.0
 52
90.0
 71
2
 49
0.5
 62
256
  6
BYLAYER
 49
-0.5
 62
256
  6
BYLAYER
  0
MLEADERSTYLE
  5
2C
102
{ACAD_REACTORS
330
F
102
}
330
F
100
AcDbMLeaderStyle
179
2
170
2
171
1
172
0
 90
2
 40
0.0
 41
0.0
173
1
 91
-1056964608
 92
-2
290
1
 42
2.0
291
1
 43
8.0
  3
Standard
 44
4.0
300

342
29
174
1
175
1
176
0
178
1
 93
-1056964608
 45
4.0
292
0
297
0
 46
4.0
 94
-1056964608
 47
1.0
 49
1.0
140
1.0
294
1
141
0.0
177
0
142
1.0
295
0
296
0
143
3.75
271
0
272
9
273
9
  0
DICTIONARY
  5
2D
330
A
100
AcDbDictionary
280
1
281
1
  3
CREATED_BY_EZDXF
350
2E
  3
WRITTEN_BY_EZDXF
350
92
  0
DICTIONARYVAR
  5
2E
330
2D
100
DictionaryVariables
280
0
  1
1.4.4 @ 2026-09-24T16:56:56.541092+00:00
  0
VISUALSTYLE
  5
5A
102
{ACAD_REACTORS
330
16
102
}
330
16
100
AcDbVisualStyle
  2
2dWireframe
 70
4
 90
0
 40
0.6
 62
7
290
0
291
0
  0
VISUALSTYLE
  5
5B
102
{ACAD_REACTORS
330
16
102
}
330
16
100
AcDbVisualStyle
  2
Basic
 70
7
 90
1
 40
0.6
 62
7
290
0
291
1
  0
VISUALSTYLE
  5
5C
102
{ACAD_REACTORS
330
16
102
}
330
16
100
AcDbVisualStyle
  2
Brighten
 70
12
 90
2
 40
0.6
 62
7
290
0
291
1
  0
VISUALSTYLE
  5
5D
102
{ACAD_REACTORS
330
16
102
}
330
16
100
AcDbVisualStyle
  2
ColorChange
 70
16
 90
2
 40
0.6
 62
8
290
0
291
1
  0
VISUALSTYLE
  5
5E
102
{ACAD_REACTORS
330
16
102
}
330
16
100
AcDbVisualStyle
  2
Conceptual
 70
9
 90
3
 40
0.6
 62
7
290
0
291
0
  0
VISUALSTYLE
  5
5F
102
{ACAD_REACTORS
330
16
102
}
330
16
100
AcDbVisualStyle
  2
Dim
 70
11
 90
2
 40
0.6
 62
7
290
0
291
1
  0
VISUALSTYLE
  5
60
102
{ACAD_REACTORS
330
16
102
}
330
16
100
AcDbVisualStyle
  2
EdgeColorOff
 70
22
 90
2
 40
0.6
 62
7
290
0
291
1
  0
VISUALSTYLE
  5
61
102
{ACAD_REACTORS
330
16
102
}
330
16
100
AcDbVisualStyle
  2
Facepattern
 70
15
 90
2
 40
0.6
 62
7
290
0
291
1
  0
VISUALSTYLE
  5
62
102
{ACAD_REACTORS
330
16
102
}
330
16
100
AcDbVisualStyle
  2
Flat
 70
0
 90
2
 40
0.6
 62
7
290
0
291
1
  0
VISUALSTYLE
  5
63
102
{ACAD_REACTORS
330
16
102
}
330
16
100
AcDbVisualStyle
  2
FlatWithEdges
 70
1
 90
2
 40
0.6
 62
7
290
0
291
1
  0
VISUALSTYLE
  5
64
102
{ACAD_REACTORS
330
16
102
}
330
16
100
AcDbVisualStyle
  2
Gouraud
 70
2
 90
2
 40
0.6
 62
7
290
0
291
1
  0
VISUALSTYLE
  5
65
102
{ACAD_REACTORS
330
16
102
}
330
16
100
AcDbVisualStyle
  2
GouraudWithEdges
 70
3
 90
2
 40
0.6
 62
7
290
0
291
1
  0
VISUALSTYLE
  5
66
102
{ACAD_REACTORS
330
16
102
}
330
16
100
AcDbVisualStyle
  2
Hidden
 70
6
 90
1
 40
0.6
 62
7
290
0
291
0
  0
VISUALSTYLE
  5
67
102
{ACAD_REACTORS
330
16
102
}
330
16
100
AcDbVisualStyle
  2
JitterOff
 70
20
 90
2
 40
0.6
 62
7
290
0
291
1
  0
VISUALSTYLE
  5
68
102
{ACAD_REACTORS
330
16
102
}
330
16
100
AcDbVisualStyle
  2
Linepattern
 70
14
 90
2
 40
0.6
 62
7
290
0
291
1
  0
VISUALSTYLE
  5
69
102
{ACAD_REACTORS
330
16
102
}
330
16
100
AcDbVisualStyle
  2
Modeling
 70
10
 90
2
 40
0.6
 62
7
290
0
291
0
  0
VISUALSTYLE
  5
6A
102
{ACAD_REACTORS
330
16
102
}
330
16
100
AcDbVisualStyle
  2
OverhangOff
 70
21
 90
2
 40
0.6
 62
7
290
0
291
1
  0
VISUALSTYLE
  5
6B
102
{ACAD_REACTORS
330
16
102
}
330
16
100
AcDbVisualStyle
  2
Realistic
 70
8
 90
2
 40
0.6
 62
7
290
0
291
0
  0
VISUALSTYLE
  5
6C
102
{ACAD_REACTORS
330
16
102
}
330
16
100
AcDbVisualStyle
  2
Shaded
 70
27
 90
2
 40
0.6
 62
7
290
0
291
0
  0
VISUALSTYLE
  5
6D
102
{ACAD_REACTORS
330
16
102
}
330
16
100
AcDbVisualStyle
  2
Shaded with edges
 70
26
 90
2
 40
0.6
 62
7
290
0
291
0
  0
VISUALSTYLE
  5
6E
102
{ACAD_REACTORS
330
16
102
}
330
16
100
AcDbVisualStyle
  2
Shades of Gray
 70
23
 90
2
 40
0.6
 62
7
290
0
291
0
  0
VISUALSTYLE
  5
6F
102
{ACAD_REACTORS
330
16
102
}
330
16
100
AcDbVisualStyle
  2
Sketchy
 70
24
 90
1
 40
0.6
 62
7
290
0
291
0
  0
VISUALSTYLE
  5
70
102
{ACAD_REACTORS
330
16
102
}
330
16
100
AcDbVisualStyle
  2
Thicken
 70
13
 90
2
 40
0.6
 62
7
290
0
291
1
  0
VISUALSTYLE
  5
71
102
{ACAD_REACTORS
330
16
102
}
330
16
100
AcDbVisualStyle
  2
Wireframe
 70
5
 90
0
 40
0.6
 62
7
290
0
291
0
  0
VISUALSTYLE
  5
72
102
{ACAD_REACTORS
330
16
102
}
330
16
100
AcDbVisualStyle
  2
X-Ray
 70
25
 90
2
 40
0.5
 62
7
290
0
291
0
  0
DICTIONARYVAR
  5
92
330
2D
100
DictionaryVariables
280
0
  1
1.4.4 @ 2026-09-24T16:56:56.550629+00:00
  0
ENDSEC
  0
EOF
