  0
SECTION
  2
HEADER
  9
$ACADVER
  1
AC1024
  9
$ACADMAINTVER
 70
6
  9
$DWGCODEPAGE
  3
ANSI_1252
  9
$LASTSAVEDBY
  1
ezdxf
  9
$INSBASE
 10
0.0
 20
0.0
 30
0.0
  9
$EXTMIN
 10
1e+20
 20
1e+20
 30
1e+20
  9
$EXTMAX
 10
-1e+20
 20
-1e+20
 30
-1e+20
  9
$LIMMIN
 10
0.0
 20
0.0
  9
$LIMMAX
 10
420.0
 20
297.0
  9
$ORTHOMODE
 70
0
  9
$REGENMODE
 70
1
  9
$FILLMODE
 70
1
  9
$QTEXTMODE
 70
0
  9
$MIRRTEXT
 70
1
  9
$LTSCALE
 40
1.0
  9
$ATTMODE
 70
1
  9
$TEXTSIZE
 40
2.5
  9
$TRACEWID
 40
1.0
  9
$TEXTSTYLE
  7
OpenSans
  9
$CLAYER
  8
0
  9
$CELTYPE
  6
ByLayer
  9
$CECOLOR
 62
256
  9
$CELTSCALE
 40
1.0
  9
$DISPSILH
 70
0
  9
$DIMSCALE
 40
1.0
  9
$DIMASZ
 40
0.175
  9
$DIMEXO
 40
0.125
  9
$DIMDLI
 40
3.75
  9
$DIMRND
 40
0.0
  9
$DIMDLE
 40
0.0
  9
$DIMEXE
 40
0.375
  9
$DIMTP
 40
0.0
  9
$DIMTM
 40
0.0
  9
$DIMTXT
 40
0.25
  9
$DIMCEN
 40
2.5
  9
$DIMTSZ
 40
0.0
  9
$DIMTOL
 70
0
  9
$DIMLIM
 70
0
  9
$DIMTIH
 70
0
  9
$DIMTOH
 70
0
  9
$DIMSE1
 70
0
  9
$DIMSE2
 70
0
  9
$DIMTAD
 70
1
  9
$DIMZIN
 70
12
  9
$DIMBLK
  1
ARCHTICK
  9
$DIMASO
 70
1
  9
$DIMSHO
 70
1
  9
$DIMPOST
  1

  9
$DIMAPOST
  1

  9
$DIMALT
 70
0
  9
$DIMALTD
 70
3
  9
$DIMALTF
 40
0.03937007874
  9
$DIMLFAC
 40
100.0
  9
$DIMTOFL
 70
1
  9
$DIMTVP
 40
0.0
  9
$DIMTIX
 70
0
  9
$DIMSOXD
 70
0
  9
$DIMSAH
 70
0
  9
$DIMBLK1
  1

  9
$DIMBLK2
  1

  9
$DIMSTYLE
  2
EZDXF
  9
$DIMCLRD
 70
0
  9
$DIMCLRE
 70
0
  9
$DIMCLRT
 70
0
  9
$DIMTFAC
 40
0.5
  9
$DIMGAP
 40
0.1
  9
$DIMJUST
 70
0
  9
$DIMSD1
 70
0
  9
$DIMSD2
 70
0
  9
$DIMTOLJ
 70
0
  9
$DIMTZIN
 70
8
  9
$DIMALTZ
 70
0
  9
$DIMALTTZ
 70
0
  9
$DIMUPT
 70
1
  9
$DIMDEC
 70
2
  9
$DIMTDEC
 70
2
  9
$DIMALTU
 70
2
  9
$DIMALTTD
 70
3
  9
$DIMTXSTY
  7
OpenSansCondensed-Light
  9
$DIMAUNIT
 70
0
  9
$DIMADEC
 70
2
  9
$DIMALTRND
 40
0.0
  9
$DIMAZIN
 70
3
  9
$DIMDSEP
 70
46
  9
$DIMATFIT
 70
3
  9
$DIMFRAC
 70
0
  9
$DIMLDRBLK
  1

  9
$DIMLUNIT
 70
2
  9
$DIMLWD
 70
-2
  9
$DIMLWE
 70
-2
  9
$DIMTMOVE
 70
2
  9
$DIMFXL
 40
1.0
  9
$DIMFXLON
 70
0
  9
$DIMJOGANG
 40
0.785398163397
  9
$DIMTFILL
 70
0
  9
$DIMTFILLCLR
 70
0
  9
$DIMARCSYM
 70
0
  9
$DIMLTYPE
  6

  9
$DIMLTEX1
  6

  9
$DIMLTEX2
  6

  9
$DIMTXTDIRECTION
 70
0
  9
$LUNITS
 70
2
  9
$LUPREC
 70
4
  9
$SKETCHINC
 40
1.0
  9
$FILLETRAD
 40
10.0
  9
$AUNITS
 70
0
  9
$AUPREC
 70
2
  9
$MENU
  1
.
  9
$ELEVATION
 40
0.0
  9
$PELEVATION
 40
0.0
  9
$THICKNESS
 40
0.0
  9
$LIMCHECK
 70
0
  9
$CHAMFERA
 40
0.0
  9
$CHAMFERB
 40
0.0
  9
$CHAMFERC
 40
0.0
  9
$CHAMFERD
 40
0.0
  9
$SKPOLY
 70
0
  9
$TDCREATE
 40
2461308.706203704
  9
$TDUCREATE
 40
2458532.153996898
  9
$TDUPDATE
 40
2461308.706203704
  9
$TDUUPDATE
 40
2458532.1544311
  9
$TDINDWG
 40
0.0
  9
$TDUSRTIMER
 40
0.0
  9
$USRTIMER
 70
1
  9
$ANGBASE
 50
0.0
  9
$ANGDIR
 70
0
  9
$PDMODE
 70
0
  9
$PDSIZE
 40
0.0
  9
$PLINEWID
 40
0.0
  9
$SPLFRAME
 70
0
  9
$SPLINETYPE
 70
6
  9
$SPLINESEGS
 70
8
  9
$HANDSEED
  5
347
  9
$SURFTAB1
 70
6
  9
$SURFTAB2
 70
6
  9
$SURFTYPE
 70
6
  9
$SURFU
 70
6
  9
$SURFV
 70
6
  9
$UCSBASE
  2

  9
$UCSNAME
  2

  9
$UCSORG
 10
0.0
 20
0.0
 30
0.0
  9
$UCSXDIR
 10
1.0
 20
0.0
 30
0.0
  9
$UCSYDIR
 10
0.0
 20
1.0
 30
0.0
  9
$UCSORTHOREF
  2

  9
$UCSORTHOVIEW
 70
0
  9
$UCSORGTOP
 10
0.0
 20
0.0
 30
0.0
  9
$UCSORGBOTTOM
 10
0.0
 20
0.0
 30
0.0
  9
$UCSORGLEFT
 10
0.0
 20
0.0
 30
0.0
  9
$UCSORGRIGHT
 10
0.0
 20
0.0
 30
0.0
  9
$UCSORGFRONT
 10
0.0
 20
0.0
 30
0.0
  9
$UCSORGBACK
 10
0.0
 20
0.0
 30
0.0
  9
$PUCSBASE
  2

  9
$PUCSNAME
  2

  9
$PUCSORG
 10
0.0
 20
0.0
 30
0.0
  9
$PUCSXDIR
 10
1.0
 20
0.0
 30
0.0
  9
$PUCSYDIR
 10
0.0
 20
1.0
 30
0.0
  9
$PUCSORTHOREF
  2

  9
$PUCSORTHOVIEW
 70
0
  9
$PUCSORGTOP
 10
0.0
 20
0.0
 30
0.0
  9
$PUCSORGBOTTOM
 10
0.0
 20
0.0
 30
0.0
  9
$PUCSORGLEFT
 10
0.0
 20
0.0
 30
0.0
  9
$PUCSORGRIGHT
 10
0.0
 20
0.0
 30
0.0
  9
$PUCSORGFRONT
 10
0.0
 20
0.0
 30
0.0
  9
$PUCSORGBACK
 10
0.0
 20
0.0
 30
0.0
  9
$USERI1
 70
0
  9
$USERI2
 70
0
  9
$USERI3
 70
0
  9
$USERI4
 70
0
  9
$USERI5
 70
0
  9
$USERR1
 40
0.0
  9
$USERR2
 40
0.0
  9
$USERR3
 40
0.0
  9
$USERR4
 40
0.0
  9
$USERR5
 40
0.0
  9
$WORLDVIEW
 70
1
  9
$SHADEDGE
 70
3
  9
$SHADEDIF
 70
70
  9
$TILEMODE
 70
1
  9
$MAXACTVP
 70
64
  9
$PINSBASE
 10
0.0
 20
0.0
 30
0.0
  9
$PLIMCHECK
 70
0
  9
$PEXTMIN
 10
1e+20
 20
1e+20
 30
1e+20
  9
$PEXTMAX
 10
-1e+20
 20
-1e+20
 30
-1e+20
  9
$PLIMMIN
 10
0.0
 20
0.0
  9
$PLIMMAX
 10
420.0
 20
297.0
  9
$UNITMODE
 70
0
  9
$VISRETAIN
 70
1
  9
$PLINEGEN
 70
0
  9
$PSLTSCALE
 70
1
  9
$TREEDEPTH
 70
3020
  9
$CMLSTYLE
  2
Standard
  9
$CMLJUST
 70
0
  9
$CMLSCALE
 40
20.0
  9
$PROXYGRAPHICS
 70
1
  9
$MEASUREMENT
 70
1
  9
$CELWEIGHT
370
-1
  9
$ENDCAPS
280
0
  9
$JOINSTYLE
280
0
  9
$LWDISPLAY
290
0
  9
$INSUNITS
 70
4
  9
$HYPERLINKBASE
  1

  9
$STYLESHEET
  1

  9
$XEDIT
290
1
  9
$CEPSNTYPE
380
0
  9
$PSTYLEMODE
290
1
  9
$FINGERPRINTGUID
  2
{B7A87F5C-25A5-441A-BA4C-50685746A573}
  9
$VERSIONGUID
  2
{83D2B742-7BD1-4366-ACF5-C958A3E8BEE6}
  9
$EXTNAMES
290
1
  9
$PSVPSCALE
 40
0.0
  9
$OLESTARTUP
290
0
  9
$SORTENTS
280
127
  9
$INDEXCTL
280
0
  9
$HIDETEXT
280
1
  9
$XCLIPFRAME
280
1
  9
$HALOGAP
280
0
  9
$OBSCOLOR
 70
257
  9
$OBSLTYPE
280
0
  9
$INTERSECTIONDISPLAY
280
0
  9
$INTERSECTIONCOLOR
 70
257
  9
$DIMASSOC
280
2
  9
$PROJECTNAME
  1

  9
$CAMERADISPLAY
290
0
  9
$LENSLENGTH
 40
50.0
  9
$CAMERAHEIGHT
 40
0.0
  9
$STEPSPERSEC
 40
24.0
  9
$STEPSIZE
 40
100.0
  9
$3DDWFPREC
 40
2.0
  9
$PSOLWIDTH
 40
0.005
  9
$PSOLHEIGHT
 40
0.08
  9
$LOFTANG1
 40
1.570796326795
  9
$LOFTANG2
 40
1.570796326795
  9
$LOFTMAG1
 40
0.0
  9
$LOFTMAG2
 40
0.0
  9
$LOFTPARAM
 70
7
  9
$LOFTNORMALS
280
1
  9
$LATITUDE
 40
37.795
  9
$LONGITUDE
 40
-122.394
  9
$NORTHDIRECTION
 40
0.0
  9
$TIMEZONE
 70
-8000
  9
$LIGHTGLYPHDISPLAY
280
1
  9
$TILEMODELIGHTSYNCH
280
1
  9
$CMATERIAL
347
20
  9
$SOLIDHIST
280
0
  9
$SHOWHIST
280
1
  9
$DWFFRAME
280
2
  9
$DGNFRAME
280
2
  9
$REALWORLDSCALE
290
1
  9
$INTERFERECOLOR
 62
256
  9
$CSHADOW
280
0
  9
$SHADOWPLANELOCATION
 40
0.0
  0
ENDSEC
  0
SECTION
  2
CLASSES
  0
CLASS
  1
ACDBDICTIONARYWDFLT
  2
AcDbDictionaryWithDefault
  3
ObjectDBX Classes
 90
0
 91
0
280
0
281
0
  0
CLASS
  1
SUN
  2
AcDbSun
  3
SCENEOE
 90
1153
 91
0
280
0
281
0
  0
CLASS
  1
VISUALSTYLE
  2
AcDbVisualStyle
  3
ObjectDBX Classes
 90
4095
 91
0
280
0
281
0
  0
CLASS
  1
MATERIAL
  2
AcDbMaterial
  3
ObjectDBX Classes
 90
1153
 91
0
280
0
281
0
  0
CLASS
  1
SCALE
  2
AcDbScale
  3
ObjectDBX Classes
 90
1153
 91
0
280
0
281
0
  0
CLASS
  1
TABLESTYLE
  2
AcDbTableStyle
  3
ObjectDBX Classes
 90
4095
 91
0
280
0
281
0
  0
CLASS
  1
MLEADERSTYLE
  2
AcDbMLeaderStyle
  3
ACDB_MLEADERSTYLE_CLASS
 90
4095
 91
0
280
0
281
0
  0
CLASS
  1
DICTIONARYVAR
  2
AcDbDictionaryVar
  3
ObjectDBX Classes
 90
0
 91
0
280
0
281
0
  0
CLASS
  1
CELLSTYLEMAP
  2
AcDbCellStyleMap
  3
ObjectDBX Classes
 90
1152
 91
0
280
0
281
0
  0
CLASS
  1
MENTALRAYRENDERSETTINGS
  2
AcDbMentalRayRenderSettings
  3
SCENEOE
 90
1024
 91
0
280
0
281
0
  0
CLASS
  1
ACDBDETAILVIEWSTYLE
  2
AcDbDetailViewStyle
  3
ObjectDBX Classes
 90
1025
 91
0
280
0
281
0
  0
CLASS
  1
ACDBSECTIONVIEWSTYLE
  2
AcDbSectionViewStyle
  3
ObjectDBX Classes
 90
1025
 91
0
280
0
281
0
  0
CLASS
  1
RASTERVARIABLES
  2
AcDbRasterVariables
  3
ISM
 90
0
 91
0
280
0
281
0
  0
CLASS
  1
LAYOUT
  2
AcDbLayout
  3
ObjectDBX Classes
 90
0
 91
0
280
0
281
0
  0
CLASS
  1
ACDBPLACEHOLDER
  2
AcDbPlaceHolder
  3
ObjectDBX Classes
 90
0
 91
0
280
0
281
0
  0
ENDSEC
  0
SECTION
  2
TABLES
  0
TABLE
  2
VPORT
  5
8
330
0
100
AcDbSymbolTable
 70
1
  0
VPORT
  5
23
330
8
100
AcDbSymbolTableRecord
100
AcDbViewportTableRecord
  2
*Active
 70
0
 10
0.0
 20
0.0
 11
1.0
 21
1.0
 12
0.0
 22
0.0
 13
0.0
 23
0.0
 14
0.5
 24
0.5
 15
0.5
 25
0.5
 16
0.0
 26
0.0
 36
1.0
 17
0.0
 27
0.0
 37
0.0
 40
1000.0
 41
1.34
 42
50.0
 43
0.0
 44
0.0
 50
0.0
 51
0.0
 71
0
 72
1000
 73
1
 74
3
 75
0
 76
0
 77
0
 78
0
281
0
 65
0
146
0.0
  0
ENDTAB
  0
TABLE
  2
LTYPE
  5
2
330
0
100
AcDbSymbolTable
 70
21
  0
LTYPE
  5
24
330
2
100
AcDbSymbolTableRecord
100
AcDbLinetypeTableRecord
  2
ByBlock
 70
0
  3

 72
65
 73
0
 40
0.0
  0
LTYPE
  5
25
330
2
100
AcDbSymbolTableRecord
100
AcDbLinetypeTableRecord
  2
ByLayer
 70
0
  3

 72
65
 73
0
 40
0.0
  0
LTYPE
  5
26
330
2
100
AcDbSymbolTableRecord
100
AcDbLinetypeTableRecord
  2
Continuous
 70
0
  3

 72
65
 73
0
 40
0.0
  0
LTYPE
  5
2F
330
2
100
AcDbSymbolTableRecord
100
AcDbLinetypeTableRecord
  2
CENTER
 70
0
  3
Center ____ _ ____ _ ____ _ ____ _ ____ _ ____
 72
65
 73
4
 40
5.08
 49
3.175
 74
0
 49
-0.635
 74
0
 49
0.635
 74
0
 49
-0.635
 74
0
  0
LTYPE
  5
30
330
2
100
AcDbSymbolTableRecord
100
AcDbLinetypeTableRecord
  2
CENTERX2
 70
0
  3
Center (2x) ________  __  ________  __  ________
 72
65
 73
4
 40
8.89
 49
6.35
 74
0
 49
-0.635
 74
0
 49
1.27
 74
0
 49
-0.635
 74
0
  0
LTYPE
  5
31
330
2
100
AcDbSymbolTableRecord
100
AcDbLinetypeTableRecord
  2
CENTER2
 70
0
  3
Center (.5x) ____ _ ____ _ ____ _ ____ _ ____
 72
65
 73
4
 40
2.54
 49
1.587
 74
0
 49
-0.318
 74
0
 49
0.318
 74
0
 49
-0.318
 74
0
  0
LTYPE
  5
32
330
2
100
AcDbSymbolTableRecord
100
AcDbLinetypeTableRecord
  2
DASHED
 70
0
  3
Dashed __ __ __ __ __ __ __ __ __ __ __ __ __ _
 72
65
 73
2
 40
1.524
 49
1.27
 74
0
 49
-0.254
 74
0
  0
LTYPE
  5
33
330
2
100
AcDbSymbolTableRecord
100
AcDbLinetypeTableRecord
  2
DASHEDX2
 70
0
  3
Dashed (2x) ____  ____  ____  ____  ____  ____
 72
65
 73
2
 40
3.048
 49
2.54
 74
0
 49
-0.508
 74
0
  0
LTYPE
  5
34
330
2
100
AcDbSymbolTableRecord
100
AcDbLinetypeTableRecord
  2
DASHED2
 70
0
  3
Dashed (.5x) _ _ _ _ _ _ _ _ _ _ _ _ _ _
 72
65
 73
2
 40
0.762
 49
0.635
 74
0
 49
-0.127
 74
0
  0
LTYPE
  5
35
330
2
100
AcDbSymbolTableRecord
100
AcDbLinetypeTableRecord
  2
PHANTOM
 70
0
  3
Phantom ______  __  __  ______  __  __  ______
 72
65
 73
6
 40
6.35
 49
3.175
 74
0
 49
-0.635
 74
0
 49
0.635
 74
0
 49
-0.635
 74
0
 49
0.635
 74
0
 49
-0.635
 74
0
  0
LTYPE
  5
36
330
2
100
AcDbSymbolTableRecord
100
AcDbLinetypeTableRecord
  2
PHANTOMX2
 70
0
  3
Phantom (2x)____________    ____    ____    ____________
 72
65
 73
6
 40
10.795
 49
6.35
 74
0
 49
-0.635
 74
0
 49
1.27
 74
0
 49
-0.635
 74
0
 49
1.27
 74
0
 49
-0.635
 74
0
  0
LTYPE
  5
37
330
2
100
AcDbSymbolTableRecord
100
AcDbLinetypeTableRecord
  2
PHANTOM2
 70
0
  3
Phantom (.5x) ___ _ _ ___ _ _ ___ _ _ ___ _ _ ___
 72
65
 73
6
 40
3.175
 49
1.587
 74
0
 49
-0.318
 74
0
 49
0.318
 74
0
 49
-0.318
 74
0
 49
0.318
 74
0
 49
-0.318
 74
0
  0
LTYPE
  5
38
330
2
100
AcDbSymbolTableRecord
100
AcDbLinetypeTableRecord
  2
DASHDOT
 70
0
  3
Dash dot __ . __ . __ . __ . __ . __ . __ . __
 72
65
 73
4
 40
3.556
 49
2.54
 74
0
 49
-0.508
 74
0
 49
0.0
 74
0
 49
-0.508
 74
0
  0
LTYPE
  5
39
330
2
100
AcDbSymbolTableRecord
100
AcDbLinetypeTableRecord
  2
DASHDOTX2
 70
0
  3
Dash dot (2x) ____  .  ____  .  ____  .  ____
 72
65
 73
4
 40
6.096
 49
5.08
 74
0
 49
-0.508
 74
0
 49
0.0
 74
0
 49
-0.508
 74
0
  0
LTYPE
  5
3A
330
2
100
AcDbSymbolTableRecord
100
AcDbLinetypeTableRecord
  2
DASHDOT2
 70
0
  3
Dash dot (.5x) _ . _ . _ . _ . _ . _ . _ . _
 72
65
 73
4
 40
1.778
 49
1.27
 74
0
 49
-0.254
 74
0
 49
0.0
 74
0
 49
-0.254
 74
0
  0
LTYPE
  5
3B
330
2
100
AcDbSymbolTableRecord
100
AcDbLinetypeTableRecord
  2
DOT
 70
0
  3
Dot .  .  .  .  .  .  .  .  .  .  .  .  .  .  .  .
 72
65
 73
2
 40
0.508
 49
0.0
 74
0
 49
-0.508
 74
0
  0
LTYPE
  5
3C
330
2
100
AcDbSymbolTableRecord
100
AcDbLinetypeTableRecord
  2
DOTX2
 70
0
  3
Dot (2x) .    .    .    .    .    .    .    . 
 72
65
 73
2
 40
1.016
 49
0.0
 74
0
 49
-1.016
 74
0
  0
LTYPE
  5
3D
330
2
100
AcDbSymbolTableRecord
100
AcDbLinetypeTableRecord
  2
DOT2
 70
0
  3
Dot (.5) . . . . . . . . . . . . . . . . . . . 
 72
65
 73
2
 40
0.254
 49
0.0
 74
0
 49
-0.254
 74
0
  0
LTYPE
  5
3E
330
2
100
AcDbSymbolTableRecord
100
AcDbLinetypeTableRecord
  2
DIVIDE
 70
0
  3
Divide __ . . __ . . __ . . __ . . __ . . __
 72
65
 73
6
 40
4.064
 49
2.54
 74
0
 49
-0.508
 74
0
 49
0.0
 74
0
 49
-0.508
 74
0
 49
0.0
 74
0
 49
-0.508
 74
0
  0
LTYPE
  5
3F
330
2
100
AcDbSymbolTableRecord
100
AcDbLinetypeTableRecord
  2
DIVIDEX2
 70
0
  3
Divide (2x) ____  . .  ____  . .  ____  . .  ____
 72
65
 73
6
 40
6.604
 49
5.08
 74
0
 49
-0.508
 74
0
 49
0.0
 74
0
 49
-0.508
 74
0
 49
0.0
 74
0
 49
-0.508
 74
0
  0
LTYPE
  5
40
330
2
100
AcDbSymbolTableRecord
100
AcDbLinetypeTableRecord
  2
DIVIDE2
 70
0
  3
Divide(.5x) _ . _ . _ . _ . _ . _ . _ . _
 72
65
 73
6
 40
2.032
 49
1.27
 74
0
 49
-0.254
 74
0
 49
0.0
 74
0
 49
-0.254
 74
0
 49
0.0
 74
0
 49
-0.254
 74
0
  0
ENDTAB
  0
TABLE
  2
LAYER
  5
1
330
0
100
AcDbSymbolTable
 70
5
  0
LAYER
  5
27
330
1
100
AcDbSymbolTableRecord
100
AcDbLayerTableRecord
  2
0
 70
0
 62
7
  6
Continuous
370
-3
390
13
347
21
  0
LAYER
  5
28
330
1
100
AcDbSymbolTableRecord
100
AcDbLayerTableRecord
  2
Defpoints
 70
0
 62
7
  6
Continuous
290
0
370
-3
390
13
347
21
  0
LAYER
  5
8A
330
1
100
AcDbSymbolTableRecord
100
AcDbLayerTableRecord
  2
CUT
 70
0
 62
7
  6
Continuous
370
-3
390
13
347
21
  0
LAYER
  5
8B
330
1
100
AcDbSymbolTableRecord
100
AcDbLayerTableRecord
  2
MARK
 70
0
 62
3
  6
Continuous
370
-3
390
13
347
21
  0
LAYER
  5
8C
330
1
100
AcDbSymbolTableRecord
100
AcDbLayerTableRecord
  2
DIM
 70
0
 62
4
  6
Continuous
370
-3
390
13
347
21
  0
ENDTAB
  0
TABLE
  2
STYLE
  5
5
330
0
100
AcDbSymbolTable
 70
26
  0
STYLE
  5
29
330
5
100
AcDbSymbolTableRecord
100
AcDbTextStyleTableRecord
  2
Standard
 70
0
 40
0.0
 41
1.0
 50
0.0
 71
0
 42
2.5
  3
txt
  4

  0
STYLE
  5
41
330
5
100
AcDbSymbolTableRecord
100
AcDbTextStyleTableRecord
  2
OpenSans-Light
 70
0
 40
0.0
 41
1.0
 50
0.0
 71
0
 42
2.5
  3
OpenSans-Light.ttf
  4

  0
STYLE
  5
42
330
5
100
AcDbSymbolTableRecord
100
AcDbTextStyleTableRecord
  2
OpenSans-Light-Italic
 70
0
 40
0.0
 41
1.0
 50
0.0
 71
0
 42
2.5
  3
OpenSans-LightItalic.ttf
  4

  0
STYLE
  5
43
330
5
100
AcDbSymbolTableRecord
100
AcDbTextStyleTableRecord
  2
OpenSans
 70
0
 40
0.0
 41
1.0
 50
0.0
 71
0
 42
2.5
  3
OpenSans-Regular.ttf
  4

  0
STYLE
  5
44
330
5
100
AcDbSymbolTableRecord
100
AcDbTextStyleTableRecord
  2
OpenSans-Italic
 70
0
 40
0.0
 41
1.0
 50
0.0
 71
0
 42
2.5
  3
OpenSans-Italic.ttf
  4

  0
STYLE
  5
45
330
5
100
AcDbSymbolTableRecord
100
AcDbTextStyleTableRecord
  2
OpenSans-SemiBold
 70
0
 40
0.0
 41
1.0
 50
0.0
 71
0
 42
2.5
  3
OpenSans-SemiBold.ttf
  4

  0
STYLE
  5
46
330
5
100
AcDbSymbolTableRecord
100
AcDbTextStyleTableRecord
  2
OpenSans-SemiBoldItalic
 70
0
 40
0.0
 41
1.0
 50
0.0
 71
0
 42
2.5
  3
OpenSans-SemiBoldItalic.ttf
  4

  0
STYLE
  5
47
330
5
100
AcDbSymbolTableRecord
100
AcDbTextStyleTableRecord
  2
OpenSans-Bold
 70
0
 40
0.0
 41
1.0
 50
0.0
 71
0
 42
2.5
  3
OpenSans-Bold.ttf
  4

  0
STYLE
  5
48
330
5
100
AcDbSymbolTableRecord
100
AcDbTextStyleTableRecord
  2
OpenSans-BoldItalic
 70
0
 40
0.0
 41
1.0
 50
0.0
 71
0
 42
2.5
  3
OpenSans-BoldItalic.ttf
  4

  0
STYLE
  5
49
330
5
100
AcDbSymbolTableRecord
100
AcDbTextStyleTableRecord
  2
OpenSans-ExtraBold
 70
0
 40
0.0
 41
1.0
 50
0.0
 71
0
 42
2.5
  3
OpenSans-ExtraBold.ttf
  4

  0
STYLE
  5
4A
330
5
100
AcDbSymbolTableRecord
100
AcDbTextStyleTableRecord
  2
OpenSans-ExtraBoldItalic
 70
0
 40
0.0
 41
1.0
 50
0.0
 71
0
 42
2.5
  3
OpenSans-ExtraBoldItalic.ttf
  4

  0
STYLE
  5
4B
330
5
100
AcDbSymbolTableRecord
100
AcDbTextStyleTableRecord
  2
OpenSansCondensed-Bold
 70
0
 40
0.0
 41
1.0
 50
0.0
 71
0
 42
2.5
  3
OpenSansCondensed-Bold.ttf
  4

  0
STYLE
  5
4C
330
5
100
AcDbSymbolTableRecord
100
AcDbTextStyleTableRecord
  2
OpenSansCondensed-Light
 70
0
 40
0.0
 41
1.0
 50
0.0
 71
0
 42
2.5
  3
OpenSansCondensed-Light.ttf
  4

  0
STYLE
  5
4D
330
5
100
AcDbSymbolTableRecord
100
AcDbTextStyleTableRecord
  2
OpenSansCondensed-Italic
 70
0
 40
0.0
 41
1.0
 50
0.0
 71
0
 42
2.5
  3
OpenSansCondensed-LightItalic.ttf
  4

  0
STYLE
  5
4E
330
5
100
AcDbSymbolTableRecord
100
AcDbTextStyleTableRecord
  2
LiberationSans
 70
0
 40
0.0
 41
1.0
 50
0.0
 71
0
 42
2.5
  3
LiberationSans-Regular.ttf
  4

  0
STYLE
  5
4F
330
5
100
AcDbSymbolTableRecord
100
AcDbTextStyleTableRecord
  2
LiberationSans-Bold
 70
0
 40
0.0
 41
1.0
 50
0.0
 71
0
 42
2.5
  3
LiberationSans-Bold.ttf
  4

  0
STYLE
  5
50
330
5
100
AcDbSymbolTableRecord
100
AcDbTextStyleTableRecord
  2
LiberationSans-BoldItalic
 70
0
 40
0.0
 41
1.0
 50
0.0
 71
0
 42
2.5
  3
LiberationSans-BoldItalic.ttf
  4

  0
STYLE
  5
51
330
5
100
AcDbSymbolTableRecord
100
AcDbTextStyleTableRecord
  2
LiberationSans-Italic
 70
0
 40
0.0
 41
1.0
 50
0.0
 71
0
 42
2.5
  3
LiberationSans-Italic.ttf
  4

  0
STYLE
  5
52
330
5
100
AcDbSymbolTableRecord
100
AcDbTextStyleTableRecord
  2
LiberationSerif
 70
0
 40
0.0
 41
1.0
 50
0.0
 71
0
 42
2.5
  3
LiberationSerif-Regular.ttf
  4

  0
STYLE
  5
53
330
5
100
AcDbSymbolTableRecord
100
AcDbTextStyleTableRecord
  2
LiberationSerif-Bold
 70
0
 40
0.0
 41
1.0
 50
0.0
 71
0
 42
2.5
  3
LiberationSerif-Bold.ttf
  4

  0
STYLE
  5
54
330
5
100
AcDbSymbolTableRecord
100
AcDbTextStyleTableRecord
  2
LiberationSerif-BoldItalic
 70
0
 40
0.0
 41
1.0
 50
0.0
 71
0
 42
2.5
  3
LiberationSerif-BoldItalic.ttf
  4

  0
STYLE
  5
55
330
5
100
AcDbSymbolTableRecord
100
AcDbTextStyleTableRecord
  2
LiberationSerif-Italic
 70
0
 40
0.0
 41
1.0
 50
0.0
 71
0
 42
2.5
  3
LiberationSerif-Italic.ttf
  4

  0
STYLE
  5
56
330
5
100
AcDbSymbolTableRecord
100
AcDbTextStyleTableRecord
  2
LiberationMono
 70
0
 40
0.0
 41
1.0
 50
0.0
 71
0
 42
2.5
  3
LiberationMono-Regular.ttf
  4

  0
STYLE
  5
57
330
5
100
AcDbSymbolTableRecord
100
AcDbTextStyleTableRecord
  2
LiberationMono-Bold
 70
0
 40
0.0
 41
1.0
 50
0.0
 71
0
 42
2.5
  3
LiberationMono-Bold.ttf
  4

  0
STYLE
  5
58
330
5
100
AcDbSymbolTableRecord
100
AcDbTextStyleTableRecord
  2
LiberationMono-BoldItalic
 70
0
 40
0.0
 41
1.0
 50
0.0
 71
0
 42
2.5
  3
LiberationMono-BoldItalic.ttf
  4

  0
STYLE
  5
59
330
5
100
AcDbSymbolTableRecord
100
AcDbTextStyleTableRecord
  2
LiberationMono-Italic
 70
0
 40
0.0
 41
1.0
 50
0.0
 71
0
 42
2.5
  3
LiberationMono-Italic.ttf
  4

  0
ENDTAB
  0
TABLE
  2
VIEW
  5
7
330
0
100
AcDbSymbolTable
 70
0
  0
ENDTAB
  0
TABLE
  2
UCS
  5
6
330
0
100
AcDbSymbolTable
 70
0
  0
ENDTAB
  0
TABLE
  2
APPID
  5
3
330
0
100
AcDbSymbolTable
 70
3
  0
APPID
  5
2A
330
3
100
AcDbSymbolTableRecord
100
AcDbRegAppTableRecord
  2
ACAD
 70
0
  0
APPID
  5
344
330
3
100
AcDbSymbolTableRecord
100
AcDbRegAppTableRecord
  2
HATCHBACKGROUNDCOLOR
 70
0
  0
APPID
  5
345
330
3
100
AcDbSymbolTableRecord
100
AcDbRegAppTableRecord
  2
EZDXF
 70
0
  0
ENDTAB
  0
TABLE
  2
DIMSTYLE
  5
4
330
0
100
AcDbSymbolTable
 70
13
100
AcDbDimStyleTable
  0
DIMSTYLE
105
2B
330
4
100
AcDbSymbolTableRecord
100
AcDbDimStyleTableRecord
  2
Standard
 70
0
 40
1.0
 41
2.5
 42
0.625
 43
3.75
 44
1.25
 45
0.0
 46
0.0
 47
0.0
 48
0.0
 49
2.5
140
2.5
141
2.5
142
0.0
143
0.03937007874
144
1.0
145
0.0
146
1.0
147
0.625
148
0.0
 69
0
 70
0
 71
0
 72
0
 73
0
 74
0
 75
0
 76
0
 77
1
 78
8
 79
3
170
0
171
3
172
1
173
0
174
0
175
0
176
0
177
0
178
0
179
2
271
2
272
2
273
2
274
3
275
0
276
0
277
2
278
44
279
0
280
0
281
0
282
0
283
0
284
8
285
0
286
0
288
0
289
3
290
0
371
-2
372
-2
  0
DIMSTYLE
105
73
330
4
100
AcDbSymbolTableRecord
100
AcDbDimStyleTableRecord
  2
EZDXF
 70
0
 40
1.0
 41
0.175
 42
0.125
 43
3.75
 44
0.375
 45
0.0
 46
0.0
 47
0.0
 48
0.0
 49
2.5
140
0.25
141
2.5
142
0.0
143
0.03937007874
144
100.0
145
0.0
146
0.5
147
0.1
148
0.0
 69
0
 70
0
 71
0
 72
0
 73
0
 74
0
 75
0
 76
0
 77
1
 78
12
 79
3
170
0
171
3
172
1
173
0
174
0
175
0
176
0
177
0
178
0
179
2
271
2
272
2
273
2
274
3
275
0
276
0
277
2
278
46
279
2
280
0
281
0
282
0
283
0
284
8
285
0
286
0
288
1
289
3
290
0
340
4C
342
74
371
-2
372
-2
  0
DIMSTYLE
105
7C
330
4
100
AcDbSymbolTableRecord
100
AcDbDimStyleTableRecord
  2
EZ_M_100_H25_CM
 70
0
 40
1.0
 41
0.25
 42
0.125
 43
3.75
 44
0.375
 45
0.0
 46
0.0
 47
0.0
 48
0.0
 49
2.5
140
0.25
141
2.5
142
0.125
143
0.03937007874
144
100.0
145
0.0
146
0.5
147
0.1
148
0.0
 69
0
 70
0
 71
0
 72
0
 73
0
 74
0
 75
0
 76
0
 77
1
 78
12
 79
3
170
0
171
3
172
1
173
0
174
0
175
0
176
0
177
0
178
0
179
2
271
2
272
2
273
2
274
3
275
0
276
0
277
2
278
46
279
2
280
0
281
0
282
0
283
0
284
8
285
0
286
0
288
1
289
3
290
0
340
4C
371
-2
372
-2
  0
DIMSTYLE
105
7D
330
4
100
AcDbSymbolTableRecord
100
AcDbDimStyleTableRecord
  2
EZ_M_50_H25_CM
 70
0
 40
1.0
 41
0.125
 42
0.0625
 43
3.75
 44
0.1875
 45
0.0
 46
0.0
 47
0.0
 48
0.0
 49
2.5
140
0.125
141
2.5
142
0.0625
143
0.03937007874
144
100.0
145
0.0
146
0.5
147
0.05
148
0.0
 69
0
 70
0
 71
0
 72
0
 73
0
 74
0
 75
0
 76
0
 77
1
 78
12
 79
3
170
0
171
3
172
1
173
0
174
0
175
0
176
0
177
0
178
0
179
2
271
2
272
2
273
2
274
3
275
0
276
0
277
2
278
46
279
2
280
0
281
0
282
0
283
0
284
8
285
0
286
0
288
1
289
3
290
0
340
4C
371
-2
372
-2
  0
DIMSTYLE
105
7E
330
4
100
AcDbSymbolTableRecord
100
AcDbDimStyleTableRecord
  2
EZ_M_25_H25_CM
 70
0
 40
1.0
 41
0.0625
 42
0.03125
 43
3.75
 44
0.09375
 45
0.0
 46
0.0
 47
0.0
 48
0.0
 49
2.5
140
0.0625
141
2.5
142
0.03125
143
0.03937007874
144
100.0
145
0.0
146
0.5
147
0.025
148
0.0
 69
0
 70
0
 71
0
 72
0
 73
0
 74
0
 75
0
 76
0
 77
1
 78
12
 79
3
170
0
171
3
172
1
173
0
174
0
175
0
176
0
177
0
178
0
179
2
271
2
272
2
273
2
274
3
275
0
276
0
277
2
278
46
279
2
280
0
281
0
282
0
283
0
284
8
285
0
286
0
288
1
289
3
290
0
340
4C
371
-2
372
-2
  0
DIMSTYLE
105
7F
330
4
100
AcDbSymbolTableRecord
100
AcDbDimStyleTableRecord
  2
EZ_M_20_H25_CM
 70
0
 40
1.0
 41
0.05
 42
0.025
 43
3.75
 44
0.07500000000000001
 45
0.0
 46
0.0
 47
0.0
 48
0.0
 49
2.5
140
0.05
141
2.5
142
0.025
143
0.03937007874
144
100.0
145
0.0
146
0.5
147
0.020000000000000004
148
0.0
 69
0
 70
0
 71
0
 72
0
 73
0
 74
0
 75
0
 76
0
 77
1
 78
12
 79
3
170
0
171
3
172
1
173
0
174
0
175
0
176
0
177
0
178
0
179
2
271
2
272
2
273
2
274
3
275
0
276
0
277
2
278
46
279
2
280
0
281
0
282
0
283
0
284
8
285
0
286
0
288
1
289
3
290
0
340
4C
371
-2
372
-2
  0
DIMSTYLE
105
80
330
4
100
AcDbSymbolTableRecord
100
AcDbDimStyleTableRecord
  2
EZ_M_10_H25_CM
 70
0
 40
1.0
 41
0.025
 42
0.0125
 43
3.75
 44
0.037500000000000006
 45
0.0
 46
0.0
 47
0.0
 48
0.0
 49
2.5
140
0.025
141
2.5
142
0.0125
143
0.03937007874
144
100.0
145
0.0
146
0.5
147
0.010000000000000002
148
0.0
 69
0
 70
0
 71
0
 72
0
 73
0
 74
0
 75
0
 76
0
 77
1
 78
12
 79
3
170
0
171
3
172
1
173
0
174
0
175
0
176
0
177
0
178
0
179
2
271
2
272
2
273
2
274
3
275
0
276
0
277
2
278
46
279
2
280
0
281
0
282
0
283
0
284
8
285
0
286
0
288
1
289
3
290
0
340
4C
371
-2
372
-2
  0
DIMSTYLE
105
81
330
4
100
AcDbSymbolTableRecord
100
AcDbDimStyleTableRecord
  2
EZ_M_5_H25_CM
 70
0
 40
1.0
 41
0.0125
 42
0.00625
 43
3.75
 44
0.018750000000000003
 45
0.0
 46
0.0
 47
0.0
 48
0.0
 49
2.5
140
0.0125
141
2.5
142
0.00625
143
0.03937007874
144
100.0
145
0.0
146
0.5
147
0.005000000000000001
148
0.0
 69
0
 70
0
 71
0
 72
0
 73
0
 74
0
 75
0
 76
0
 77
1
 78
12
 79
3
170
0
171
3
172
1
173
0
174
0
175
0
176
0
177
0
178
0
179
2
271
2
272
2
273
2
274
3
275
0
276
0
277
2
278
46
279
2
280
0
281
0
282
0
283
0
284
8
285
0
286
0
288
1
289
3
290
0
340
4C
371
-2
372
-2
  0
DIMSTYLE
105
82
330
4
100
AcDbSymbolTableRecord
100
AcDbDimStyleTableRecord
  2
EZ_M_1_H25_CM
 70
0
 40
1.0
 41
0.0025
 42
0.00125
 43
3.75
 44
0.00375
 45
0.0
 46
0.0
 47
0.0
 48
0.0
 49
2.5
140
0.0025
141
2.5
142
0.00125
143
0.03937007874
144
100.0
145
0.0
146
0.5
147
0.001
148
0.0
 69
0
 70
0
 71
0
 72
0
 73
0
 74
0
 75
0
 76
0
 77
1
 78
12
 79
3
170
0
171
3
172
1
173
0
174
0
175
0
176
0
177
0
178
0
179
2
271
2
272
2
273
2
274
3
275
0
276
0
277
2
278
46
279
2
280
0
281
0
282
0
283
0
284
8
285
0
286
0
288
1
289
3
290
0
340
4C
371
-2
372
-2
  0
DIMSTYLE
105
83
330
4
100
AcDbSymbolTableRecord
100
AcDbDimStyleTableRecord
  2
EZ_RADIUS
 70
0
 40
1.0
 41
0.25
 42
0.125
 43
3.75
 44
0.375
 45
0.0
 46
0.0
 47
0.0
 48
0.0
 49
2.5
140
0.25
141
0.0
142
0.0
143
0.03937007874
144
100.0
145
0.0
146
0.5
147
0.1
148
0.0
 69
0
 70
0
 71
0
 72
0
 73
0
 74
0
 75
0
 76
0
 77
1
 78
12
 79
3
170
0
171
3
172
0
173
0
174
0
175
0
176
0
177
0
178
0
179
2
271
2
272
2
273
2
274
3
275
0
276
0
277
2
278
46
279
1
280
0
281
0
282
0
283
0
284
8
285
0
286
0
288
1
289
3
290
0
340
4C
342
84
371
-2
372
-2
  0
DIMSTYLE
105
88
330
4
100
AcDbSymbolTableRecord
100
AcDbDimStyleTableRecord
  2
EZ_RADIUS_INSIDE
 70
0
 40
1.0
 41
0.25
 42
0.125
 43
3.75
 44
0.375
 45
0.0
 46
0.0
 47
0.0
 48
0.0
 49
2.5
140
0.25
141
0.0
142
0.0
143
0.03937007874
144
100.0
145
0.0
146
0.5
147
0.1
148
0.0
 69
0
 70
0
 71
0
 72
0
 73
0
 74
0
 75
0
 76
0
 77
0
 78
12
 79
3
170
0
171
3
172
0
173
0
174
1
175
0
176
0
177
0
178
0
179
2
271
2
272
2
273
2
274
3
275
0
276
0
277
2
278
46
279
0
280
0
281
0
282
0
283
0
284
8
285
0
286
0
288
1
289
0
290
0
340
4C
342
84
371
-2
372
-2
  0
DIMSTYLE
105
89
330
4
100
AcDbSymbolTableRecord
100
AcDbDimStyleTableRecord
  2
EZ_CURVED
 70
0
 40
1.0
 41
0.25
 42
0.125
 43
3.75
 44
0.375
 45
0.0
 46
0.0
 47
0.0
 48
0.0
 49
2.5
140
0.25
141
2.5
142
0.0
143
0.03937007874
144
100.0
145
0.0
146
0.5
147
0.1
148
0.0
 69
0
 70
0
 71
0
 72
0
 73
0
 74
0
 75
0
 76
0
 77
1
 78
12
 79
2
 90
2
170
0
171
3
172
1
173
0
174
0
175
0
176
0
177
0
178
0
179
2
271
2
272
2
273
2
274
3
275
0
276
0
277
2
278
46
279
2
280
0
281
0
282
0
283
0
284
8
285
0
286
0
288
1
289
3
290
0
340
4C
371
-2
372
-2
  0
DIMSTYLE
105
8D
330
4
100
AcDbSymbolTableRecord
100
AcDbDimStyleTableRecord
  2
PLATE
 70
0
 40
1.0
 41
4.0
 42
3.0
 43
3.75
 44
3.0
 45
0.0
 46
0.0
 47
0.0
 48
0.0
 49
2.5
140
6.0
141
2.5
142
0.0
143
0.03937007874
144
1.0
145
0.0
146
1.0
147
0.625
148
0.0
 69
0
 70
0
 71
0
 72
0
 73
0
 74
0
 75
0
 76
0
 77
1
 78
8
 79
3
170
0
171
3
172
1
173
0
174
0
175
0
176
0
177
0
178
7
179
2
271
1
272
2
273
2
274
3
275
0
276
0
277
2
278
44
279
0
280
0
281
0
282
0
283
0
284
8
285
0
286
0
288
0
289
3
290
0
371
-2
372
-2
  0
ENDTAB
  0
TABLE
  2
BLOCK_RECORD
  5
9
330
0
100
AcDbSymbolTable
 70
49
  0
BLOCK_RECORD
  5
17
330
9
100
AcDbSymbolTableRecord
100
AcDbBlockTableRecord
  2
*Model_Space
340
1A
 70
0
280
1
281
0
  0
BLOCK_RECORD
  5
1B
330
9
100
AcDbSymbolTableRecord
100
AcDbBlockTableRecord
  2
*Paper_Space
340
1E
 70
0
280
1
281
0
  0
BLOCK_RECORD
  5
74
330
9
100
AcDbSymbolTableRecord
100
AcDbBlockTableRecord
  2
_ARCHTICK
340
0
 70
0
280
1
281
0
  0
BLOCK_RECORD
  5
78
330
9
100
AcDbSymbolTableRecord
100
AcDbBlockTableRecord
  2
_CLOSEDFILLED
340
0
 70
0
280
1
281
0
  0
BLOCK_RECORD
  5
84
330
9
100
AcDbSymbolTableRecord
100
AcDbBlockTableRecord
  2
_CLOSEDBLANK
340
0
 70
0
280
1
281
0
  0
BLOCK_RECORD
  5
96
330
9
100
AcDbSymbolTableRecord
100
AcDbBlockTableRecord
  2
*D1
340
0
 70
0
280
1
281
0
  0
BLOCK_RECORD
  5
A5
330
9
100
AcDbSymbolTableRecord
100
AcDbBlockTableRecord
  2
*D2
340
0
 70
0
280
1
281
0
  0
BLOCK_RECORD
  5
B4
330
9
100
AcDbSymbolTableRecord
100
AcDbBlockTableRecord
  2
*D3
340
0
 70
0
280
1
281
0
  0
BLOCK_RECORD
  5
C1
330
9
100
AcDbSymbolTableRecord
100
AcDbBlockTableRecord
  2
*D4
340
0
 70
0
280
1
281
0
  0
BLOCK_RECORD
  5
CE
330
9
100
AcDbSymbolTableRecord
100
AcDbBlockTableRecord
  2
*D5
340
0
 70
0
280
1
281
0
  0
BLOCK_RECORD
  5
DB
330
9
100
AcDbSymbolTableRecord
100
AcDbBlockTableRecord
  2
*D6
340
0
 70
0
280
1
281
0
  0
BLOCK_RECORD
  5
E8
330
9
100
AcDbSymbolTableRecord
100
AcDbBlockTableRecord
  2
*D7
340
0
 70
0
280
1
281
0
  0
BLOCK_RECORD
  5
FA
330
9
100
AcDbSymbolTableRecord
100
AcDbBlockTableRecord
  2
*D8
340
0
 70
0
280
1
281
0
  0
BLOCK_RECORD
  5
109
330
9
100
AcDbSymbolTableRecord
100
AcDbBlockTableRecord
  2
*D9
340
0
 70
0
280
1
281
0
  0
BLOCK_RECORD
  5
11B
330
9
100
AcDbSymbolTableRecord
100
AcDbBlockTableRecord
  2
*D10
340
0
 70
0
280
1
281
0
  0
BLOCK_RECORD
  5
12A
330
9
100
AcDbSymbolTableRecord
100
AcDbBlockTableRecord
  2
*D11
340
0
 70
0
280
1
281
0
  0
BLOCK_RECORD
  5
13C
330
9
100
AcDbSymbolTableRecord
100
AcDbBlockTableRecord
  2
*D12
340
0
 70
0
280
1
281
0
  0
BLOCK_RECORD
  5
14B
330
9
100
AcDbSymbolTableRecord
100
AcDbBlockTableRecord
  2
*D13
340
0
 70
0
280
1
281
0
  0
BLOCK_RECORD
  5
15E
330
9
100
AcDbSymbolTableRecord
100
AcDbBlockTableRecord
  2
*D14
340
0
 70
0
280
1
281
0
  0
BLOCK_RECORD
  5
16D
330
9
100
AcDbSymbolTableRecord
100
AcDbBlockTableRecord
  2
*D15
340
0
 70
0
280
1
281
0
  0
BLOCK_RECORD
  5
17C
330
9
100
AcDbSymbolTableRecord
100
AcDbBlockTableRecord
  2
*D16
340
0
 70
0
280
1
281
0
  0
BLOCK_RECORD
  5
18D
330
9
100
AcDbSymbolTableRecord
100
AcDbBlockTableRecord
  2
*D17
340
0
 70
0
280
1
281
0
  0
BLOCK_RECORD
  5
19C
330
9
100
AcDbSymbolTableRecord
100
AcDbBlockTableRecord
  2
*D18
340
0
 70
0
280
1
281
0
  0
BLOCK_RECORD
  5
1AB
330
9
100
AcDbSymbolTableRecord
100
AcDbBlockTableRecord
  2
*D19
340
0
 70
0
280
1
281
0
  0
BLOCK_RECORD
  5
1BD
330
9
100
AcDbSymbolTableRecord
100
AcDbBlockTableRecord
  2
*D20
340
0
 70
0
280
1
281
0
  0
BLOCK_RECORD
  5
1CC
330
9
100
AcDbSymbolTableRecord
100
AcDbBlockTableRecord
  2
*D21
340
0
 70
0
280
1
281
0
  0
BLOCK_RECORD
  5
1DB
330
9
100
AcDbSymbolTableRecord
100
AcDbBlockTableRecord
  2
*D22
340
0
 70
0
280
1
281
0
  0
BLOCK_RECORD
  5
1E8
330
9
100
AcDbSymbolTableRecord
100
AcDbBlockTableRecord
  2
*D23
340
0
 70
0
280
1
281
0
  0
BLOCK_RECORD
  5
1F5
330
9
100
AcDbSymbolTableRecord
100
AcDbBlockTableRecord
  2
*D24
340
0
 70
0
280
1
281
0
  0
BLOCK_RECORD
  5
209
330
9
100
AcDbSymbolTableRecord
100
AcDbBlockTableRecord
  2
*D25
340
0
 70
0
280
1
281
0
  0
BLOCK_RECORD
  5
218
330
9
100
AcDbSymbolTableRecord
100
AcDbBlockTableRecord
  2
*D26
340
0
 70
0
280
1
281
0
  0
BLOCK_RECORD
  5
227
330
9
100
AcDbSymbolTableRecord
100
AcDbBlockTableRecord
  2
*D27
340
0
 70
0
280
1
281
0
  0
BLOCK_RECORD
  5
234
330
9
100
AcDbSymbolTableRecord
100
AcDbBlockTableRecord
  2
*D28
340
0
 70
0
280
1
281
0
  0
BLOCK_RECORD
  5
241
330
9
100
AcDbSymbolTableRecord
100
AcDbBlockTableRecord
  2
*D29
340
0
 70
0
280
1
281
0
  0
BLOCK_RECORD
  5
253
330
9
100
AcDbSymbolTableRecord
100
AcDbBlockTableRecord
  2
*D30
340
0
 70
0
280
1
281
0
  0
BLOCK_RECORD
  5
262
330
9
100
AcDbSymbolTableRecord
100
AcDbBlockTableRecord
  2
*D31
340
0
 70
0
280
1
281
0
  0
BLOCK_RECORD
  5
274
330
9
100
AcDbSymbolTableRecord
100
AcDbBlockTableRecord
  2
*D32
340
0
 70
0
280
1
281
0
  0
BLOCK_RECORD
  5
283
330
9
100
AcDbSymbolTableRecord
100
AcDbBlockTableRecord
  2
*D33
340
0
 70
0
280
1
281
0
  0
BLOCK_RECORD
  5
296
330
9
100
AcDbSymbolTableRecord
100
AcDbBlockTableRecord
  2
*D34
340
0
 70
0
280
1
281
0
  0
BLOCK_RECORD
  5
2A5
330
9
100
AcDbSymbolTableRecord
100
AcDbBlockTableRecord
  2
*D35
340
0
 70
0
280
1
281
0
  0
BLOCK_RECORD
  5
2BA
330
9
100
AcDbSymbolTableRecord
100
AcDbBlockTableRecord
  2
*D36
340
0
 70
0
280
1
281
0
  0
BLOCK_RECORD
  5
2C9
330
9
100
AcDbSymbolTableRecord
100
AcDbBlockTableRecord
  2
*D37
340
0
 70
0
280
1
281
0
  0
BLOCK_RECORD
  5
2DD
330
9
100
AcDbSymbolTableRecord
100
AcDbBlockTableRecord
  2
*D38
340
0
 70
0
280
1
281
0
  0
BLOCK_RECORD
  5
2EC
330
9
100
AcDbSymbolTableRecord
100
AcDbBlockTableRecord
  2
*D39
340
0
 70
0
280
1
281
0
  0
BLOCK_RECORD
  5
2FB
330
9
100
AcDbSymbolTableRecord
100
AcDbBlockTableRecord
  2
*D40
340
0
 70
0
280
1
281
0
  0
BLOCK_RECORD
  5
308
330
9
100
AcDbSymbolTableRecord
100
AcDbBlockTableRecord
  2
*D41
340
0
 70
0
280
1
281
0
  0
BLOCK_RECORD
  5
315
330
9
100
AcDbSymbolTableRecord
100
AcDbBlockTableRecord
  2
*D42
340
0
 70
0
280
1
281
0
  0
BLOCK_RECORD
  5
327
330
9
100
AcDbSymbolTableRecord
100
AcDbBlockTableRecord
  2
*D43
340
0
 70
0
280
1
281
0
  0
BLOCK_RECORD
  5
336
330
9
100
AcDbSymbolTableRecord
100
AcDbBlockTableRecord
  2
*D44
340
0
 70
0
280
1
281
0
  0
ENDTAB
  0
ENDSEC
  0
SECTION
  2
BLOCKS
  0
BLOCK
  5
18
330
17
100
AcDbEntity
  8
0
100
AcDbBlockBegin
  2
*Model_Space
 70
0
 10
0.0
 20
0.0
 30
0.0
  3
*Model_Space
  1

  0
ENDBLK
  5
19
330
17
100
AcDbEntity
  8
0
100
AcDbBlockEnd
  0
BLOCK
  5
1C
330
1B
100
AcDbEntity
  8
0
100
AcDbBlockBegin
  2
*Paper_Space
 70
0
 10
0.0
 20
0.0
 30
0.0
  3
*Paper_Space
  1

  0
ENDBLK
  5
1D
330
1B
100
AcDbEntity
  8
0
100
AcDbBlockEnd
  0
BLOCK
  5
75
330
74
100
AcDbEntity
  8
0
100
AcDbBlockBegin
  2
_ARCHTICK
 70
0
 10
0.0
 20
0.0
 30
0.0
  3
_ARCHTICK
  1

  0
LWPOLYLINE
  5
77
330
74
100
AcDbEntity
  8
0
  6
BYBLOCK
 62
0
100
AcDbPolyline
 90
2
 70
0
 43
0.15
 10
-0.5
 20
-0.5
 10
0.5
 20
0.5
  0
ENDBLK
  5
76
330
74
100
AcDbEntity
  8
0
100
AcDbBlockEnd
  0
BLOCK
  5
79
330
78
100
AcDbEntity
  8
0
100
AcDbBlockBegin
  2
_CLOSEDFILLED
 70
0
 10
0.0
 20
0.0
 30
0.0
  3
_CLOSEDFILLED
  1

  0
SOLID
  5
7B
330
78
100
AcDbEntity
  8
0
  6
BYBLOCK
 62
0
100
AcDbTrace
 10
-1.0
 20
0.16439898372402537
 30
0.0
 11
0.0
 21
0.0
 31
0.0
 12
-1.0
 22
-0.16439898372402537
 32
0.0
 13
-1.0
 23
-0.16439898372402537
 33
0.0
  0
ENDBLK
  5
7A
330
78
100
AcDbEntity
  8
0
100
AcDbBlockEnd
  0
BLOCK
  5
85
330
84
100
AcDbEntity
  8
0
100
AcDbBlockBegin
  2
_CLOSEDBLANK
 70
0
 10
0.0
 20
0.0
 30
0.0
  3
_CLOSEDBLANK
  1

  0
LWPOLYLINE
  5
87
330
84
100
AcDbEntity
  8
0
  6
BYBLOCK
 62
0
100
AcDbPolyline
 90
3
 70
1
 10
-1.0
 20
0.16439898372402537
 10
0.0
 20
0.0
 10
-1.0
 20
-0.16439898372402537
  0
ENDBLK
  5
86
330
84
100
AcDbEntity
  8
0
100
AcDbBlockEnd
  0
BLOCK
  5
97
330
96
100
AcDbEntity
  8
0
100
AcDbBlockBegin
  2
*D1
 70
1
 10
0.0
 20
0.0
 30
0.0
  3
*D1
  1

  0
LINE
  5
99
330
96
100
AcDbEntity
  8
0
100
AcDbLine
 10
0.0
 20
-3.0
 30
0.0
 11
0.0
 21
-33.0
 31
0.0
  0
LINE
  5
9A
330
96
100
AcDbEntity
  8
0
100
AcDbLine
 10
1259.9999704118309
 20
-3.0
 30
0.0
 11
1259.9999704118309
 21
-33.0
 31
0.0
  0
INSERT
  5
9B
330
96
100
AcDbEntity
  8
DIM
100
AcDbBlockReference
  2
_CLOSEDFILLED
 10
0.0
 20
-30.0
 30
0.0
 41
4.0
 42
4.0
 50
180.0
  0
INSERT
  5
9D
330
96
100
AcDbEntity
  8
DIM
100
AcDbBlockReference
  2
_CLOSEDFILLED
 10
1259.9999704118309
 20
-30.0
 30
0.0
 41
4.0
 42
4.0
  0
LINE
  5
9F
330
96
100
AcDbEntity
  8
0
100
AcDbLine
 10
4.0
 20
-30.0
 30
0.0
 11
1255.9999704118309
 21
-30.0
 31
0.0
  0
MTEXT
  5
A0
330
96
100
AcDbEntity
  8
DIM
 62
7
100
AcDbMText
 10
629.9999852059154
 20
-26.375
 30
0.0
 40
6.0
 71
5
  1
1260
  7
OpenSansCondensed-Light
  0
POINT
  5
A1
330
96
100
AcDbEntity
  8
Defpoints
100
AcDbPoint
 10
0.0
 20
-30.0
 30
0.0
  0
POINT
  5
A2
330
96
100
AcDbEntity
  8
Defpoints
100
AcDbPoint
 10
0.0
 20
0.0
 30
0.0
  0
POINT
  5
A3
330
96
100
AcDbEntity
  8
Defpoints
100
AcDbPoint
 10
1259.9999704118309
 20
0.0
 30
0.0
  0
ENDBLK
  5
98
330
96
100
AcDbEntity
  8
0
100
AcDbBlockEnd
  0
BLOCK
  5
A6
330
A5
100
AcDbEntity
  8
0
100
AcDbBlockBegin
  2
*D2
 70
1
 10
0.0
 20
0.0
 30
0.0
  3
*D2
  1

  0
LINE
  5
A8
330
A5
100
AcDbEntity
  8
0
100
AcDbLine
 10
2.9999999999999996
 20
0.0
 30
0.0
 11
33.0
 21
0.0
 31
0.0
  0
LINE
  5
A9
330
A5
100
AcDbEntity
  8
0
100
AcDbLine
 10
2.9999999999999996
 20
289.99996965489385
 30
0.0
 11
33.0
 21
289.99996965489385
 31
0.0
  0
INSERT
  5
AA
330
A5
100
AcDbEntity
  8
DIM
100
AcDbBlockReference
  2
_CLOSEDFILLED
 10
30.000000000000004
 20
0.0
 30
0.0
 41
4.0
 42
4.0
 50
270.0
  0
INSERT
  5
AC
330
A5
100
AcDbEntity
  8
DIM
100
AcDbBlockReference
  2
_CLOSEDFILLED
 10
30.000000000000004
 20
289.99996965489385
 30
0.0
 41
4.0
 42
4.0
 50
90.0
  0
LINE
  5
AE
330
A5
100
AcDbEntity
  8
0
100
AcDbLine
 10
30.000000000000004
 20
4.0
 30
0.0
 11
30.000000000000004
 21
285.99996965489385
 31
0.0
  0
MTEXT
  5
AF
330
A5
100
AcDbEntity
  8
DIM
 62
7
100
AcDbMText
 10
26.375000000000004
 20
144.99998482744692
 30
0.0
 40
6.0
 71
5
  1
290
  7
OpenSansCondensed-Light
 50
90.0
  0
POINT
  5
B0
330
A5
100
AcDbEntity
  8
Defpoints
100
AcDbPoint
 10
30.000000000000004
 20
0.0
 30
0.0
  0
POINT
  5
B1
330
A5
100
AcDbEntity
  8
Defpoints
100
AcDbPoint
 10
0.0
 20
0.0
 30
0.0
  0
POINT
  5
B2
330
A5
100
AcDbEntity
  8
Defpoints
100
AcDbPoint
 10
0.0
 20
289.99996965489385
 30
0.0
  0
ENDBLK
  5
A7
330
A5
100
AcDbEntity
  8
0
100
AcDbBlockEnd
  0
BLOCK
  5
B5
330
B4
100
AcDbEntity
  8
0
100
AcDbBlockBegin
  2
*D3
 70
1
 10
0.0
 20
0.0
 30
0.0
  3
*D3
  1

  0
INSERT
  5
B7
330
B4
100
AcDbEntity
  8
DIM
100
AcDbBlockReference
  2
_CLOSEDFILLED
 10
248.61001975258213
 20
28.610012618186854
 30
0.0
 41
4.0
 42
4.0
 50
45.0
  0
INSERT
  5
B9
330
B4
100
AcDbEntity
  8
DIM
100
AcDbBlockReference
  2
_CLOSEDFILLED
 10
291.38998001436823
 20
71.38997287997297
 30
0.0
 41
4.0
 42
4.0
 50
45.0
  0
LINE
  5
BB
330
B4
100
AcDbEntity
  8
0
100
AcDbLine
 10
245.78159262783595
 20
25.781585493440666
 30
0.0
 11
288.561552889622
 21
68.56154575522679
 31
0.0
  0
LINE
  5
BC
330
B4
100
AcDbEntity
  8
0
100
AcDbLine
 10
245.78159262783595
 20
25.781585493440666
 30
0.0
 11
224.12644745399794
 21
4.126440319602651
 31
0.0
  0
MTEXT
  5
BD
330
B4
100
AcDbEntity
  8
DIM
 62
7
100
AcDbMText
 10
232.16978708999488
 20
17.296304119202095
 30
0.0
 40
6.0
 71
5
  1
%%c60,5
  7
OpenSansCondensed-Light
 50
45.0
  0
POINT
  5
BE
330
B4
100
AcDbEntity
  8
Defpoints
100
AcDbPoint
 10
269.9999998834752
 20
49.999992749079915
 30
0.0
  0
POINT
  5
BF
330
B4
100
AcDbEntity
  8
Defpoints
100
AcDbPoint
 10
248.61001975258213
 20
28.610012618186854
 30
0.0
  0
ENDBLK
  5
B6
330
B4
100
AcDbEntity
  8
0
100
AcDbBlockEnd
  0
BLOCK
  5
C2
330
C1
100
AcDbEntity
  8
0
100
AcDbBlockBegin
  2
*D4
 70
1
 10
0.0
 20
0.0
 30
0.0
  3
*D4
  1

  0
INSERT
  5
C4
330
C1
100
AcDbEntity
  8
DIM
100
AcDbBlockReference
  2
_CLOSEDFILLED
 10
1202.1455536585147
 20
32.145546524119595
 30
0.0
 41
4.0
 42
4.0
 50
44.999999999999886
  0
INSERT
  5
C6
330
C1
100
AcDbEntity
  8
DIM
100
AcDbBlockReference
  2
_CLOSEDFILLED
 10
1237.8544461084355
 20
67.85443897404024
 30
0.0
 41
4.0
 42
4.0
 50
44.999999999999886
  0
LINE
  5
C8
330
C1
100
AcDbEntity
  8
0
100
AcDbLine
 10
1199.3171265337685
 20
29.31711939937341
 30
0.0
 11
1235.0260189836893
 21
65.02601184929405
 31
0.0
  0
LINE
  5
C9
330
C1
100
AcDbEntity
  8
0
100
AcDbLine
 10
1199.3171265337685
 20
29.31711939937341
 30
0.0
 11
1177.6619813599305
 21
7.661974225535431
 31
0.0
  0
MTEXT
  5
CA
330
C1
100
AcDbEntity
  8
DIM
 62
7
100
AcDbMText
 10
1185.7053209959274
 20
20.831838025134864
 30
0.0
 40
6.0
 71
5
  1
%%c50,5
  7
OpenSansCondensed-Light
 50
44.999999999999886
  0
POINT
  5
CB
330
C1
100
AcDbEntity
  8
Defpoints
100
AcDbPoint
 10
1219.999999883475
 20
49.999992749079915
 30
0.0
  0
POINT
  5
CC
330
C1
100
AcDbEntity
  8
Defpoints
100
AcDbPoint
 10
1202.1455536585147
 20
32.145546524119595
 30
0.0
  0
ENDBLK
  5
C3
330
C1
100
AcDbEntity
  8
0
100
AcDbBlockEnd
  0
BLOCK
  5
CF
330
CE
100
AcDbEntity
  8
0
100
AcDbBlockBegin
  2
*D5
 70
1
 10
0.0
 20
0.0
 30
0.0
  3
*D5
  1

  0
INSERT
  5
D1
330
CE
100
AcDbEntity
  8
DIM
100
AcDbBlockReference
  2
_CLOSEDFILLED
 10
1052.1455536585147
 20
52.145546524119595
 30
0.0
 41
4.0
 42
4.0
 50
44.999999999999886
  0
INSERT
  5
D3
330
CE
100
AcDbEntity
  8
DIM
100
AcDbBlockReference
  2
_CLOSEDFILLED
 10
1087.8544461084355
 20
87.85443897404025
 30
0.0
 41
4.0
 42
4.0
 50
44.999999999999886
  0
LINE
  5
D5
330
CE
100
AcDbEntity
  8
0
100
AcDbLine
 10
1049.3171265337685
 20
49.31711939937341
 30
0.0
 11
1085.0260189836893
 21
85.02601184929406
 31
0.0
  0
LINE
  5
D6
330
CE
100
AcDbEntity
  8
0
100
AcDbLine
 10
1049.3171265337685
 20
49.31711939937341
 30
0.0
 11
1027.6619813599305
 21
27.661974225535428
 31
0.0
  0
MTEXT
  5
D7
330
CE
100
AcDbEntity
  8
DIM
 62
7
100
AcDbMText
 10
1035.7053209959274
 20
40.831838025134864
 30
0.0
 40
6.0
 71
5
  1
%%c50,5
  7
OpenSansCondensed-Light
 50
44.999999999999886
  0
POINT
  5
D8
330
CE
100
AcDbEntity
  8
Defpoints
100
AcDbPoint
 10
1069.999999883475
 20
69.99999274907992
 30
0.0
  0
POINT
  5
D9
330
CE
100
AcDbEntity
  8
Defpoints
100
AcDbPoint
 10
1052.1455536585147
 20
52.145546524119595
 30
0.0
  0
ENDBLK
  5
D0
330
CE
100
AcDbEntity
  8
0
100
AcDbBlockEnd
  0
BLOCK
  5
DC
330
DB
100
AcDbEntity
  8
0
100
AcDbBlockBegin
  2
*D6
 70
1
 10
0.0
 20
0.0
 30
0.0
  3
*D6
  1

  0
INSERT
  5
DE
330
DB
100
AcDbEntity
  8
DIM
100
AcDbBlockReference
  2
_CLOSEDFILLED
 10
30.10050494686353
 20
240.10049781246826
 30
0.0
 41
4.0
 42
4.0
 50
44.99999999999997
  0
INSERT
  5
E0
330
DB
100
AcDbEntity
  8
DIM
100
AcDbBlockReference
  2
_CLOSEDFILLED
 10
49.899494820086865
 20
259.8994876856916
 30
0.0
 41
4.0
 42
4.0
 50
44.99999999999997
  0
LINE
  5
E2
330
DB
100
AcDbEntity
  8
0
100
AcDbLine
 10
27.27207782211734
 20
237.27207068772208
 30
0.0
 11
47.07106769534067
 21
257.0710605609454
 31
0.0
  0
LINE
  5
E3
330
DB
100
AcDbEntity
  8
0
100
AcDbLine
 10
27.27207782211734
 20
237.27207068772208
 30
0.0
 11
14.102214022517886
 21
224.10220688812262
 31
0.0
  0
MTEXT
  5
E4
330
DB
100
AcDbEntity
  8
DIM
 62
7
100
AcDbMText
 10
17.902912971395583
 20
233.0294300006028
 30
0.0
 40
6.0
 71
5
  1
%%c28
  7
OpenSansCondensed-Light
 50
44.99999999999997
  0
POINT
  5
E5
330
DB
100
AcDbEntity
  8
Defpoints
100
AcDbPoint
 10
39.9999998834752
 20
249.99999274907992
 30
0.0
  0
POINT
  5
E6
330
DB
100
AcDbEntity
  8
Defpoints
100
AcDbPoint
 10
30.10050494686353
 20
240.10049781246826
 30
0.0
  0
ENDBLK
  5
DD
330
DB
100
AcDbEntity
  8
0
100
AcDbBlockEnd
  0
BLOCK
  5
E9
330
E8
100
AcDbEntity
  8
0
100
AcDbBlockBegin
  2
*D7
 70
1
 10
0.0
 20
0.0
 30
0.0
  3
*D7
  1

  0
LINE
  5
EB
330
E8
100
AcDbEntity
  8
0
100
AcDbLine
 10
269.9999998834752
 20
52.999992749079915
 30
0.0
 11
269.9999998834752
 21
77.99999274907992
 31
0.0
  0
LINE
  5
EC
330
E8
100
AcDbEntity
  8
0
100
AcDbLine
 10
1219.999999883475
 20
52.999992749079915
 30
0.0
 11
1219.999999883475
 21
77.99999274907992
 31
0.0
  0
INSERT
  5
ED
330
E8
100
AcDbEntity
  8
DIM
100
AcDbBlockReference
  2
_CLOSEDFILLED
 10
269.9999998834752
 20
74.99999274907992
 30
0.0
 41
4.0
 42
4.0
 50
180.0
  0
INSERT
  5
EF
330
E8
100
AcDbEntity
  8
DIM
100
AcDbBlockReference
  2
_CLOSEDFILLED
 10
1219.999999883475
 20
74.99999274907992
 30
0.0
 41
4.0
 42
4.0
  0
LINE
  5
F1
330
E8
100
AcDbEntity
  8
0
100
AcDbLine
 10
273.9999998834752
 20
74.99999274907992
 30
0.0
 11
1215.999999883475
 21
74.99999274907992
 31
0.0
  0
MTEXT
  5
F2
330
E8
100
AcDbEntity
  8
DIM
 62
7
100
AcDbMText
 10
744.9999998834751
 20
78.62499274907992
 30
0.0
 40
6.0
 71
5
  1
950
  7
OpenSansCondensed-Light
  0
POINT
  5
F3
330
E8
100
AcDbEntity
  8
Defpoints
100
AcDbPoint
 10
269.9999998834752
 20
74.99999274907992
 30
0.0
  0
POINT
  5
F4
330
E8
100
AcDbEntity
  8
Defpoints
100
AcDbPoint
 10
269.9999998834752
 20
49.999992749079915
 30
0.0
  0
POINT
  5
F5
330
E8
100
AcDbEntity
  8
Defpoints
100
AcDbPoint
 10
1219.999999883475
 20
49.999992749079915
 30
0.0
  0
ENDBLK
  5
EA
330
E8
100
AcDbEntity
  8
0
100
AcDbBlockEnd
  0
BLOCK
  5
FB
330
FA
100
AcDbEntity
  8
0
100
AcDbBlockBegin
  2
*D8
 70
1
 10
0.0
 20
0.0
 30
0.0
  3
*D8
  1

  0
LINE
  5
FD
330
FA
100
AcDbEntity
  8
0
100
AcDbLine
 10
1359.9999704118309
 20
-2.9999999999999996
 30
0.0
 11
1359.9999704118309
 21
-33.0
 31
0.0
  0
LINE
  5
FE
330
FA
100
AcDbEntity
  8
0
100
AcDbLine
 10
2309.947337374864
 20
-2.9999999999999996
 30
0.0
 11
2309.947337374864
 21
-33.0
 31
0.0
  0
INSERT
  5
FF
330
FA
100
AcDbEntity
  8
DIM
100
AcDbBlockReference
  2
_CLOSEDFILLED
 10
1359.9999704118309
 20
-30.000000000000004
 30
0.0
 41
4.0
 42
4.0
 50
180.0
  0
INSERT
  5
101
330
FA
100
AcDbEntity
  8
DIM
100
AcDbBlockReference
  2
_CLOSEDFILLED
 10
2309.947337374864
 20
-30.000000000000004
 30
0.0
 41
4.0
 42
4.0
  0
LINE
  5
103
330
FA
100
AcDbEntity
  8
0
100
AcDbLine
 10
1363.9999704118309
 20
-30.000000000000004
 30
0.0
 11
2305.947337374864
 21
-30.000000000000004
 31
0.0
  0
MTEXT
  5
104
330
FA
100
AcDbEntity
  8
DIM
 62
7
100
AcDbMText
 10
1834.9736538933475
 20
-26.375000000000004
 30
0.0
 40
6.0
 71
5
  1
949,9
  7
OpenSansCondensed-Light
  0
POINT
  5
105
330
FA
100
AcDbEntity
  8
Defpoints
100
AcDbPoint
 10
1359.9999704118309
 20
-30.000000000000004
 30
0.0
  0
POINT
  5
106
330
FA
100
AcDbEntity
  8
Defpoints
100
AcDbPoint
 10
1359.9999704118309
 20
0.0
 30
0.0
  0
POINT
  5
107
330
FA
100
AcDbEntity
  8
Defpoints
100
AcDbPoint
 10
2309.947337374864
 20
0.0
 30
0.0
  0
ENDBLK
  5
FC
330
FA
100
AcDbEntity
  8
0
100
AcDbBlockEnd
  0
BLOCK
  5
10A
330
109
100
AcDbEntity
  8
0
100
AcDbBlockBegin
  2
*D9
 70
1
 10
0.0
 20
0.0
 30
0.0
  3
*D9
  1

  0
LINE
  5
10C
330
109
100
AcDbEntity
  8
0
100
AcDbLine
 10
1362.9999704118309
 20
0.0
 30
0.0
 11
1392.9999704118309
 21
0.0
 31
0.0
  0
LINE
  5
10D
330
109
100
AcDbEntity
  8
0
100
AcDbLine
 10
1362.9999704118309
 20
75.0
 30
0.0
 11
1392.9999704118309
 21
75.0
 31
0.0
  0
INSERT
  5
10E
330
109
100
AcDbEntity
  8
DIM
100
AcDbBlockReference
  2
_CLOSEDFILLED
 10
1389.9999704118309
 20
0.0
 30
0.0
 41
4.0
 42
4.0
 50
270.0
  0
INSERT
  5
110
330
109
100
AcDbEntity
  8
DIM
100
AcDbBlockReference
  2
_CLOSEDFILLED
 10
1389.9999704118309
 20
75.0
 30
0.0
 41
4.0
 42
4.0
 50
90.0
  0
LINE
  5
112
330
109
100
AcDbEntity
  8
0
100
AcDbLine
 10
1389.9999704118309
 20
4.0
 30
0.0
 11
1389.9999704118309
 21
71.0
 31
0.0
  0
MTEXT
  5
113
330
109
100
AcDbEntity
  8
DIM
 62
7
100
AcDbMText
 10
1386.3749704118309
 20
37.5
 30
0.0
 40
6.0
 71
5
  1
75
  7
OpenSansCondensed-Light
 50
90.0
  0
POINT
  5
114
330
109
100
AcDbEntity
  8
Defpoints
100
AcDbPoint
 10
1389.9999704118309
 20
0.0
 30
0.0
  0
POINT
  5
115
330
109
100
AcDbEntity
  8
Defpoints
100
AcDbPoint
 10
1359.9999704118309
 20
0.0
 30
0.0
  0
POINT
  5
116
330
109
100
AcDbEntity
  8
Defpoints
100
AcDbPoint
 10
1359.9999704118309
 20
75.0
 30
0.0
  0
ENDBLK
  5
10B
330
109
100
AcDbEntity
  8
0
100
AcDbBlockEnd
  0
BLOCK
  5
11C
330
11B
100
AcDbEntity
  8
0
100
AcDbBlockBegin
  2
*D10
 70
1
 10
0.0
 20
0.0
 30
0.0
  3
*D10
  1

  0
LINE
  5
11E
330
11B
100
AcDbEntity
  8
0
100
AcDbLine
 10
2409.947337374864
 20
-3.0
 30
0.0
 11
2409.947337374864
 21
-33.0
 31
0.0
  0
LINE
  5
11F
330
11B
100
AcDbEntity
  8
0
100
AcDbLine
 10
3253.3333699838945
 20
-3.0
 30
0.0
 11
3253.3333699838945
 21
-33.0
 31
0.0
  0
INSERT
  5
120
330
11B
100
AcDbEntity
  8
DIM
100
AcDbBlockReference
  2
_CLOSEDFILLED
 10
2409.947337374864
 20
-30.0
 30
0.0
 41
4.0
 42
4.0
 50
180.0
  0
INSERT
  5
122
330
11B
100
AcDbEntity
  8
DIM
100
AcDbBlockReference
  2
_CLOSEDFILLED
 10
3253.3333699838945
 20
-30.0
 30
0.0
 41
4.0
 42
4.0
  0
LINE
  5
124
330
11B
100
AcDbEntity
  8
0
100
AcDbLine
 10
2413.947337374864
 20
-30.0
 30
0.0
 11
3249.3333699838945
 21
-30.0
 31
0.0
  0
MTEXT
  5
125
330
11B
100
AcDbEntity
  8
DIM
 62
7
100
AcDbMText
 10
2831.6403536793796
 20
-26.375
 30
0.0
 40
6.0
 71
5
  1
843,4
  7
OpenSansCondensed-Light
  0
POINT
  5
126
330
11B
100
AcDbEntity
  8
Defpoints
100
AcDbPoint
 10
2409.947337374864
 20
-30.0
 30
0.0
  0
POINT
  5
127
330
11B
100
AcDbEntity
  8
Defpoints
100
AcDbPoint
 10
2409.947337374864
 20
0.0
 30
0.0
  0
POINT
  5
128
330
11B
100
AcDbEntity
  8
Defpoints
100
AcDbPoint
 10
3253.3333699838945
 20
0.0
 30
0.0
  0
ENDBLK
  5
11D
330
11B
100
AcDbEntity
  8
0
100
AcDbBlockEnd
  0
BLOCK
  5
12B
330
12A
100
AcDbEntity
  8
0
100
AcDbBlockBegin
  2
*D11
 70
1
 10
0.0
 20
0.0
 30
0.0
  3
*D11
  1

  0
LINE
  5
12D
330
12A
100
AcDbEntity
  8
0
100
AcDbLine
 10
2412.947337374864
 20
0.0
 30
0.0
 11
2442.947337374864
 21
0.0
 31
0.0
  0
LINE
  5
12E
330
12A
100
AcDbEntity
  8
0
100
AcDbLine
 10
2412.947337374864
 20
75.0
 30
0.0
 11
2442.947337374864
 21
75.0
 31
0.0
  0
INSERT
  5
12F
330
12A
100
AcDbEntity
  8
DIM
100
AcDbBlockReference
  2
_CLOSEDFILLED
 10
2439.947337374864
 20
0.0
 30
0.0
 41
4.0
 42
4.0
 50
270.0
  0
INSERT
  5
131
330
12A
100
AcDbEntity
  8
DIM
100
AcDbBlockReference
  2
_CLOSEDFILLED
 10
2439.947337374864
 20
75.0
 30
0.0
 41
4.0
 42
4.0
 50
90.0
  0
LINE
  5
133
330
12A
100
AcDbEntity
  8
0
100
AcDbLine
 10
2439.947337374864
 20
4.0
 30
0.0
 11
2439.947337374864
 21
71.0
 31
0.0
  0
MTEXT
  5
134
330
12A
100
AcDbEntity
  8
DIM
 62
7
100
AcDbMText
 10
2436.322337374864
 20
37.5
 30
0.0
 40
6.0
 71
5
  1
75
  7
OpenSansCondensed-Light
 50
90.0
  0
POINT
  5
135
330
12A
100
AcDbEntity
  8
Defpoints
100
AcDbPoint
 10
2439.947337374864
 20
0.0
 30
0.0
  0
POINT
  5
136
330
12A
100
AcDbEntity
  8
Defpoints
100
AcDbPoint
 10
2409.947337374864
 20
0.0
 30
0.0
  0
POINT
  5
137
330
12A
100
AcDbEntity
  8
Defpoints
100
AcDbPoint
 10
2409.947337374864
 20
75.0
 30
0.0
  0
ENDBLK
  5
12C
330
12A
100
AcDbEntity
  8
0
100
AcDbBlockEnd
  0
BLOCK
  5
13D
330
13C
100
AcDbEntity
  8
0
100
AcDbBlockBegin
  2
*D12
 70
1
 10
0.0
 20
0.0
 30
0.0
  3
*D12
  1

  0
LINE
  5
13F
330
13C
100
AcDbEntity
  8
0
100
AcDbLine
 10
3353.3333699838945
 20
-3.0
 30
0.0
 11
3353.3333699838945
 21
-33.0
 31
0.0
  0
LINE
  5
140
330
13C
100
AcDbEntity
  8
0
100
AcDbLine
 10
3657.964294218451
 20
-3.0
 30
0.0
 11
3657.964294218451
 21
-33.0
 31
0.0
  0
INSERT
  5
141
330
13C
100
AcDbEntity
  8
DIM
100
AcDbBlockReference
  2
_CLOSEDFILLED
 10
3353.3333699838945
 20
-30.0
 30
0.0
 41
4.0
 42
4.0
 50
180.0
  0
INSERT
  5
143
330
13C
100
AcDbEntity
  8
DIM
100
AcDbBlockReference
  2
_CLOSEDFILLED
 10
3657.964294218451
 20
-30.0
 30
0.0
 41
4.0
 42
4.0
  0
LINE
  5
145
330
13C
100
AcDbEntity
  8
0
100
AcDbLine
 10
3357.3333699838945
 20
-30.0
 30
0.0
 11
3653.964294218451
 21
-30.0
 31
0.0
  0
MTEXT
  5
146
330
13C
100
AcDbEntity
  8
DIM
 62
7
100
AcDbMText
 10
3505.648832101173
 20
-26.375
 30
0.0
 40
6.0
 71
5
  1
304,6
  7
OpenSansCondensed-Light
  0
POINT
  5
147
330
13C
100
AcDbEntity
  8
Defpoints
100
AcDbPoint
 10
3353.3333699838945
 20
-30.0
 30
0.0
  0
POINT
  5
148
330
13C
100
AcDbEntity
  8
Defpoints
100
AcDbPoint
 10
3353.3333699838945
 20
0.0
 30
0.0
  0
POINT
  5
149
330
13C
100
AcDbEntity
  8
Defpoints
100
AcDbPoint
 10
3657.964294218451
 20
0.0
 30
0.0
  0
ENDBLK
  5
13E
330
13C
100
AcDbEntity
  8
0
100
AcDbBlockEnd
  0
BLOCK
  5
14C
330
14B
100
AcDbEntity
  8
0
100
AcDbBlockBegin
  2
*D13
 70
1
 10
0.0
 20
0.0
 30
0.0
  3
*D13
  1

  0
LINE
  5
14E
330
14B
100
AcDbEntity
  8
0
100
AcDbLine
 10
3356.3333699838945
 20
0.0
 30
0.0
 11
3386.3333699838945
 21
0.0
 31
0.0
  0
LINE
  5
14F
330
14B
100
AcDbEntity
  8
0
100
AcDbLine
 10
3356.3333699838945
 20
75.0
 30
0.0
 11
3386.3333699838945
 21
75.0
 31
0.0
  0
INSERT
  5
150
330
14B
100
AcDbEntity
  8
DIM
100
AcDbBlockReference
  2
_CLOSEDFILLED
 10
3383.3333699838945
 20
0.0
 30
0.0
 41
4.0
 42
4.0
 50
270.0
  0
INSERT
  5
152
330
14B
100
AcDbEntity
  8
DIM
100
AcDbBlockReference
  2
_CLOSEDFILLED
 10
3383.3333699838945
 20
75.0
 30
0.0
 41
4.0
 42
4.0
 50
90.0
  0
LINE
  5
154
330
14B
100
AcDbEntity
  8
0
100
AcDbLine
 10
3383.3333699838945
 20
4.0
 30
0.0
 11
3383.3333699838945
 21
71.0
 31
0.0
  0
MTEXT
  5
155
330
14B
100
AcDbEntity
  8
DIM
 62
7
100
AcDbMText
 10
3379.7083699838945
 20
37.5
 30
0.0
 40
6.0
 71
5
  1
75
  7
OpenSansCondensed-Light
 50
90.0
  0
POINT
  5
156
330
14B
100
AcDbEntity
  8
Defpoints
100
AcDbPoint
 10
3383.3333699838945
 20
0.0
 30
0.0
  0
POINT
  5
157
330
14B
100
AcDbEntity
  8
Defpoints
100
AcDbPoint
 10
3353.3333699838945
 20
0.0
 30
0.0
  0
POINT
  5
158
330
14B
100
AcDbEntity
  8
Defpoints
100
AcDbPoint
 10
3353.3333699838945
 20
75.0
 30
0.0
  0
ENDBLK
  5
14D
330
14B
100
AcDbEntity
  8
0
100
AcDbBlockEnd
  0
BLOCK
  5
15F
330
15E
100
AcDbEntity
  8
0
100
AcDbBlockBegin
  2
*D14
 70
1
 10
0.0
 20
0.0
 30
0.0
  3
*D14
  1

  0
LINE
  5
161
330
15E
100
AcDbEntity
  8
0
100
AcDbLine
 10
3757.964294218451
 20
-3.0
 30
0.0
 11
3757.964294218451
 21
-33.0
 31
0.0
  0
LINE
  5
162
330
15E
100
AcDbEntity
  8
0
100
AcDbLine
 10
3887.1274501328435
 20
-3.0
 30
0.0
 11
3887.1274501328435
 21
-33.0
 31
0.0
  0
INSERT
  5
163
330
15E
100
AcDbEntity
  8
DIM
100
AcDbBlockReference
  2
_CLOSEDFILLED
 10
3757.964294218451
 20
-30.0
 30
0.0
 41
4.0
 42
4.0
 50
180.0
  0
INSERT
  5
165
330
15E
100
AcDbEntity
  8
DIM
100
AcDbBlockReference
  2
_CLOSEDFILLED
 10
3887.1274501328435
 20
-30.0
 30
0.0
 41
4.0
 42
4.0
  0
LINE
  5
167
330
15E
100
AcDbEntity
  8
0
100
AcDbLine
 10
3761.964294218451
 20
-30.0
 30
0.0
 11
3883.1274501328435
 21
-30.0
 31
0.0
  0
MTEXT
  5
168
330
15E
100
AcDbEntity
  8
DIM
 62
7
100
AcDbMText
 10
3822.545872175647
 20
-26.375
 30
0.0
 40
6.0
 71
5
  1
129,2
  7
OpenSansCondensed-Light
  0
POINT
  5
169
330
15E
100
AcDbEntity
  8
Defpoints
100
AcDbPoint
 10
3757.964294218451
 20
-30.0
 30
0.0
  0
POINT
  5
16A
330
15E
100
AcDbEntity
  8
Defpoints
100
AcDbPoint
 10
3757.964294218451
 20
0.0
 30
0.0
  0
POINT
  5
16B
330
15E
100
AcDbEntity
  8
Defpoints
100
AcDbPoint
 10
3887.1274501328435
 20
0.0
 30
0.0
  0
ENDBLK
  5
160
330
15E
100
AcDbEntity
  8
0
100
AcDbBlockEnd
  0
BLOCK
  5
16E
330
16D
100
AcDbEntity
  8
0
100
AcDbBlockBegin
  2
*D15
 70
1
 10
0.0
 20
0.0
 30
0.0
  3
*D15
  1

  0
LINE
  5
170
330
16D
100
AcDbEntity
  8
0
100
AcDbLine
 10
3760.964294218451
 20
0.0
 30
0.0
 11
3790.964294218451
 21
0.0
 31
0.0
  0
LINE
  5
171
330
16D
100
AcDbEntity
  8
0
100
AcDbLine
 10
3760.964294218451
 20
144.85920115343856
 30
0.0
 11
3790.964294218451
 21
144.85920115343856
 31
0.0
  0
INSERT
  5
172
330
16D
100
AcDbEntity
  8
DIM
100
AcDbBlockReference
  2
_CLOSEDFILLED
 10
3787.964294218451
 20
0.0
 30
0.0
 41
4.0
 42
4.0
 50
270.0
  0
INSERT
  5
174
330
16D
100
AcDbEntity
  8
DIM
100
AcDbBlockReference
  2
_CLOSEDFILLED
 10
3787.964294218451
 20
144.85920115343856
 30
0.0
 41
4.0
 42
4.0
 50
90.0
  0
LINE
  5
176
330
16D
100
AcDbEntity
  8
0
100
AcDbLine
 10
3787.964294218451
 20
4.0
 30
0.0
 11
3787.964294218451
 21
140.85920115343856
 31
0.0
  0
MTEXT
  5
177
330
16D
100
AcDbEntity
  8
DIM
 62
7
100
AcDbMText
 10
3784.339294218451
 20
72.42960057671928
 30
0.0
 40
6.0
 71
5
  1
144,9
  7
OpenSansCondensed-Light
 50
90.0
  0
POINT
  5
178
330
16D
100
AcDbEntity
  8
Defpoints
100
AcDbPoint
 10
3787.964294218451
 20
0.0
 30
0.0
  0
POINT
  5
179
330
16D
100
AcDbEntity
  8
Defpoints
100
AcDbPoint
 10
3757.964294218451
 20
0.0
 30
0.0
  0
POINT
  5
17A
330
16D
100
AcDbEntity
  8
Defpoints
100
AcDbPoint
 10
3757.964294218451
 20
144.85920115343856
 30
0.0
  0
ENDBLK
  5
16F
330
16D
100
AcDbEntity
  8
0
100
AcDbBlockEnd
  0
BLOCK
  5
17D
330
17C
100
AcDbEntity
  8
0
100
AcDbBlockBegin
  2
*D16
 70
1
 10
0.0
 20
0.0
 30
0.0
  3
*D16
  1

  0
INSERT
  5
17F
330
17C
100
AcDbEntity
  8
DIM
100
AcDbBlockReference
  2
_CLOSEDFILLED
 10
3807.217955196232
 20
94.95970621682689
 30
0.0
 41
4.0
 42
4.0
 50
45.0000000000004
  0
INSERT
  5
181
330
17C
100
AcDbEntity
  8
DIM
100
AcDbBlockReference
  2
_CLOSEDFILLED
 10
3827.0169450694552
 20
114.75869609005021
 30
0.0
 41
4.0
 42
4.0
 50
45.0000000000004
  0
LINE
  5
183
330
17C
100
AcDbEntity
  8
0
100
AcDbLine
 10
3804.389528071486
 20
92.13127909208067
 30
0.0
 11
3824.188517944709
 21
111.930268965304
 31
0.0
  0
LINE
  5
184
330
17C
100
AcDbEntity
  8
0
100
AcDbLine
 10
3804.389528071486
 20
92.13127909208067
 30
0.0
 11
3791.219664271887
 21
78.96141529248113
 31
0.0
  0
MTEXT
  5
185
330
17C
100
AcDbEntity
  8
DIM
 62
7
100
AcDbMText
 10
3795.020363220764
 20
87.88863840496133
 30
0.0
 40
6.0
 71
5
  1
%%c28
  7
OpenSansCondensed-Light
 50
45.0000000000004
  0
POINT
  5
186
330
17C
100
AcDbEntity
  8
Defpoints
100
AcDbPoint
 10
3817.1174501328437
 20
104.85920115343855
 30
0.0
  0
POINT
  5
187
330
17C
100
AcDbEntity
  8
Defpoints
100
AcDbPoint
 10
3807.217955196232
 20
94.95970621682689
 30
0.0
  0
ENDBLK
  5
17E
330
17C
100
AcDbEntity
  8
0
100
AcDbBlockEnd
  0
BLOCK
  5
18E
330
18D
100
AcDbEntity
  8
0
100
AcDbBlockBegin
  2
*D17
 70
1
 10
0.0
 20
0.0
 30
0.0
  3
*D17
  1

  0
LINE
  5
190
330
18D
100
AcDbEntity
  8
0
100
AcDbLine
 10
3987.1274501328444
 20
-3.0
 30
0.0
 11
3987.1274501328444
 21
-33.0
 31
0.0
  0
LINE
  5
191
330
18D
100
AcDbEntity
  8
0
100
AcDbLine
 10
4057.1274501328444
 20
-3.0
 30
0.0
 11
4057.1274501328444
 21
-33.0
 31
0.0
  0
INSERT
  5
192
330
18D
100
AcDbEntity
  8
DIM
100
AcDbBlockReference
  2
_CLOSEDFILLED
 10
3987.1274501328444
 20
-30.0
 30
0.0
 41
4.0
 42
4.0
 50
180.0
  0
INSERT
  5
194
330
18D
100
AcDbEntity
  8
DIM
100
AcDbBlockReference
  2
_CLOSEDFILLED
 10
4057.1274501328444
 20
-30.0
 30
0.0
 41
4.0
 42
4.0
  0
LINE
  5
196
330
18D
100
AcDbEntity
  8
0
100
AcDbLine
 10
3991.1274501328444
 20
-30.0
 30
0.0
 11
4053.1274501328444
 21
-30.0
 31
0.0
  0
MTEXT
  5
197
330
18D
100
AcDbEntity
  8
DIM
 62
7
100
AcDbMText
 10
4022.1274501328444
 20
-26.375
 30
0.0
 40
6.0
 71
5
  1
70
  7
OpenSansCondensed-Light
  0
POINT
  5
198
330
18D
100
AcDbEntity
  8
Defpoints
100
AcDbPoint
 10
3987.1274501328444
 20
-30.0
 30
0.0
  0
POINT
  5
199
330
18D
100
AcDbEntity
  8
Defpoints
100
AcDbPoint
 10
3987.1274501328444
 20
0.0
 30
0.0
  0
POINT
  5
19A
330
18D
100
AcDbEntity
  8
Defpoints
100
AcDbPoint
 10
4057.1274501328444
 20
0.0
 30
0.0
  0
ENDBLK
  5
18F
330
18D
100
AcDbEntity
  8
0
100
AcDbBlockEnd
  0
BLOCK
  5
19D
330
19C
100
AcDbEntity
  8
0
100
AcDbBlockBegin
  2
*D18
 70
1
 10
0.0
 20
0.0
 30
0.0
  3
*D18
  1

  0
LINE
  5
19F
330
19C
100
AcDbEntity
  8
0
100
AcDbLine
 10
3990.1274501328444
 20
0.0
 30
0.0
 11
4020.1274501328444
 21
0.0
 31
0.0
  0
LINE
  5
1A0
330
19C
100
AcDbEntity
  8
0
100
AcDbLine
 10
3990.1274501328444
 20
70.0
 30
0.0
 11
4020.1274501328444
 21
70.0
 31
0.0
  0
INSERT
  5
1A1
330
19C
100
AcDbEntity
  8
DIM
100
AcDbBlockReference
  2
_CLOSEDFILLED
 10
4017.1274501328444
 20
0.0
 30
0.0
 41
4.0
 42
4.0
 50
270.0
  0
INSERT
  5
1A3
330
19C
100
AcDbEntity
  8
DIM
100
AcDbBlockReference
  2
_CLOSEDFILLED
 10
4017.1274501328444
 20
70.0
 30
0.0
 41
4.0
 42
4.0
 50
90.0
  0
LINE
  5
1A5
330
19C
100
AcDbEntity
  8
0
100
AcDbLine
 10
4017.1274501328444
 20
4.0
 30
0.0
 11
4017.1274501328444
 21
66.0
 31
0.0
  0
MTEXT
  5
1A6
330
19C
100
AcDbEntity
  8
DIM
 62
7
100
AcDbMText
 10
4013.5024501328444
 20
35.0
 30
0.0
 40
6.0
 71
5
  1
70
  7
OpenSansCondensed-Light
 50
90.0
  0
POINT
  5
1A7
330
19C
100
AcDbEntity
  8
Defpoints
100
AcDbPoint
 10
4017.1274501328444
 20
0.0
 30
0.0
  0
POINT
  5
1A8
330
19C
100
AcDbEntity
  8
Defpoints
100
AcDbPoint
 10
3987.1274501328444
 20
0.0
 30
0.0
  0
POINT
  5
1A9
330
19C
100
AcDbEntity
  8
Defpoints
100
AcDbPoint
 10
3987.1274501328444
 20
70.0
 30
0.0
  0
ENDBLK
  5
19E
330
19C
100
AcDbEntity
  8
0
100
AcDbBlockEnd
  0
BLOCK
  5
1AC
330
1AB
100
AcDbEntity
  8
0
100
AcDbBlockBegin
  2
*D19
 70
1
 10
0.0
 20
0.0
 30
0.0
  3
*D19
  1

  0
INSERT
  5
1AE
330
1AB
100
AcDbEntity
  8
DIM
100
AcDbBlockReference
  2
_CLOSEDFILLED
 10
4012.227955196233
 20
25.100505063388336
 30
0.0
 41
4.0
 42
4.0
 50
45.0000000000004
  0
INSERT
  5
1B0
330
1AB
100
AcDbEntity
  8
DIM
100
AcDbBlockReference
  2
_CLOSEDFILLED
 10
4032.026945069456
 20
44.89949493661166
 30
0.0
 41
4.0
 42
4.0
 50
45.0000000000004
  0
LINE
  5
1B2
330
1AB
100
AcDbEntity
  8
0
100
AcDbLine
 10
4009.3995280714867
 20
22.272077938642127
 30
0.0
 11
4029.1985179447097
 21
42.07106781186545
 31
0.0
  0
LINE
  5
1B3
330
1AB
100
AcDbEntity
  8
0
100
AcDbLine
 10
4009.3995280714867
 20
22.272077938642127
 30
0.0
 11
3996.2296642718875
 21
9.102214139042584
 31
0.0
  0
MTEXT
  5
1B4
330
1AB
100
AcDbEntity
  8
DIM
 62
7
100
AcDbMText
 10
4000.0303632207647
 20
18.029437251522772
 30
0.0
 40
6.0
 71
5
  1
%%c28
  7
OpenSansCondensed-Light
 50
45.0000000000004
  0
POINT
  5
1B5
330
1AB
100
AcDbEntity
  8
Defpoints
100
AcDbPoint
 10
4022.1274501328444
 20
35.0
 30
0.0
  0
POINT
  5
1B6
330
1AB
100
AcDbEntity
  8
Defpoints
100
AcDbPoint
 10
4012.227955196233
 20
25.100505063388336
 30
0.0
  0
ENDBLK
  5
1AD
330
1AB
100
AcDbEntity
  8
0
100
AcDbBlockEnd
  0
BLOCK
  5
1BE
330
1BD
100
AcDbEntity
  8
0
100
AcDbBlockBegin
  2
*D20
 70
1
 10
0.0
 20
0.0
 30
0.0
  3
*D20
  1

  0
LINE
  5
1C0
330
1BD
100
AcDbEntity
  8
0
100
AcDbLine
 10
0.0
 20
386.99996965489385
 30
0.0
 11
0.0
 21
356.99996965489385
 31
0.0
  0
LINE
  5
1C1
330
1BD
100
AcDbEntity
  8
0
100
AcDbLine
 10
300.0
 20
386.99996965489385
 30
0.0
 11
300.0
 21
356.99996965489385
 31
0.0
  0
INSERT
  5
1C2
330
1BD
100
AcDbEntity
  8
DIM
100
AcDbBlockReference
  2
_CLOSEDFILLED
 10
0.0
 20
359.99996965489385
 30
0.0
 41
4.0
 42
4.0
 50
180.0
  0
INSERT
  5
1C4
330
1BD
100
AcDbEntity
  8
DIM
100
AcDbBlockReference
  2
_CLOSEDFILLED
 10
300.0
 20
359.99996965489385
 30
0.0
 41
4.0
 42
4.0
  0
LINE
  5
1C6
330
1BD
100
AcDbEntity
  8
0
100
AcDbLine
 10
4.0
 20
359.99996965489385
 30
0.0
 11
296.0
 21
359.99996965489385
 31
0.0
  0
MTEXT
  5
1C7
330
1BD
100
AcDbEntity
  8
DIM
 62
7
100
AcDbMText
 10
150.0
 20
363.62496965489385
 30
0.0
 40
6.0
 71
5
  1
300
  7
OpenSansCondensed-Light
  0
POINT
  5
1C8
330
1BD
100
AcDbEntity
  8
Defpoints
100
AcDbPoint
 10
0.0
 20
359.99996965489385
 30
0.0
  0
POINT
  5
1C9
330
1BD
100
AcDbEntity
  8
Defpoints
100
AcDbPoint
 10
0.0
 20
389.99996965489385
 30
0.0
  0
POINT
  5
1CA
330
1BD
100
AcDbEntity
  8
Defpoints
100
AcDbPoint
 10
300.0
 20
389.99996965489385
 30
0.0
  0
ENDBLK
  5
1BF
330
1BD
100
AcDbEntity
  8
0
100
AcDbBlockEnd
  0
BLOCK
  5
1CD
330
1CC
100
AcDbEntity
  8
0
100
AcDbBlockBegin
  2
*D21
 70
1
 10
0.0
 20
0.0
 30
0.0
  3
*D21
  1

  0
LINE
  5
1CF
330
1CC
100
AcDbEntity
  8
0
100
AcDbLine
 10
3.0
 20
389.99996965489385
 30
0.0
 11
33.0
 21
389.99996965489385
 31
0.0
  0
LINE
  5
1D0
330
1CC
100
AcDbEntity
  8
0
100
AcDbLine
 10
3.0
 20
459.99996965489385
 30
0.0
 11
33.0
 21
459.99996965489385
 31
0.0
  0
INSERT
  5
1D1
330
1CC
100
AcDbEntity
  8
DIM
100
AcDbBlockReference
  2
_CLOSEDFILLED
 10
30.0
 20
389.99996965489385
 30
0.0
 41
4.0
 42
4.0
 50
270.0
  0
INSERT
  5
1D3
330
1CC
100
AcDbEntity
  8
DIM
100
AcDbBlockReference
  2
_CLOSEDFILLED
 10
30.0
 20
459.99996965489385
 30
0.0
 41
4.0
 42
4.0
 50
90.0
  0
LINE
  5
1D5
330
1CC
100
AcDbEntity
  8
0
100
AcDbLine
 10
30.0
 20
393.99996965489385
 30
0.0
 11
30.0
 21
455.99996965489385
 31
0.0
  0
MTEXT
  5
1D6
330
1CC
100
AcDbEntity
  8
DIM
 62
7
100
AcDbMText
 10
26.375
 20
424.99996965489385
 30
0.0
 40
6.0
 71
5
  1
70
  7
OpenSansCondensed-Light
 50
90.0
  0
POINT
  5
1D7
330
1CC
100
AcDbEntity
  8
Defpoints
100
AcDbPoint
 10
30.0
 20
389.99996965489385
 30
0.0
  0
POINT
  5
1D8
330
1CC
100
AcDbEntity
  8
Defpoints
100
AcDbPoint
 10
0.0
 20
389.99996965489385
 30
0.0
  0
POINT
  5
1D9
330
1CC
100
AcDbEntity
  8
Defpoints
100
AcDbPoint
 10
0.0
 20
459.99996965489385
 30
0.0
  0
ENDBLK
  5
1CE
330
1CC
100
AcDbEntity
  8
0
100
AcDbBlockEnd
  0
BLOCK
  5
1DC
330
1DB
100
AcDbEntity
  8
0
100
AcDbBlockBegin
  2
*D22
 70
1
 10
0.0
 20
0.0
 30
0.0
  3
*D22
  1

  0
INSERT
  5
1DE
330
1DB
100
AcDbEntity
  8
DIM
100
AcDbBlockReference
  2
_CLOSEDFILLED
 10
25.100505063388333
 20
415.10047471828216
 30
0.0
 41
4.0
 42
4.0
 50
45.00000000000006
  0
INSERT
  5
1E0
330
1DB
100
AcDbEntity
  8
DIM
100
AcDbBlockReference
  2
_CLOSEDFILLED
 10
44.89949493661167
 20
434.89946459150553
 30
0.0
 41
4.0
 42
4.0
 50
45.00000000000006
  0
LINE
  5
1E2
330
1DB
100
AcDbEntity
  8
0
100
AcDbLine
 10
22.272077938642145
 20
412.27204759353594
 30
0.0
 11
42.07106781186548
 21
432.0710374667593
 31
0.0
  0
LINE
  5
1E3
330
1DB
100
AcDbEntity
  8
0
100
AcDbLine
 10
22.272077938642145
 20
412.27204759353594
 30
0.0
 11
9.102214139042712
 21
399.1021837939365
 31
0.0
  0
MTEXT
  5
1E4
330
1DB
100
AcDbEntity
  8
DIM
 62
7
100
AcDbMText
 10
12.902913087920394
 20
408.0294069064166
 30
0.0
 40
6.0
 71
5
  1
%%c28
  7
OpenSansCondensed-Light
 50
45.00000000000006
  0
POINT
  5
1E5
330
1DB
100
AcDbEntity
  8
Defpoints
100
AcDbPoint
 10
35.0
 20
424.99996965489385
 30
0.0
  0
POINT
  5
1E6
330
1DB
100
AcDbEntity
  8
Defpoints
100
AcDbPoint
 10
25.100505063388333
 20
415.10047471828216
 30
0.0
  0
ENDBLK
  5
1DD
330
1DB
100
AcDbEntity
  8
0
100
AcDbBlockEnd
  0
BLOCK
  5
1E9
330
1E8
100
AcDbEntity
  8
0
100
AcDbBlockBegin
  2
*D23
 70
1
 10
0.0
 20
0.0
 30
0.0
  3
*D23
  1

  0
INSERT
  5
1EB
330
1E8
100
AcDbEntity
  8
DIM
100
AcDbBlockReference
  2
_CLOSEDFILLED
 10
255.10050506338834
 20
415.10047471828216
 30
0.0
 41
4.0
 42
4.0
 50
45.000000000000085
  0
INSERT
  5
1ED
330
1E8
100
AcDbEntity
  8
DIM
100
AcDbBlockReference
  2
_CLOSEDFILLED
 10
274.8994949366117
 20
434.89946459150553
 30
0.0
 41
4.0
 42
4.0
 50
45.000000000000085
  0
LINE
  5
1EF
330
1E8
100
AcDbEntity
  8
0
100
AcDbLine
 10
252.27207793864216
 20
412.27204759353594
 30
0.0
 11
272.0710678118655
 21
432.0710374667593
 31
0.0
  0
LINE
  5
1F0
330
1E8
100
AcDbEntity
  8
0
100
AcDbLine
 10
252.27207793864216
 20
412.27204759353594
 30
0.0
 11
239.10221413904273
 21
399.1021837939365
 31
0.0
  0
MTEXT
  5
1F1
330
1E8
100
AcDbEntity
  8
DIM
 62
7
100
AcDbMText
 10
242.9029130879204
 20
408.0294069064166
 30
0.0
 40
6.0
 71
5
  1
%%c28
  7
OpenSansCondensed-Light
 50
45.000000000000085
  0
POINT
  5
1F2
330
1E8
100
AcDbEntity
  8
Defpoints
100
AcDbPoint
 10
265.0
 20
424.99996965489385
 30
0.0
  0
POINT
  5
1F3
330
1E8
100
AcDbEntity
  8
Defpoints
100
AcDbPoint
 10
255.10050506338834
 20
415.10047471828216
 30
0.0
  0
ENDBLK
  5
1EA
330
1E8
100
AcDbEntity
  8
0
100
AcDbBlockEnd
  0
BLOCK
  5
1F6
330
1F5
100
AcDbEntity
  8
0
100
AcDbBlockBegin
  2
*D24
 70
1
 10
0.0
 20
0.0
 30
0.0
  3
*D24
  1

  0
LINE
  5
1F8
330
1F5
100
AcDbEntity
  8
0
100
AcDbLine
 10
35.0
 20
427.99996965489385
 30
0.0
 11
35.0
 21
452.99996965489385
 31
0.0
  0
LINE
  5
1F9
330
1F5
100
AcDbEntity
  8
0
100
AcDbLine
 10
265.0
 20
427.99996965489385
 30
0.0
 11
265.0
 21
452.99996965489385
 31
0.0
  0
INSERT
  5
1FA
330
1F5
100
AcDbEntity
  8
DIM
100
AcDbBlockReference
  2
_CLOSEDFILLED
 10
35.0
 20
449.99996965489385
 30
0.0
 41
4.0
 42
4.0
 50
180.0
  0
INSERT
  5
1FC
330
1F5
100
AcDbEntity
  8
DIM
100
AcDbBlockReference
  2
_CLOSEDFILLED
 10
265.0
 20
449.99996965489385
 30
0.0
 41
4.0
 42
4.0
  0
LINE
  5
1FE
330
1F5
100
AcDbEntity
  8
0
100
AcDbLine
 10
39.0
 20
449.99996965489385
 30
0.0
 11
261.0
 21
449.99996965489385
 31
0.0
  0
MTEXT
  5
1FF
330
1F5
100
AcDbEntity
  8
DIM
 62
7
100
AcDbMText
 10
150.0
 20
453.62496965489385
 30
0.0
 40
6.0
 71
5
  1
230
  7
OpenSansCondensed-Light
  0
POINT
  5
200
330
1F5
100
AcDbEntity
  8
Defpoints
100
AcDbPoint
 10
35.0
 20
449.99996965489385
 30
0.0
  0
POINT
  5
201
330
1F5
100
AcDbEntity
  8
Defpoints
100
AcDbPoint
 10
35.0
 20
424.99996965489385
 30
0.0
  0
POINT
  5
202
330
1F5
100
AcDbEntity
  8
Defpoints
100
AcDbPoint
 10
265.0
 20
424.99996965489385
 30
0.0
  0
ENDBLK
  5
1F7
330
1F5
100
AcDbEntity
  8
0
100
AcDbBlockEnd
  0
BLOCK
  5
20A
330
209
100
AcDbEntity
  8
0
100
AcDbBlockBegin
  2
*D25
 70
1
 10
0.0
 20
0.0
 30
0.0
  3
*D25
  1

  0
LINE
  5
20C
330
209
100
AcDbEntity
  8
0
100
AcDbLine
 10
400.0
 20
386.99996965489385
 30
0.0
 11
400.0
 21
356.99996965489385
 31
0.0
  0
LINE
  5
20D
330
209
100
AcDbEntity
  8
0
100
AcDbLine
 10
680.0
 20
386.99996965489385
 30
0.0
 11
680.0
 21
356.99996965489385
 31
0.0
  0
INSERT
  5
20E
330
209
100
AcDbEntity
  8
DIM
100
AcDbBlockReference
  2
_CLOSEDFILLED
 10
400.0
 20
359.99996965489385
 30
0.0
 41
4.0
 42
4.0
 50
180.0
  0
INSERT
  5
210
330
209
100
AcDbEntity
  8
DIM
100
AcDbBlockReference
  2
_CLOSEDFILLED
 10
680.0
 20
359.99996965489385
 30
0.0
 41
4.0
 42
4.0
  0
LINE
  5
212
330
209
100
AcDbEntity
  8
0
100
AcDbLine
 10
404.0
 20
359.99996965489385
 30
0.0
 11
676.0
 21
359.99996965489385
 31
0.0
  0
MTEXT
  5
213
330
209
100
AcDbEntity
  8
DIM
 62
7
100
AcDbMText
 10
540.0
 20
363.62496965489385
 30
0.0
 40
6.0
 71
5
  1
280
  7
OpenSansCondensed-Light
  0
POINT
  5
214
330
209
100
AcDbEntity
  8
Defpoints
100
AcDbPoint
 10
400.0
 20
359.99996965489385
 30
0.0
  0
POINT
  5
215
330
209
100
AcDbEntity
  8
Defpoints
100
AcDbPoint
 10
400.0
 20
389.99996965489385
 30
0.0
  0
POINT
  5
216
330
209
100
AcDbEntity
  8
Defpoints
100
AcDbPoint
 10
680.0
 20
389.99996965489385
 30
0.0
  0
ENDBLK
  5
20B
330
209
100
AcDbEntity
  8
0
100
AcDbBlockEnd
  0
BLOCK
  5
219
330
218
100
AcDbEntity
  8
0
100
AcDbBlockBegin
  2
*D26
 70
1
 10
0.0
 20
0.0
 30
0.0
  3
*D26
  1

  0
LINE
  5
21B
330
218
100
AcDbEntity
  8
0
100
AcDbLine
 10
403.0
 20
389.99996965489385
 30
0.0
 11
433.0
 21
389.99996965489385
 31
0.0
  0
LINE
  5
21C
330
218
100
AcDbEntity
  8
0
100
AcDbLine
 10
403.0
 20
459.99996965489385
 30
0.0
 11
433.0
 21
459.99996965489385
 31
0.0
  0
INSERT
  5
21D
330
218
100
AcDbEntity
  8
DIM
100
AcDbBlockReference
  2
_CLOSEDFILLED
 10
430.0
 20
389.99996965489385
 30
0.0
 41
4.0
 42
4.0
 50
270.0
  0
INSERT
  5
21F
330
218
100
AcDbEntity
  8
DIM
100
AcDbBlockReference
  2
_CLOSEDFILLED
 10
430.0
 20
459.99996965489385
 30
0.0
 41
4.0
 42
4.0
 50
90.0
  0
LINE
  5
221
330
218
100
AcDbEntity
  8
0
100
AcDbLine
 10
430.0
 20
393.99996965489385
 30
0.0
 11
430.0
 21
455.99996965489385
 31
0.0
  0
MTEXT
  5
222
330
218
100
AcDbEntity
  8
DIM
 62
7
100
AcDbMText
 10
426.375
 20
424.99996965489385
 30
0.0
 40
6.0
 71
5
  1
70
  7
OpenSansCondensed-Light
 50
90.0
  0
POINT
  5
223
330
218
100
AcDbEntity
  8
Defpoints
100
AcDbPoint
 10
430.0
 20
389.99996965489385
 30
0.0
  0
POINT
  5
224
330
218
100
AcDbEntity
  8
Defpoints
100
AcDbPoint
 10
400.0
 20
389.99996965489385
 30
0.0
  0
POINT
  5
225
330
218
100
AcDbEntity
  8
Defpoints
100
AcDbPoint
 10
400.0
 20
459.99996965489385
 30
0.0
  0
ENDBLK
  5
21A
330
218
100
AcDbEntity
  8
0
100
AcDbBlockEnd
  0
BLOCK
  5
228
330
227
100
AcDbEntity
  8
0
100
AcDbBlockBegin
  2
*D27
 70
1
 10
0.0
 20
0.0
 30
0.0
  3
*D27
  1

  0
INSERT
  5
22A
330
227
100
AcDbEntity
  8
DIM
100
AcDbBlockReference
  2
_CLOSEDFILLED
 10
425.1005050633883
 20
415.10047471828216
 30
0.0
 41
4.0
 42
4.0
 50
45.0
  0
INSERT
  5
22C
330
227
100
AcDbEntity
  8
DIM
100
AcDbBlockReference
  2
_CLOSEDFILLED
 10
444.8994949366117
 20
434.89946459150553
 30
0.0
 41
4.0
 42
4.0
 50
45.0
  0
LINE
  5
22E
330
227
100
AcDbEntity
  8
0
100
AcDbLine
 10
422.2720779386421
 20
412.27204759353594
 30
0.0
 11
442.0710678118655
 21
432.0710374667593
 31
0.0
  0
LINE
  5
22F
330
227
100
AcDbEntity
  8
0
100
AcDbLine
 10
422.2720779386421
 20
412.27204759353594
 30
0.0
 11
409.10221413904264
 21
399.1021837939365
 31
0.0
  0
MTEXT
  5
230
330
227
100
AcDbEntity
  8
DIM
 62
7
100
AcDbMText
 10
412.9029130879204
 20
408.0294069064167
 30
0.0
 40
6.0
 71
5
  1
%%c28
  7
OpenSansCondensed-Light
 50
45.0
  0
POINT
  5
231
330
227
100
AcDbEntity
  8
Defpoints
100
AcDbPoint
 10
435.0
 20
424.99996965489385
 30
0.0
  0
POINT
  5
232
330
227
100
AcDbEntity
  8
Defpoints
100
AcDbPoint
 10
425.1005050633883
 20
415.10047471828216
 30
0.0
  0
ENDBLK
  5
229
330
227
100
AcDbEntity
  8
0
100
AcDbBlockEnd
  0
BLOCK
  5
235
330
234
100
AcDbEntity
  8
0
100
AcDbBlockBegin
  2
*D28
 70
1
 10
0.0
 20
0.0
 30
0.0
  3
*D28
  1

  0
INSERT
  5
237
330
234
100
AcDbEntity
  8
DIM
100
AcDbBlockReference
  2
_CLOSEDFILLED
 10
635.1005050633884
 20
415.10047471828216
 30
0.0
 41
4.0
 42
4.0
 50
45.00000000000014
  0
INSERT
  5
239
330
234
100
AcDbEntity
  8
DIM
100
AcDbBlockReference
  2
_CLOSEDFILLED
 10
654.8994949366116
 20
434.89946459150553
 30
0.0
 41
4.0
 42
4.0
 50
45.00000000000014
  0
LINE
  5
23B
330
234
100
AcDbEntity
  8
0
100
AcDbLine
 10
632.2720779386422
 20
412.27204759353594
 30
0.0
 11
652.0710678118654
 21
432.0710374667593
 31
0.0
  0
LINE
  5
23C
330
234
100
AcDbEntity
  8
0
100
AcDbLine
 10
632.2720779386422
 20
412.27204759353594
 30
0.0
 11
619.1022141390428
 21
399.10218379393643
 31
0.0
  0
MTEXT
  5
23D
330
234
100
AcDbEntity
  8
DIM
 62
7
100
AcDbMText
 10
622.9029130879205
 20
408.0294069064166
 30
0.0
 40
6.0
 71
5
  1
%%c28
  7
OpenSansCondensed-Light
 50
45.00000000000014
  0
POINT
  5
23E
330
234
100
AcDbEntity
  8
Defpoints
100
AcDbPoint
 10
645.0
 20
424.99996965489385
 30
0.0
  0
POINT
  5
23F
330
234
100
AcDbEntity
  8
Defpoints
100
AcDbPoint
 10
635.1005050633884
 20
415.10047471828216
 30
0.0
  0
ENDBLK
  5
236
330
234
100
AcDbEntity
  8
0
100
AcDbBlockEnd
  0
BLOCK
  5
242
330
241
100
AcDbEntity
  8
0
100
AcDbBlockBegin
  2
*D29
 70
1
 10
0.0
 20
0.0
 30
0.0
  3
*D29
  1

  0
LINE
  5
244
330
241
100
AcDbEntity
  8
0
100
AcDbLine
 10
435.0
 20
427.99996965489385
 30
0.0
 11
435.0
 21
452.99996965489385
 31
0.0
  0
LINE
  5
245
330
241
100
AcDbEntity
  8
0
100
AcDbLine
 10
645.0
 20
427.99996965489385
 30
0.0
 11
645.0
 21
452.99996965489385
 31
0.0
  0
INSERT
  5
246
330
241
100
AcDbEntity
  8
DIM
100
AcDbBlockReference
  2
_CLOSEDFILLED
 10
435.0
 20
449.99996965489385
 30
0.0
 41
4.0
 42
4.0
 50
180.0
  0
INSERT
  5
248
330
241
100
AcDbEntity
  8
DIM
100
AcDbBlockReference
  2
_CLOSEDFILLED
 10
645.0
 20
449.99996965489385
 30
0.0
 41
4.0
 42
4.0
  0
LINE
  5
24A
330
241
100
AcDbEntity
  8
0
100
AcDbLine
 10
439.0
 20
449.99996965489385
 30
0.0
 11
641.0
 21
449.99996965489385
 31
0.0
  0
MTEXT
  5
24B
330
241
100
AcDbEntity
  8
DIM
 62
7
100
AcDbMText
 10
540.0
 20
453.62496965489385
 30
0.0
 40
6.0
 71
5
  1
210
  7
OpenSansCondensed-Light
  0
POINT
  5
24C
330
241
100
AcDbEntity
  8
Defpoints
100
AcDbPoint
 10
435.0
 20
449.99996965489385
 30
0.0
  0
POINT
  5
24D
330
241
100
AcDbEntity
  8
Defpoints
100
AcDbPoint
 10
435.0
 20
424.99996965489385
 30
0.0
  0
POINT
  5
24E
330
241
100
AcDbEntity
  8
Defpoints
100
AcDbPoint
 10
645.0
 20
424.99996965489385
 30
0.0
  0
ENDBLK
  5
243
330
241
100
AcDbEntity
  8
0
100
AcDbBlockEnd
  0
BLOCK
  5
254
330
253
100
AcDbEntity
  8
0
100
AcDbBlockBegin
  2
*D30
 70
1
 10
0.0
 20
0.0
 30
0.0
  3
*D30
  1

  0
LINE
  5
256
330
253
100
AcDbEntity
  8
0
100
AcDbLine
 10
780.0
 20
386.9999696548939
 30
0.0
 11
780.0
 21
356.9999696548939
 31
0.0
  0
LINE
  5
257
330
253
100
AcDbEntity
  8
0
100
AcDbLine
 10
1133.9090644965509
 20
386.9999696548939
 30
0.0
 11
1133.9090644965509
 21
356.9999696548939
 31
0.0
  0
INSERT
  5
258
330
253
100
AcDbEntity
  8
DIM
100
AcDbBlockReference
  2
_CLOSEDFILLED
 10
780.0
 20
359.9999696548939
 30
0.0
 41
4.0
 42
4.0
 50
180.0
  0
INSERT
  5
25A
330
253
100
AcDbEntity
  8
DIM
100
AcDbBlockReference
  2
_CLOSEDFILLED
 10
1133.9090644965509
 20
359.9999696548939
 30
0.0
 41
4.0
 42
4.0
  0
LINE
  5
25C
330
253
100
AcDbEntity
  8
0
100
AcDbLine
 10
784.0
 20
359.9999696548939
 30
0.0
 11
1129.9090644965509
 21
359.9999696548939
 31
0.0
  0
MTEXT
  5
25D
330
253
100
AcDbEntity
  8
DIM
 62
7
100
AcDbMText
 10
956.9545322482754
 20
363.6249696548939
 30
0.0
 40
6.0
 71
5
  1
353,9
  7
OpenSansCondensed-Light
  0
POINT
  5
25E
330
253
100
AcDbEntity
  8
Defpoints
100
AcDbPoint
 10
780.0
 20
359.9999696548939
 30
0.0
  0
POINT
  5
25F
330
253
100
AcDbEntity
  8
Defpoints
100
AcDbPoint
 10
780.0
 20
389.9999696548939
 30
0.0
  0
POINT
  5
260
330
253
100
AcDbEntity
  8
Defpoints
100
AcDbPoint
 10
1133.9090644965509
 20
389.9999696548939
 30
0.0
  0
ENDBLK
  5
255
330
253
100
AcDbEntity
  8
0
100
AcDbBlockEnd
  0
BLOCK
  5
263
330
262
100
AcDbEntity
  8
0
100
AcDbBlockBegin
  2
*D31
 70
1
 10
0.0
 20
0.0
 30
0.0
  3
*D31
  1

  0
LINE
  5
265
330
262
100
AcDbEntity
  8
0
100
AcDbLine
 10
783.0
 20
389.9999696548939
 30
0.0
 11
813.0
 21
389.9999696548939
 31
0.0
  0
LINE
  5
266
330
262
100
AcDbEntity
  8
0
100
AcDbLine
 10
783.0
 20
744.9999696548939
 30
0.0
 11
813.0
 21
744.9999696548939
 31
0.0
  0
INSERT
  5
267
330
262
100
AcDbEntity
  8
DIM
100
AcDbBlockReference
  2
_CLOSEDFILLED
 10
810.0
 20
389.9999696548939
 30
0.0
 41
4.0
 42
4.0
 50
270.0
  0
INSERT
  5
269
330
262
100
AcDbEntity
  8
DIM
100
AcDbBlockReference
  2
_CLOSEDFILLED
 10
810.0
 20
744.9999696548939
 30
0.0
 41
4.0
 42
4.0
 50
90.0
  0
LINE
  5
26B
330
262
100
AcDbEntity
  8
0
100
AcDbLine
 10
810.0
 20
393.9999696548939
 30
0.0
 11
810.0
 21
740.9999696548939
 31
0.0
  0
MTEXT
  5
26C
330
262
100
AcDbEntity
  8
DIM
 62
7
100
AcDbMText
 10
806.375
 20
567.4999696548939
 30
0.0
 40
6.0
 71
5
  1
355
  7
OpenSansCondensed-Light
 50
90.0
  0
POINT
  5
26D
330
262
100
AcDbEntity
  8
Defpoints
100
AcDbPoint
 10
810.0
 20
389.9999696548939
 30
0.0
  0
POINT
  5
26E
330
262
100
AcDbEntity
  8
Defpoints
100
AcDbPoint
 10
780.0
 20
389.9999696548939
 30
0.0
  0
POINT
  5
26F
330
262
100
AcDbEntity
  8
Defpoints
100
AcDbPoint
 10
780.0
 20
744.9999696548939
 30
0.0
  0
ENDBLK
  5
264
330
262
100
AcDbEntity
  8
0
100
AcDbBlockEnd
  0
BLOCK
  5
275
330
274
100
AcDbEntity
  8
0
100
AcDbBlockBegin
  2
*D32
 70
1
 10
0.0
 20
0.0
 30
0.0
  3
*D32
  1

  0
LINE
  5
277
330
274
100
AcDbEntity
  8
0
100
AcDbLine
 10
1233.9090644965509
 20
386.99996965489385
 30
0.0
 11
1233.9090644965509
 21
356.99996965489385
 31
0.0
  0
LINE
  5
278
330
274
100
AcDbEntity
  8
0
100
AcDbLine
 10
1617.9090644965509
 20
386.99996965489385
 30
0.0
 11
1617.9090644965509
 21
356.99996965489385
 31
0.0
  0
INSERT
  5
279
330
274
100
AcDbEntity
  8
DIM
100
AcDbBlockReference
  2
_CLOSEDFILLED
 10
1233.9090644965509
 20
359.99996965489385
 30
0.0
 41
4.0
 42
4.0
 50
180.0
  0
INSERT
  5
27B
330
274
100
AcDbEntity
  8
DIM
100
AcDbBlockReference
  2
_CLOSEDFILLED
 10
1617.9090644965509
 20
359.99996965489385
 30
0.0
 41
4.0
 42
4.0
  0
LINE
  5
27D
330
274
100
AcDbEntity
  8
0
100
AcDbLine
 10
1237.9090644965509
 20
359.99996965489385
 30
0.0
 11
1613.9090644965509
 21
359.99996965489385
 31
0.0
  0
MTEXT
  5
27E
330
274
100
AcDbEntity
  8
DIM
 62
7
100
AcDbMText
 10
1425.9090644965509
 20
363.62496965489385
 30
0.0
 40
6.0
 71
5
  1
384
  7
OpenSansCondensed-Light
  0
POINT
  5
27F
330
274
100
AcDbEntity
  8
Defpoints
100
AcDbPoint
 10
1233.9090644965509
 20
359.99996965489385
 30
0.0
  0
POINT
  5
280
330
274
100
AcDbEntity
  8
Defpoints
100
AcDbPoint
 10
1233.9090644965509
 20
389.99996965489385
 30
0.0
  0
POINT
  5
281
330
274
100
AcDbEntity
  8
Defpoints
100
AcDbPoint
 10
1617.9090644965509
 20
389.99996965489385
 30
0.0
  0
ENDBLK
  5
276
330
274
100
AcDbEntity
  8
0
100
AcDbBlockEnd
  0
BLOCK
  5
284
330
283
100
AcDbEntity
  8
0
100
AcDbBlockBegin
  2
*D33
 70
1
 10
0.0
 20
0.0
 30
0.0
  3
*D33
  1

  0
LINE
  5
286
330
283
100
AcDbEntity
  8
0
100
AcDbLine
 10
1236.9090644965509
 20
389.99996965489385
 30
0.0
 11
1266.9090644965509
 21
389.99996965489385
 31
0.0
  0
LINE
  5
287
330
283
100
AcDbEntity
  8
0
100
AcDbLine
 10
1236.9090644965509
 20
669.9999696548939
 30
0.0
 11
1266.9090644965509
 21
669.9999696548939
 31
0.0
  0
INSERT
  5
288
330
283
100
AcDbEntity
  8
DIM
100
AcDbBlockReference
  2
_CLOSEDFILLED
 10
1263.9090644965509
 20
389.99996965489385
 30
0.0
 41
4.0
 42
4.0
 50
270.0
  0
INSERT
  5
28A
330
283
100
AcDbEntity
  8
DIM
100
AcDbBlockReference
  2
_CLOSEDFILLED
 10
1263.9090644965509
 20
669.9999696548939
 30
0.0
 41
4.0
 42
4.0
 50
90.0
  0
LINE
  5
28C
330
283
100
AcDbEntity
  8
0
100
AcDbLine
 10
1263.9090644965509
 20
393.99996965489385
 30
0.0
 11
1263.9090644965509
 21
665.9999696548939
 31
0.0
  0
MTEXT
  5
28D
330
283
100
AcDbEntity
  8
DIM
 62
7
100
AcDbMText
 10
1260.2840644965509
 20
529.9999696548939
 30
0.0
 40
6.0
 71
5
  1
280
  7
OpenSansCondensed-Light
 50
90.0
  0
POINT
  5
28E
330
283
100
AcDbEntity
  8
Defpoints
100
AcDbPoint
 10
1263.9090644965509
 20
389.99996965489385
 30
0.0
  0
POINT
  5
28F
330
283
100
AcDbEntity
  8
Defpoints
100
AcDbPoint
 10
1233.9090644965509
 20
389.99996965489385
 30
0.0
  0
POINT
  5
290
330
283
100
AcDbEntity
  8
Defpoints
100
AcDbPoint
 10
1233.9090644965509
 20
669.9999696548939
 30
0.0
  0
ENDBLK
  5
285
330
283
100
AcDbEntity
  8
0
100
AcDbBlockEnd
  0
BLOCK
  5
297
330
296
100
AcDbEntity
  8
0
100
AcDbBlockBegin
  2
*D34
 70
1
 10
0.0
 20
0.0
 30
0.0
  3
*D34
  1

  0
LINE
  5
299
330
296
100
AcDbEntity
  8
0
100
AcDbLine
 10
1717.9090644965509
 20
386.99996965489385
 30
0.0
 11
1717.9090644965509
 21
356.99996965489385
 31
0.0
  0
LINE
  5
29A
330
296
100
AcDbEntity
  8
0
100
AcDbLine
 10
2101.909064496551
 20
386.99996965489385
 30
0.0
 11
2101.909064496551
 21
356.99996965489385
 31
0.0
  0
INSERT
  5
29B
330
296
100
AcDbEntity
  8
DIM
100
AcDbBlockReference
  2
_CLOSEDFILLED
 10
1717.9090644965509
 20
359.99996965489385
 30
0.0
 41
4.0
 42
4.0
 50
180.0
  0
INSERT
  5
29D
330
296
100
AcDbEntity
  8
DIM
100
AcDbBlockReference
  2
_CLOSEDFILLED
 10
2101.909064496551
 20
359.99996965489385
 30
0.0
 41
4.0
 42
4.0
  0
LINE
  5
29F
330
296
100
AcDbEntity
  8
0
100
AcDbLine
 10
1721.9090644965509
 20
359.99996965489385
 30
0.0
 11
2097.909064496551
 21
359.99996965489385
 31
0.0
  0
MTEXT
  5
2A0
330
296
100
AcDbEntity
  8
DIM
 62
7
100
AcDbMText
 10
1909.9090644965509
 20
363.62496965489385
 30
0.0
 40
6.0
 71
5
  1
384
  7
OpenSansCondensed-Light
  0
POINT
  5
2A1
330
296
100
AcDbEntity
  8
Defpoints
100
AcDbPoint
 10
1717.9090644965509
 20
359.99996965489385
 30
0.0
  0
POINT
  5
2A2
330
296
100
AcDbEntity
  8
Defpoints
100
AcDbPoint
 10
1717.9090644965509
 20
389.99996965489385
 30
0.0
  0
POINT
  5
2A3
330
296
100
AcDbEntity
  8
Defpoints
100
AcDbPoint
 10
2101.909064496551
 20
389.99996965489385
 30
0.0
  0
ENDBLK
  5
298
330
296
100
AcDbEntity
  8
0
100
AcDbBlockEnd
  0
BLOCK
  5
2A6
330
2A5
100
AcDbEntity
  8
0
100
AcDbBlockBegin
  2
*D35
 70
1
 10
0.0
 20
0.0
 30
0.0
  3
*D35
  1

  0
LINE
  5
2A8
330
2A5
100
AcDbEntity
  8
0
100
AcDbLine
 10
1720.9090644965509
 20
389.99996965489385
 30
0.0
 11
1750.9090644965509
 21
389.99996965489385
 31
0.0
  0
LINE
  5
2A9
330
2A5
100
AcDbEntity
  8
0
100
AcDbLine
 10
1720.9090644965509
 20
499.99996965489385
 30
0.0
 11
1750.9090644965509
 21
499.99996965489385
 31
0.0
  0
INSERT
  5
2AA
330
2A5
100
AcDbEntity
  8
DIM
100
AcDbBlockReference
  2
_CLOSEDFILLED
 10
1747.9090644965509
 20
389.99996965489385
 30
0.0
 41
4.0
 42
4.0
 50
270.0
  0
INSERT
  5
2AC
330
2A5
100
AcDbEntity
  8
DIM
100
AcDbBlockReference
  2
_CLOSEDFILLED
 10
1747.9090644965509
 20
499.99996965489385
 30
0.0
 41
4.0
 42
4.0
 50
90.0
  0
LINE
  5
2AE
330
2A5
100
AcDbEntity
  8
0
100
AcDbLine
 10
1747.9090644965509
 20
393.99996965489385
 30
0.0
 11
1747.9090644965509
 21
495.99996965489385
 31
0.0
  0
MTEXT
  5
2AF
330
2A5
100
AcDbEntity
  8
DIM
 62
7
100
AcDbMText
 10
1744.2840644965509
 20
444.99996965489385
 30
0.0
 40
6.0
 71
5
  1
110
  7
OpenSansCondensed-Light
 50
90.0
  0
POINT
  5
2B0
330
2A5
100
AcDbEntity
  8
Defpoints
100
AcDbPoint
 10
1747.9090644965509
 20
389.99996965489385
 30
0.0
  0
POINT
  5
2B1
330
2A5
100
AcDbEntity
  8
Defpoints
100
AcDbPoint
 10
1717.9090644965509
 20
389.99996965489385
 30
0.0
  0
POINT
  5
2B2
330
2A5
100
AcDbEntity
  8
Defpoints
100
AcDbPoint
 10
1717.9090644965509
 20
499.99996965489385
 30
0.0
  0
ENDBLK
  5
2A7
330
2A5
100
AcDbEntity
  8
0
100
AcDbBlockEnd
  0
BLOCK
  5
2BB
330
2BA
100
AcDbEntity
  8
0
100
AcDbBlockBegin
  2
*D36
 70
1
 10
0.0
 20
0.0
 30
0.0
  3
*D36
  1

  0
LINE
  5
2BD
330
2BA
100
AcDbEntity
  8
0
100
AcDbLine
 10
2201.909064496551
 20
386.99996965489385
 30
0.0
 11
2201.909064496551
 21
356.99996965489385
 31
0.0
  0
LINE
  5
2BE
330
2BA
100
AcDbEntity
  8
0
100
AcDbLine
 10
2711.3660082022448
 20
386.99996965489385
 30
0.0
 11
2711.3660082022448
 21
356.99996965489385
 31
0.0
  0
INSERT
  5
2BF
330
2BA
100
AcDbEntity
  8
DIM
100
AcDbBlockReference
  2
_CLOSEDFILLED
 10
2201.909064496551
 20
359.99996965489385
 30
0.0
 41
4.0
 42
4.0
 50
180.0
  0
INSERT
  5
2C1
330
2BA
100
AcDbEntity
  8
DIM
100
AcDbBlockReference
  2
_CLOSEDFILLED
 10
2711.3660082022448
 20
359.99996965489385
 30
0.0
 41
4.0
 42
4.0
  0
LINE
  5
2C3
330
2BA
100
AcDbEntity
  8
0
100
AcDbLine
 10
2205.909064496551
 20
359.99996965489385
 30
0.0
 11
2707.3660082022448
 21
359.99996965489385
 31
0.0
  0
MTEXT
  5
2C4
330
2BA
100
AcDbEntity
  8
DIM
 62
7
100
AcDbMText
 10
2456.637536349398
 20
363.62496965489385
 30
0.0
 40
6.0
 71
5
  1
509,5
  7
OpenSansCondensed-Light
  0
POINT
  5
2C5
330
2BA
100
AcDbEntity
  8
Defpoints
100
AcDbPoint
 10
2201.909064496551
 20
359.99996965489385
 30
0.0
  0
POINT
  5
2C6
330
2BA
100
AcDbEntity
  8
Defpoints
100
AcDbPoint
 10
2201.909064496551
 20
389.99996965489385
 30
0.0
  0
POINT
  5
2C7
330
2BA
100
AcDbEntity
  8
Defpoints
100
AcDbPoint
 10
2711.3660082022448
 20
389.99996965489385
 30
0.0
  0
ENDBLK
  5
2BC
330
2BA
100
AcDbEntity
  8
0
100
AcDbBlockEnd
  0
BLOCK
  5
2CA
330
2C9
100
AcDbEntity
  8
0
100
AcDbBlockBegin
  2
*D37
 70
1
 10
0.0
 20
0.0
 30
0.0
  3
*D37
  1

  0
LINE
  5
2CC
330
2C9
100
AcDbEntity
  8
0
100
AcDbLine
 10
2204.909064496551
 20
389.99996965489385
 30
0.0
 11
2234.909064496551
 21
389.99996965489385
 31
0.0
  0
LINE
  5
2CD
330
2C9
100
AcDbEntity
  8
0
100
AcDbLine
 10
2204.909064496551
 20
773.9999696548939
 30
0.0
 11
2234.909064496551
 21
773.9999696548939
 31
0.0
  0
INSERT
  5
2CE
330
2C9
100
AcDbEntity
  8
DIM
100
AcDbBlockReference
  2
_CLOSEDFILLED
 10
2231.909064496551
 20
389.99996965489385
 30
0.0
 41
4.0
 42
4.0
 50
270.0
  0
INSERT
  5
2D0
330
2C9
100
AcDbEntity
  8
DIM
100
AcDbBlockReference
  2
_CLOSEDFILLED
 10
2231.909064496551
 20
773.9999696548939
 30
0.0
 41
4.0
 42
4.0
 50
90.0
  0
LINE
  5
2D2
330
2C9
100
AcDbEntity
  8
0
100
AcDbLine
 10
2231.909064496551
 20
393.99996965489385
 30
0.0
 11
2231.909064496551
 21
769.9999696548939
 31
0.0
  0
MTEXT
  5
2D3
330
2C9
100
AcDbEntity
  8
DIM
 62
7
100
AcDbMText
 10
2228.284064496551
 20
581.9999696548939
 30
0.0
 40
6.0
 71
5
  1
384
  7
OpenSansCondensed-Light
 50
90.0
  0
POINT
  5
2D4
330
2C9
100
AcDbEntity
  8
Defpoints
100
AcDbPoint
 10
2231.909064496551
 20
389.99996965489385
 30
0.0
  0
POINT
  5
2D5
330
2C9
100
AcDbEntity
  8
Defpoints
100
AcDbPoint
 10
2201.909064496551
 20
389.99996965489385
 30
0.0
  0
POINT
  5
2D6
330
2C9
100
AcDbEntity
  8
Defpoints
100
AcDbPoint
 10
2201.909064496551
 20
773.9999696548939
 30
0.0
  0
ENDBLK
  5
2CB
330
2C9
100
AcDbEntity
  8
0
100
AcDbBlockEnd
  0
BLOCK
  5
2DE
330
2DD
100
AcDbEntity
  8
0
100
AcDbBlockBegin
  2
*D38
 70
1
 10
0.0
 20
0.0
 30
0.0
  3
*D38
  1

  0
LINE
  5
2E0
330
2DD
100
AcDbEntity
  8
0
100
AcDbLine
 10
2811.3660082022448
 20
386.99996965489385
 30
0.0
 11
2811.3660082022448
 21
356.99996965489385
 31
0.0
  0
LINE
  5
2E1
330
2DD
100
AcDbEntity
  8
0
100
AcDbLine
 10
3051.3660082022448
 20
386.99996965489385
 30
0.0
 11
3051.3660082022448
 21
356.99996965489385
 31
0.0
  0
INSERT
  5
2E2
330
2DD
100
AcDbEntity
  8
DIM
100
AcDbBlockReference
  2
_CLOSEDFILLED
 10
2811.3660082022448
 20
359.99996965489385
 30
0.0
 41
4.0
 42
4.0
 50
180.0
  0
INSERT
  5
2E4
330
2DD
100
AcDbEntity
  8
DIM
100
AcDbBlockReference
  2
_CLOSEDFILLED
 10
3051.3660082022448
 20
359.99996965489385
 30
0.0
 41
4.0
 42
4.0
  0
LINE
  5
2E6
330
2DD
100
AcDbEntity
  8
0
100
AcDbLine
 10
2815.3660082022448
 20
359.99996965489385
 30
0.0
 11
3047.3660082022448
 21
359.99996965489385
 31
0.0
  0
MTEXT
  5
2E7
330
2DD
100
AcDbEntity
  8
DIM
 62
7
100
AcDbMText
 10
2931.3660082022448
 20
363.62496965489385
 30
0.0
 40
6.0
 71
5
  1
240
  7
OpenSansCondensed-Light
  0
POINT
  5
2E8
330
2DD
100
AcDbEntity
  8
Defpoints
100
AcDbPoint
 10
2811.3660082022448
 20
359.99996965489385
 30
0.0
  0
POINT
  5
2E9
330
2DD
100
AcDbEntity
  8
Defpoints
100
AcDbPoint
 10
2811.3660082022448
 20
389.99996965489385
 30
0.0
  0
POINT
  5
2EA
330
2DD
100
AcDbEntity
  8
Defpoints
100
AcDbPoint
 10
3051.3660082022448
 20
389.99996965489385
 30
0.0
  0
ENDBLK
  5
2DF
330
2DD
100
AcDbEntity
  8
0
100
AcDbBlockEnd
  0
BLOCK
  5
2ED
330
2EC
100
AcDbEntity
  8
0
100
AcDbBlockBegin
  2
*D39
 70
1
 10
0.0
 20
0.0
 30
0.0
  3
*D39
  1

  0
LINE
  5
2EF
330
2EC
100
AcDbEntity
  8
0
100
AcDbLine
 10
2814.3660082022448
 20
389.99996965489385
 30
0.0
 11
2844.3660082022448
 21
389.99996965489385
 31
0.0
  0
LINE
  5
2F0
330
2EC
100
AcDbEntity
  8
0
100
AcDbLine
 10
2814.3660082022448
 20
529.9999686410005
 30
0.0
 11
2844.3660082022448
 21
529.9999686410005
 31
0.0
  0
INSERT
  5
2F1
330
2EC
100
AcDbEntity
  8
DIM
100
AcDbBlockReference
  2
_CLOSEDFILLED
 10
2841.3660082022448
 20
389.99996965489385
 30
0.0
 41
4.0
 42
4.0
 50
270.0
  0
INSERT
  5
2F3
330
2EC
100
AcDbEntity
  8
DIM
100
AcDbBlockReference
  2
_CLOSEDFILLED
 10
2841.3660082022448
 20
529.9999686410005
 30
0.0
 41
4.0
 42
4.0
 50
90.0
  0
LINE
  5
2F5
330
2EC
100
AcDbEntity
  8
0
100
AcDbLine
 10
2841.3660082022448
 20
393.99996965489385
 30
0.0
 11
2841.3660082022448
 21
525.9999686410005
 31
0.0
  0
MTEXT
  5
2F6
330
2EC
100
AcDbEntity
  8
DIM
 62
7
100
AcDbMText
 10
2837.7410082022448
 20
459.9999691479471
 30
0.0
 40
6.0
 71
5
  1
140
  7
OpenSansCondensed-Light
 50
90.0
  0
POINT
  5
2F7
330
2EC
100
AcDbEntity
  8
Defpoints
100
AcDbPoint
 10
2841.3660082022448
 20
389.99996965489385
 30
0.0
  0
POINT
  5
2F8
330
2EC
100
AcDbEntity
  8
Defpoints
100
AcDbPoint
 10
2811.3660082022448
 20
389.99996965489385
 30
0.0
  0
POINT
  5
2F9
330
2EC
100
AcDbEntity
  8
Defpoints
100
AcDbPoint
 10
2811.3660082022448
 20
529.9999686410005
 30
0.0
  0
ENDBLK
  5
2EE
330
2EC
100
AcDbEntity
  8
0
100
AcDbBlockEnd
  0
BLOCK
  5
2FC
330
2FB
100
AcDbEntity
  8
0
100
AcDbBlockBegin
  2
*D40
 70
1
 10
0.0
 20
0.0
 30
0.0
  3
*D40
  1

  0
INSERT
  5
2FE
330
2FB
100
AcDbEntity
  8
DIM
100
AcDbBlockReference
  2
_CLOSEDFILLED
 10
2973.5115619772846
 20
467.1455234299335
 30
0.0
 41
4.0
 42
4.0
 50
45.000000000000256
  0
INSERT
  5
300
330
2FB
100
AcDbEntity
  8
DIM
100
AcDbBlockReference
  2
_CLOSEDFILLED
 10
3009.220454427205
 20
502.8544158798542
 30
0.0
 41
4.0
 42
4.0
 50
45.000000000000256
  0
LINE
  5
302
330
2FB
100
AcDbEntity
  8
0
100
AcDbLine
 10
2970.6831348525384
 20
464.3170963051873
 30
0.0
 11
3006.3920273024587
 21
500.02598875510796
 31
0.0
  0
LINE
  5
303
330
2FB
100
AcDbEntity
  8
0
100
AcDbLine
 10
2970.6831348525384
 20
464.3170963051873
 30
0.0
 11
2949.0279896787006
 21
442.6619511313492
 31
0.0
  0
MTEXT
  5
304
330
2FB
100
AcDbEntity
  8
DIM
 62
7
100
AcDbMText
 10
2957.0713293146973
 20
455.83181493094867
 30
0.0
 40
6.0
 71
5
  1
%%c50,5
  7
OpenSansCondensed-Light
 50
45.000000000000256
  0
POINT
  5
305
330
2FB
100
AcDbEntity
  8
Defpoints
100
AcDbPoint
 10
2991.3660082022448
 20
484.99996965489385
 30
0.0
  0
POINT
  5
306
330
2FB
100
AcDbEntity
  8
Defpoints
100
AcDbPoint
 10
2973.5115619772846
 20
467.1455234299335
 30
0.0
  0
ENDBLK
  5
2FD
330
2FB
100
AcDbEntity
  8
0
100
AcDbBlockEnd
  0
BLOCK
  5
309
330
308
100
AcDbEntity
  8
0
100
AcDbBlockBegin
  2
*D41
 70
1
 10
0.0
 20
0.0
 30
0.0
  3
*D41
  1

  0
INSERT
  5
30B
330
308
100
AcDbEntity
  8
DIM
100
AcDbBlockReference
  2
_CLOSEDFILLED
 10
2841.9515619772847
 20
419.2655234299335
 30
0.0
 41
4.0
 42
4.0
 50
45.000000000000256
  0
INSERT
  5
30D
330
308
100
AcDbEntity
  8
DIM
100
AcDbBlockReference
  2
_CLOSEDFILLED
 10
2877.660454427205
 20
454.9744158798542
 30
0.0
 41
4.0
 42
4.0
 50
45.000000000000256
  0
LINE
  5
30F
330
308
100
AcDbEntity
  8
0
100
AcDbLine
 10
2839.1231348525384
 20
416.4370963051873
 30
0.0
 11
2874.8320273024588
 21
452.14598875510796
 31
0.0
  0
LINE
  5
310
330
308
100
AcDbEntity
  8
0
100
AcDbLine
 10
2839.1231348525384
 20
416.4370963051873
 30
0.0
 11
2817.4679896787006
 21
394.7819511313492
 31
0.0
  0
MTEXT
  5
311
330
308
100
AcDbEntity
  8
DIM
 62
7
100
AcDbMText
 10
2825.5113293146974
 20
407.9518149309487
 30
0.0
 40
6.0
 71
5
  1
%%c50,5
  7
OpenSansCondensed-Light
 50
45.000000000000256
  0
POINT
  5
312
330
308
100
AcDbEntity
  8
Defpoints
100
AcDbPoint
 10
2859.806008202245
 20
437.11996965489385
 30
0.0
  0
POINT
  5
313
330
308
100
AcDbEntity
  8
Defpoints
100
AcDbPoint
 10
2841.9515619772847
 20
419.2655234299335
 30
0.0
  0
ENDBLK
  5
30A
330
308
100
AcDbEntity
  8
0
100
AcDbBlockEnd
  0
BLOCK
  5
316
330
315
100
AcDbEntity
  8
0
100
AcDbBlockBegin
  2
*D42
 70
1
 10
0.0
 20
0.0
 30
0.0
  3
*D42
  1

  0
LINE
  5
318
330
315
100
AcDbEntity
  8
0
100
AcDbLine
 10
2992.3919943829324
 20
482.1808647691121
 30
0.0
 11
3000.941879221994
 21
458.6883240542641
 31
0.0
  0
LINE
  5
319
330
315
100
AcDbEntity
  8
0
100
AcDbLine
 10
2860.8319943829324
 20
434.3008647691121
 30
0.0
 11
2869.381879221994
 21
410.80832405426423
 31
0.0
  0
INSERT
  5
31A
330
315
100
AcDbEntity
  8
DIM
100
AcDbBlockReference
  2
_CLOSEDFILLED
 10
2999.9158930413064
 20
461.5074289400459
 30
0.0
 41
4.0
 42
4.0
 50
19.99849094251894
  0
INSERT
  5
31C
330
315
100
AcDbEntity
  8
DIM
100
AcDbBlockReference
  2
_CLOSEDFILLED
 10
2868.3558930413064
 20
413.627428940046
 30
0.0
 41
4.0
 42
4.0
 50
-160.00150905748106
  0
LINE
  5
31E
330
315
100
AcDbEntity
  8
0
100
AcDbLine
 10
2996.157086526931
 20
460.13944736579606
 30
0.0
 11
2872.114699555682
 21
414.9954105142958
 31
0.0
  0
MTEXT
  5
31F
330
315
100
AcDbEntity
  8
DIM
 62
7
100
AcDbMText
 10
2935.37562634297
 20
434.161010536393
 30
0.0
 40
6.0
 71
5
  1
140
  7
OpenSansCondensed-Light
 50
-160.00150905748106
  0
POINT
  5
320
330
315
100
AcDbEntity
  8
Defpoints
100
AcDbPoint
 10
2999.9158930413064
 20
461.5074289400459
 30
0.0
  0
POINT
  5
321
330
315
100
AcDbEntity
  8
Defpoints
100
AcDbPoint
 10
2991.3660082022448
 20
484.99996965489385
 30
0.0
  0
POINT
  5
322
330
315
100
AcDbEntity
  8
Defpoints
100
AcDbPoint
 10
2859.806008202245
 20
437.11996965489385
 30
0.0
  0
ENDBLK
  5
317
330
315
100
AcDbEntity
  8
0
100
AcDbBlockEnd
  0
BLOCK
  5
328
330
327
100
AcDbEntity
  8
0
100
AcDbBlockBegin
  2
*D43
 70
1
 10
0.0
 20
0.0
 30
0.0
  3
*D43
  1

  0
LINE
  5
32A
330
327
100
AcDbEntity
  8
0
100
AcDbLine
 10
3151.3660082022448
 20
386.99996965489385
 30
0.0
 11
3151.3660082022448
 21
356.99996965489385
 31
0.0
  0
LINE
  5
32B
330
327
100
AcDbEntity
  8
0
100
AcDbLine
 10
3211.3660082022448
 20
386.99996965489385
 30
0.0
 11
3211.3660082022448
 21
356.99996965489385
 31
0.0
  0
INSERT
  5
32C
330
327
100
AcDbEntity
  8
DIM
100
AcDbBlockReference
  2
_CLOSEDFILLED
 10
3151.3660082022448
 20
359.99996965489385
 30
0.0
 41
4.0
 42
4.0
 50
180.0
  0
INSERT
  5
32E
330
327
100
AcDbEntity
  8
DIM
100
AcDbBlockReference
  2
_CLOSEDFILLED
 10
3211.3660082022448
 20
359.99996965489385
 30
0.0
 41
4.0
 42
4.0
  0
LINE
  5
330
330
327
100
AcDbEntity
  8
0
100
AcDbLine
 10
3155.3660082022448
 20
359.99996965489385
 30
0.0
 11
3207.3660082022448
 21
359.99996965489385
 31
0.0
  0
MTEXT
  5
331
330
327
100
AcDbEntity
  8
DIM
 62
7
100
AcDbMText
 10
3181.3660082022448
 20
363.62496965489385
 30
0.0
 40
6.0
 71
5
  1
60
  7
OpenSansCondensed-Light
  0
POINT
  5
332
330
327
100
AcDbEntity
  8
Defpoints
100
AcDbPoint
 10
3151.3660082022448
 20
359.99996965489385
 30
0.0
  0
POINT
  5
333
330
327
100
AcDbEntity
  8
Defpoints
100
AcDbPoint
 10
3151.3660082022448
 20
389.99996965489385
 30
0.0
  0
POINT
  5
334
330
327
100
AcDbEntity
  8
Defpoints
100
AcDbPoint
 10
3211.3660082022448
 20
389.99996965489385
 30
0.0
  0
ENDBLK
  5
329
330
327
100
AcDbEntity
  8
0
100
AcDbBlockEnd
  0
BLOCK
  5
337
330
336
100
AcDbEntity
  8
0
100
AcDbBlockBegin
  2
*D44
 70
1
 10
0.0
 20
0.0
 30
0.0
  3
*D44
  1

  0
LINE
  5
339
330
336
100
AcDbEntity
  8
0
100
AcDbLine
 10
3154.3660082022448
 20
389.99996965489385
 30
0.0
 11
3184.3660082022448
 21
389.99996965489385
 31
0.0
  0
LINE
  5
33A
330
336
100
AcDbEntity
  8
0
100
AcDbLine
 10
3154.3660082022448
 20
449.99996965489385
 30
0.0
 11
3184.3660082022448
 21
449.99996965489385
 31
0.0
  0
INSERT
  5
33B
330
336
100
AcDbEntity
  8
DIM
100
AcDbBlockReference
  2
_CLOSEDFILLED
 10
3181.3660082022448
 20
389.99996965489385
 30
0.0
 41
4.0
 42
4.0
 50
270.0
  0
INSERT
  5
33D
330
336
100
AcDbEntity
  8
DIM
100
AcDbBlockReference
  2
_CLOSEDFILLED
 10
3181.3660082022448
 20
449.99996965489385
 30
0.0
 41
4.0
 42
4.0
 50
90.0
  0
LINE
  5
33F
330
336
100
AcDbEntity
  8
0
100
AcDbLine
 10
3181.3660082022448
 20
393.99996965489385
 30
0.0
 11
3181.3660082022448
 21
445.99996965489385
 31
0.0
  0
MTEXT
  5
340
330
336
100
AcDbEntity
  8
DIM
 62
7
100
AcDbMText
 10
3177.7410082022448
 20
419.99996965489385
 30
0.0
 40
6.0
 71
5
  1
60
  7
OpenSansCondensed-Light
 50
90.0
  0
POINT
  5
341
330
336
100
AcDbEntity
  8
Defpoints
100
AcDbPoint
 10
3181.3660082022448
 20
389.99996965489385
 30
0.0
  0
POINT
  5
342
330
336
100
AcDbEntity
  8
Defpoints
100
AcDbPoint
 10
3151.3660082022448
 20
389.99996965489385
 30
0.0
  0
POINT
  5
343
330
336
100
AcDbEntity
  8
Defpoints
100
AcDbPoint
 10
3151.3660082022448
 20
449.99996965489385
 30
0.0
  0
ENDBLK
  5
338
330
336
100
AcDbEntity
  8
0
100
AcDbBlockEnd
  0
ENDSEC
  0
SECTION
  2
ENTITIES
  0
LWPOLYLINE
  5
8E
330
17
100
AcDbEntity
  8
CUT
100
AcDbPolyline
 90
8
 70
1
 10
235.97083688729043
 20
13.366455303467454
 42
0.19208261766382942
 10
270.5263156729489
 20
0.002762908920260543
 10
1220.4210525150543
 20
10.002208876952196
 42
0.948324039906979
 10
1223.8158593521914
 20
89.81756696593808
 10
384.2762106804008
 20
170.27363142379266
 42
-0.06278359090432503
 10
369.6321630828741
 20
173.56284873856075
 10
53.578557750542586
 20
287.62475542275934
 42
0.8167067575481421
 10
12.776669486527396
 20
220.69316279258996
  0
CIRCLE
  5
8F
330
17
100
AcDbEntity
  8
CUT
100
AcDbCircle
 10
269.9999998834752
 20
49.999992749079915
 30
0.0
 40
30.25
  0
CIRCLE
  5
90
330
17
100
AcDbEntity
  8
CUT
100
AcDbCircle
 10
1219.999999883475
 20
49.999992749079915
 30
0.0
 40
25.25
  0
CIRCLE
  5
91
330
17
100
AcDbEntity
  8
CUT
100
AcDbCircle
 10
1069.999999883475
 20
69.99999274907992
 30
0.0
 40
25.25
  0
CIRCLE
  5
92
330
17
100
AcDbEntity
  8
CUT
100
AcDbCircle
 10
39.9999998834752
 20
249.99999274907992
 30
0.0
 40
14.0
  0
TEXT
  5
93
330
17
100
AcDbEntity
  8
MARK
100
AcDbText
 10
441.57050814357547
 20
140.76178731822588
 30
0.0
 40
8.0
  1
A1 臂侧板
100
AcDbText
  0
TEXT
  5
94
330
17
100
AcDbEntity
  8
MARK
100
AcDbText
 10
441.57050814357547
 20
129.5617873182259
 30
0.0
 40
8.0
  1
t10  x2  Q355B
100
AcDbText
  0
DIMENSION
  5
95
330
17
100
AcDbEntity
  8
DIM
100
AcDbDimension
280
0
  2
*D1
  3
PLATE
 10
0.0
 20
-30.0
 30
0.0
 11
629.9999852059154
 21
-26.375
 31
0.0
 70
32
 71
5
  1
<>
100
AcDbAlignedDimension
 13
0.0
 23
0.0
 33
0.0
 14
1259.9999704118309
 24
0.0
 34
0.0
 50
0.0
100
AcDbRotatedDimension
  0
DIMENSION
  5
A4
330
17
100
AcDbEntity
  8
DIM
100
AcDbDimension
280
0
  2
*D2
  3
PLATE
 10
30.000000000000004
 20
0.0
 30
0.0
 11
26.375000000000004
 21
144.99998482744692
 31
0.0
 70
32
 71
5
  1
<>
100
AcDbAlignedDimension
 13
0.0
 23
0.0
 33
0.0
 14
0.0
 24
289.99996965489385
 34
0.0
 50
90.0
100
AcDbRotatedDimension
  0
DIMENSION
  5
B3
330
17
100
AcDbEntity
  8
DIM
100
AcDbDimension
280
0
  2
*D3
  3
PLATE
 10
291.38998001436823
 20
71.38997287997297
 30
0.0
 11
232.16978708999488
 21
17.296304119202095
 31
0.0
 70
35
 71
5
  1
<>
100
AcDbDiametricDimension
 15
248.61001975258213
 25
28.610012618186854
 35
0.0
  0
DIMENSION
  5
C0
330
17
100
AcDbEntity
  8
DIM
100
AcDbDimension
280
0
  2
*D4
  3
PLATE
 10
1237.8544461084355
 20
67.85443897404024
 30
0.0
 11
1185.7053209959274
 21
20.831838025134864
 31
0.0
 70
35
 71
5
  1
<>
100
AcDbDiametricDimension
 15
1202.1455536585147
 25
32.145546524119595
 35
0.0
  0
DIMENSION
  5
CD
330
17
100
AcDbEntity
  8
DIM
100
AcDbDimension
280
0
  2
*D5
  3
PLATE
 10
1087.8544461084355
 20
87.85443897404025
 30
0.0
 11
1035.7053209959274
 21
40.831838025134864
 31
0.0
 70
35
 71
5
  1
<>
100
AcDbDiametricDimension
 15
1052.1455536585147
 25
52.145546524119595
 35
0.0
  0
DIMENSION
  5
DA
330
17
100
AcDbEntity
  8
DIM
100
AcDbDimension
280
0
  2
*D6
  3
PLATE
 10
49.899494820086865
 20
259.8994876856916
 30
0.0
 11
17.902912971395583
 21
233.0294300006028
 31
0.0
 70
35
 71
5
  1
<>
100
AcDbDiametricDimension
 15
30.10050494686353
 25
240.10049781246826
 35
0.0
  0
DIMENSION
  5
E7
330
17
100
AcDbEntity
  8
DIM
100
AcDbDimension
280
0
  2
*D7
  3
PLATE
 10
269.9999998834752
 20
74.99999274907992
 30
0.0
 11
744.9999998834751
 21
78.62499274907992
 31
0.0
 70
32
 71
5
  1
<>
100
AcDbAlignedDimension
 13
269.9999998834752
 23
49.999992749079915
 33
0.0
 14
1219.999999883475
 24
49.999992749079915
 34
0.0
 50
0.0
100
AcDbRotatedDimension
  0
LWPOLYLINE
  5
F6
330
17
100
AcDbEntity
  8
CUT
100
AcDbPolyline
 90
4
 70
1
 10
1359.9999704118309
 20
0.0
 10
2309.947337374864
 20
0.0
 10
2309.947337374864
 20
75.0
 10
1359.9999704118309
 20
75.0
  0
TEXT
  5
F7
330
17
100
AcDbEntity
  8
MARK
100
AcDbText
 10
1834.9736538933475
 20
45.5
 30
0.0
 40
8.0
  1
A2 臂底板
100
AcDbText
  0
TEXT
  5
F8
330
17
100
AcDbEntity
  8
MARK
100
AcDbText
 10
1834.9736538933475
 20
34.3
 30
0.0
 40
8.0
  1
t12  x1  Q355B
100
AcDbText
  0
DIMENSION
  5
F9
330
17
100
AcDbEntity
  8
DIM
100
AcDbDimension
280
0
  2
*D8
  3
PLATE
 10
1359.9999704118309
 20
-30.000000000000004
 30
0.0
 11
1834.9736538933475
 21
-26.375000000000004
 31
0.0
 70
32
 71
5
  1
<>
100
AcDbAlignedDimension
 13
1359.9999704118309
 23
0.0
 33
0.0
 14
2309.947337374864
 24
0.0
 34
0.0
 50
0.0
100
AcDbRotatedDimension
  0
DIMENSION
  5
108
330
17
100
AcDbEntity
  8
DIM
100
AcDbDimension
280
0
  2
*D9
  3
PLATE
 10
1389.9999704118309
 20
0.0
 30
0.0
 11
1386.3749704118309
 21
37.5
 31
0.0
 70
32
 71
5
  1
<>
100
AcDbAlignedDimension
 13
1359.9999704118309
 23
0.0
 33
0.0
 14
1359.9999704118309
 24
75.0
 34
0.0
 50
90.0
100
AcDbRotatedDimension
  0
LWPOLYLINE
  5
117
330
17
100
AcDbEntity
  8
CUT
100
AcDbPolyline
 90
4
 70
1
 10
2409.947337374864
 20
0.0
 10
3253.3333699838945
 20
0.0
 10
3253.3333699838945
 20
75.0
 10
2409.947337374864
 20
75.0
  0
TEXT
  5
118
330
17
100
AcDbEntity
  8
MARK
100
AcDbText
 10
2831.640353679379
 20
45.5
 30
0.0
 40
8.0
  1
A3 臂顶板
100
AcDbText
  0
TEXT
  5
119
330
17
100
AcDbEntity
  8
MARK
100
AcDbText
 10
2831.640353679379
 20
34.3
 30
0.0
 40
8.0
  1
t10  x1  Q355B
100
AcDbText
  0
DIMENSION
  5
11A
330
17
100
AcDbEntity
  8
DIM
100
AcDbDimension
280
0
  2
*D10
  3
PLATE
 10
2409.947337374864
 20
-30.0
 30
0.0
 11
2831.6403536793796
 21
-26.375
 31
0.0
 70
32
 71
5
  1
<>
100
AcDbAlignedDimension
 13
2409.947337374864
 23
0.0
 33
0.0
 14
3253.3333699838945
 24
0.0
 34
0.0
 50
0.0
100
AcDbRotatedDimension
  0
DIMENSION
  5
129
330
17
100
AcDbEntity
  8
DIM
100
AcDbDimension
280
0
  2
*D11
  3
PLATE
 10
2439.947337374864
 20
0.0
 30
0.0
 11
2436.322337374864
 21
37.5
 31
0.0
 70
32
 71
5
  1
<>
100
AcDbAlignedDimension
 13
2409.947337374864
 23
0.0
 33
0.0
 14
2409.947337374864
 24
75.0
 34
0.0
 50
90.0
100
AcDbRotatedDimension
  0
LWPOLYLINE
  5
138
330
17
100
AcDbEntity
  8
CUT
100
AcDbPolyline
 90
4
 70
1
 10
3353.3333699838945
 20
0.0
 10
3657.964294218451
 20
0.0
 10
3657.964294218451
 20
75.0
 10
3353.3333699838945
 20
75.0
  0
TEXT
  5
139
330
17
100
AcDbEntity
  8
MARK
100
AcDbText
 10
3505.6488321011725
 20
45.5
 30
0.0
 40
8.0
  1
A4 臂后板
100
AcDbText
  0
TEXT
  5
13A
330
17
100
AcDbEntity
  8
MARK
100
AcDbText
 10
3505.6488321011725
 20
34.3
 30
0.0
 40
8.0
  1
t10  x1  Q355B
100
AcDbText
  0
DIMENSION
  5
13B
330
17
100
AcDbEntity
  8
DIM
100
AcDbDimension
280
0
  2
*D12
  3
PLATE
 10
3353.3333699838945
 20
-30.0
 30
0.0
 11
3505.648832101173
 21
-26.375
 31
0.0
 70
32
 71
5
  1
<>
100
AcDbAlignedDimension
 13
3353.3333699838945
 23
0.0
 33
0.0
 14
3657.964294218451
 24
0.0
 34
0.0
 50
0.0
100
AcDbRotatedDimension
  0
DIMENSION
  5
14A
330
17
100
AcDbEntity
  8
DIM
100
AcDbDimension
280
0
  2
*D13
  3
PLATE
 10
3383.3333699838945
 20
0.0
 30
0.0
 11
3379.7083699838945
 21
37.5
 31
0.0
 70
32
 71
5
  1
<>
100
AcDbAlignedDimension
 13
3353.3333699838945
 23
0.0
 33
0.0
 14
3353.3333699838945
 24
75.0
 34
0.0
 50
90.0
100
AcDbRotatedDimension
  0
LWPOLYLINE
  5
159
330
17
100
AcDbEntity
  8
CUT
100
AcDbPolyline
 90
595
 70
1
 10
3777.934659505426
 20
112.90338654712222
 10
3777.9847553040586
 20
113.14365620112729
 10
3778.0363244265336
 20
113.3836139500822
 10
3778.0893649313025
 20
113.62325075971334
 10
3778.1438748214205
 20
113.86255760783025
 10
3778.1998520446214
 20
114.1015254846654
 10
3778.2572944933936
 20
114.34014539321323
 10
3778.316200005062
 20
114.5784083495691
 10
3778.376566361867
 20
114.81630538326733
 10
3778.43839129105
 20
115.05382753761911
 10
3778.5016724649363
 20
115.29096587004956
 10
3778.5664075010263
 20
115.52771145243447
 10
3778.632593962082
 20
115.7640553714365
 10
3778.700229356221
 20
115.99998872884065
 10
3778.769311137009
 20
116.23550264188943
 10
3778.839836703555
 20
116.47058824361703
 10
3778.911803400613
 20
116.70523668318349
 10
3778.985208518676
 20
116.93943912620766
 10
3779.0600492940835
 20
117.17318675509993
 10
3779.136322909122
 20
117.4064707693942
 10
3779.214026492134
 20
117.63928238607916
 10
3779.2931571176227
 20
117.87161283992906
 10
3779.3737118063655
 20
118.10345338383361
 10
3779.455687525523
 20
118.33479528912734
 10
3779.539081188756
 20
118.56562984591831
 10
3779.623889656341
 20
118.79594836341595
 10
3779.7101097352856
 20
119.02574217025814
 10
3779.797738179454
 20
119.25500261483806
 10
3779.8867716896843
 20
119.4837210656295
 10
3779.9772069139153
 20
119.71188891151205
 10
3780.069040447311
 20
119.93949756209527
 10
3780.1622688323923
 20
120.16653844804215
 10
3780.2568885591622
 20
120.3930030213916
 10
3780.3528960652416
 20
120.61888275588048
 10
3780.450287736002
 20
120.84416914726442
 10
3780.5490599047025
 20
121.06885371363812
 10
3780.6492088526265
 20
121.29292799575471
 10
3780.7507308092227
 20
121.51638355734401
 10
3780.853621952247
 20
121.73921198543054
 10
3780.957878407906
 20
121.96140489064983
 10
3781.063496251003
 20
122.18295390756462
 10
3781.1704715050855
 20
122.40385069497965
 10
3781.278800142596
 20
122.62408693625572
 10
3781.388478085023
 20
122.8436543396228
 10
3781.4995012030536
 20
123.0625446384923
 10
3781.6118653167296
 20
123.28074959176816
 10
3781.725566195606
 20
123.49826098415717
 10
3781.8405995589096
 20
123.71507062647846
 10
3781.9569610756985
 20
123.93117035597142
 10
3782.0746463650275
 20
124.14655203660344
 10
3782.193650996112
 20
124.36120755937598
 10
3782.313970488495
 20
124.5751288426299
 10
3782.435600312216
 20
124.78830783234982
 10
3782.5585358879803
 20
125.00073650246723
 10
3782.682772587333
 20
125.21240685516283
 10
3782.8083057328327
 20
125.42331092116741
 10
3782.9351305982277
 20
125.63344076006213
 10
3783.063242408633
 20
125.8427884605773
 10
3783.192636340712
 20
126.05134614089035
 10
3783.3233075228554
 20
126.25910594892243
 10
3783.455251035368
 20
126.46606006263427
 10
3783.58846191065
 20
126.6722006903204
 10
3783.7229351333885
 20
126.87752007090275
 10
3783.858665640742
 20
127.08201047422263
 10
3783.9956483225333
 20
127.28566420133198
 10
3784.133878021443
 20
127.48847358478308
 10
3784.2733495331995
 20
127.69043098891724
 10
3784.4140576067803
 20
127.89152881015237
 10
3784.555996944606
 20
128.09175947726914
 10
3784.69916220274
 20
128.2911154516961
 10
3784.843547991092
 20
128.4895892277935
 10
3784.989148873618
 20
128.6871733331359
 10
3785.1359593685274
 20
128.88386032879328
 10
3785.2839739484884
 20
129.07964280961158
 10
3785.433187040835
 20
129.2745134044909
 10
3785.5835930277794
 20
129.4684647766636
 10
3785.7351862466207
 20
129.6614896239701
 10
3785.88796098996
 20
129.85358067913398
 10
3786.0419115059144
 20
130.04473071003565
 10
3786.1970319983343
 20
130.23493251998434
 10
3786.3533166270204
 20
130.42417894798956
 10
3786.5107595079453
 20
130.6124628690302
 10
3786.6693547134732
 20
130.79977719432304
 10
3786.829096272584
 20
130.98611487158962
 10
3786.989978171099
 20
131.1714688853217
 10
3787.151994351905
 20
131.35583225704545
 10
3787.315138715185
 20
131.53919804558404
 10
3787.4794051186454
 20
131.72155934731927
 10
3787.644787377749
 20
131.90290929645118
 10
3787.811279265947
 20
132.0832410652567
 10
3787.978874514915
 20
132.26254786434657
 10
3788.147566814785
 20
132.44082294292122
 10
3788.3173498143883
 20
132.6180595890247
 10
3788.488217121491
 20
132.7942511297975
 10
3788.660162303035
 20
132.96939093172756
 10
3788.833178885382
 20
133.14347240090046
 10
3789.0072603545545
 20
133.3164889832472
 10
3789.1824001564846
 20
133.48843416479127
 10
3789.3585916972575
 20
133.6593014718938
 10
3789.535828343361
 20
133.8290844714972
 10
3789.7141034219358
 20
133.99777677136757
 10
3789.8934102210255
 20
134.16537202033504
 10
3790.073741989831
 20
134.33186390853336
 10
3790.255091938963
 20
134.4972461676369
 10
3790.4374532406982
 20
134.6615125710972
 10
3790.620819029237
 20
134.8246569343769
 10
3790.8051824009603
 20
134.98667311518307
 10
3790.9905364146925
 20
135.1475550136979
 10
3791.1768740919592
 20
135.30729657280904
 10
3791.364188417252
 20
135.46589177833692
 10
3791.552472338293
 20
135.62333465926173
 10
3791.7417187662977
 20
135.77961928794804
 10
3791.9319205762467
 20
135.93473978036786
 10
3792.1230706071483
 20
136.08869029632234
 10
3792.315161662312
 20
136.24146503966153
 10
3792.5081865096186
 20
136.39305825850278
 10
3792.7021378817913
 20
136.54346424544707
 10
3792.8970084766706
 20
136.6926773377939
 10
3793.092790957489
 20
136.84069191775473
 10
3793.289477953146
 20
136.98750241266436
 10
3793.487062058489
 20
137.1331032951905
 10
3793.685535834586
 20
137.27748908354232
 10
3793.884891809013
 20
137.42065434167648
 10
3794.08512247613
 20
137.5625936795019
 10
3794.286220297365
 20
137.7033017530827
 10
3794.4881777014994
 20
137.84277326483954
 10
3794.6909870849504
 20
137.98100296374878
 10
3794.8946408120596
 20
138.1179856455404
 10
3795.0991312153797
 20
138.25371615289373
 10
3795.304450595962
 20
138.38818937563207
 10
3795.510591223648
 20
138.5214002509145
 10
3795.7175453373598
 20
138.65334376342685
 10
3795.925305145392
 20
138.78401494557045
 10
3796.133862825705
 20
138.91340887764915
 10
3796.34321052622
 20
139.04152068805456
 10
3796.5533403651148
 20
139.16834555344946
 10
3796.7642444311196
 20
139.29387869894924
 10
3796.975914783815
 20
139.418115398302
 10
3797.1883434539322
 20
139.54105097406625
 10
3797.4015224436525
 20
139.662680797787
 10
3797.615443726906
 20
139.78300029017015
 10
3797.830099249679
 20
139.90200492125484
 10
3798.045480930311
 20
140.01969021058386
 10
3798.2615806598037
 20
140.13605172737277
 10
3798.4783903021253
 20
140.25108509067604
 10
3798.6959016945143
 20
140.3647859695527
 10
3798.91410664779
 20
140.47715008322888
 10
3799.1329969466597
 20
140.58817320125917
 10
3799.3525643500266
 20
140.69785114368597
 10
3799.5728005913024
 20
140.8061797811967
 10
3799.7936973787178
 20
140.91315503527943
 10
3800.0152463956324
 20
141.0187728783763
 10
3800.2374393008517
 20
141.12302933403515
 10
3800.460267728938
 20
141.22592047705945
 10
3800.6837232905277
 20
141.32744243365573
 10
3800.907797572644
 20
141.42759138157976
 10
3801.132482139018
 20
141.52636355028028
 10
3801.3577685304017
 20
141.62375522104088
 10
3801.5836482648906
 20
141.7197627271202
 10
3801.81011283824
 20
141.81438245389
 10
3802.037153724187
 20
141.90761083897098
 10
3802.2647623747703
 20
141.99944437236718
 10
3802.492930220653
 20
142.08987959659788
 10
3802.721648671444
 20
142.17891310682813
 10
3802.950909116024
 20
142.26654155099646
 10
3803.180702922866
 20
142.35276162994154
 10
3803.411021440364
 20
142.43757009752613
 10
3803.641855997155
 20
142.5209637607594
 10
3803.8731979024487
 20
142.60293947991698
 10
3804.1050384463533
 20
142.68349416865942
 10
3804.3373689002033
 20
142.76262479414822
 10
3804.5701805168883
 20
142.84032837716
 10
3804.8034645311823
 20
142.91660199219888
 10
3805.0372121600744
 20
142.99144276760632
 10
3805.271414603099
 20
143.0648478856694
 10
3805.506063042665
 20
143.1368145827269
 10
3805.741148644393
 20
143.20734014927342
 10
3805.9766625574416
 20
143.2764219300612
 10
3806.2125959148457
 20
143.3440573242002
 10
3806.448939833848
 20
143.41024378525617
 10
3806.6856854162324
 20
143.4749788213461
 10
3806.922823748663
 20
143.53825999523264
 10
3807.160345903015
 20
143.60008492441523
 10
3807.3982429367134
 20
143.66045128122033
 10
3807.636505893069
 20
143.71935679288862
 10
3807.875125801617
 20
143.77679924166097
 10
3808.114093678452
 20
143.83277646486158
 10
3808.3534005265687
 20
143.88728635497966
 10
3808.5930373362
 20
143.94032685974872
 10
3808.832995085155
 20
143.99189598222364
 10
3809.07326473916
 20
144.04199178085616
 10
3809.3138372521985
 20
144.09061236956774
 10
3809.5547035668515
 20
144.13775591782075
 10
3809.7958546146383
 20
144.1834206506872
 10
3810.0372813163576
 20
144.2276048489157
 10
3810.2789745824316
 20
144.2703068489962
 10
3810.520925313245
 20
144.3115250432225
 10
3810.7631243994892
 20
144.3512578797529
 10
3811.005562722506
 20
144.3895038626685
 10
3811.248231154629
 20
144.4262615520298
 10
3811.49112055953
 20
144.4615295639304
 10
3811.734221792559
 20
144.49530657054976
 10
3811.977525701092
 20
144.52759130020252
 10
3812.221023124875
 20
144.55838253738693
 10
3812.4647048963675
 20
144.5876791228303
 10
3812.7085618410883
 20
144.61547995353277
 10
3812.9525847779614
 20
144.64178398280876
 10
3813.1967645196614
 20
144.66659022032644
 10
3813.441091872958
 20
144.68989773214497
 10
3813.6855576390662
 20
144.7117056407497
 10
3813.9301526139866
 20
144.7320131250852
 10
3814.174867588857
 20
144.75081942058614
 10
3814.419693350297
 20
144.7681238192062
 10
3814.6646206807554
 20
144.7839256694445
 10
3814.909640358856
 20
144.79822437637034
 10
3815.154743159747
 20
144.81101940164547
 10
3815.399919855446
 20
144.82231026354435
 10
3815.6451612151895
 20
144.83209653697253
 10
3815.8904580057783
 20
144.84037785348227
 10
3816.135800991927
 20
144.84715390128673
 10
3816.3811809366116
 20
144.85242442527147
 10
3816.626588601415
 20
144.85618922700434
 10
3816.8720147468775
 20
144.85844816474258
 10
3817.1174501328437
 20
144.85920115343856
 10
3817.36288551881
 20
144.85844816474258
 10
3817.6083116642726
 20
144.85618922700434
 10
3817.853719329076
 20
144.85242442527147
 10
3818.09909927376
 20
144.84715390128673
 10
3818.344442259909
 20
144.84037785348227
 10
3818.589739050498
 20
144.83209653697253
 10
3818.8349804102413
 20
144.82231026354435
 10
3819.0801571059405
 20
144.81101940164547
 10
3819.3252599068314
 20
144.79822437637034
 10
3819.570279584932
 20
144.7839256694445
 10
3819.8152069153903
 20
144.7681238192062
 10
3820.0600326768304
 20
144.75081942058614
 10
3820.304747651701
 20
144.7320131250852
 10
3820.549342626621
 20
144.7117056407497
 10
3820.793808392729
 20
144.68989773214497
 10
3821.038135746026
 20
144.66659022032644
 10
3821.282315487726
 20
144.64178398280876
 10
3821.526338424599
 20
144.61547995353277
 10
3821.77019536932
 20
144.5876791228303
 10
3822.0138771408124
 20
144.55838253738693
 10
3822.2573745645955
 20
144.52759130020252
 10
3822.5006784731286
 20
144.49530657054976
 10
3822.7437797061575
 20
144.4615295639304
 10
3822.9866691110583
 20
144.4262615520298
 10
3823.2293375431814
 20
144.3895038626685
 10
3823.471775866198
 20
144.3512578797529
 10
3823.7139749524426
 20
144.3115250432225
 10
3823.955925683256
 20
144.2703068489962
 10
3824.19761894933
 20
144.2276048489157
 10
3824.439045651049
 20
144.1834206506872
 10
3824.680196698836
 20
144.13775591782075
 10
3824.921063013489
 20
144.0906123695678
 10
3825.1616355265273
 20
144.04199178085616
 10
3825.4019051805326
 20
143.99189598222364
 10
3825.6418629294876
 20
143.94032685974872
 10
3825.8814997391187
 20
143.88728635497972
 10
3826.1208065872356
 20
143.83277646486158
 10
3826.3597744640706
 20
143.77679924166097
 10
3826.5983943726183
 20
143.71935679288862
 10
3826.836657328974
 20
143.66045128122033
 10
3827.0745543626726
 20
143.60008492441523
 10
3827.3120765170243
 20
143.53825999523264
 10
3827.5492148494545
 20
143.47497882134616
 10
3827.7859604318396
 20
143.41024378525617
 10
3828.0223043508418
 20
143.3440573242002
 10
3828.258237708246
 20
143.2764219300612
 10
3828.4937516212945
 20
143.20734014927342
 10
3828.7288372230223
 20
143.1368145827269
 10
3828.9634856625885
 20
143.0648478856694
 10
3829.197688105613
 20
142.99144276760632
 10
3829.431435734505
 20
142.91660199219888
 10
3829.664719748799
 20
142.84032837716
 10
3829.897531365484
 20
142.76262479414822
 10
3830.129861819334
 20
142.68349416865942
 10
3830.3617023632387
 20
142.60293947991698
 10
3830.5930442685326
 20
142.5209637607594
 10
3830.8238788253234
 20
142.43757009752613
 10
3831.054197342821
 20
142.35276162994154
 10
3831.2839911496635
 20
142.26654155099646
 10
3831.5132515942432
 20
142.17891310682813
 10
3831.7419700450346
 20
142.08987959659788
 10
3831.970137890917
 20
141.99944437236718
 10
3832.1977465415002
 20
141.90761083897104
 10
3832.4247874274474
 20
141.81438245389
 10
3832.651252000797
 20
141.7197627271202
 10
3832.8771317352857
 20
141.62375522104088
 10
3833.1024181266694
 20
141.52636355028028
 10
3833.3271026930433
 20
141.42759138157976
 10
3833.5511769751597
 20
141.32744243365573
 10
3833.7746325367493
 20
141.22592047705945
 10
3833.9974609648357
 20
141.12302933403515
 10
3834.219653870055
 20
141.0187728783763
 10
3834.4412028869697
 20
140.91315503527943
 10
3834.662099674385
 20
140.8061797811967
 10
3834.882335915661
 20
140.69785114368597
 10
3835.1019033190278
 20
140.58817320125917
 10
3835.3207936178974
 20
140.47715008322888
 10
3835.538998571173
 20
140.3647859695527
 10
3835.756509963562
 20
140.25108509067604
 10
3835.9733196058837
 20
140.13605172737277
 10
3836.1894193353764
 20
140.01969021058392
 10
3836.4048010160086
 20
139.90200492125484
 10
3836.6194565387814
 20
139.78300029017015
 10
3836.833377822035
 20
139.662680797787
 10
3837.046556811755
 20
139.54105097406625
 10
3837.2589854818725
 20
139.418115398302
 10
3837.470655834568
 20
139.29387869894924
 10
3837.6815599005727
 20
139.16834555344946
 10
3837.8916897394674
 20
139.04152068805456
 10
3838.1010374399825
 20
138.91340887764915
 10
3838.3095951202954
 20
138.78401494557045
 10
3838.5173549283277
 20
138.65334376342685
 10
3838.7243090420393
 20
138.5214002509145
 10
3838.9304496697255
 20
138.38818937563207
 10
3839.1357690503078
 20
138.25371615289373
 10
3839.340259453628
 20
138.1179856455404
 10
3839.543913180737
 20
137.98100296374878
 10
3839.746722564188
 20
137.84277326483954
 10
3839.9486799683223
 20
137.70330175308277
 10
3840.1497777895574
 20
137.5625936795019
 10
3840.3500084566745
 20
137.42065434167648
 10
3840.5493644311014
 20
137.27748908354232
 10
3840.7478382071986
 20
137.13310329519055
 10
3840.9454223125413
 20
136.98750241266436
 10
3841.1421093081985
 20
136.84069191775473
 10
3841.337891789017
 20
136.6926773377939
 10
3841.532762383896
 20
136.54346424544707
 10
3841.726713756069
 20
136.39305825850278
 10
3841.919738603375
 20
136.24146503966153
 10
3842.111829658539
 20
136.08869029632234
 10
3842.3029796894407
 20
135.93473978036786
 10
3842.4931814993897
 20
135.77961928794804
 10
3842.6824279273947
 20
135.62333465926173
 10
3842.8707118484353
 20
135.46589177833692
 10
3843.058026173728
 20
135.30729657280904
 10
3843.244363850995
 20
135.1475550136979
 10
3843.4297178647266
 20
134.98667311518307
 10
3843.6140812364506
 20
134.82465693437695
 10
3843.797447024989
 20
134.6615125710972
 10
3843.9798083267247
 20
134.4972461676369
 10
3844.1611582758565
 20
134.33186390853336
 10
3844.341490044662
 20
134.1653720203351
 10
3844.5207968437517
 20
133.99777677136757
 10
3844.6990719223263
 20
133.82908447149725
 10
3844.87630856843
 20
133.6593014718938
 10
3845.052500109203
 20
133.48843416479133
 10
3845.227639911133
 20
133.3164889832472
 10
3845.4017213803054
 20
133.14347240090046
 10
3845.5747379626523
 20
132.96939093172756
 10
3845.7466831441966
 20
132.79425112979743
 10
3845.917550451299
 20
132.6180595890247
 10
3846.0873334509024
 20
132.44082294292122
 10
3846.2560257507726
 20
132.26254786434657
 10
3846.4236209997403
 20
132.0832410652567
 10
3846.5901128879386
 20
131.90290929645118
 10
3846.755495147042
 20
131.72155934731927
 10
3846.9197615505022
 20
131.53919804558404
 10
3847.0829059137823
 20
131.35583225704545
 10
3847.244922094588
 20
131.1714688853217
 10
3847.4058039931033
 20
130.98611487158962
 10
3847.565545552214
 20
130.79977719432304
 10
3847.724140757742
 20
130.6124628690302
 10
3847.881583638667
 20
130.42417894798956
 10
3848.037868267353
 20
130.2349325199844
 10
3848.192988759773
 20
130.04473071003565
 10
3848.3469392757274
 20
129.85358067913398
 10
3848.4997140190667
 20
129.6614896239701
 10
3848.651307237908
 20
129.46846477666367
 10
3848.8017132248524
 20
129.2745134044909
 10
3848.950926317199
 20
129.07964280961158
 10
3849.09894089716
 20
128.88386032879333
 10
3849.2457513920695
 20
128.6871733331359
 10
3849.3913522745956
 20
128.48958922779354
 10
3849.5357380629475
 20
128.2911154516961
 10
3849.6789033210816
 20
128.09175947726914
 10
3849.820842658907
 20
127.89152881015237
 10
3849.961550732488
 20
127.69043098891724
 10
3850.1010222442446
 20
127.48847358478308
 10
3850.239251943154
 20
127.28566420133201
 10
3850.3762346249455
 20
127.08201047422263
 10
3850.511965132299
 20
126.87752007090275
 10
3850.6464383550374
 20
126.67220069032042
 10
3850.7796492303196
 20
126.46606006263424
 10
3850.911592742832
 20
126.25910594892245
 10
3851.0422639249755
 20
126.05134614089035
 10
3851.1716578570545
 20
125.84278846057732
 10
3851.2997696674597
 20
125.63344076006213
 10
3851.426594532855
 20
125.42331092116741
 10
3851.5521276783543
 20
125.21240685516285
 10
3851.676364377707
 20
125.00073650246726
 10
3851.7992999534713
 20
124.78830783234982
 10
3851.920929777192
 20
124.57512884262992
 10
3852.0412492695755
 20
124.36120755937601
 10
3852.16025390066
 20
124.14655203660344
 10
3852.277939189989
 20
123.93117035597145
 10
3852.394300706778
 20
123.71507062647846
 10
3852.5093340700814
 20
123.49826098415723
 10
3852.623034948958
 20
123.28074959176816
 10
3852.735399062634
 20
123.0625446384923
 10
3852.8464221806644
 20
122.84365433962283
 10
3852.9561001230913
 20
122.62408693625575
 10
3853.064428760602
 20
122.40385069497965
 10
3853.1714040146844
 20
122.18295390756462
 10
3853.2770218577816
 20
121.96140489064986
 10
3853.3812783134404
 20
121.73921198543052
 10
3853.4841694564648
 20
121.51638355734404
 10
3853.585691413061
 20
121.29292799575471
 10
3853.685840360985
 20
121.06885371363818
 10
3853.7846125296855
 20
120.84416914726442
 10
3853.882004200446
 20
120.61888275588048
 10
3853.978011706525
 20
120.3930030213916
 10
3854.072631433295
 20
120.16653844804217
 10
3854.1658598183762
 20
119.93949756209527
 10
3854.257693351772
 20
119.71188891151205
 10
3854.348128576003
 20
119.48372106562952
 10
3854.4371620862335
 20
119.25500261483806
 10
3854.524790530402
 20
119.02574217025817
 10
3854.6110106093465
 20
118.79594836341595
 10
3854.6958190769315
 20
118.56562984591834
 10
3854.7792127401644
 20
118.33479528912734
 10
3854.861188459322
 20
118.10345338383361
 10
3854.9417431480647
 20
117.87161283992909
 10
3855.0208737735534
 20
117.63928238607916
 10
3855.0985773565653
 20
117.4064707693942
 10
3855.174850971604
 20
117.17318675509996
 10
3855.2496917470116
 20
116.93943912620769
 10
3855.3230968650746
 20
116.70523668318349
 10
3855.3950635621322
 20
116.47058824361706
 10
3855.4655891286784
 20
116.23550264188943
 10
3855.5346709094665
 20
115.9999887288407
 10
3855.6023063036055
 20
115.7640553714365
 10
3855.668492764661
 20
115.5277114524345
 10
3855.733227800751
 20
115.29096587004959
 10
3887.1270195362013
 20
0.003856691565630399
 10
3887.1272579856477
 20
0.002904748013250469
 10
3887.1274019801103
 20
0.0019340161963867786
 10
3887.1274501328435
 20
0.0009538447930879101
 10
3887.1274032734536
 20
0.0
 10
3781.3936609297693
 20
10.13283982815129
 10
3781.294465690682
 20
10.142429202952641
 10
3781.195286515998
 20
10.152183323912809
 10
3781.096123679332
 20
10.162102164122174
 10
3780.9969774542537
 20
10.17218569621673
 10
3780.8978481142876
 20
10.182433892378128
 10
3780.7987359329104
 20
10.192846724333705
 10
3780.6996411835516
 20
10.20342416335663
 10
3780.6005641395936
 20
10.214166180265934
 10
3780.5015050743696
 20
10.225072745426658
 10
3780.402464261162
 20
10.236143828749832
 10
3780.303441973205
 20
10.247379399692633
 10
3780.2044384836795
 20
10.25877942725846
 10
3780.105454065716
 20
10.270343879997014
 10
3780.006488992392
 20
10.282072726004387
 10
3779.9075435367313
 20
10.293965932923115
 10
3779.808617971704
 20
10.306023467942325
 10
3779.709712570225
 20
10.318245297797759
 10
3779.610827605154
 20
10.330631388771934
 10
3779.5119633492936
 20
10.343181706694224
 10
3779.4131200753905
 20
10.355896216940906
 10
3779.3142980561324
 20
10.368774884435268
 10
3779.2154975641483
 20
10.381817673647774
 10
3779.1167188720087
 20
10.395024548596055
 10
3779.0179622522232
 20
10.408395472845086
 10
3778.919227977241
 20
10.421930409507283
 10
3778.8205163194493
 20
10.435629321242587
 10
3778.721827551173
 20
10.449492170258495
 10
3778.6231619446744
 20
10.463518918310328
 10
3778.5245197721506
 20
10.477709526701219
 10
3778.425901305735
 20
10.492063956282195
 10
3778.327306817496
 20
10.506582167452379
 10
3778.228736579435
 20
10.521264120159032
 10
3778.1301908634864
 20
10.536109773897735
 10
3778.031669941518
 20
10.55111908771238
 10
3777.933174085328
 20
10.566292020195405
 10
3777.834703566646
 20
10.581628529487844
 10
3777.7362586571326
 20
10.597128573279448
 10
3777.637839628376
 20
10.612792108808847
 10
3777.5394467518936
 20
10.628619092863588
 10
3777.4410802991315
 20
10.644609481780279
 10
3777.342740541462
 20
10.66076323144479
 10
3777.244427750184
 20
10.677080297292306
 10
3777.1461421965223
 20
10.693560634307389
 10
3777.047884151626
 20
10.710204197024254
 10
3776.949653886569
 20
10.72701093952675
 10
3776.851451672348
 20
10.74398081544858
 10
3776.7532777798824
 20
10.761113777973364
 10
3776.655132480014
 20
10.77840977983486
 10
3776.5570160435045
 20
10.79586877331694
 10
3776.458928741037
 20
10.813490710253916
 10
3776.3608708432143
 20
10.831275542030497
 10
3776.262842620558
 20
10.849223219582072
 10
3776.164844343507
 20
10.867333693394684
 10
3776.066876282418
 20
10.885606913505327
 10
3775.968938707565
 20
10.904042829501961
 10
3775.871031889137
 20
10.922641390523765
 10
3775.7731560972393
 20
10.941402545261141
 10
3775.6753116018904
 20
10.960326241955968
 10
3775.5774986730225
 20
10.97941242840173
 10
3775.479717580482
 20
10.998661051943571
 10
3775.3819685940257
 20
11.01807205947857
 10
3775.2842519833234
 20
11.037645397455762
 10
3775.186568017955
 20
11.057381011876416
 10
3775.088916967409
 20
11.077278848294029
 10
3774.9912991010865
 20
11.097338851814627
 10
3774.893714688293
 20
11.11756096709685
 10
3774.7961639982445
 20
11.137945138352066
 10
3774.6986473000625
 20
11.158491309344583
 10
3774.6011648627764
 20
11.179199423391793
 10
3774.5037169553184
 20
11.200069423364312
 10
3774.4063038465283
 20
11.221101251686164
 10
3774.308925805148
 20
11.242294850334872
 10
3774.211583099824
 20
11.263650160841735
 10
3774.1142759991035
 20
11.285167124291874
 10
3774.0170047714373
 20
11.306845681324475
 10
3773.919769685176
 20
11.328685772132914
 10
3773.8225710085717
 20
11.350687336464873
 10
3773.725409009775
 20
11.372850313622664
 10
3773.6282839568353
 20
11.395174642463203
 10
3773.5311961177003
 20
11.417660261398353
 10
3773.4341457602163
 20
11.440307108394919
 10
3773.337133152124
 20
11.463115120974962
 10
3773.2401585610614
 20
11.486084236215945
 10
3773.1432222545614
 20
11.509214390750842
 10
3773.0463245000506
 20
11.532505520768353
 10
3772.94946556485
 20
11.55595756201312
 10
3772.8526457161734
 20
11.579570449785805
 10
3772.7558652211264
 20
11.603344118943383
 10
3772.659124346707
 20
11.627278503899234
 10
3772.562423359802
 20
11.65137353862336
 10
3772.4657625271902
 20
11.675629156642586
 10
3772.3691421155386
 20
11.70004529104068
 10
3772.272562391402
 20
11.724621874458634
 10
3772.176023621225
 20
11.74935883909474
 10
3772.0795260713376
 20
11.774256116704876
 10
3771.983070007956
 20
11.799313638602612
 10
3771.886655697183
 20
11.824531335659444
 10
3771.790283405005
 20
11.849909138305023
 10
3771.6939533972936
 20
11.875446976527243
 10
3771.5976659398034
 20
11.901144779872524
 10
3771.5014212981714
 20
11.927002477445953
 10
3771.405219737916
 20
11.95301999791154
 10
3771.3090615244378
 20
11.97919726949236
 10
3771.2129469230176
 20
12.005534219970741
 10
3771.1168761988147
 20
12.03203077668853
 10
3771.0208496168693
 20
12.058686866547205
 10
3770.924867442098
 20
12.085502416008197
 10
3770.828929939296
 20
12.112477351092963
 10
3770.7330373731347
 20
12.13961159738325
 10
3770.637190008162
 20
12.166905080021351
 10
3770.541388108801
 20
12.194357723710183
 10
3770.445631939349
 20
12.221969452713623
 10
3770.349921763977
 20
12.249740190856656
 10
3770.25425784673
 20
12.277669861525581
 10
3770.1586404515247
 20
12.305758387668234
 10
3770.0630698421496
 20
12.334005691794246
 10
3769.9675462822643
 20
12.362411695975155
 10
3769.872070035398
 20
12.39097632184469
 10
3769.77664136495
 20
12.419699490599001
 10
3769.681260534189
 20
12.448581122996856
 10
3769.5859278062494
 20
12.477621139359783
 10
3769.4906434441355
 20
12.506819459572469
 10
3769.3954077107164
 20
12.536176003082787
 10
3769.300220868728
 20
12.565690688902137
 10
3769.205083180771
 20
12.595363435605648
 10
3769.109994909311
 20
12.625194161332388
 10
3769.0149563166756
 20
12.655182783785577
 10
3768.9199676650574
 20
12.685329220232816
 10
3768.82502921651
 20
12.7156333875064
 10
3768.730141232949
 20
12.746095202003403
 10
3768.6353039761507
 20
12.776714579686015
 10
3768.540517707751
 20
12.807491436081747
 10
3768.4457826892462
 20
12.838425686283628
 10
3768.3510991819894
 20
12.86951724495053
 10
3768.256467447194
 20
12.90076602630728
 10
3768.161887745928
 20
12.932171944144997
 10
3768.0673603391187
 20
12.963734911821277
 10
3767.972885487546
 20
12.995454842260457
 10
3767.8784634518474
 20
13.02733164795383
 10
3767.784094492513
 20
13.059365240959949
 10
3767.6897788698875
 20
13.091555532904763
 10
3767.5955168441683
 20
13.123902434981943
 10
3767.5013086754043
 20
13.156405857953146
 10
3767.4071546234964
 20
13.18906571214815
 10
3767.3130549481957
 20
13.221881907465217
 10
3767.2190099091044
 20
13.2548543533713
 10
3767.125019765673
 20
13.287982958902262
 10
3767.0310847772002
 20
13.32126763266318
 10
3766.937205202834
 20
13.354708282828554
 10
3766.8433813015677
 20
13.388304817142554
 10
3766.7496133322425
 20
13.422057142919371
 10
3757.964294218451
 20
16.592627679188155
  0
CIRCLE
  5
15A
330
17
100
AcDbEntity
  8
CUT
100
AcDbCircle
 10
3817.1174501328437
 20
104.85920115343855
 30
0.0
 40
14.0
  0
TEXT
  5
15B
330
17
100
AcDbEntity
  8
MARK
100
AcDbText
 10
3819.080996299917
 20
61.72592559343384
 30
0.0
 40
8.0
  1
A5 斗缸耳板
100
AcDbText
  0
TEXT
  5
15C
330
17
100
AcDbEntity
  8
MARK
100
AcDbText
 10
3819.080996299917
 20
50.52592559343384
 30
0.0
 40
8.0
  1
t12  x2  Q355B
100
AcDbText
  0
DIMENSION
  5
15D
330
17
100
AcDbEntity
  8
DIM
100
AcDbDimension
280
0
  2
*D14
  3
PLATE
 10
3757.964294218451
 20
-30.0
 30
0.0
 11
3822.545872175647
 21
-26.375
 31
0.0
 70
32
 71
5
  1
<>
100
AcDbAlignedDimension
 13
3757.964294218451
 23
0.0
 33
0.0
 14
3887.1274501328435
 24
0.0
 34
0.0
 50
0.0
100
AcDbRotatedDimension
  0
DIMENSION
  5
16C
330
17
100
AcDbEntity
  8
DIM
100
AcDbDimension
280
0
  2
*D15
  3
PLATE
 10
3787.964294218451
 20
0.0
 30
0.0
 11
3784.339294218451
 21
72.42960057671928
 31
0.0
 70
32
 71
5
  1
<>
100
AcDbAlignedDimension
 13
3757.964294218451
 23
0.0
 33
0.0
 14
3757.964294218451
 24
144.85920115343856
 34
0.0
 50
90.0
100
AcDbRotatedDimension
  0
DIMENSION
  5
17B
330
17
100
AcDbEntity
  8
DIM
100
AcDbDimension
280
0
  2
*D16
  3
PLATE
 10
3827.0169450694552
 20
114.75869609005021
 30
0.0
 11
3795.020363220764
 21
87.88863840496133
 31
0.0
 70
35
 71
5
  1
<>
100
AcDbDiametricDimension
 15
3807.217955196232
 25
94.95970621682689
 35
0.0
  0
LWPOLYLINE
  5
188
330
17
100
AcDbEntity
  8
CUT
100
AcDbPolyline
 90
2
 70
1
 10
3987.1274501328444
 20
35.0
 42
1.0
 10
4057.1274501328444
 20
35.0
 42
1.0
  0
CIRCLE
  5
189
330
17
100
AcDbEntity
  8
CUT
100
AcDbCircle
 10
4022.1274501328444
 20
35.0
 30
0.0
 40
14.0
  0
TEXT
  5
18A
330
17
100
AcDbEntity
  8
MARK
100
AcDbText
 10
4046.627387561206
 20
43.0250183182668
 30
0.0
 40
8.0
  1
A6 B处加强环
100
AcDbText
  0
TEXT
  5
18B
330
17
100
AcDbEntity
  8
MARK
100
AcDbText
 10
4046.627387561206
 20
31.825018318266803
 30
0.0
 40
8.0
  1
t10  x2  Q355B
100
AcDbText
  0
DIMENSION
  5
18C
330
17
100
AcDbEntity
  8
DIM
100
AcDbDimension
280
0
  2
*D17
  3
PLATE
 10
3987.1274501328444
 20
-30.0
 30
0.0
 11
4022.1274501328444
 21
-26.375
 31
0.0
 70
32
 71
5
  1
<>
100
AcDbAlignedDimension
 13
3987.1274501328444
 23
0.0
 33
0.0
 14
4057.1274501328444
 24
0.0
 34
0.0
 50
0.0
100
AcDbRotatedDimension
  0
DIMENSION
  5
19B
330
17
100
AcDbEntity
  8
DIM
100
AcDbDimension
280
0
  2
*D18
  3
PLATE
 10
4017.1274501328444
 20
0.0
 30
0.0
 11
4013.5024501328444
 21
35.0
 31
0.0
 70
32
 71
5
  1
<>
100
AcDbAlignedDimension
 13
3987.1274501328444
 23
0.0
 33
0.0
 14
3987.1274501328444
 24
70.0
 34
0.0
 50
90.0
100
AcDbRotatedDimension
  0
DIMENSION
  5
1AA
330
17
100
AcDbEntity
  8
DIM
100
AcDbDimension
280
0
  2
*D19
  3
PLATE
 10
4032.026945069456
 20
44.89949493661166
 30
0.0
 11
4000.0303632207647
 21
18.029437251522772
 31
0.0
 70
35
 71
5
  1
<>
100
AcDbDiametricDimension
 15
4012.227955196233
 25
25.100505063388336
 35
0.0
  0
LWPOLYLINE
  5
1B7
330
17
100
AcDbEntity
  8
CUT
100
AcDbPolyline
 90
4
 70
1
 10
35.0
 20
459.99996965489385
 42
0.9999999999999999
 10
35.0
 20
389.99996965489385
 10
265.0
 20
389.99996965489385
 42
0.9999999999999999
 10
265.0
 20
459.99996965489385
  0
CIRCLE
  5
1B8
330
17
100
AcDbEntity
  8
CUT
100
AcDbCircle
 10
35.0
 20
424.99996965489385
 30
0.0
 40
14.0
  0
CIRCLE
  5
1B9
330
17
100
AcDbEntity
  8
CUT
100
AcDbCircle
 10
265.0
 20
424.99996965489385
 30
0.0
 40
14.0
  0
TEXT
  5
1BA
330
17
100
AcDbEntity
  8
MARK
100
AcDbText
 10
150.00004470844627
 20
432.99996965489385
 30
0.0
 40
8.0
  1
L1 斗杆连杆
100
AcDbText
  0
TEXT
  5
1BB
330
17
100
AcDbEntity
  8
MARK
100
AcDbText
 10
150.00004470844627
 20
421.79996965489386
 30
0.0
 40
8.0
  1
t10  x2  Q355B
100
AcDbText
  0
DIMENSION
  5
1BC
330
17
100
AcDbEntity
  8
DIM
100
AcDbDimension
280
0
  2
*D20
  3
PLATE
 10
0.0
 20
359.99996965489385
 30
0.0
 11
150.0
 21
363.62496965489385
 31
0.0
 70
32
 71
5
  1
<>
100
AcDbAlignedDimension
 13
0.0
 23
389.99996965489385
 33
0.0
 14
300.0
 24
389.99996965489385
 34
0.0
 50
0.0
100
AcDbRotatedDimension
  0
DIMENSION
  5
1CB
330
17
100
AcDbEntity
  8
DIM
100
AcDbDimension
280
0
  2
*D21
  3
PLATE
 10
30.0
 20
389.99996965489385
 30
0.0
 11
26.375
 21
424.99996965489385
 31
0.0
 70
32
 71
5
  1
<>
100
AcDbAlignedDimension
 13
0.0
 23
389.99996965489385
 33
0.0
 14
0.0
 24
459.99996965489385
 34
0.0
 50
90.0
100
AcDbRotatedDimension
  0
DIMENSION
  5
1DA
330
17
100
AcDbEntity
  8
DIM
100
AcDbDimension
280
0
  2
*D22
  3
PLATE
 10
44.89949493661167
 20
434.89946459150553
 30
0.0
 11
12.902913087920394
 21
408.0294069064166
 31
0.0
 70
35
 71
5
  1
<>
100
AcDbDiametricDimension
 15
25.100505063388333
 25
415.10047471828216
 35
0.0
  0
DIMENSION
  5
1E7
330
17
100
AcDbEntity
  8
DIM
100
AcDbDimension
280
0
  2
*D23
  3
PLATE
 10
274.8994949366117
 20
434.89946459150553
 30
0.0
 11
242.9029130879204
 21
408.0294069064166
 31
0.0
 70
35
 71
5
  1
<>
100
AcDbDiametricDimension
 15
255.10050506338834
 25
415.10047471828216
 35
0.0
  0
DIMENSION
  5
1F4
330
17
100
AcDbEntity
  8
DIM
100
AcDbDimension
280
0
  2
*D24
  3
PLATE
 10
35.0
 20
449.99996965489385
 30
0.0
 11
150.0
 21
453.62496965489385
 31
0.0
 70
32
 71
5
  1
<>
100
AcDbAlignedDimension
 13
35.0
 23
424.99996965489385
 33
0.0
 14
265.0
 24
424.99996965489385
 34
0.0
 50
0.0
100
AcDbRotatedDimension
  0
LWPOLYLINE
  5
203
330
17
100
AcDbEntity
  8
CUT
100
AcDbPolyline
 90
4
 70
1
 10
435.0
 20
459.99996965489385
 42
0.9999999999999999
 10
435.0
 20
389.99996965489385
 10
645.0
 20
389.99996965489385
 42
0.9999999999999999
 10
645.0
 20
459.99996965489385
  0
CIRCLE
  5
204
330
17
100
AcDbEntity
  8
CUT
100
AcDbCircle
 10
435.0
 20
424.99996965489385
 30
0.0
 40
14.0
  0
CIRCLE
  5
205
330
17
100
AcDbEntity
  8
CUT
100
AcDbCircle
 10
645.0
 20
424.99996965489385
 30
0.0
 40
14.0
  0
TEXT
  5
206
330
17
100
AcDbEntity
  8
MARK
100
AcDbText
 10
540.0000447084462
 20
432.99996965489385
 30
0.0
 40
8.0
  1
L2 铲斗连杆
100
AcDbText
  0
TEXT
  5
207
330
17
100
AcDbEntity
  8
MARK
100
AcDbText
 10
540.0000447084462
 20
421.79996965489386
 30
0.0
 40
8.0
  1
t10  x2  Q355B
100
AcDbText
  0
DIMENSION
  5
208
330
17
100
AcDbEntity
  8
DIM
100
AcDbDimension
280
0
  2
*D25
  3
PLATE
 10
400.0
 20
359.99996965489385
 30
0.0
 11
540.0
 21
363.62496965489385
 31
0.0
 70
32
 71
5
  1
<>
100
AcDbAlignedDimension
 13
400.0
 23
389.99996965489385
 33
0.0
 14
680.0
 24
389.99996965489385
 34
0.0
 50
0.0
100
AcDbRotatedDimension
  0
DIMENSION
  5
217
330
17
100
AcDbEntity
  8
DIM
100
AcDbDimension
280
0
  2
*D26
  3
PLATE
 10
430.0
 20
389.99996965489385
 30
0.0
 11
426.375
 21
424.99996965489385
 31
0.0
 70
32
 71
5
  1
<>
100
AcDbAlignedDimension
 13
400.0
 23
389.99996965489385
 33
0.0
 14
400.0
 24
459.99996965489385
 34
0.0
 50
90.0
100
AcDbRotatedDimension
  0
DIMENSION
  5
226
330
17
100
AcDbEntity
  8
DIM
100
AcDbDimension
280
0
  2
*D27
  3
PLATE
 10
444.8994949366117
 20
434.89946459150553
 30
0.0
 11
412.9029130879204
 21
408.0294069064167
 31
0.0
 70
35
 71
5
  1
<>
100
AcDbDiametricDimension
 15
425.1005050633883
 25
415.10047471828216
 35
0.0
  0
DIMENSION
  5
233
330
17
100
AcDbEntity
  8
DIM
100
AcDbDimension
280
0
  2
*D28
  3
PLATE
 10
654.8994949366116
 20
434.89946459150553
 30
0.0
 11
622.9029130879205
 21
408.0294069064166
 31
0.0
 70
35
 71
5
  1
<>
100
AcDbDiametricDimension
 15
635.1005050633884
 25
415.10047471828216
 35
0.0
  0
DIMENSION
  5
240
330
17
100
AcDbEntity
  8
DIM
100
AcDbDimension
280
0
  2
*D29
  3
PLATE
 10
435.0
 20
449.99996965489385
 30
0.0
 11
540.0
 21
453.62496965489385
 31
0.0
 70
32
 71
5
  1
<>
100
AcDbAlignedDimension
 13
435.0
 23
424.99996965489385
 33
0.0
 14
645.0
 24
424.99996965489385
 34
0.0
 50
0.0
100
AcDbRotatedDimension
  0
LWPOLYLINE
  5
24F
330
17
100
AcDbEntity
  8
CUT
100
AcDbPolyline
 90
5
 70
1
 10
780.0
 20
744.9999696548939
 10
1060.0
 20
744.9999696548939
 10
1133.9090644965509
 20
417.13829030123514
 10
970.0
 20
389.9999696548939
 42
-0.41421356237309503
 10
790.0
 20
569.9999696548939
  0
TEXT
  5
250
330
17
100
AcDbEntity
  8
MARK
100
AcDbText
 10
945.0212970362854
 20
575.4505659085462
 30
0.0
 40
8.0
  1
K1 斗侧板
100
AcDbText
  0
TEXT
  5
251
330
17
100
AcDbEntity
  8
MARK
100
AcDbText
 10
945.0212970362854
 20
564.2505659085462
 30
0.0
 40
8.0
  1
t8  x2  Q355B
100
AcDbText
  0
DIMENSION
  5
252
330
17
100
AcDbEntity
  8
DIM
100
AcDbDimension
280
0
  2
*D30
  3
PLATE
 10
780.0
 20
359.9999696548939
 30
0.0
 11
956.9545322482754
 21
363.6249696548939
 31
0.0
 70
32
 71
5
  1
<>
100
AcDbAlignedDimension
 13
780.0
 23
389.9999696548939
 33
0.0
 14
1133.9090644965509
 24
389.9999696548939
 34
0.0
 50
0.0
100
AcDbRotatedDimension
  0
DIMENSION
  5
261
330
17
100
AcDbEntity
  8
DIM
100
AcDbDimension
280
0
  2
*D31
  3
PLATE
 10
810.0
 20
389.9999696548939
 30
0.0
 11
806.375
 21
567.4999696548939
 31
0.0
 70
32
 71
5
  1
<>
100
AcDbAlignedDimension
 13
780.0
 23
389.9999696548939
 33
0.0
 14
780.0
 24
744.9999696548939
 34
0.0
 50
90.0
100
AcDbRotatedDimension
  0
LWPOLYLINE
  5
270
330
17
100
AcDbEntity
  8
CUT
100
AcDbPolyline
 90
4
 70
1
 10
1233.9090644965509
 20
389.99996965489385
 10
1617.9090644965509
 20
389.99996965489385
 10
1617.9090644965509
 20
669.9999696548939
 10
1233.9090644965509
 20
669.9999696548939
  0
TEXT
  5
271
330
17
100
AcDbEntity
  8
MARK
100
AcDbText
 10
1425.9090644965509
 20
537.9999696548939
 30
0.0
 40
8.0
  1
K2 斗顶板
100
AcDbText
  0
TEXT
  5
272
330
17
100
AcDbEntity
  8
MARK
100
AcDbText
 10
1425.9090644965509
 20
526.7999696548939
 30
0.0
 40
8.0
  1
t8  x1  Q355B
100
AcDbText
  0
DIMENSION
  5
273
330
17
100
AcDbEntity
  8
DIM
100
AcDbDimension
280
0
  2
*D32
  3
PLATE
 10
1233.9090644965509
 20
359.99996965489385
 30
0.0
 11
1425.9090644965509
 21
363.62496965489385
 31
0.0
 70
32
 71
5
  1
<>
100
AcDbAlignedDimension
 13
1233.9090644965509
 23
389.99996965489385
 33
0.0
 14
1617.9090644965509
 24
389.99996965489385
 34
0.0
 50
0.0
100
AcDbRotatedDimension
  0
DIMENSION
  5
282
330
17
100
AcDbEntity
  8
DIM
100
AcDbDimension
280
0
  2
*D33
  3
PLATE
 10
1263.9090644965509
 20
389.99996965489385
 30
0.0
 11
1260.2840644965509
 21
529.9999696548939
 31
0.0
 70
32
 71
5
  1
<>
100
AcDbAlignedDimension
 13
1233.9090644965509
 23
389.99996965489385
 33
0.0
 14
1233.9090644965509
 24
669.9999696548939
 34
0.0
 50
90.0
100
AcDbRotatedDimension
  0
LWPOLYLINE
  5
291
330
17
100
AcDbEntity
  8
CUT
100
AcDbPolyline
 90
4
 70
1
 10
1717.9090644965509
 20
389.99996965489385
 10
2101.909064496551
 20
389.99996965489385
 10
2101.909064496551
 20
499.99996965489385
 10
1717.9090644965509
 20
499.99996965489385
  0
TEXT
  5
292
330
17
100
AcDbEntity
  8
MARK
100
AcDbText
 10
1909.9090644965509
 20
452.99996965489385
 30
0.0
 40
8.0
  1
K3 刃板
100
AcDbText
  0
TEXT
  5
293
330
17
100
AcDbEntity
  8
MARK
100
AcDbText
 10
1909.9090644965509
 20
441.79996965489386
 30
0.0
 40
8.0
  1
t12  x1  NM400(或Q355替代)
100
AcDbText
  0
TEXT
  5
294
330
17
100
AcDbEntity
  8
MARK
100
AcDbText
 10
1909.9090644965509
 20
444.99996965489385
 30
0.0
 40
5.0
  1
前缘开 30° 坡口(刃口)，可焊接式斗齿另购
100
AcDbText
  0
DIMENSION
  5
295
330
17
100
AcDbEntity
  8
DIM
100
AcDbDimension
280
0
  2
*D34
  3
PLATE
 10
1717.9090644965509
 20
359.99996965489385
 30
0.0
 11
1909.9090644965509
 21
363.62496965489385
 31
0.0
 70
32
 71
5
  1
<>
100
AcDbAlignedDimension
 13
1717.9090644965509
 23
389.99996965489385
 33
0.0
 14
2101.909064496551
 24
389.99996965489385
 34
0.0
 50
0.0
100
AcDbRotatedDimension
  0
DIMENSION
  5
2A4
330
17
100
AcDbEntity
  8
DIM
100
AcDbDimension
280
0
  2
*D35
  3
PLATE
 10
1747.9090644965509
 20
389.99996965489385
 30
0.0
 11
1744.2840644965509
 21
444.99996965489385
 31
0.0
 70
32
 71
5
  1
<>
100
AcDbAlignedDimension
 13
1717.9090644965509
 23
389.99996965489385
 33
0.0
 14
1717.9090644965509
 24
499.99996965489385
 34
0.0
 50
90.0
100
AcDbRotatedDimension
  0
LWPOLYLINE
  5
2B3
330
17
100
AcDbEntity
  8
CUT
100
AcDbPolyline
 90
4
 70
1
 10
2201.909064496551
 20
389.99996965489385
 10
2711.3660082022448
 20
389.99996965489385
 10
2711.3660082022448
 20
773.9999696548939
 10
2201.909064496551
 20
773.9999696548939
  0
TEXT
  5
2B4
330
17
100
AcDbEntity
  8
MARK
100
AcDbText
 10
2456.637536349398
 20
589.9999696548939
 30
0.0
 40
8.0
  1
K4 底弧板
100
AcDbText
  0
TEXT
  5
2B5
330
17
100
AcDbEntity
  8
MARK
100
AcDbText
 10
2456.637536349398
 20
578.7999696548939
 30
0.0
 40
8.0
  1
t6  x1  Q355B
100
AcDbText
  0
TEXT
  5
2B6
330
17
100
AcDbEntity
  8
MARK
100
AcDbText
 10
2456.637536349398
 20
781.9999696548939
 30
0.0
 40
5.0
  1
卷弧 R177(中性层)/内 R174
100
AcDbText
  0
LINE
  5
2B7
330
17
100
AcDbEntity
  8
MARK
100
AcDbLine
 10
2258.049576929967
 20
389.99996965489385
 30
0.0
 11
2258.049576929967
 21
773.9999696548939
 31
0.0
  0
LINE
  5
2B8
330
17
100
AcDbEntity
  8
MARK
100
AcDbLine
 10
2536.0805267726637
 20
389.99996965489385
 30
0.0
 11
2536.0805267726637
 21
773.9999696548939
 31
0.0
  0
DIMENSION
  5
2B9
330
17
100
AcDbEntity
  8
DIM
100
AcDbDimension
280
0
  2
*D36
  3
PLATE
 10
2201.909064496551
 20
359.99996965489385
 30
0.0
 11
2456.637536349398
 21
363.62496965489385
 31
0.0
 70
32
 71
5
  1
<>
100
AcDbAlignedDimension
 13
2201.909064496551
 23
389.99996965489385
 33
0.0
 14
2711.3660082022448
 24
389.99996965489385
 34
0.0
 50
0.0
100
AcDbRotatedDimension
  0
DIMENSION
  5
2C8
330
17
100
AcDbEntity
  8
DIM
100
AcDbDimension
280
0
  2
*D37
  3
PLATE
 10
2231.909064496551
 20
389.99996965489385
 30
0.0
 11
2228.284064496551
 21
581.9999696548939
 31
0.0
 70
32
 71
5
  1
<>
100
AcDbAlignedDimension
 13
2201.909064496551
 23
389.99996965489385
 33
0.0
 14
2201.909064496551
 24
773.9999696548939
 34
0.0
 50
90.0
100
AcDbRotatedDimension
  0
LWPOLYLINE
  5
2D7
330
17
100
AcDbEntity
  8
CUT
100
AcDbPolyline
 90
6
 70
1
 10
3051.3660082022448
 20
389.99996965489385
 10
3035.8522013529137
 20
491.7807232237373
 42
0.4734024524416967
 10
2975.976215491934
 20
527.2865429416202
 10
2844.416215491934
 20
479.4065429416201
 42
0.2960314032140546
 10
2814.9178215374277
 20
440.2902532296761
 10
2811.3660082022448
 20
389.99996965489385
  0
CIRCLE
  5
2D8
330
17
100
AcDbEntity
  8
CUT
100
AcDbCircle
 10
2991.3660082022448
 20
484.99996965489385
 30
0.0
 40
25.25
  0
CIRCLE
  5
2D9
330
17
100
AcDbEntity
  8
CUT
100
AcDbCircle
 10
2859.806008202245
 20
437.11996965489385
 30
0.0
 40
25.25
  0
TEXT
  5
2DA
330
17
100
AcDbEntity
  8
MARK
100
AcDbText
 10
2929.1247414447425
 20
468.0063805947945
 30
0.0
 40
8.0
  1
K5 斗耳板
100
AcDbText
  0
TEXT
  5
2DB
330
17
100
AcDbEntity
  8
MARK
100
AcDbText
 10
2929.1247414447425
 20
456.8063805947945
 30
0.0
 40
8.0
  1
t12  x2  Q355B
100
AcDbText
  0
DIMENSION
  5
2DC
330
17
100
AcDbEntity
  8
DIM
100
AcDbDimension
280
0
  2
*D38
  3
PLATE
 10
2811.3660082022448
 20
359.99996965489385
 30
0.0
 11
2931.3660082022448
 21
363.62496965489385
 31
0.0
 70
32
 71
5
  1
<>
100
AcDbAlignedDimension
 13
2811.3660082022448
 23
389.99996965489385
 33
0.0
 14
3051.3660082022448
 24
389.99996965489385
 34
0.0
 50
0.0
100
AcDbRotatedDimension
  0
DIMENSION
  5
2EB
330
17
100
AcDbEntity
  8
DIM
100
AcDbDimension
280
0
  2
*D39
  3
PLATE
 10
2841.3660082022448
 20
389.99996965489385
 30
0.0
 11
2837.7410082022448
 21
459.9999691479471
 31
0.0
 70
32
 71
5
  1
<>
100
AcDbAlignedDimension
 13
2811.3660082022448
 23
389.99996965489385
 33
0.0
 14
2811.3660082022448
 24
529.9999686410005
 34
0.0
 50
90.0
100
AcDbRotatedDimension
  0
DIMENSION
  5
2FA
330
17
100
AcDbEntity
  8
DIM
100
AcDbDimension
280
0
  2
*D40
  3
PLATE
 10
3009.220454427205
 20
502.8544158798542
 30
0.0
 11
2957.0713293146973
 21
455.83181493094867
 31
0.0
 70
35
 71
5
  1
<>
100
AcDbDiametricDimension
 15
2973.5115619772846
 25
467.1455234299335
 35
0.0
  0
DIMENSION
  5
307
330
17
100
AcDbEntity
  8
DIM
100
AcDbDimension
280
0
  2
*D41
  3
PLATE
 10
2877.660454427205
 20
454.9744158798542
 30
0.0
 11
2825.5113293146974
 21
407.9518149309487
 31
0.0
 70
35
 71
5
  1
<>
100
AcDbDiametricDimension
 15
2841.9515619772847
 25
419.2655234299335
 35
0.0
  0
DIMENSION
  5
314
330
17
100
AcDbEntity
  8
DIM
100
AcDbDimension
280
0
  2
*D42
  3
PLATE
 10
2999.9158930413064
 20
461.5074289400459
 30
0.0
 11
2935.37562634297
 21
434.161010536393
 31
0.0
 70
32
 71
5
  1
<>
100
AcDbAlignedDimension
 13
2991.3660082022448
 23
484.99996965489385
 33
0.0
 14
2859.806008202245
 24
437.11996965489385
 34
0.0
 50
-160.00150905748106
100
AcDbRotatedDimension
  0
LWPOLYLINE
  5
323
330
17
100
AcDbEntity
  8
CUT
100
AcDbPolyline
 90
4
 70
1
 10
3161.3660082022448
 20
389.99996965489385
 10
3211.3660082022448
 20
389.99996965489385
 10
3151.3660082022448
 20
449.99996965489385
 10
3151.3660082022448
 20
399.99996965489385
  0
TEXT
  5
324
330
17
100
AcDbEntity
  8
MARK
100
AcDbText
 10
3163.8660082022448
 20
432.99996965489385
 30
0.0
 40
8.0
  1
K6 耳板三角筋板
100
AcDbText
  0
TEXT
  5
325
330
17
100
AcDbEntity
  8
MARK
100
AcDbText
 10
3163.8660082022448
 20
421.79996965489386
 30
0.0
 40
8.0
  1
t8  x4  Q355B
100
AcDbText
  0
DIMENSION
  5
326
330
17
100
AcDbEntity
  8
DIM
100
AcDbDimension
280
0
  2
*D43
  3
PLATE
 10
3151.3660082022448
 20
359.99996965489385
 30
0.0
 11
3181.3660082022448
 21
363.62496965489385
 31
0.0
 70
32
 71
5
  1
<>
100
AcDbAlignedDimension
 13
3151.3660082022448
 23
389.99996965489385
 33
0.0
 14
3211.3660082022448
 24
389.99996965489385
 34
0.0
 50
0.0
100
AcDbRotatedDimension
  0
DIMENSION
  5
335
330
17
100
AcDbEntity
  8
DIM
100
AcDbDimension
280
0
  2
*D44
  3
PLATE
 10
3181.3660082022448
 20
389.99996965489385
 30
0.0
 11
3177.7410082022448
 21
419.99996965489385
 31
0.0
 70
32
 71
5
  1
<>
100
AcDbAlignedDimension
 13
3151.3660082022448
 23
389.99996965489385
 33
0.0
 14
3151.3660082022448
 24
449.99996965489385
 34
0.0
 50
90.0
100
AcDbRotatedDimension
  0
ENDSEC
  0
SECTION
  2
OBJECTS
  0
DICTIONARY
  5
A
330
0
100
AcDbDictionary
281
1
  3
ACAD_COLOR
350
B
  3
ACAD_GROUP
350
C
  3
ACAD_LAYOUT
350
D
  3
ACAD_MATERIAL
350
E
  3
ACAD_MLEADERSTYLE
350
F
  3
ACAD_MLINESTYLE
350
10
  3
ACAD_PLOTSETTINGS
350
11
  3
ACAD_PLOTSTYLENAME
350
12
  3
ACAD_SCALELIST
350
14
  3
ACAD_TABLESTYLE
350
15
  3
ACAD_VISUALSTYLE
350
16
  3
EZDXF_META
350
2D
  0
DICTIONARY
  5
B
330
A
100
AcDbDictionary
281
1
  0
DICTIONARY
  5
C
330
A
100
AcDbDictionary
281
1
  0
DICTIONARY
  5
D
330
A
100
AcDbDictionary
281
1
  3
Model
350
1A
  3
Layout1
350
1E
  0
DICTIONARY
  5
E
330
A
100
AcDbDictionary
281
1
  3
ByBlock
350
1F
  3
ByLayer
350
20
  3
Global
350
21
  0
DICTIONARY
  5
F
330
A
100
AcDbDictionary
281
1
  3
Standard
350
2C
  0
DICTIONARY
  5
10
330
A
100
AcDbDictionary
281
1
  3
Standard
350
22
  0
DICTIONARY
  5
11
330
A
100
AcDbDictionary
281
1
  0
ACDBDICTIONARYWDFLT
  5
12
330
A
100
AcDbDictionary
281
1
  3
Normal
350
13
100
AcDbDictionaryWithDefault
340
13
  0
ACDBPLACEHOLDER
  5
13
330
12
  0
DICTIONARY
  5
14
330
A
100
AcDbDictionary
281
1
  0
DICTIONARY
  5
15
330
A
100
AcDbDictionary
281
1
  0
DICTIONARY
  5
16
330
A
100
AcDbDictionary
281
1
  3
2dWireframe
350
5A
  3
Basic
350
5B
  3
Brighten
350
5C
  3
ColorChange
350
5D
  3
Conceptual
350
5E
  3
Dim
350
5F
  3
EdgeColorOff
350
60
  3
Facepattern
350
61
  3
Flat
350
62
  3
FlatWithEdges
350
63
  3
Gouraud
350
64
  3
GouraudWithEdges
350
65
  3
Hidden
350
66
  3
JitterOff
350
67
  3
Linepattern
350
68
  3
Modeling
350
69
  3
OverhangOff
350
6A
  3
Realistic
350
6B
  3
Shaded
350
6C
  3
Shaded with edges
350
6D
  3
Shades of Gray
350
6E
  3
Sketchy
350
6F
  3
Thicken
350
70
  3
Wireframe
350
71
  3
X-Ray
350
72
  0
LAYOUT
  5
1A
330
D
100
AcDbPlotSettings
  1

  4
A3
  6

 40
7.5
 41
20.0
 42
7.5
 43
20.0
 44
420.0
 45
297.0
 46
0.0
 47
0.0
 48
0.0
 49
0.0
140
0.0
141
0.0
142
1.0
143
1.0
 70
1024
 72
1
 73
0
 74
5
  7

 75
16
 76
0
 77
2
 78
300
147
1.0
148
0.0
149
0.0
100
AcDbLayout
  1
Model
 70
1
 71
0
 10
0.0
 20
0.0
 11
420.0
 21
297.0
 12
0.0
 22
0.0
 32
0.0
 14
1e+20
 24
1e+20
 34
1e+20
 15
-1e+20
 25
-1e+20
 35
-1e+20
146
0.0
 13
0.0
 23
0.0
 33
0.0
 16
1.0
 26
0.0
 36
0.0
 17
0.0
 27
1.0
 37
0.0
 76
1
330
17
  0
LAYOUT
  5
1E
330
D
100
AcDbPlotSettings
  1

  4
A3
  6

 40
7.5
 41
20.0
 42
7.5
 43
20.0
 44
420.0
 45
297.0
 46
0.0
 47
0.0
 48
0.0
 49
0.0
140
0.0
141
0.0
142
1.0
143
1.0
 70
0
 72
1
 73
0
 74
5
  7

 75
16
 76
0
 77
2
 78
300
147
1.0
148
0.0
149
0.0
100
AcDbLayout
  1
Layout1
 70
1
 71
1
 10
0.0
 20
0.0
 11
420.0
 21
297.0
 12
0.0
 22
0.0
 32
0.0
 14
1e+20
 24
1e+20
 34
1e+20
 15
-1e+20
 25
-1e+20
 35
-1e+20
146
0.0
 13
0.0
 23
0.0
 33
0.0
 16
1.0
 26
0.0
 36
0.0
 17
0.0
 27
1.0
 37
0.0
 76
1
330
1B
  0
MATERIAL
  5
1F
102
{ACAD_REACTORS
330
E
102
}
330
E
100
AcDbMaterial
  1
ByBlock
  2

 70
0
 40
1.0
 71
1
 41
1.0
 91
-1023410177
 42
1.0
 72
1
  3

 73
1
 74
1
 75
1
 44
0.5
 73
0
 45
1.0
 46
1.0
 77
1
  4

 78
1
 79
1
170
1
 48
1.0
171
1
  6

172
1
173
1
174
1
140
1.0
141
1.0
175
1
  7

176
1
177
1
178
1
143
1.0
179
1
  8

270
1
271
1
272
1
145
1.0
146
1.0
273
1
  9

274
1
275
1
276
1
 42
1.0
 72
1
  3

 73
1
 74
1
 75
1
 94
63
  0
MATERIAL
  5
20
102
{ACAD_REACTORS
330
E
102
}
330
E
100
AcDbMaterial
  1
ByLayer
  2

 70
0
 40
1.0
 71
1
 41
1.0
 91
-1023410177
 42
1.0
 72
1
  3

 73
1
 74
1
 75
1
 44
0.5
 73
0
 45
1.0
 46
1.0
 77
1
  4

 78
1
 79
1
170
1
 48
1.0
171
1
  6

172
1
173
1
174
1
140
1.0
141
1.0
175
1
  7

176
1
177
1
178
1
143
1.0
179
1
  8

270
1
271
1
272
1
145
1.0
146
1.0
273
1
  9

274
1
275
1
276
1
 42
1.0
 72
1
  3

 73
1
 74
1
 75
1
 94
63
  0
MATERIAL
  5
21
102
{ACAD_REACTORS
330
E
102
}
330
E
100
AcDbMaterial
  1
Global
  2

 70
0
 40
1.0
 71
1
 41
1.0
 91
-1023410177
 42
1.0
 72
1
  3

 73
1
 74
1
 75
1
 44
0.5
 73
0
 45
1.0
 46
1.0
 77
1
  4

 78
1
 79
1
170
1
 48
1.0
171
1
  6

172
1
173
1
174
1
140
1.0
141
1.0
175
1
  7

176
1
177
1
178
1
143
1.0
179
1
  8

270
1
271
1
272
1
145
1.0
146
1.0
273
1
  9

274
1
275
1
276
1
 42
1.0
 72
1
  3

 73
1
 74
1
 75
1
 94
63
  0
MLINESTYLE
  5
22
102
{ACAD_REACTORS
330
10
102
}
330
10
100
AcDbMlineStyle
  2
Standard
 70
0
  3

 62
256
 51
90.0
 52
90.0
 71
2
 49
0.5
 62
256
  6
BYLAYER
 49
-0.5
 62
256
  6
BYLAYER
  0
MLEADERSTYLE
  5
2C
102
{ACAD_REACTORS
330
F
102
}
330
F
100
AcDbMLeaderStyle
179
2
170
2
171
1
172
0
 90
2
 40
0.0
 41
0.0
173
1
 91
-1056964608
 92
-2
290
1
 42
2.0
291
1
 43
8.0
  3
Standard
 44
4.0
300

342
29
174
1
175
1
176
0
178
1
 93
-1056964608
 45
4.0
292
0
297
0
 46
4.0
 94
-1056964608
 47
1.0
 49
1.0
140
1.0
294
1
141
0.0
177
0
142
1.0
295
0
296
0
143
3.75
271
0
272
9
273
9
  0
DICTIONARY
  5
2D
330
A
100
AcDbDictionary
280
1
281
1
  3
CREATED_BY_EZDXF
350
2E
  3
WRITTEN_BY_EZDXF
350
346
  0
DICTIONARYVAR
  5
2E
330
2D
100
DictionaryVariables
280
0
  1
1.4.4 @ 2026-09-24T16:56:56.692947+00:00
  0
VISUALSTYLE
  5
5A
102
{ACAD_REACTORS
330
16
102
}
330
16
100
AcDbVisualStyle
  2
2dWireframe
 70
4
 90
0
 40
0.6
 62
7
290
0
291
0
  0
VISUALSTYLE
  5
5B
102
{ACAD_REACTORS
330
16
102
}
330
16
100
AcDbVisualStyle
  2
Basic
 70
7
 90
1
 40
0.6
 62
7
290
0
291
1
  0
VISUALSTYLE
  5
5C
102
{ACAD_REACTORS
330
16
102
}
330
16
100
AcDbVisualStyle
  2
Brighten
 70
12
 90
2
 40
0.6
 62
7
290
0
291
1
  0
VISUALSTYLE
  5
5D
102
{ACAD_REACTORS
330
16
102
}
330
16
100
AcDbVisualStyle
  2
ColorChange
 70
16
 90
2
 40
0.6
 62
8
290
0
291
1
  0
VISUALSTYLE
  5
5E
102
{ACAD_REACTORS
330
16
102
}
330
16
100
AcDbVisualStyle
  2
Conceptual
 70
9
 90
3
 40
0.6
 62
7
290
0
291
0
  0
VISUALSTYLE
  5
5F
102
{ACAD_REACTORS
330
16
102
}
330
16
100
AcDbVisualStyle
  2
Dim
 70
11
 90
2
 40
0.6
 62
7
290
0
291
1
  0
VISUALSTYLE
  5
60
102
{ACAD_REACTORS
330
16
102
}
330
16
100
AcDbVisualStyle
  2
EdgeColorOff
 70
22
 90
2
 40
0.6
 62
7
290
0
291
1
  0
VISUALSTYLE
  5
61
102
{ACAD_REACTORS
330
16
102
}
330
16
100
AcDbVisualStyle
  2
Facepattern
 70
15
 90
2
 40
0.6
 62
7
290
0
291
1
  0
VISUALSTYLE
  5
62
102
{ACAD_REACTORS
330
16
102
}
330
16
100
AcDbVisualStyle
  2
Flat
 70
0
 90
2
 40
0.6
 62
7
290
0
291
1
  0
VISUALSTYLE
  5
63
102
{ACAD_REACTORS
330
16
102
}
330
16
100
AcDbVisualStyle
  2
FlatWithEdges
 70
1
 90
2
 40
0.6
 62
7
290
0
291
1
  0
VISUALSTYLE
  5
64
102
{ACAD_REACTORS
330
16
102
}
330
16
100
AcDbVisualStyle
  2
Gouraud
 70
2
 90
2
 40
0.6
 62
7
290
0
291
1
  0
VISUALSTYLE
  5
65
102
{ACAD_REACTORS
330
16
102
}
330
16
100
AcDbVisualStyle
  2
GouraudWithEdges
 70
3
 90
2
 40
0.6
 62
7
290
0
291
1
  0
VISUALSTYLE
  5
66
102
{ACAD_REACTORS
330
16
102
}
330
16
100
AcDbVisualStyle
  2
Hidden
 70
6
 90
1
 40
0.6
 62
7
290
0
291
0
  0
VISUALSTYLE
  5
67
102
{ACAD_REACTORS
330
16
102
}
330
16
100
AcDbVisualStyle
  2
JitterOff
 70
20
 90
2
 40
0.6
 62
7
290
0
291
1
  0
VISUALSTYLE
  5
68
102
{ACAD_REACTORS
330
16
102
}
330
16
100
AcDbVisualStyle
  2
Linepattern
 70
14
 90
2
 40
0.6
 62
7
290
0
291
1
  0
VISUALSTYLE
  5
69
102
{ACAD_REACTORS
330
16
102
}
330
16
100
AcDbVisualStyle
  2
Modeling
 70
10
 90
2
 40
0.6
 62
7
290
0
291
0
  0
VISUALSTYLE
  5
6A
102
{ACAD_REACTORS
330
16
102
}
330
16
100
AcDbVisualStyle
  2
OverhangOff
 70
21
 90
2
 40
0.6
 62
7
290
0
291
1
  0
VISUALSTYLE
  5
6B
102
{ACAD_REACTORS
330
16
102
}
330
16
100
AcDbVisualStyle
  2
Realistic
 70
8
 90
2
 40
0.6
 62
7
290
0
291
0
  0
VISUALSTYLE
  5
6C
102
{ACAD_REACTORS
330
16
102
}
330
16
100
AcDbVisualStyle
  2
Shaded
 70
27
 90
2
 40
0.6
 62
7
290
0
291
0
  0
VISUALSTYLE
  5
6D
102
{ACAD_REACTORS
330
16
102
}
330
16
100
AcDbVisualStyle
  2
Shaded with edges
 70
26
 90
2
 40
0.6
 62
7
290
0
291
0
  0
VISUALSTYLE
  5
6E
102
{ACAD_REACTORS
330
16
102
}
330
16
100
AcDbVisualStyle
  2
Shades of Gray
 70
23
 90
2
 40
0.6
 62
7
290
0
291
0
  0
VISUALSTYLE
  5
6F
102
{ACAD_REACTORS
330
16
102
}
330
16
100
AcDbVisualStyle
  2
Sketchy
 70
24
 90
1
 40
0.6
 62
7
290
0
291
0
  0
VISUALSTYLE
  5
70
102
{ACAD_REACTORS
330
16
102
}
330
16
100
AcDbVisualStyle
  2
Thicken
 70
13
 90
2
 40
0.6
 62
7
290
0
291
1
  0
VISUALSTYLE
  5
71
102
{ACAD_REACTORS
330
16
102
}
330
16
100
AcDbVisualStyle
  2
Wireframe
 70
5
 90
0
 40
0.6
 62
7
290
0
291
0
  0
VISUALSTYLE
  5
72
102
{ACAD_REACTORS
330
16
102
}
330
16
100
AcDbVisualStyle
  2
X-Ray
 70
25
 90
2
 40
0.5
 62
7
290
0
291
0
  0
DICTIONARYVAR
  5
346
330
2D
100
DictionaryVariables
280
0
  1
1.4.4 @ 2026-09-24T16:56:56.734242+00:00
  0
ENDSEC
  0
EOF
