  0
SECTION
  2
HEADER
  9
$ACADVER
  1
AC1024
  9
$ACADMAINTVER
 70
6
  9
$DWGCODEPAGE
  3
ANSI_1252
  9
$LASTSAVEDBY
  1
ezdxf
  9
$INSBASE
 10
0.0
 20
0.0
 30
0.0
  9
$EXTMIN
 10
1e+20
 20
1e+20
 30
1e+20
  9
$EXTMAX
 10
-1e+20
 20
-1e+20
 30
-1e+20
  9
$LIMMIN
 10
0.0
 20
0.0
  9
$LIMMAX
 10
420.0
 20
297.0
  9
$ORTHOMODE
 70
0
  9
$REGENMODE
 70
1
  9
$FILLMODE
 70
1
  9
$QTEXTMODE
 70
0
  9
$MIRRTEXT
 70
1
  9
$LTSCALE
 40
1.0
  9
$ATTMODE
 70
1
  9
$TEXTSIZE
 40
2.5
  9
$TRACEWID
 40
1.0
  9
$TEXTSTYLE
  7
OpenSans
  9
$CLAYER
  8
0
  9
$CELTYPE
  6
ByLayer
  9
$CECOLOR
 62
256
  9
$CELTSCALE
 40
1.0
  9
$DISPSILH
 70
0
  9
$DIMSCALE
 40
1.0
  9
$DIMASZ
 40
0.175
  9
$DIMEXO
 40
0.125
  9
$DIMDLI
 40
3.75
  9
$DIMRND
 40
0.0
  9
$DIMDLE
 40
0.0
  9
$DIMEXE
 40
0.375
  9
$DIMTP
 40
0.0
  9
$DIMTM
 40
0.0
  9
$DIMTXT
 40
0.25
  9
$DIMCEN
 40
2.5
  9
$DIMTSZ
 40
0.0
  9
$DIMTOL
 70
0
  9
$DIMLIM
 70
0
  9
$DIMTIH
 70
0
  9
$DIMTOH
 70
0
  9
$DIMSE1
 70
0
  9
$DIMSE2
 70
0
  9
$DIMTAD
 70
1
  9
$DIMZIN
 70
12
  9
$DIMBLK
  1
ARCHTICK
  9
$DIMASO
 70
1
  9
$DIMSHO
 70
1
  9
$DIMPOST
  1

  9
$DIMAPOST
  1

  9
$DIMALT
 70
0
  9
$DIMALTD
 70
3
  9
$DIMALTF
 40
0.03937007874
  9
$DIMLFAC
 40
100.0
  9
$DIMTOFL
 70
1
  9
$DIMTVP
 40
0.0
  9
$DIMTIX
 70
0
  9
$DIMSOXD
 70
0
  9
$DIMSAH
 70
0
  9
$DIMBLK1
  1

  9
$DIMBLK2
  1

  9
$DIMSTYLE
  2
EZDXF
  9
$DIMCLRD
 70
0
  9
$DIMCLRE
 70
0
  9
$DIMCLRT
 70
0
  9
$DIMTFAC
 40
0.5
  9
$DIMGAP
 40
0.1
  9
$DIMJUST
 70
0
  9
$DIMSD1
 70
0
  9
$DIMSD2
 70
0
  9
$DIMTOLJ
 70
0
  9
$DIMTZIN
 70
8
  9
$DIMALTZ
 70
0
  9
$DIMALTTZ
 70
0
  9
$DIMUPT
 70
1
  9
$DIMDEC
 70
2
  9
$DIMTDEC
 70
2
  9
$DIMALTU
 70
2
  9
$DIMALTTD
 70
3
  9
$DIMTXSTY
  7
OpenSansCondensed-Light
  9
$DIMAUNIT
 70
0
  9
$DIMADEC
 70
2
  9
$DIMALTRND
 40
0.0
  9
$DIMAZIN
 70
3
  9
$DIMDSEP
 70
46
  9
$DIMATFIT
 70
3
  9
$DIMFRAC
 70
0
  9
$DIMLDRBLK
  1

  9
$DIMLUNIT
 70
2
  9
$DIMLWD
 70
-2
  9
$DIMLWE
 70
-2
  9
$DIMTMOVE
 70
2
  9
$DIMFXL
 40
1.0
  9
$DIMFXLON
 70
0
  9
$DIMJOGANG
 40
0.785398163397
  9
$DIMTFILL
 70
0
  9
$DIMTFILLCLR
 70
0
  9
$DIMARCSYM
 70
0
  9
$DIMLTYPE
  6

  9
$DIMLTEX1
  6

  9
$DIMLTEX2
  6

  9
$DIMTXTDIRECTION
 70
0
  9
$LUNITS
 70
2
  9
$LUPREC
 70
4
  9
$SKETCHINC
 40
1.0
  9
$FILLETRAD
 40
10.0
  9
$AUNITS
 70
0
  9
$AUPREC
 70
2
  9
$MENU
  1
.
  9
$ELEVATION
 40
0.0
  9
$PELEVATION
 40
0.0
  9
$THICKNESS
 40
0.0
  9
$LIMCHECK
 70
0
  9
$CHAMFERA
 40
0.0
  9
$CHAMFERB
 40
0.0
  9
$CHAMFERC
 40
0.0
  9
$CHAMFERD
 40
0.0
  9
$SKPOLY
 70
0
  9
$TDCREATE
 40
2461308.945127315
  9
$TDUCREATE
 40
2458532.153996898
  9
$TDUPDATE
 40
2461308.945127315
  9
$TDUUPDATE
 40
2458532.1544311
  9
$TDINDWG
 40
0.0
  9
$TDUSRTIMER
 40
0.0
  9
$USRTIMER
 70
1
  9
$ANGBASE
 50
0.0
  9
$ANGDIR
 70
0
  9
$PDMODE
 70
0
  9
$PDSIZE
 40
0.0
  9
$PLINEWID
 40
0.0
  9
$SPLFRAME
 70
0
  9
$SPLINETYPE
 70
6
  9
$SPLINESEGS
 70
8
  9
$HANDSEED
  5
93
  9
$SURFTAB1
 70
6
  9
$SURFTAB2
 70
6
  9
$SURFTYPE
 70
6
  9
$SURFU
 70
6
  9
$SURFV
 70
6
  9
$UCSBASE
  2

  9
$UCSNAME
  2

  9
$UCSORG
 10
0.0
 20
0.0
 30
0.0
  9
$UCSXDIR
 10
1.0
 20
0.0
 30
0.0
  9
$UCSYDIR
 10
0.0
 20
1.0
 30
0.0
  9
$UCSORTHOREF
  2

  9
$UCSORTHOVIEW
 70
0
  9
$UCSORGTOP
 10
0.0
 20
0.0
 30
0.0
  9
$UCSORGBOTTOM
 10
0.0
 20
0.0
 30
0.0
  9
$UCSORGLEFT
 10
0.0
 20
0.0
 30
0.0
  9
$UCSORGRIGHT
 10
0.0
 20
0.0
 30
0.0
  9
$UCSORGFRONT
 10
0.0
 20
0.0
 30
0.0
  9
$UCSORGBACK
 10
0.0
 20
0.0
 30
0.0
  9
$PUCSBASE
  2

  9
$PUCSNAME
  2

  9
$PUCSORG
 10
0.0
 20
0.0
 30
0.0
  9
$PUCSXDIR
 10
1.0
 20
0.0
 30
0.0
  9
$PUCSYDIR
 10
0.0
 20
1.0
 30
0.0
  9
$PUCSORTHOREF
  2

  9
$PUCSORTHOVIEW
 70
0
  9
$PUCSORGTOP
 10
0.0
 20
0.0
 30
0.0
  9
$PUCSORGBOTTOM
 10
0.0
 20
0.0
 30
0.0
  9
$PUCSORGLEFT
 10
0.0
 20
0.0
 30
0.0
  9
$PUCSORGRIGHT
 10
0.0
 20
0.0
 30
0.0
  9
$PUCSORGFRONT
 10
0.0
 20
0.0
 30
0.0
  9
$PUCSORGBACK
 10
0.0
 20
0.0
 30
0.0
  9
$USERI1
 70
0
  9
$USERI2
 70
0
  9
$USERI3
 70
0
  9
$USERI4
 70
0
  9
$USERI5
 70
0
  9
$USERR1
 40
0.0
  9
$USERR2
 40
0.0
  9
$USERR3
 40
0.0
  9
$USERR4
 40
0.0
  9
$USERR5
 40
0.0
  9
$WORLDVIEW
 70
1
  9
$SHADEDGE
 70
3
  9
$SHADEDIF
 70
70
  9
$TILEMODE
 70
1
  9
$MAXACTVP
 70
64
  9
$PINSBASE
 10
0.0
 20
0.0
 30
0.0
  9
$PLIMCHECK
 70
0
  9
$PEXTMIN
 10
1e+20
 20
1e+20
 30
1e+20
  9
$PEXTMAX
 10
-1e+20
 20
-1e+20
 30
-1e+20
  9
$PLIMMIN
 10
0.0
 20
0.0
  9
$PLIMMAX
 10
420.0
 20
297.0
  9
$UNITMODE
 70
0
  9
$VISRETAIN
 70
1
  9
$PLINEGEN
 70
0
  9
$PSLTSCALE
 70
1
  9
$TREEDEPTH
 70
3020
  9
$CMLSTYLE
  2
Standard
  9
$CMLJUST
 70
0
  9
$CMLSCALE
 40
20.0
  9
$PROXYGRAPHICS
 70
1
  9
$MEASUREMENT
 70
1
  9
$CELWEIGHT
370
-1
  9
$ENDCAPS
280
0
  9
$JOINSTYLE
280
0
  9
$LWDISPLAY
290
0
  9
$INSUNITS
 70
4
  9
$HYPERLINKBASE
  1

  9
$STYLESHEET
  1

  9
$XEDIT
290
1
  9
$CEPSNTYPE
380
0
  9
$PSTYLEMODE
290
1
  9
$FINGERPRINTGUID
  2
{B57158AB-F750-4D80-B51E-8168F6FE7A77}
  9
$VERSIONGUID
  2
{ED1D4FA3-14F4-4F52-A2EA-57A88D7368D2}
  9
$EXTNAMES
290
1
  9
$PSVPSCALE
 40
0.0
  9
$OLESTARTUP
290
0
  9
$SORTENTS
280
127
  9
$INDEXCTL
280
0
  9
$HIDETEXT
280
1
  9
$XCLIPFRAME
280
1
  9
$HALOGAP
280
0
  9
$OBSCOLOR
 70
257
  9
$OBSLTYPE
280
0
  9
$INTERSECTIONDISPLAY
280
0
  9
$INTERSECTIONCOLOR
 70
257
  9
$DIMASSOC
280
2
  9
$PROJECTNAME
  1

  9
$CAMERADISPLAY
290
0
  9
$LENSLENGTH
 40
50.0
  9
$CAMERAHEIGHT
 40
0.0
  9
$STEPSPERSEC
 40
24.0
  9
$STEPSIZE
 40
100.0
  9
$3DDWFPREC
 40
2.0
  9
$PSOLWIDTH
 40
0.005
  9
$PSOLHEIGHT
 40
0.08
  9
$LOFTANG1
 40
1.570796326795
  9
$LOFTANG2
 40
1.570796326795
  9
$LOFTMAG1
 40
0.0
  9
$LOFTMAG2
 40
0.0
  9
$LOFTPARAM
 70
7
  9
$LOFTNORMALS
280
1
  9
$LATITUDE
 40
37.795
  9
$LONGITUDE
 40
-122.394
  9
$NORTHDIRECTION
 40
0.0
  9
$TIMEZONE
 70
-8000
  9
$LIGHTGLYPHDISPLAY
280
1
  9
$TILEMODELIGHTSYNCH
280
1
  9
$CMATERIAL
347
20
  9
$SOLIDHIST
280
0
  9
$SHOWHIST
280
1
  9
$DWFFRAME
280
2
  9
$DGNFRAME
280
2
  9
$REALWORLDSCALE
290
1
  9
$INTERFERECOLOR
 62
256
  9
$CSHADOW
280
0
  9
$SHADOWPLANELOCATION
 40
0.0
  0
ENDSEC
  0
SECTION
  2
CLASSES
  0
CLASS
  1
ACDBDICTIONARYWDFLT
  2
AcDbDictionaryWithDefault
  3
ObjectDBX Classes
 90
0
 91
0
280
0
281
0
  0
CLASS
  1
SUN
  2
AcDbSun
  3
SCENEOE
 90
1153
 91
0
280
0
281
0
  0
CLASS
  1
VISUALSTYLE
  2
AcDbVisualStyle
  3
ObjectDBX Classes
 90
4095
 91
0
280
0
281
0
  0
CLASS
  1
MATERIAL
  2
AcDbMaterial
  3
ObjectDBX Classes
 90
1153
 91
0
280
0
281
0
  0
CLASS
  1
SCALE
  2
AcDbScale
  3
ObjectDBX Classes
 90
1153
 91
0
280
0
281
0
  0
CLASS
  1
TABLESTYLE
  2
AcDbTableStyle
  3
ObjectDBX Classes
 90
4095
 91
0
280
0
281
0
  0
CLASS
  1
MLEADERSTYLE
  2
AcDbMLeaderStyle
  3
ACDB_MLEADERSTYLE_CLASS
 90
4095
 91
0
280
0
281
0
  0
CLASS
  1
DICTIONARYVAR
  2
AcDbDictionaryVar
  3
ObjectDBX Classes
 90
0
 91
0
280
0
281
0
  0
CLASS
  1
CELLSTYLEMAP
  2
AcDbCellStyleMap
  3
ObjectDBX Classes
 90
1152
 91
0
280
0
281
0
  0
CLASS
  1
MENTALRAYRENDERSETTINGS
  2
AcDbMentalRayRenderSettings
  3
SCENEOE
 90
1024
 91
0
280
0
281
0
  0
CLASS
  1
ACDBDETAILVIEWSTYLE
  2
AcDbDetailViewStyle
  3
ObjectDBX Classes
 90
1025
 91
0
280
0
281
0
  0
CLASS
  1
ACDBSECTIONVIEWSTYLE
  2
AcDbSectionViewStyle
  3
ObjectDBX Classes
 90
1025
 91
0
280
0
281
0
  0
CLASS
  1
RASTERVARIABLES
  2
AcDbRasterVariables
  3
ISM
 90
0
 91
0
280
0
281
0
  0
CLASS
  1
ACDBPLACEHOLDER
  2
AcDbPlaceHolder
  3
ObjectDBX Classes
 90
0
 91
0
280
0
281
0
  0
CLASS
  1
LAYOUT
  2
AcDbLayout
  3
ObjectDBX Classes
 90
0
 91
0
280
0
281
0
  0
ENDSEC
  0
SECTION
  2
TABLES
  0
TABLE
  2
VPORT
  5
8
330
0
100
AcDbSymbolTable
 70
1
  0
VPORT
  5
23
330
8
100
AcDbSymbolTableRecord
100
AcDbViewportTableRecord
  2
*Active
 70
0
 10
0.0
 20
0.0
 11
1.0
 21
1.0
 12
0.0
 22
0.0
 13
0.0
 23
0.0
 14
0.5
 24
0.5
 15
0.5
 25
0.5
 16
0.0
 26
0.0
 36
1.0
 17
0.0
 27
0.0
 37
0.0
 40
1000.0
 41
1.34
 42
50.0
 43
0.0
 44
0.0
 50
0.0
 51
0.0
 71
0
 72
1000
 73
1
 74
3
 75
0
 76
0
 77
0
 78
0
281
0
 65
0
146
0.0
  0
ENDTAB
  0
TABLE
  2
LTYPE
  5
2
330
0
100
AcDbSymbolTable
 70
21
  0
LTYPE
  5
24
330
2
100
AcDbSymbolTableRecord
100
AcDbLinetypeTableRecord
  2
ByBlock
 70
0
  3

 72
65
 73
0
 40
0.0
  0
LTYPE
  5
25
330
2
100
AcDbSymbolTableRecord
100
AcDbLinetypeTableRecord
  2
ByLayer
 70
0
  3

 72
65
 73
0
 40
0.0
  0
LTYPE
  5
26
330
2
100
AcDbSymbolTableRecord
100
AcDbLinetypeTableRecord
  2
Continuous
 70
0
  3

 72
65
 73
0
 40
0.0
  0
LTYPE
  5
2F
330
2
100
AcDbSymbolTableRecord
100
AcDbLinetypeTableRecord
  2
CENTER
 70
0
  3
Center ____ _ ____ _ ____ _ ____ _ ____ _ ____
 72
65
 73
4
 40
5.08
 49
3.175
 74
0
 49
-0.635
 74
0
 49
0.635
 74
0
 49
-0.635
 74
0
  0
LTYPE
  5
30
330
2
100
AcDbSymbolTableRecord
100
AcDbLinetypeTableRecord
  2
CENTERX2
 70
0
  3
Center (2x) ________  __  ________  __  ________
 72
65
 73
4
 40
8.89
 49
6.35
 74
0
 49
-0.635
 74
0
 49
1.27
 74
0
 49
-0.635
 74
0
  0
LTYPE
  5
31
330
2
100
AcDbSymbolTableRecord
100
AcDbLinetypeTableRecord
  2
CENTER2
 70
0
  3
Center (.5x) ____ _ ____ _ ____ _ ____ _ ____
 72
65
 73
4
 40
2.54
 49
1.587
 74
0
 49
-0.318
 74
0
 49
0.318
 74
0
 49
-0.318
 74
0
  0
LTYPE
  5
32
330
2
100
AcDbSymbolTableRecord
100
AcDbLinetypeTableRecord
  2
DASHED
 70
0
  3
Dashed __ __ __ __ __ __ __ __ __ __ __ __ __ _
 72
65
 73
2
 40
1.524
 49
1.27
 74
0
 49
-0.254
 74
0
  0
LTYPE
  5
33
330
2
100
AcDbSymbolTableRecord
100
AcDbLinetypeTableRecord
  2
DASHEDX2
 70
0
  3
Dashed (2x) ____  ____  ____  ____  ____  ____
 72
65
 73
2
 40
3.048
 49
2.54
 74
0
 49
-0.508
 74
0
  0
LTYPE
  5
34
330
2
100
AcDbSymbolTableRecord
100
AcDbLinetypeTableRecord
  2
DASHED2
 70
0
  3
Dashed (.5x) _ _ _ _ _ _ _ _ _ _ _ _ _ _
 72
65
 73
2
 40
0.762
 49
0.635
 74
0
 49
-0.127
 74
0
  0
LTYPE
  5
35
330
2
100
AcDbSymbolTableRecord
100
AcDbLinetypeTableRecord
  2
PHANTOM
 70
0
  3
Phantom ______  __  __  ______  __  __  ______
 72
65
 73
6
 40
6.35
 49
3.175
 74
0
 49
-0.635
 74
0
 49
0.635
 74
0
 49
-0.635
 74
0
 49
0.635
 74
0
 49
-0.635
 74
0
  0
LTYPE
  5
36
330
2
100
AcDbSymbolTableRecord
100
AcDbLinetypeTableRecord
  2
PHANTOMX2
 70
0
  3
Phantom (2x)____________    ____    ____    ____________
 72
65
 73
6
 40
10.795
 49
6.35
 74
0
 49
-0.635
 74
0
 49
1.27
 74
0
 49
-0.635
 74
0
 49
1.27
 74
0
 49
-0.635
 74
0
  0
LTYPE
  5
37
330
2
100
AcDbSymbolTableRecord
100
AcDbLinetypeTableRecord
  2
PHANTOM2
 70
0
  3
Phantom (.5x) ___ _ _ ___ _ _ ___ _ _ ___ _ _ ___
 72
65
 73
6
 40
3.175
 49
1.587
 74
0
 49
-0.318
 74
0
 49
0.318
 74
0
 49
-0.318
 74
0
 49
0.318
 74
0
 49
-0.318
 74
0
  0
LTYPE
  5
38
330
2
100
AcDbSymbolTableRecord
100
AcDbLinetypeTableRecord
  2
DASHDOT
 70
0
  3
Dash dot __ . __ . __ . __ . __ . __ . __ . __
 72
65
 73
4
 40
3.556
 49
2.54
 74
0
 49
-0.508
 74
0
 49
0.0
 74
0
 49
-0.508
 74
0
  0
LTYPE
  5
39
330
2
100
AcDbSymbolTableRecord
100
AcDbLinetypeTableRecord
  2
DASHDOTX2
 70
0
  3
Dash dot (2x) ____  .  ____  .  ____  .  ____
 72
65
 73
4
 40
6.096
 49
5.08
 74
0
 49
-0.508
 74
0
 49
0.0
 74
0
 49
-0.508
 74
0
  0
LTYPE
  5
3A
330
2
100
AcDbSymbolTableRecord
100
AcDbLinetypeTableRecord
  2
DASHDOT2
 70
0
  3
Dash dot (.5x) _ . _ . _ . _ . _ . _ . _ . _
 72
65
 73
4
 40
1.778
 49
1.27
 74
0
 49
-0.254
 74
0
 49
0.0
 74
0
 49
-0.254
 74
0
  0
LTYPE
  5
3B
330
2
100
AcDbSymbolTableRecord
100
AcDbLinetypeTableRecord
  2
DOT
 70
0
  3
Dot .  .  .  .  .  .  .  .  .  .  .  .  .  .  .  .
 72
65
 73
2
 40
0.508
 49
0.0
 74
0
 49
-0.508
 74
0
  0
LTYPE
  5
3C
330
2
100
AcDbSymbolTableRecord
100
AcDbLinetypeTableRecord
  2
DOTX2
 70
0
  3
Dot (2x) .    .    .    .    .    .    .    . 
 72
65
 73
2
 40
1.016
 49
0.0
 74
0
 49
-1.016
 74
0
  0
LTYPE
  5
3D
330
2
100
AcDbSymbolTableRecord
100
AcDbLinetypeTableRecord
  2
DOT2
 70
0
  3
Dot (.5) . . . . . . . . . . . . . . . . . . . 
 72
65
 73
2
 40
0.254
 49
0.0
 74
0
 49
-0.254
 74
0
  0
LTYPE
  5
3E
330
2
100
AcDbSymbolTableRecord
100
AcDbLinetypeTableRecord
  2
DIVIDE
 70
0
  3
Divide __ . . __ . . __ . . __ . . __ . . __
 72
65
 73
6
 40
4.064
 49
2.54
 74
0
 49
-0.508
 74
0
 49
0.0
 74
0
 49
-0.508
 74
0
 49
0.0
 74
0
 49
-0.508
 74
0
  0
LTYPE
  5
3F
330
2
100
AcDbSymbolTableRecord
100
AcDbLinetypeTableRecord
  2
DIVIDEX2
 70
0
  3
Divide (2x) ____  . .  ____  . .  ____  . .  ____
 72
65
 73
6
 40
6.604
 49
5.08
 74
0
 49
-0.508
 74
0
 49
0.0
 74
0
 49
-0.508
 74
0
 49
0.0
 74
0
 49
-0.508
 74
0
  0
LTYPE
  5
40
330
2
100
AcDbSymbolTableRecord
100
AcDbLinetypeTableRecord
  2
DIVIDE2
 70
0
  3
Divide(.5x) _ . _ . _ . _ . _ . _ . _ . _
 72
65
 73
6
 40
2.032
 49
1.27
 74
0
 49
-0.254
 74
0
 49
0.0
 74
0
 49
-0.254
 74
0
 49
0.0
 74
0
 49
-0.254
 74
0
  0
ENDTAB
  0
TABLE
  2
LAYER
  5
1
330
0
100
AcDbSymbolTable
 70
4
  0
LAYER
  5
27
330
1
100
AcDbSymbolTableRecord
100
AcDbLayerTableRecord
  2
0
 70
0
 62
7
  6
Continuous
370
-3
390
13
347
21
  0
LAYER
  5
28
330
1
100
AcDbSymbolTableRecord
100
AcDbLayerTableRecord
  2
Defpoints
 70
0
 62
7
  6
Continuous
290
0
370
-3
390
13
347
21
  0
LAYER
  5
8A
330
1
100
AcDbSymbolTableRecord
100
AcDbLayerTableRecord
  2
CUT
 70
0
 62
7
  6
Continuous
370
-3
390
13
347
21
  0
LAYER
  5
8B
330
1
100
AcDbSymbolTableRecord
100
AcDbLayerTableRecord
  2
MARK
 70
0
 62
3
  6
Continuous
370
-3
390
13
347
21
  0
ENDTAB
  0
TABLE
  2
STYLE
  5
5
330
0
100
AcDbSymbolTable
 70
26
  0
STYLE
  5
29
330
5
100
AcDbSymbolTableRecord
100
AcDbTextStyleTableRecord
  2
Standard
 70
0
 40
0.0
 41
1.0
 50
0.0
 71
0
 42
2.5
  3
txt
  4

  0
STYLE
  5
41
330
5
100
AcDbSymbolTableRecord
100
AcDbTextStyleTableRecord
  2
OpenSans-Light
 70
0
 40
0.0
 41
1.0
 50
0.0
 71
0
 42
2.5
  3
OpenSans-Light.ttf
  4

  0
STYLE
  5
42
330
5
100
AcDbSymbolTableRecord
100
AcDbTextStyleTableRecord
  2
OpenSans-Light-Italic
 70
0
 40
0.0
 41
1.0
 50
0.0
 71
0
 42
2.5
  3
OpenSans-LightItalic.ttf
  4

  0
STYLE
  5
43
330
5
100
AcDbSymbolTableRecord
100
AcDbTextStyleTableRecord
  2
OpenSans
 70
0
 40
0.0
 41
1.0
 50
0.0
 71
0
 42
2.5
  3
OpenSans-Regular.ttf
  4

  0
STYLE
  5
44
330
5
100
AcDbSymbolTableRecord
100
AcDbTextStyleTableRecord
  2
OpenSans-Italic
 70
0
 40
0.0
 41
1.0
 50
0.0
 71
0
 42
2.5
  3
OpenSans-Italic.ttf
  4

  0
STYLE
  5
45
330
5
100
AcDbSymbolTableRecord
100
AcDbTextStyleTableRecord
  2
OpenSans-SemiBold
 70
0
 40
0.0
 41
1.0
 50
0.0
 71
0
 42
2.5
  3
OpenSans-SemiBold.ttf
  4

  0
STYLE
  5
46
330
5
100
AcDbSymbolTableRecord
100
AcDbTextStyleTableRecord
  2
OpenSans-SemiBoldItalic
 70
0
 40
0.0
 41
1.0
 50
0.0
 71
0
 42
2.5
  3
OpenSans-SemiBoldItalic.ttf
  4

  0
STYLE
  5
47
330
5
100
AcDbSymbolTableRecord
100
AcDbTextStyleTableRecord
  2
OpenSans-Bold
 70
0
 40
0.0
 41
1.0
 50
0.0
 71
0
 42
2.5
  3
OpenSans-Bold.ttf
  4

  0
STYLE
  5
48
330
5
100
AcDbSymbolTableRecord
100
AcDbTextStyleTableRecord
  2
OpenSans-BoldItalic
 70
0
 40
0.0
 41
1.0
 50
0.0
 71
0
 42
2.5
  3
OpenSans-BoldItalic.ttf
  4

  0
STYLE
  5
49
330
5
100
AcDbSymbolTableRecord
100
AcDbTextStyleTableRecord
  2
OpenSans-ExtraBold
 70
0
 40
0.0
 41
1.0
 50
0.0
 71
0
 42
2.5
  3
OpenSans-ExtraBold.ttf
  4

  0
STYLE
  5
4A
330
5
100
AcDbSymbolTableRecord
100
AcDbTextStyleTableRecord
  2
OpenSans-ExtraBoldItalic
 70
0
 40
0.0
 41
1.0
 50
0.0
 71
0
 42
2.5
  3
OpenSans-ExtraBoldItalic.ttf
  4

  0
STYLE
  5
4B
330
5
100
AcDbSymbolTableRecord
100
AcDbTextStyleTableRecord
  2
OpenSansCondensed-Bold
 70
0
 40
0.0
 41
1.0
 50
0.0
 71
0
 42
2.5
  3
OpenSansCondensed-Bold.ttf
  4

  0
STYLE
  5
4C
330
5
100
AcDbSymbolTableRecord
100
AcDbTextStyleTableRecord
  2
OpenSansCondensed-Light
 70
0
 40
0.0
 41
1.0
 50
0.0
 71
0
 42
2.5
  3
OpenSansCondensed-Light.ttf
  4

  0
STYLE
  5
4D
330
5
100
AcDbSymbolTableRecord
100
AcDbTextStyleTableRecord
  2
OpenSansCondensed-Italic
 70
0
 40
0.0
 41
1.0
 50
0.0
 71
0
 42
2.5
  3
OpenSansCondensed-LightItalic.ttf
  4

  0
STYLE
  5
4E
330
5
100
AcDbSymbolTableRecord
100
AcDbTextStyleTableRecord
  2
LiberationSans
 70
0
 40
0.0
 41
1.0
 50
0.0
 71
0
 42
2.5
  3
LiberationSans-Regular.ttf
  4

  0
STYLE
  5
4F
330
5
100
AcDbSymbolTableRecord
100
AcDbTextStyleTableRecord
  2
LiberationSans-Bold
 70
0
 40
0.0
 41
1.0
 50
0.0
 71
0
 42
2.5
  3
LiberationSans-Bold.ttf
  4

  0
STYLE
  5
50
330
5
100
AcDbSymbolTableRecord
100
AcDbTextStyleTableRecord
  2
LiberationSans-BoldItalic
 70
0
 40
0.0
 41
1.0
 50
0.0
 71
0
 42
2.5
  3
LiberationSans-BoldItalic.ttf
  4

  0
STYLE
  5
51
330
5
100
AcDbSymbolTableRecord
100
AcDbTextStyleTableRecord
  2
LiberationSans-Italic
 70
0
 40
0.0
 41
1.0
 50
0.0
 71
0
 42
2.5
  3
LiberationSans-Italic.ttf
  4

  0
STYLE
  5
52
330
5
100
AcDbSymbolTableRecord
100
AcDbTextStyleTableRecord
  2
LiberationSerif
 70
0
 40
0.0
 41
1.0
 50
0.0
 71
0
 42
2.5
  3
LiberationSerif-Regular.ttf
  4

  0
STYLE
  5
53
330
5
100
AcDbSymbolTableRecord
100
AcDbTextStyleTableRecord
  2
LiberationSerif-Bold
 70
0
 40
0.0
 41
1.0
 50
0.0
 71
0
 42
2.5
  3
LiberationSerif-Bold.ttf
  4

  0
STYLE
  5
54
330
5
100
AcDbSymbolTableRecord
100
AcDbTextStyleTableRecord
  2
LiberationSerif-BoldItalic
 70
0
 40
0.0
 41
1.0
 50
0.0
 71
0
 42
2.5
  3
LiberationSerif-BoldItalic.ttf
  4

  0
STYLE
  5
55
330
5
100
AcDbSymbolTableRecord
100
AcDbTextStyleTableRecord
  2
LiberationSerif-Italic
 70
0
 40
0.0
 41
1.0
 50
0.0
 71
0
 42
2.5
  3
LiberationSerif-Italic.ttf
  4

  0
STYLE
  5
56
330
5
100
AcDbSymbolTableRecord
100
AcDbTextStyleTableRecord
  2
LiberationMono
 70
0
 40
0.0
 41
1.0
 50
0.0
 71
0
 42
2.5
  3
LiberationMono-Regular.ttf
  4

  0
STYLE
  5
57
330
5
100
AcDbSymbolTableRecord
100
AcDbTextStyleTableRecord
  2
LiberationMono-Bold
 70
0
 40
0.0
 41
1.0
 50
0.0
 71
0
 42
2.5
  3
LiberationMono-Bold.ttf
  4

  0
STYLE
  5
58
330
5
100
AcDbSymbolTableRecord
100
AcDbTextStyleTableRecord
  2
LiberationMono-BoldItalic
 70
0
 40
0.0
 41
1.0
 50
0.0
 71
0
 42
2.5
  3
LiberationMono-BoldItalic.ttf
  4

  0
STYLE
  5
59
330
5
100
AcDbSymbolTableRecord
100
AcDbTextStyleTableRecord
  2
LiberationMono-Italic
 70
0
 40
0.0
 41
1.0
 50
0.0
 71
0
 42
2.5
  3
LiberationMono-Italic.ttf
  4

  0
ENDTAB
  0
TABLE
  2
VIEW
  5
7
330
0
100
AcDbSymbolTable
 70
0
  0
ENDTAB
  0
TABLE
  2
UCS
  5
6
330
0
100
AcDbSymbolTable
 70
0
  0
ENDTAB
  0
TABLE
  2
APPID
  5
3
330
0
100
AcDbSymbolTable
 70
3
  0
APPID
  5
2A
330
3
100
AcDbSymbolTableRecord
100
AcDbRegAppTableRecord
  2
ACAD
 70
0
  0
APPID
  5
90
330
3
100
AcDbSymbolTableRecord
100
AcDbRegAppTableRecord
  2
HATCHBACKGROUNDCOLOR
 70
0
  0
APPID
  5
91
330
3
100
AcDbSymbolTableRecord
100
AcDbRegAppTableRecord
  2
EZDXF
 70
0
  0
ENDTAB
  0
TABLE
  2
DIMSTYLE
  5
4
330
0
100
AcDbSymbolTable
 70
12
100
AcDbDimStyleTable
  0
DIMSTYLE
105
2B
330
4
100
AcDbSymbolTableRecord
100
AcDbDimStyleTableRecord
  2
Standard
 70
0
 40
1.0
 41
2.5
 42
0.625
 43
3.75
 44
1.25
 45
0.0
 46
0.0
 47
0.0
 48
0.0
 49
2.5
140
2.5
141
2.5
142
0.0
143
0.03937007874
144
1.0
145
0.0
146
1.0
147
0.625
148
0.0
 69
0
 70
0
 71
0
 72
0
 73
0
 74
0
 75
0
 76
0
 77
1
 78
8
 79
3
170
0
171
3
172
1
173
0
174
0
175
0
176
0
177
0
178
0
179
2
271
2
272
2
273
2
274
3
275
0
276
0
277
2
278
44
279
0
280
0
281
0
282
0
283
0
284
8
285
0
286
0
288
0
289
3
290
0
371
-2
372
-2
  0
DIMSTYLE
105
73
330
4
100
AcDbSymbolTableRecord
100
AcDbDimStyleTableRecord
  2
EZDXF
 70
0
 40
1.0
 41
0.175
 42
0.125
 43
3.75
 44
0.375
 45
0.0
 46
0.0
 47
0.0
 48
0.0
 49
2.5
140
0.25
141
2.5
142
0.0
143
0.03937007874
144
100.0
145
0.0
146
0.5
147
0.1
148
0.0
 69
0
 70
0
 71
0
 72
0
 73
0
 74
0
 75
0
 76
0
 77
1
 78
12
 79
3
170
0
171
3
172
1
173
0
174
0
175
0
176
0
177
0
178
0
179
2
271
2
272
2
273
2
274
3
275
0
276
0
277
2
278
46
279
2
280
0
281
0
282
0
283
0
284
8
285
0
286
0
288
1
289
3
290
0
340
4C
342
74
371
-2
372
-2
  0
DIMSTYLE
105
7C
330
4
100
AcDbSymbolTableRecord
100
AcDbDimStyleTableRecord
  2
EZ_M_100_H25_CM
 70
0
 40
1.0
 41
0.25
 42
0.125
 43
3.75
 44
0.375
 45
0.0
 46
0.0
 47
0.0
 48
0.0
 49
2.5
140
0.25
141
2.5
142
0.125
143
0.03937007874
144
100.0
145
0.0
146
0.5
147
0.1
148
0.0
 69
0
 70
0
 71
0
 72
0
 73
0
 74
0
 75
0
 76
0
 77
1
 78
12
 79
3
170
0
171
3
172
1
173
0
174
0
175
0
176
0
177
0
178
0
179
2
271
2
272
2
273
2
274
3
275
0
276
0
277
2
278
46
279
2
280
0
281
0
282
0
283
0
284
8
285
0
286
0
288
1
289
3
290
0
340
4C
371
-2
372
-2
  0
DIMSTYLE
105
7D
330
4
100
AcDbSymbolTableRecord
100
AcDbDimStyleTableRecord
  2
EZ_M_50_H25_CM
 70
0
 40
1.0
 41
0.125
 42
0.0625
 43
3.75
 44
0.1875
 45
0.0
 46
0.0
 47
0.0
 48
0.0
 49
2.5
140
0.125
141
2.5
142
0.0625
143
0.03937007874
144
100.0
145
0.0
146
0.5
147
0.05
148
0.0
 69
0
 70
0
 71
0
 72
0
 73
0
 74
0
 75
0
 76
0
 77
1
 78
12
 79
3
170
0
171
3
172
1
173
0
174
0
175
0
176
0
177
0
178
0
179
2
271
2
272
2
273
2
274
3
275
0
276
0
277
2
278
46
279
2
280
0
281
0
282
0
283
0
284
8
285
0
286
0
288
1
289
3
290
0
340
4C
371
-2
372
-2
  0
DIMSTYLE
105
7E
330
4
100
AcDbSymbolTableRecord
100
AcDbDimStyleTableRecord
  2
EZ_M_25_H25_CM
 70
0
 40
1.0
 41
0.0625
 42
0.03125
 43
3.75
 44
0.09375
 45
0.0
 46
0.0
 47
0.0
 48
0.0
 49
2.5
140
0.0625
141
2.5
142
0.03125
143
0.03937007874
144
100.0
145
0.0
146
0.5
147
0.025
148
0.0
 69
0
 70
0
 71
0
 72
0
 73
0
 74
0
 75
0
 76
0
 77
1
 78
12
 79
3
170
0
171
3
172
1
173
0
174
0
175
0
176
0
177
0
178
0
179
2
271
2
272
2
273
2
274
3
275
0
276
0
277
2
278
46
279
2
280
0
281
0
282
0
283
0
284
8
285
0
286
0
288
1
289
3
290
0
340
4C
371
-2
372
-2
  0
DIMSTYLE
105
7F
330
4
100
AcDbSymbolTableRecord
100
AcDbDimStyleTableRecord
  2
EZ_M_20_H25_CM
 70
0
 40
1.0
 41
0.05
 42
0.025
 43
3.75
 44
0.07500000000000001
 45
0.0
 46
0.0
 47
0.0
 48
0.0
 49
2.5
140
0.05
141
2.5
142
0.025
143
0.03937007874
144
100.0
145
0.0
146
0.5
147
0.020000000000000004
148
0.0
 69
0
 70
0
 71
0
 72
0
 73
0
 74
0
 75
0
 76
0
 77
1
 78
12
 79
3
170
0
171
3
172
1
173
0
174
0
175
0
176
0
177
0
178
0
179
2
271
2
272
2
273
2
274
3
275
0
276
0
277
2
278
46
279
2
280
0
281
0
282
0
283
0
284
8
285
0
286
0
288
1
289
3
290
0
340
4C
371
-2
372
-2
  0
DIMSTYLE
105
80
330
4
100
AcDbSymbolTableRecord
100
AcDbDimStyleTableRecord
  2
EZ_M_10_H25_CM
 70
0
 40
1.0
 41
0.025
 42
0.0125
 43
3.75
 44
0.037500000000000006
 45
0.0
 46
0.0
 47
0.0
 48
0.0
 49
2.5
140
0.025
141
2.5
142
0.0125
143
0.03937007874
144
100.0
145
0.0
146
0.5
147
0.010000000000000002
148
0.0
 69
0
 70
0
 71
0
 72
0
 73
0
 74
0
 75
0
 76
0
 77
1
 78
12
 79
3
170
0
171
3
172
1
173
0
174
0
175
0
176
0
177
0
178
0
179
2
271
2
272
2
273
2
274
3
275
0
276
0
277
2
278
46
279
2
280
0
281
0
282
0
283
0
284
8
285
0
286
0
288
1
289
3
290
0
340
4C
371
-2
372
-2
  0
DIMSTYLE
105
81
330
4
100
AcDbSymbolTableRecord
100
AcDbDimStyleTableRecord
  2
EZ_M_5_H25_CM
 70
0
 40
1.0
 41
0.0125
 42
0.00625
 43
3.75
 44
0.018750000000000003
 45
0.0
 46
0.0
 47
0.0
 48
0.0
 49
2.5
140
0.0125
141
2.5
142
0.00625
143
0.03937007874
144
100.0
145
0.0
146
0.5
147
0.005000000000000001
148
0.0
 69
0
 70
0
 71
0
 72
0
 73
0
 74
0
 75
0
 76
0
 77
1
 78
12
 79
3
170
0
171
3
172
1
173
0
174
0
175
0
176
0
177
0
178
0
179
2
271
2
272
2
273
2
274
3
275
0
276
0
277
2
278
46
279
2
280
0
281
0
282
0
283
0
284
8
285
0
286
0
288
1
289
3
290
0
340
4C
371
-2
372
-2
  0
DIMSTYLE
105
82
330
4
100
AcDbSymbolTableRecord
100
AcDbDimStyleTableRecord
  2
EZ_M_1_H25_CM
 70
0
 40
1.0
 41
0.0025
 42
0.00125
 43
3.75
 44
0.00375
 45
0.0
 46
0.0
 47
0.0
 48
0.0
 49
2.5
140
0.0025
141
2.5
142
0.00125
143
0.03937007874
144
100.0
145
0.0
146
0.5
147
0.001
148
0.0
 69
0
 70
0
 71
0
 72
0
 73
0
 74
0
 75
0
 76
0
 77
1
 78
12
 79
3
170
0
171
3
172
1
173
0
174
0
175
0
176
0
177
0
178
0
179
2
271
2
272
2
273
2
274
3
275
0
276
0
277
2
278
46
279
2
280
0
281
0
282
0
283
0
284
8
285
0
286
0
288
1
289
3
290
0
340
4C
371
-2
372
-2
  0
DIMSTYLE
105
83
330
4
100
AcDbSymbolTableRecord
100
AcDbDimStyleTableRecord
  2
EZ_RADIUS
 70
0
 40
1.0
 41
0.25
 42
0.125
 43
3.75
 44
0.375
 45
0.0
 46
0.0
 47
0.0
 48
0.0
 49
2.5
140
0.25
141
0.0
142
0.0
143
0.03937007874
144
100.0
145
0.0
146
0.5
147
0.1
148
0.0
 69
0
 70
0
 71
0
 72
0
 73
0
 74
0
 75
0
 76
0
 77
1
 78
12
 79
3
170
0
171
3
172
0
173
0
174
0
175
0
176
0
177
0
178
0
179
2
271
2
272
2
273
2
274
3
275
0
276
0
277
2
278
46
279
1
280
0
281
0
282
0
283
0
284
8
285
0
286
0
288
1
289
3
290
0
340
4C
342
84
371
-2
372
-2
  0
DIMSTYLE
105
88
330
4
100
AcDbSymbolTableRecord
100
AcDbDimStyleTableRecord
  2
EZ_RADIUS_INSIDE
 70
0
 40
1.0
 41
0.25
 42
0.125
 43
3.75
 44
0.375
 45
0.0
 46
0.0
 47
0.0
 48
0.0
 49
2.5
140
0.25
141
0.0
142
0.0
143
0.03937007874
144
100.0
145
0.0
146
0.5
147
0.1
148
0.0
 69
0
 70
0
 71
0
 72
0
 73
0
 74
0
 75
0
 76
0
 77
0
 78
12
 79
3
170
0
171
3
172
0
173
0
174
1
175
0
176
0
177
0
178
0
179
2
271
2
272
2
273
2
274
3
275
0
276
0
277
2
278
46
279
0
280
0
281
0
282
0
283
0
284
8
285
0
286
0
288
1
289
0
290
0
340
4C
342
84
371
-2
372
-2
  0
DIMSTYLE
105
89
330
4
100
AcDbSymbolTableRecord
100
AcDbDimStyleTableRecord
  2
EZ_CURVED
 70
0
 40
1.0
 41
0.25
 42
0.125
 43
3.75
 44
0.375
 45
0.0
 46
0.0
 47
0.0
 48
0.0
 49
2.5
140
0.25
141
2.5
142
0.0
143
0.03937007874
144
100.0
145
0.0
146
0.5
147
0.1
148
0.0
 69
0
 70
0
 71
0
 72
0
 73
0
 74
0
 75
0
 76
0
 77
1
 78
12
 79
2
 90
2
170
0
171
3
172
1
173
0
174
0
175
0
176
0
177
0
178
0
179
2
271
2
272
2
273
2
274
3
275
0
276
0
277
2
278
46
279
2
280
0
281
0
282
0
283
0
284
8
285
0
286
0
288
1
289
3
290
0
340
4C
371
-2
372
-2
  0
ENDTAB
  0
TABLE
  2
BLOCK_RECORD
  5
9
330
0
100
AcDbSymbolTable
 70
5
  0
BLOCK_RECORD
  5
17
330
9
100
AcDbSymbolTableRecord
100
AcDbBlockTableRecord
  2
*Model_Space
340
1A
 70
0
280
1
281
0
  0
BLOCK_RECORD
  5
1B
330
9
100
AcDbSymbolTableRecord
100
AcDbBlockTableRecord
  2
*Paper_Space
340
1E
 70
0
280
1
281
0
  0
BLOCK_RECORD
  5
74
330
9
100
AcDbSymbolTableRecord
100
AcDbBlockTableRecord
  2
_ARCHTICK
340
0
 70
0
280
1
281
0
  0
BLOCK_RECORD
  5
78
330
9
100
AcDbSymbolTableRecord
100
AcDbBlockTableRecord
  2
_CLOSEDFILLED
340
0
 70
0
280
1
281
0
  0
BLOCK_RECORD
  5
84
330
9
100
AcDbSymbolTableRecord
100
AcDbBlockTableRecord
  2
_CLOSEDBLANK
340
0
 70
0
280
1
281
0
  0
ENDTAB
  0
ENDSEC
  0
SECTION
  2
BLOCKS
  0
BLOCK
  5
18
330
17
100
AcDbEntity
  8
0
100
AcDbBlockBegin
  2
*Model_Space
 70
0
 10
0.0
 20
0.0
 30
0.0
  3
*Model_Space
  1

  0
ENDBLK
  5
19
330
17
100
AcDbEntity
  8
0
100
AcDbBlockEnd
  0
BLOCK
  5
1C
330
1B
100
AcDbEntity
  8
0
100
AcDbBlockBegin
  2
*Paper_Space
 70
0
 10
0.0
 20
0.0
 30
0.0
  3
*Paper_Space
  1

  0
ENDBLK
  5
1D
330
1B
100
AcDbEntity
  8
0
100
AcDbBlockEnd
  0
BLOCK
  5
75
330
74
100
AcDbEntity
  8
0
100
AcDbBlockBegin
  2
_ARCHTICK
 70
0
 10
0.0
 20
0.0
 30
0.0
  3
_ARCHTICK
  1

  0
LWPOLYLINE
  5
77
330
74
100
AcDbEntity
  8
0
  6
BYBLOCK
 62
0
100
AcDbPolyline
 90
2
 70
0
 43
0.15
 10
-0.5
 20
-0.5
 10
0.5
 20
0.5
  0
ENDBLK
  5
76
330
74
100
AcDbEntity
  8
0
100
AcDbBlockEnd
  0
BLOCK
  5
79
330
78
100
AcDbEntity
  8
0
100
AcDbBlockBegin
  2
_CLOSEDFILLED
 70
0
 10
0.0
 20
0.0
 30
0.0
  3
_CLOSEDFILLED
  1

  0
SOLID
  5
7B
330
78
100
AcDbEntity
  8
0
  6
BYBLOCK
 62
0
100
AcDbTrace
 10
-1.0
 20
0.16439898372402537
 30
0.0
 11
0.0
 21
0.0
 31
0.0
 12
-1.0
 22
-0.16439898372402537
 32
0.0
 13
-1.0
 23
-0.16439898372402537
 33
0.0
  0
ENDBLK
  5
7A
330
78
100
AcDbEntity
  8
0
100
AcDbBlockEnd
  0
BLOCK
  5
85
330
84
100
AcDbEntity
  8
0
100
AcDbBlockBegin
  2
_CLOSEDBLANK
 70
0
 10
0.0
 20
0.0
 30
0.0
  3
_CLOSEDBLANK
  1

  0
LWPOLYLINE
  5
87
330
84
100
AcDbEntity
  8
0
  6
BYBLOCK
 62
0
100
AcDbPolyline
 90
3
 70
1
 10
-1.0
 20
0.16439898372402537
 10
0.0
 20
0.0
 10
-1.0
 20
-0.16439898372402537
  0
ENDBLK
  5
86
330
84
100
AcDbEntity
  8
0
100
AcDbBlockEnd
  0
ENDSEC
  0
SECTION
  2
ENTITIES
  0
LWPOLYLINE
  5
8C
330
17
100
AcDbEntity
  8
CUT
100
AcDbPolyline
 90
811
 70
1
 10
919.9907612046749
 20
511.1239880262226
 10
919.9904305966427
 20
511.1249120137737
 10
919.990192147196
 20
511.1258639573261
 10
919.9900481527333
 20
511.126834689143
 10
919.99
 20
511.12781486054627
 10
919.9900481527333
 20
511.12879503194955
 10
919.990192147196
 20
511.12976576376644
 10
955.9757183176167
 20
679.3200119286498
 10
956.0337335804011
 20
679.5899643962241
 10
956.0934041482662
 20
679.8595558070591
 10
956.1547277746491
 20
680.1287760111907
 10
956.2177021507498
 20
680.3976148726302
 10
956.2823249056187
 20
680.6660622697465
 10
956.3485936062456
 20
680.9341080956468
 10
956.4165057576512
 20
681.2017422585574
 10
956.4860588029817
 20
681.4689546822032
 10
956.557250123604
 20
681.7357353061874
 10
956.6300770392052
 20
682.0020740863704
 10
956.7045368078931
 20
682.2679609952477
 10
956.7806266262995
 20
682.5333860223274
 10
956.8583436296858
 20
682.7983391745072
 10
956.9376848920506
 20
683.0628104764507
 10
957.0186474262404
 20
683.3267899709631
 10
957.1012281840613
 20
683.5902677193652
 10
957.1854240563946
 20
683.853233801869
 10
957.2712318733134
 20
684.1156783179501
 10
957.3586484042016
 20
684.3775913867207
 10
957.4476703578765
 20
684.6389631473019
 10
957.5382943827118
 20
684.8997837591944
 10
957.630517066764
 20
685.1600434026499
 10
957.7243349379014
 20
685.4197322790397
 10
957.8197444639342
 20
685.6788406112246
 10
957.9167420527474
 20
685.937358643922
 10
958.0153240524368
 20
686.1952766440745
 10
958.1154867514457
 20
686.4525849012148
 10
958.2172263787053
 20
686.7092737278327
 10
958.320539103776
 20
686.9653334597388
 10
958.4254210369921
 20
687.2207544564291
 10
958.5318682296081
 20
687.4755271014471
 10
958.6398766739474
 20
687.7296418027472
 10
958.7494423035531
 20
687.9830889930541
 10
958.8605609933411
 20
688.2358591302245
 10
958.9732285597556
 20
688.4879426976057
 10
959.0874407609265
 20
688.7393302043937
 10
959.2031932968288
 20
688.990012185991
 10
959.320481809445
 20
689.2399792043627
 10
959.439301882929
 20
689.4892218483918
 10
959.5596490437721
 20
689.7377307342338
 10
959.6815187609717
 20
689.9854965056693
 10
959.8049064462018
 20
690.2325098344573
 10
959.9298074539859
 20
690.4787614206855
 10
960.0562170818715
 20
690.7242419931208
 10
960.1841305706077
 20
690.9689423095584
 10
960.313543104324
 20
691.2128531571699
 10
960.4444498107115
 20
691.4559653528495
 10
960.5768457612068
 20
691.6982697435606
 10
960.710725971177
 20
691.9397572066796
 10
960.846085400108
 20
692.1804186503402
 10
960.9829189517939
 20
692.4202450137751
 10
961.1212214745286
 20
692.6592272676573
 10
961.2609877613005
 20
692.8973564144399
 10
961.4022125499878
 20
693.134623488695
 10
961.544890523557
 20
693.3710195574515
 10
961.689016310263
 20
693.606535720531
 10
961.8345844838516
 20
693.8411631108833
 10
961.9815895637631
 20
694.0748928949193
 10
962.1300260153396
 20
694.3077162728451
 10
962.2798882500323
 20
694.5396244789921
 10
962.4311706256129
 20
694.7706087821472
 10
962.5838674463855
 20
695.0006604858821
 10
962.737972963401
 20
695.2297709288802
 10
962.8934813746739
 20
695.4579314852626
 10
963.0503868254003
 20
695.6851335649135
 10
963.2086834081788
 20
695.911368613803
 10
963.3683651632323
 20
696.1366281143094
 10
963.5294260786333
 20
696.3609035855397
 10
963.6918600905291
 20
696.5841865836493
 10
963.8556610833709
 20
696.8064687021595
 10
964.0208228901442
 20
697.0277415722741
 10
964.1873392926002
 20
697.2479968631947
 10
964.3552040214904
 20
697.4672262824339
 10
964.5244107568027
 20
697.6854215761282
 10
964.6949531279992
 20
697.902574529348
 10
964.8668247142557
 20
698.1186769664074
 10
965.0400190447045
 20
698.3337207511718
 10
965.2145295986768
 20
698.5476977873641
 10
965.390349805949
 20
698.7606000188699
 10
965.5674730469893
 20
698.9724194300406
 10
965.7458926532082
 20
699.183148045995
 10
965.9256019072081
 20
699.3927779329199
 10
966.1065940430374
 20
699.6013011983686
 10
966.2888622464443
 20
699.8087099915577
 10
966.472399655134
 20
700.0149965036637
 10
966.6571993590269
 20
700.2201529681158
 10
966.8432544005184
 20
700.4241716608892
 10
967.0305577747414
 20
700.6270449007953
 10
967.2191024298298
 20
700.8287650497715
 10
967.408881267184
 20
701.029324513168
 10
967.5998871417378
 20
701.2287157400344
 10
967.7921128622281
 20
701.4269312234038
 10
967.9855511914652
 20
701.6239635005751
 10
968.1801948466053
 20
701.8198051533947
 10
968.3760364994249
 20
702.0144488085348
 10
968.5730687765962
 20
702.2078871377719
 10
968.7712842599656
 20
702.4001128582622
 10
968.970675486832
 20
702.591118732816
 10
969.1712349502285
 20
702.7808975701702
 10
969.3729550992045
 20
702.9694422252586
 10
969.5758283391108
 20
703.1567455994816
 10
969.7798470318842
 20
703.3428006409731
 10
969.9850034963363
 20
703.527600344866
 10
970.1912900084423
 20
703.7111377535557
 10
970.3986988016314
 20
703.8934059569625
 10
970.60722206708
 20
704.0743980927917
 10
970.816851954005
 20
704.2541073467918
 10
971.0275805699594
 20
704.4325269530107
 10
971.2393999811301
 20
704.609650194051
 10
971.4523022126359
 20
704.7854704013232
 10
971.6662792488282
 20
704.9599809552955
 10
971.8813230335926
 20
705.1331752857443
 10
972.097425470652
 20
705.3050468720008
 10
972.3145784238718
 20
705.4755892431973
 10
972.5327737175661
 20
705.6447959785096
 10
972.7520031368053
 20
705.8126607073998
 10
972.9722584277259
 20
705.9791771098558
 10
973.1935312978405
 20
706.1443389166291
 10
973.4158134163506
 20
706.3081399094709
 10
973.6390964144603
 20
706.4705739213667
 10
973.8633718856905
 20
706.6316348367677
 10
974.088631386197
 20
706.7913165918212
 10
974.3148664350865
 20
706.9496131745997
 10
974.5420685147374
 20
707.1065186253261
 10
974.7702290711198
 20
707.262027036599
 10
974.9993395141179
 20
707.4161325536145
 10
975.2293912178528
 20
707.5688293743871
 10
975.4603755210079
 20
707.7201117499677
 10
975.6922837271549
 20
707.8699739846604
 10
975.9251071050807
 20
708.0184104362368
 10
976.1588368891167
 20
708.1654155161484
 10
976.3934642794688
 20
708.3109836897369
 10
976.6289804425485
 20
708.455109476443
 10
976.865376511305
 20
708.5977874500122
 10
977.1026435855601
 20
708.7390122386995
 10
977.3407727323427
 20
708.8787785254714
 10
977.5797549862248
 20
709.0170810482061
 10
977.8195813496598
 20
709.153914599892
 10
978.0602427933204
 20
709.289274028823
 10
978.3017302564394
 20
709.4231542387934
 10
978.5440346471505
 20
709.5555501892885
 10
978.7871468428301
 20
709.686456895676
 10
979.0310576904415
 20
709.8158694293923
 10
979.2757580068792
 20
709.9437829181285
 10
979.5212385793145
 20
710.0701925460141
 10
979.7674901655427
 20
710.1950935537982
 10
980.0145034943307
 20
710.3184812390283
 10
980.2622692657662
 20
710.4403509562279
 10
980.5107781516082
 20
710.560698117071
 10
980.7600207956373
 20
710.679518190555
 10
981.009987814009
 20
710.7968067031712
 10
981.2606697956063
 20
710.9125592390735
 10
981.5120573023943
 20
711.0267714402444
 10
981.7641408697755
 20
711.1394390066589
 10
982.0169110069459
 20
711.2505576964469
 10
982.2703581972528
 20
711.3601233260526
 10
982.5244728985529
 20
711.4681317703919
 10
982.7792455435709
 20
711.5745789630079
 10
983.0346665402611
 20
711.679460896224
 10
983.2907262721673
 20
711.7827736212947
 10
983.5474150987851
 20
711.8845132485543
 10
983.8047233559255
 20
711.9846759475632
 10
984.062641356078
 20
712.0832579472526
 10
984.3211593887754
 20
712.1802555360658
 10
984.5802677209603
 20
712.2756650620986
 10
984.8399565973501
 20
712.369482933236
 10
985.1002162408056
 20
712.4617056172882
 10
985.3610368526981
 20
712.5523296421235
 10
985.6224086132793
 20
712.6413515957984
 10
985.8843216820499
 20
712.7287681266866
 10
986.1467661981309
 20
712.8145759436054
 10
986.4097322806347
 20
712.8987718159387
 10
986.6732100290369
 20
712.9813525737596
 10
986.9371895235491
 20
713.0623151079494
 10
987.2016608254928
 20
713.1416563703142
 10
987.4666139776726
 20
713.2193733737005
 10
987.7320390047523
 20
713.2954631921069
 10
987.9979259136296
 20
713.3699229607948
 10
988.2642646938126
 20
713.442749876396
 10
988.5310453177968
 20
713.5139411970183
 10
988.7982577414426
 20
713.5834942423488
 10
989.0658919043531
 20
713.6514063937544
 10
989.3339377302534
 20
713.7176750943813
 10
989.6023851273698
 20
713.7822978492502
 10
989.8712239888093
 20
713.8452722253509
 10
990.1404441929409
 20
713.9065958517338
 10
990.4100356037759
 20
713.9662664195989
 10
990.6799880713502
 20
714.0242816823833
 10
990.9502914321058
 20
714.0806394558448
 10
991.2209355092742
 20
714.1353376181454
 10
991.4919101132588
 20
714.18837410993
 10
991.7632050420186
 20
714.2397469344047
 10
992.0348100814533
 20
714.2894541574118
 10
992.3067150057864
 20
714.3374939075023
 10
992.5789095779513
 20
714.383864376007
 10
992.8513835499763
 20
714.4285638171036
 10
993.12412666337
 20
714.4715905478837
 10
993.3971286495087
 20
714.5129429484151
 10
993.6703792300218
 20
714.5526194618034
 10
993.9438681171794
 20
714.5906185942501
 10
994.2175850142793
 20
714.6269389151095
 10
994.4915196160352
 20
714.661579056942
 10
994.7656616089643
 20
714.6945377155657
 10
995.0400006717753
 20
714.725813650106
 10
995.3145264757575
 20
714.7554056830415
 10
995.5892286851698
 20
714.7833127002489
 10
995.864096957629
 20
714.8095336510447
 10
996.1391209445002
 20
714.834067548225
 10
996.4142902912856
 20
714.8569134681024
 10
996.689594638015
 20
714.8780705505411
 10
996.9650236196351
 20
714.8975379989886
 10
997.2405668664006
 20
714.9153150805067
 10
997.5162140042639
 20
714.9314011257983
 10
997.7919546552662
 20
714.9457955292328
 10
998.0677784379277
 20
714.958497748869
 10
998.3436749676388
 20
714.9695073064757
 10
998.6196338570513
 20
714.9788237875492
 10
998.895644716469
 20
714.9864468413292
 10
999.1716971542388
 20
714.992376180812
 10
999.4477807771426
 20
714.9966115827615
 10
999.723885190788
 20
714.9991528877171
 10
1000.0
 20
715.0
 10
1000.2761148092119
 20
714.9991528877171
 10
1000.5522192228574
 20
714.9966115827615
 10
1000.8283028457612
 20
714.992376180812
 10
1001.104355283531
 20
714.9864468413292
 10
1001.3803661429487
 20
714.9788237875492
 10
1001.6563250323611
 20
714.9695073064757
 10
1001.9322215620723
 20
714.958497748869
 10
1002.2080453447338
 20
714.9457955292328
 10
1002.4837859957361
 20
714.9314011257983
 10
1002.7594331335994
 20
714.9153150805067
 10
1003.0349763803649
 20
714.8975379989886
 10
1003.310405361985
 20
714.8780705505411
 10
1003.5857097087144
 20
714.8569134681024
 10
1003.8608790554998
 20
714.834067548225
 10
1004.135903042371
 20
714.8095336510447
 10
1004.4107713148302
 20
714.7833127002489
 10
1004.6854735242424
 20
714.7554056830415
 10
1004.9599993282247
 20
714.725813650106
 10
1005.2343383910357
 20
714.6945377155657
 10
1005.5084803839648
 20
714.661579056942
 10
1005.7824149857207
 20
714.6269389151095
 10
1006.0561318828206
 20
714.5906185942501
 10
1006.3296207699782
 20
714.5526194618034
 10
1006.6028713504913
 20
714.5129429484151
 10
1006.87587333663
 20
714.4715905478837
 10
1007.1486164500237
 20
714.4285638171036
 10
1007.4210904220487
 20
714.383864376007
 10
1007.6932849942135
 20
714.3374939075023
 10
1007.9651899185467
 20
714.2894541574118
 10
1008.2367949579814
 20
714.2397469344047
 10
1008.5080898867412
 20
714.18837410993
 10
1008.7790644907258
 20
714.1353376181454
 10
1009.0497085678941
 20
714.0806394558448
 10
1009.3200119286498
 20
714.0242816823833
 10
1009.5899643962241
 20
713.9662664195989
 10
1009.8595558070591
 20
713.9065958517338
 10
1010.1287760111907
 20
713.8452722253509
 10
1010.3976148726301
 20
713.7822978492502
 10
1010.6660622697465
 20
713.7176750943813
 10
1010.9341080956468
 20
713.6514063937544
 10
1011.2017422585574
 20
713.5834942423488
 10
1011.4689546822032
 20
713.5139411970183
 10
1011.7357353061874
 20
713.442749876396
 10
1012.0020740863704
 20
713.3699229607948
 10
1012.2679609952477
 20
713.2954631921069
 10
1012.5333860223274
 20
713.2193733737005
 10
1012.7983391745072
 20
713.1416563703142
 10
1013.0628104764507
 20
713.0623151079494
 10
1013.3267899709631
 20
712.9813525737598
 10
1013.5902677193652
 20
712.8987718159387
 10
1013.853233801869
 20
712.8145759436054
 10
1014.1156783179501
 20
712.7287681266866
 10
1014.3775913867207
 20
712.6413515957984
 10
1014.6389631473019
 20
712.5523296421235
 10
1014.8997837591944
 20
712.4617056172882
 10
1015.1600434026499
 20
712.369482933236
 10
1015.4197322790397
 20
712.2756650620986
 10
1015.6788406112246
 20
712.1802555360658
 10
1015.937358643922
 20
712.0832579472526
 10
1016.1952766440744
 20
711.9846759475632
 10
1016.4525849012148
 20
711.8845132485543
 10
1016.7092737278326
 20
711.7827736212947
 10
1016.9653334597388
 20
711.679460896224
 10
1017.2207544564291
 20
711.5745789630079
 10
1017.4755271014471
 20
711.4681317703919
 10
1017.7296418027472
 20
711.3601233260526
 10
1017.9830889930541
 20
711.2505576964469
 10
1018.2358591302245
 20
711.1394390066589
 10
1018.4879426976057
 20
711.0267714402444
 10
1018.7393302043937
 20
710.9125592390735
 10
1018.990012185991
 20
710.7968067031712
 10
1019.2399792043627
 20
710.679518190555
 10
1019.4892218483918
 20
710.560698117071
 10
1019.7377307342338
 20
710.4403509562279
 10
1019.9854965056693
 20
710.3184812390283
 10
1020.2325098344573
 20
710.1950935537982
 10
1020.4787614206855
 20
710.0701925460141
 10
1020.7242419931208
 20
709.9437829181285
 10
1020.9689423095584
 20
709.8158694293923
 10
1021.2128531571699
 20
709.686456895676
 10
1021.4559653528495
 20
709.5555501892885
 10
1021.6982697435604
 20
709.4231542387934
 10
1021.9397572066796
 20
709.289274028823
 10
1022.1804186503402
 20
709.153914599892
 10
1022.4202450137751
 20
709.0170810482061
 10
1022.6592272676573
 20
708.8787785254714
 10
1022.8973564144399
 20
708.7390122386995
 10
1023.134623488695
 20
708.5977874500122
 10
1023.3710195574515
 20
708.455109476443
 10
1023.6065357205312
 20
708.310983689737
 10
1023.8411631108833
 20
708.1654155161484
 10
1024.0748928949195
 20
708.0184104362369
 10
1024.3077162728453
 20
707.8699739846604
 10
1024.539624478992
 20
707.7201117499677
 10
1024.7706087821473
 20
707.5688293743871
 10
1025.000660485882
 20
707.4161325536145
 10
1025.22977092888
 20
707.262027036599
 10
1025.4579314852626
 20
707.1065186253261
 10
1025.6851335649135
 20
706.9496131745997
 10
1025.911368613803
 20
706.7913165918213
 10
1026.1366281143094
 20
706.6316348367677
 10
1026.3609035855397
 20
706.4705739213667
 10
1026.5841865836494
 20
706.3081399094709
 10
1026.8064687021595
 20
706.1443389166291
 10
1027.0277415722742
 20
705.9791771098558
 10
1027.2479968631947
 20
705.8126607073998
 10
1027.467226282434
 20
705.6447959785096
 10
1027.6854215761282
 20
705.4755892431973
 10
1027.902574529348
 20
705.3050468720008
 10
1028.1186769664073
 20
705.1331752857443
 10
1028.3337207511718
 20
704.9599809552955
 10
1028.547697787364
 20
704.7854704013232
 10
1028.7606000188698
 20
704.609650194051
 10
1028.9724194300406
 20
704.4325269530107
 10
1029.183148045995
 20
704.2541073467918
 10
1029.39277793292
 20
704.0743980927919
 10
1029.6013011983684
 20
703.8934059569626
 10
1029.8087099915576
 20
703.7111377535557
 10
1030.0149965036637
 20
703.527600344866
 10
1030.2201529681158
 20
703.3428006409731
 10
1030.4241716608892
 20
703.1567455994816
 10
1030.6270449007955
 20
702.9694422252586
 10
1030.8287650497716
 20
702.7808975701702
 10
1031.029324513168
 20
702.591118732816
 10
1031.2287157400344
 20
702.4001128582622
 10
1031.4269312234037
 20
702.2078871377719
 10
1031.6239635005752
 20
702.0144488085348
 10
1031.8198051533946
 20
701.8198051533947
 10
1032.0144488085348
 20
701.6239635005752
 10
1032.2078871377719
 20
701.4269312234038
 10
1032.4001128582622
 20
701.2287157400344
 10
1032.591118732816
 20
701.029324513168
 10
1032.78089757017
 20
700.8287650497715
 10
1032.9694422252585
 20
700.6270449007953
 10
1033.1567455994816
 20
700.4241716608892
 10
1033.342800640973
 20
700.2201529681158
 10
1033.527600344866
 20
700.0149965036637
 10
1033.7111377535557
 20
699.8087099915577
 10
1033.8934059569626
 20
699.6013011983686
 10
1034.0743980927919
 20
699.39277793292
 10
1034.254107346792
 20
699.183148045995
 10
1034.4325269530107
 20
698.9724194300406
 10
1034.609650194051
 20
698.7606000188699
 10
1034.7854704013232
 20
698.5476977873641
 10
1034.9599809552956
 20
698.3337207511718
 10
1035.1331752857443
 20
698.1186769664074
 10
1035.305046872001
 20
697.902574529348
 10
1035.4755892431972
 20
697.6854215761282
 10
1035.6447959785096
 20
697.4672262824339
 10
1035.8126607073998
 20
697.2479968631947
 10
1035.9791771098558
 20
697.0277415722741
 10
1036.144338916629
 20
696.8064687021595
 10
1036.308139909471
 20
696.5841865836494
 10
1036.4705739213668
 20
696.3609035855397
 10
1036.6316348367677
 20
696.1366281143095
 10
1036.7913165918212
 20
695.911368613803
 10
1036.9496131745998
 20
695.6851335649135
 10
1037.106518625326
 20
695.4579314852626
 10
1037.262027036599
 20
695.2297709288802
 10
1037.4161325536145
 20
695.0006604858821
 10
1037.5688293743872
 20
694.7706087821472
 10
1037.7201117499676
 20
694.5396244789921
 10
1037.8699739846604
 20
694.3077162728451
 10
1038.0184104362368
 20
694.0748928949193
 10
1038.1654155161484
 20
693.8411631108833
 10
1038.310983689737
 20
693.6065357205312
 10
1038.455109476443
 20
693.3710195574515
 10
1038.5977874500122
 20
693.134623488695
 10
1038.7390122386996
 20
692.8973564144399
 10
1038.8787785254715
 20
692.6592272676573
 10
1039.0170810482061
 20
692.4202450137752
 10
1039.153914599892
 20
692.1804186503402
 10
1039.289274028823
 20
691.9397572066796
 10
1039.4231542387934
 20
691.6982697435606
 10
1039.5555501892884
 20
691.4559653528495
 10
1039.686456895676
 20
691.2128531571699
 10
1039.8158694293923
 20
690.9689423095585
 10
1039.9437829181284
 20
690.7242419931208
 10
1040.0701925460141
 20
690.4787614206855
 10
1040.1950935537982
 20
690.2325098344573
 10
1040.3184812390284
 20
689.9854965056693
 10
1040.440350956228
 20
689.7377307342338
 10
1040.560698117071
 20
689.4892218483918
 10
1040.679518190555
 20
689.2399792043627
 10
1040.7968067031711
 20
688.990012185991
 10
1040.9125592390735
 20
688.7393302043937
 10
1041.0267714402444
 20
688.4879426976057
 10
1041.139439006659
 20
688.2358591302245
 10
1041.250557696447
 20
687.9830889930541
 10
1041.3601233260526
 20
687.7296418027472
 10
1041.468131770392
 20
687.4755271014473
 10
1041.574578963008
 20
687.2207544564291
 10
1041.679460896224
 20
686.9653334597389
 10
1041.7827736212946
 20
686.7092737278327
 10
1041.8845132485542
 20
686.4525849012149
 10
1041.9846759475633
 20
686.1952766440745
 10
1042.0832579472526
 20
685.937358643922
 10
1042.180255536066
 20
685.6788406112246
 10
1042.2756650620986
 20
685.4197322790397
 10
1042.369482933236
 20
685.1600434026499
 10
1042.4617056172883
 20
684.8997837591944
 10
1042.5523296421234
 20
684.6389631473019
 10
1042.6413515957984
 20
684.3775913867207
 10
1042.7287681266866
 20
684.1156783179501
 10
1042.8145759436054
 20
683.8532338018691
 10
1042.8987718159387
 20
683.5902677193653
 10
1042.9813525737598
 20
683.3267899709631
 10
1043.0623151079494
 20
683.0628104764509
 10
1043.1416563703142
 20
682.7983391745073
 10
1043.2193733737004
 20
682.5333860223274
 10
1043.2954631921068
 20
682.2679609952477
 10
1043.3699229607948
 20
682.0020740863704
 10
1043.442749876396
 20
681.7357353061874
 10
1043.5139411970183
 20
681.4689546822032
 10
1043.5834942423487
 20
681.2017422585574
 10
1043.6514063937545
 20
680.9341080956469
 10
1043.7176750943813
 20
680.6660622697466
 10
1043.7822978492502
 20
680.3976148726302
 10
1043.845272225351
 20
680.1287760111907
 10
1043.9065958517338
 20
679.8595558070591
 10
1043.966266419599
 20
679.5899643962241
 10
1044.0242816823832
 20
679.3200119286498
 10
1044.080639455845
 20
679.0497085678942
 10
1044.1353376181453
 20
678.7790644907258
 10
1044.18837410993
 20
678.5080898867412
 10
1044.2397469344048
 20
678.2367949579814
 10
1044.289454157412
 20
677.9651899185467
 10
1044.3374939075024
 20
677.6932849942136
 10
1080.009807852804
 20
470.54640870577026
 10
1080.0099518472666
 20
470.54543797395337
 10
1080.01
 20
470.5444578025501
 10
1080.0099518472666
 20
470.5434776311468
 10
1080.009807852804
 20
470.5425068993299
 10
1080.0095694033573
 20
470.54155495577754
 10
1080.009238795325
 20
470.5406309682264
 10
1080.0088192126434
 20
470.5397438351818
 10
1080.0086851494432
 20
470.5395201642451
 10
985.0433804245947
 20
524.5287266038429
 10
984.9565644712344
 20
524.5779236973818
 10
984.8696124845635
 20
524.6268799613787
 10
984.7825251326473
 20
524.6755950196949
 10
984.6953030845909
 20
524.7240684980454
 10
984.6079470105346
 20
524.7723000240012
 10
984.5204575816484
 20
524.8202892269921
 10
984.4328354701267
 20
524.8680357383099
 10
984.3450813491834
 20
524.9155391911108
 10
984.2571958930467
 20
524.9627992204188
 10
984.1691797769538
 20
525.0098154631277
 10
984.0810336771459
 20
525.0565875580048
 10
983.9927582708627
 20
525.103115145693
 10
983.9043542363376
 20
525.1493978687137
 10
983.8158222527919
 20
525.1954353714698
 10
983.7271630004304
 20
525.2412273002483
 10
983.6383771604357
 20
525.2867733032228
 10
983.5494654149625
 20
525.3320730304566
 10
983.4604284471333
 20
525.377126133905
 10
983.3712669410326
 20
525.421932267418
 10
983.2819815817016
 20
525.4664910867436
 10
983.1925730551334
 20
525.5108022495295
 10
983.1030420482671
 20
525.5548654153264
 10
983.0133892489829
 20
525.5986802455902
 10
982.9236153460969
 20
525.6422464036852
 10
982.8337210293555
 20
525.6855635548859
 10
982.7437069894303
 20
525.72863136638
 10
982.6535739179128
 20
525.7714495072711
 10
982.5633225073091
 20
525.814017648581
 10
982.4729534510342
 20
525.856335463252
 10
982.3824674434074
 20
525.8984026261502
 10
982.2918651796463
 20
525.9402188140671
 10
982.2011473558617
 20
525.9817837057227
 10
982.1103146690525
 20
526.0230969817676
 10
982.0193678170999
 20
526.0641583247856
 10
981.9283074987623
 20
526.1049674192963
 10
981.8371344136697
 20
526.1455239517572
 10
981.7458492623189
 20
526.1858276105664
 10
981.6544527460675
 20
526.2258780860648
 10
981.5629455671286
 20
526.2656750705385
 10
981.4713284285658
 20
526.3052182582212
 10
981.3796020342875
 20
526.3445073452966
 10
981.2877670890412
 20
526.3835420299009
 10
981.1958242984089
 20
526.4223220121247
 10
981.1037743688007
 20
526.4608469940154
 10
981.0116180074502
 20
526.4991166795797
 10
980.9193559224088
 20
526.537130774786
 10
980.82698882254
 20
526.5748889875662
 10
980.734517417514
 20
526.6123910278181
 10
980.6419424178026
 20
526.6496366074082
 10
980.5492645346737
 20
526.6866254401727
 10
980.4564844801854
 20
526.7233572419211
 10
980.3636029671808
 20
526.7598317304372
 10
980.2706207092826
 20
526.7960486254822
 10
980.1775384208876
 20
526.8320076487961
 10
980.084356817161
 20
526.8677085241003
 10
979.9910766140313
 20
526.9031509770997
 10
979.8976985281842
 20
526.9383347354843
 10
979.8042232770576
 20
526.9732595289323
 10
979.7106515788362
 20
527.007925089111
 10
979.6169841524454
 20
527.0423311496799
 10
979.5232217175462
 20
527.0764774462917
 10
979.4293649945295
 20
527.1103637165955
 10
979.3354147045106
 20
527.1439897002379
 10
979.241371569324
 20
527.1773551388654
 10
979.1472363115171
 20
527.2104597761263
 10
979.0530096543454
 20
527.2433033576726
 10
978.9586923217665
 20
527.2758856311623
 10
978.8642850384348
 20
527.3082063462606
 10
978.7697885296957
 20
527.3402652546426
 10
978.67520352158
 20
527.3720621099952
 10
978.5805307407987
 20
527.4035966680179
 10
978.4857709147373
 20
527.4348686864263
 10
978.3909247714495
 20
527.4658779249526
 10
978.2959930396527
 20
527.496624145348
 10
978.2009764487218
 20
527.5271071113849
 10
978.1058757286835
 20
527.5573265888579
 10
978.010691610211
 20
527.5872823455862
 10
977.9154248246184
 20
527.6169741514153
 10
977.8200761038547
 20
527.6464017782184
 10
977.7246461804986
 20
527.6755649998988
 10
977.6291357877525
 20
527.704463592391
 10
977.5335456594372
 20
527.7330973336626
 10
977.4378765299862
 20
527.7614660037165
 10
977.3421291344397
 20
527.7895693845916
 10
977.2463042084396
 20
527.8174072603656
 10
977.1504024882231
 20
527.844979417156
 10
977.0544247106177
 20
527.8722856431215
 10
976.9583716130352
 20
527.8993257284643
 10
976.8622439334661
 20
527.9260994654314
 10
976.7660424104737
 20
527.9526066483162
 10
976.6697677831888
 20
527.9788470734599
 10
976.5734207913042
 20
528.0048205392533
 10
976.4770021750683
 20
528.0305268461385
 10
976.3805126752796
 20
528.0559657966099
 10
976.2839530332818
 20
528.0811371952163
 10
976.1873239909572
 20
528.1060408485621
 10
976.0906262907213
 20
528.1306765653087
 10
975.993860675517
 20
528.1550441561761
 10
975.8970278888092
 20
528.1791434339445
 10
975.800128674579
 20
528.2029742134555
 10
975.7031637773175
 20
528.2265363116136
 10
975.6061339420207
 20
528.2498295473875
 10
975.5090399141836
 20
528.2728537418121
 10
975.4118824397941
 20
528.2956087179888
 10
975.3146622653279
 20
528.3180943010876
 10
975.2173801377421
 20
528.3403103183487
 10
975.1200368044703
 20
528.3622565990827
 10
975.0226330134157
 20
528.3839329746731
 10
974.9251695129465
 20
528.4053392785773
 10
974.8276470518895
 20
528.4264753463272
 10
974.7300663795245
 20
528.4473410155313
 10
974.6324282455785
 20
528.4679361258752
 10
974.53473340022
 20
528.4882605191241
 10
974.4369825940533
 20
528.5083140391222
 10
974.3391765781128
 20
528.5280965317953
 10
974.2413161038565
 20
528.5476078451518
 10
974.1434019231616
 20
528.566847829283
 10
974.0454347883173
 20
528.5858163363655
 10
973.9474154520199
 20
528.6045132206611
 10
973.8493446673668
 20
528.6229383385191
 10
973.7512231878508
 20
528.6410915483764
 10
973.6530517673539
 20
528.658972710759
 10
973.5548311601419
 20
528.6765816882835
 10
973.4565621208586
 20
528.6939183456573
 10
973.3582454045201
 20
528.7109825496802
 10
973.2598817665082
 20
528.7277741692455
 10
973.1614719625659
 20
528.7442930753406
 10
973.0630167487905
 20
528.7605391410482
 10
972.9645168816282
 20
528.7765122415473
 10
972.8659731178684
 20
528.7922122541142
 10
972.7673862146378
 20
528.8076390581234
 10
972.6687569293944
 20
528.8227925350483
 10
972.5700860199219
 20
528.8376725684625
 10
972.4713742443238
 20
528.8522790440405
 10
972.3726223610175
 20
528.8666118495586
 10
972.2738311287288
 20
528.8806708748955
 10
972.1750013064857
 20
528.8944560120337
 10
972.0761336536124
 20
528.90796715506
 10
971.9772289297242
 20
528.921204200166
 10
971.878287894721
 20
528.9341670456497
 10
971.7793113087816
 20
528.9468555919154
 10
971.6802999323584
 20
528.9592697414754
 10
971.5812545261703
 20
528.9714093989496
 10
971.4821758511985
 20
528.9832744710674
 10
971.3830646686791
 20
528.9948648666674
 10
971.2839217400985
 20
529.0061804966991
 10
971.1847478271868
 20
529.0172212742227
 10
971.0855436919122
 20
529.0279871144102
 10
970.9863100964749
 20
529.0384779345461
 10
970.8870478033016
 20
529.0486936540278
 10
970.7877575750396
 20
529.0586341943664
 10
970.6884401745507
 20
529.0682994791872
 10
970.5890963649055
 20
529.0776894342305
 10
970.4897269093774
 20
529.0868039873516
 10
970.390332571437
 20
529.0956430685221
 10
970.2909141147461
 20
529.1042066098302
 10
970.1914723031516
 20
529.1124945454807
 10
970.09200790068
 20
529.1205068117962
 10
969.9925216715313
 20
529.1282433472172
 10
969.8930143800733
 20
529.1357040923028
 10
969.7934867908355
 20
529.1428889897311
 10
969.6939396685034
 20
529.1497979842991
 10
969.5943737779127
 20
529.1564310229243
 10
969.4947898840429
 20
529.1627880546438
 10
969.3951887520124
 20
529.1688690306157
 10
969.2955711470714
 20
529.174673904119
 10
969.1959378345974
 20
529.1802026305539
 10
969.096289580088
 20
529.1854551674423
 10
968.9966271491558
 20
529.1904314744282
 10
968.8969513075222
 20
529.195131513278
 10
968.7972628210119
 20
529.1995552478804
 10
968.6975624555466
 20
529.2037026442474
 10
968.5978509771392
 20
529.2075736705137
 10
968.4981291518881
 20
529.2111682969378
 10
968.3983977459711
 20
529.2144864959015
 10
968.2986575256397
 20
529.2175282419107
 10
968.198909257213
 20
529.2202935115952
 10
968.0991537070722
 20
529.2227822837089
 10
967.999391641654
 20
529.2249945391302
 10
967.8996238274457
 20
529.2269302608621
 10
967.7998510309782
 20
529.2285894340322
 10
967.7000740188212
 20
529.2299720458926
 10
967.6002935575764
 20
529.2310780858207
 10
967.5005104138722
 20
529.2319075453186
 10
967.4007253543576
 20
529.2324604180134
 10
967.3009391456964
 20
529.2327366996572
 10
967.2011525545608
 20
529.2327363881274
 10
967.1013663476266
 20
529.2324594834263
 10
967.001581291566
 20
529.2319059876816
 10
966.9017981530429
 20
529.2310759051456
 10
966.8020176987062
 20
529.2299692421963
 10
966.702240695184
 20
529.228586007336
 10
966.6024679090782
 20
529.2269262111926
 10
966.5027001069583
 20
529.2249898665184
 10
966.4029380553552
 20
529.2227769881906
 10
966.303182520756
 20
529.2202875932112
 10
966.2034342695974
 20
529.2175217007065
 10
966.1036940682603
 20
529.2144793319274
 10
966.003962683064
 20
529.2111605102486
 10
965.9042408802593
 20
529.2075652611694
 10
965.8045294260243
 20
529.2036936123126
 10
965.7048290864569
 20
529.1995455934244
 10
965.60514062757
 20
529.195121236375
 10
965.5054648152851
 20
529.1904205751573
 10
965.4058024154265
 20
529.1854436458872
 10
965.3061541937154
 20
529.180190486803
 10
965.2065209157643
 20
529.1746611382657
 10
965.1069033470704
 20
529.1688556427581
 10
965.007302253011
 20
529.1627740448847
 10
964.907718398836
 20
529.1564163913713
 10
964.8081525496633
 20
529.1497827310648
 10
964.7086054704723
 20
529.1428731149324
 10
964.6090779260984
 20
529.1356875960619
 10
964.5095706812267
 20
529.1282262296608
 10
964.4100845003862
 20
529.1204890730558
 10
964.3106201479445
 20
529.1124761856925
 10
964.2111783881012
 20
529.1041876291354
 10
964.1117599848823
 20
529.0956234670665
 10
964.0123657021344
 20
529.0867837652856
 10
963.9129963035188
 20
529.0776685917097
 10
963.8136525525057
 20
529.0682780163718
 10
963.7143352123679
 20
529.0586121114212
 10
963.6150450461759
 20
529.0486709511224
 10
963.5157828167906
 20
529.038454611855
 10
963.4165492868591
 20
529.0279631721125
 10
963.3173452188074
 20
529.0171967125025
 10
963.2181713748354
 20
529.006155315745
 10
963.1190285169107
 20
528.994839066673
 10
963.0199174067628
 20
528.9832480522307
 10
962.9208388058775
 20
528.9713823614737
 10
962.8217934754904
 20
528.9592420855681
 10
962.722782176582
 20
528.9468273177891
 10
962.6238056698709
 20
528.9341381535216
 10
962.5248647158086
 20
528.9211746902582
 10
962.4259600745734
 20
528.9079370275991
 10
962.3270925060644
 20
528.8944252672513
 10
962.2282627698966
 20
528.8806395130279
 10
962.1294716253932
 20
528.8665798708465
 10
962.0307198315818
 20
528.8522464487298
 10
961.9320081471873
 20
528.8376393568036
 10
961.8333373306265
 20
528.8227587072963
 10
961.7347081400021
 20
528.8076046145381
 10
961.6361213330971
 20
528.7921771949605
 10
961.537577667369
 20
528.7764765670944
 10
961.4390778999433
 20
528.7605028515702
 10
961.3406227876089
 20
528.7442561711164
 10
961.2422130868113
 20
528.7277366505585
 10
961.143849553647
 20
528.7109444168188
 10
961.0455329438579
 20
528.6938795989144
 10
960.9472640128253
 20
528.6765423279568
 10
960.8490435155643
 20
528.658932737151
 10
960.7508722067179
 20
528.641050961794
 10
960.6527508405509
 20
528.6228971392744
 10
960.5546801709447
 20
528.6044714090706
 10
960.4566609513912
 20
528.5857739127503
 10
960.3586939349866
 20
528.5668047939691
 10
960.2607798744265
 20
528.5475641984698
 10
960.1629195219992
 20
528.5280522740807
 10
960.0651136295809
 20
528.5082691707148
 10
959.9673629486288
 20
528.4882150403688
 10
959.8696682301761
 20
528.4678900371216
 10
959.7720302248263
 20
528.4472943171331
 10
959.6744496827467
 20
528.4264280386435
 10
959.5769273536636
 20
528.4052913619714
 10
959.4794639868555
 20
528.3838844495134
 10
959.3820603311484
 20
528.3622074657417
 10
959.2847171349092
 20
528.340260577204
 10
959.1874351460405
 20
528.3180439525215
 10
959.0902151119743
 20
528.295557762388
 10
958.9930577796671
 20
528.2728021795682
 10
958.895963895593
 20
528.2497773788966
 10
958.7989342057393
 20
528.2264835372764
 10
958.7019694555996
 20
528.2029208336777
 10
958.6050703901687
 20
528.1790894491361
 10
958.5082377539369
 20
528.154989566752
 10
958.4114722908838
 20
528.1306213716881
 10
958.3147747444732
 20
528.1059850511692
 10
958.2181458576468
 20
528.0810807944798
 10
958.1215863728193
 20
528.0559087929631
 10
958.0250970318713
 20
528.0304692400193
 10
957.9286785761453
 20
528.0047623311044
 10
957.8323317464389
 20
527.9787882637285
 10
957.736057282999
 20
527.9525472374542
 10
957.6398559255173
 20
527.9260394538952
 10
957.5437284131231
 20
527.899265116715
 10
957.4476754843786
 20
527.8722244316247
 10
957.3516978772731
 20
527.8449176063821
 10
957.2557963292169
 20
527.8173448507896
 10
957.159971577036
 20
527.7895063766928
 10
957.0642243569667
 20
527.7614023979789
 10
956.9685554046494
 20
527.7330331305752
 10
956.8729654551228
 20
527.7043987924469
 10
956.777455242819
 20
527.675499603596
 10
956.6820255015575
 20
527.6463357860594
 10
956.5866769645395
 20
527.6169075639068
 10
956.491410364342
 20
527.58721516324
 10
956.3962264329128
 20
527.5572588121902
 10
956.3011259015644
 20
527.5270387409164
 10
956.2061095009685
 20
527.496555181604
 10
956.1111779611506
 20
527.465808368463
 10
956.0163320114839
 20
527.4347985377254
 10
955.9215723806842
 20
527.4035259276449
 10
955.8268997968041
 20
527.3719907784933
 10
955.7323149872274
 20
527.3401933325601
 10
955.6378186786634
 20
527.3081338341499
 10
955.5434115971415
 20
527.2758125295805
 10
955.4490944680056
 20
527.2432296671816
 10
955.3548680159086
 20
527.2103854972921
 10
955.2607329648062
 20
527.1772802722588
 10
955.1666900379525
 20
527.1439142464341
 10
955.0727399578935
 20
527.110287676174
 10
954.9788834464619
 20
527.076400819837
 10
954.8851212247712
 20
527.0422539377805
 10
954.7914540132109
 20
527.0078472923603
 10
954.6978825314403
 20
526.973181147928
 10
954.6044074983834
 20
526.9382557708287
 10
954.5110296322226
 20
526.9030714293993
 10
954.4177496503945
 20
526.8676283939665
 10
954.3245682695832
 20
526.8319269368444
 10
954.2314862057153
 20
526.7959673323327
 10
954.1385041739544
 20
526.7597498567146
 10
954.0456228886954
 20
526.7232747882542
 10
953.9528430635594
 20
526.6865424071952
 10
953.8601654113876
 20
526.6495529957581
 10
953.7675906442365
 20
526.6123068381378
 10
953.6751194733722
 20
526.5748042205024
 10
953.5827526092644
 20
526.5370454309901
 10
953.4904907615818
 20
526.4990307597074
 10
953.398334639186
 20
526.4607604987267
 10
953.3062849501266
 20
526.4222349420843
 10
953.2143424016351
 20
526.3834543857778
 10
953.1225077001202
 20
526.3444191277641
 10
953.0307815511616
 20
526.305129467957
 10
952.9391646595051
 20
526.2655857082249
 10
952.8476577290572
 20
526.2257881523884
 10
952.7562614628796
 20
526.1857371062182
 10
952.6649765631835
 20
526.1454328774325
 10
952.5738037313246
 20
526.1048757756948
 10
952.4827436677974
 20
526.0640661126115
 10
952.3917970722302
 20
526.0230042017293
 10
952.3009646433796
 20
525.9816903585331
 10
952.2102470791248
 20
525.9401249004435
 10
919.9909250422937
 20
511.1236416206821
  0
CIRCLE
  5
8D
330
17
100
AcDbEntity
  8
CUT
100
AcDbCircle
 10
1000.0
 20
670.0
 30
0.0
 40
16.5
  0
TEXT
  5
8E
330
17
100
AcDbEntity
  8
MARK
100
AcDbText
 10
998.1805307808497
 20
599.3663683498286
 30
0.0
 40
8.0
  1
B5 臂缸耳板
100
AcDbText
  0
TEXT
  5
8F
330
17
100
AcDbEntity
  8
MARK
100
AcDbText
 10
998.1805307808497
 20
588.1663683498285
 30
0.0
 40
8.0
  1
t16  x2  Q355B
100
AcDbText
  0
ENDSEC
  0
SECTION
  2
OBJECTS
  0
DICTIONARY
  5
A
330
0
100
AcDbDictionary
281
1
  3
ACAD_COLOR
350
B
  3
ACAD_GROUP
350
C
  3
ACAD_LAYOUT
350
D
  3
ACAD_MATERIAL
350
E
  3
ACAD_MLEADERSTYLE
350
F
  3
ACAD_MLINESTYLE
350
10
  3
ACAD_PLOTSETTINGS
350
11
  3
ACAD_PLOTSTYLENAME
350
12
  3
ACAD_SCALELIST
350
14
  3
ACAD_TABLESTYLE
350
15
  3
ACAD_VISUALSTYLE
350
16
  3
EZDXF_META
350
2D
  0
DICTIONARY
  5
B
330
A
100
AcDbDictionary
281
1
  0
DICTIONARY
  5
C
330
A
100
AcDbDictionary
281
1
  0
DICTIONARY
  5
D
330
A
100
AcDbDictionary
281
1
  3
Model
350
1A
  3
Layout1
350
1E
  0
DICTIONARY
  5
E
330
A
100
AcDbDictionary
281
1
  3
ByBlock
350
1F
  3
ByLayer
350
20
  3
Global
350
21
  0
DICTIONARY
  5
F
330
A
100
AcDbDictionary
281
1
  3
Standard
350
2C
  0
DICTIONARY
  5
10
330
A
100
AcDbDictionary
281
1
  3
Standard
350
22
  0
DICTIONARY
  5
11
330
A
100
AcDbDictionary
281
1
  0
ACDBDICTIONARYWDFLT
  5
12
330
A
100
AcDbDictionary
281
1
  3
Normal
350
13
100
AcDbDictionaryWithDefault
340
13
  0
ACDBPLACEHOLDER
  5
13
330
12
  0
DICTIONARY
  5
14
330
A
100
AcDbDictionary
281
1
  0
DICTIONARY
  5
15
330
A
100
AcDbDictionary
281
1
  0
DICTIONARY
  5
16
330
A
100
AcDbDictionary
281
1
  3
2dWireframe
350
5A
  3
Basic
350
5B
  3
Brighten
350
5C
  3
ColorChange
350
5D
  3
Conceptual
350
5E
  3
Dim
350
5F
  3
EdgeColorOff
350
60
  3
Facepattern
350
61
  3
Flat
350
62
  3
FlatWithEdges
350
63
  3
Gouraud
350
64
  3
GouraudWithEdges
350
65
  3
Hidden
350
66
  3
JitterOff
350
67
  3
Linepattern
350
68
  3
Modeling
350
69
  3
OverhangOff
350
6A
  3
Realistic
350
6B
  3
Shaded
350
6C
  3
Shaded with edges
350
6D
  3
Shades of Gray
350
6E
  3
Sketchy
350
6F
  3
Thicken
350
70
  3
Wireframe
350
71
  3
X-Ray
350
72
  0
LAYOUT
  5
1A
330
D
100
AcDbPlotSettings
  1

  4
A3
  6

 40
7.5
 41
20.0
 42
7.5
 43
20.0
 44
420.0
 45
297.0
 46
0.0
 47
0.0
 48
0.0
 49
0.0
140
0.0
141
0.0
142
1.0
143
1.0
 70
1024
 72
1
 73
0
 74
5
  7

 75
16
 76
0
 77
2
 78
300
147
1.0
148
0.0
149
0.0
100
AcDbLayout
  1
Model
 70
1
 71
0
 10
0.0
 20
0.0
 11
420.0
 21
297.0
 12
0.0
 22
0.0
 32
0.0
 14
1e+20
 24
1e+20
 34
1e+20
 15
-1e+20
 25
-1e+20
 35
-1e+20
146
0.0
 13
0.0
 23
0.0
 33
0.0
 16
1.0
 26
0.0
 36
0.0
 17
0.0
 27
1.0
 37
0.0
 76
1
330
17
  0
LAYOUT
  5
1E
330
D
100
AcDbPlotSettings
  1

  4
A3
  6

 40
7.5
 41
20.0
 42
7.5
 43
20.0
 44
420.0
 45
297.0
 46
0.0
 47
0.0
 48
0.0
 49
0.0
140
0.0
141
0.0
142
1.0
143
1.0
 70
0
 72
1
 73
0
 74
5
  7

 75
16
 76
0
 77
2
 78
300
147
1.0
148
0.0
149
0.0
100
AcDbLayout
  1
Layout1
 70
1
 71
1
 10
0.0
 20
0.0
 11
420.0
 21
297.0
 12
0.0
 22
0.0
 32
0.0
 14
1e+20
 24
1e+20
 34
1e+20
 15
-1e+20
 25
-1e+20
 35
-1e+20
146
0.0
 13
0.0
 23
0.0
 33
0.0
 16
1.0
 26
0.0
 36
0.0
 17
0.0
 27
1.0
 37
0.0
 76
1
330
1B
  0
MATERIAL
  5
1F
102
{ACAD_REACTORS
330
E
102
}
330
E
100
AcDbMaterial
  1
ByBlock
  2

 70
0
 40
1.0
 71
1
 41
1.0
 91
-1023410177
 42
1.0
 72
1
  3

 73
1
 74
1
 75
1
 44
0.5
 73
0
 45
1.0
 46
1.0
 77
1
  4

 78
1
 79
1
170
1
 48
1.0
171
1
  6

172
1
173
1
174
1
140
1.0
141
1.0
175
1
  7

176
1
177
1
178
1
143
1.0
179
1
  8

270
1
271
1
272
1
145
1.0
146
1.0
273
1
  9

274
1
275
1
276
1
 42
1.0
 72
1
  3

 73
1
 74
1
 75
1
 94
63
  0
MATERIAL
  5
20
102
{ACAD_REACTORS
330
E
102
}
330
E
100
AcDbMaterial
  1
ByLayer
  2

 70
0
 40
1.0
 71
1
 41
1.0
 91
-1023410177
 42
1.0
 72
1
  3

 73
1
 74
1
 75
1
 44
0.5
 73
0
 45
1.0
 46
1.0
 77
1
  4

 78
1
 79
1
170
1
 48
1.0
171
1
  6

172
1
173
1
174
1
140
1.0
141
1.0
175
1
  7

176
1
177
1
178
1
143
1.0
179
1
  8

270
1
271
1
272
1
145
1.0
146
1.0
273
1
  9

274
1
275
1
276
1
 42
1.0
 72
1
  3

 73
1
 74
1
 75
1
 94
63
  0
MATERIAL
  5
21
102
{ACAD_REACTORS
330
E
102
}
330
E
100
AcDbMaterial
  1
Global
  2

 70
0
 40
1.0
 71
1
 41
1.0
 91
-1023410177
 42
1.0
 72
1
  3

 73
1
 74
1
 75
1
 44
0.5
 73
0
 45
1.0
 46
1.0
 77
1
  4

 78
1
 79
1
170
1
 48
1.0
171
1
  6

172
1
173
1
174
1
140
1.0
141
1.0
175
1
  7

176
1
177
1
178
1
143
1.0
179
1
  8

270
1
271
1
272
1
145
1.0
146
1.0
273
1
  9

274
1
275
1
276
1
 42
1.0
 72
1
  3

 73
1
 74
1
 75
1
 94
63
  0
MLINESTYLE
  5
22
102
{ACAD_REACTORS
330
10
102
}
330
10
100
AcDbMlineStyle
  2
Standard
 70
0
  3

 62
256
 51
90.0
 52
90.0
 71
2
 49
0.5
 62
256
  6
BYLAYER
 49
-0.5
 62
256
  6
BYLAYER
  0
MLEADERSTYLE
  5
2C
102
{ACAD_REACTORS
330
F
102
}
330
F
100
AcDbMLeaderStyle
179
2
170
2
171
1
172
0
 90
2
 40
0.0
 41
0.0
173
1
 91
-1056964608
 92
-2
290
1
 42
2.0
291
1
 43
8.0
  3
Standard
 44
4.0
300

342
29
174
1
175
1
176
0
178
1
 93
-1056964608
 45
4.0
292
0
297
0
 46
4.0
 94
-1056964608
 47
1.0
 49
1.0
140
1.0
294
1
141
0.0
177
0
142
1.0
295
0
296
0
143
3.75
271
0
272
9
273
9
  0
DICTIONARY
  5
2D
330
A
100
AcDbDictionary
280
1
281
1
  3
CREATED_BY_EZDXF
350
2E
  3
WRITTEN_BY_EZDXF
350
92
  0
DICTIONARYVAR
  5
2E
330
2D
100
DictionaryVariables
280
0
  1
1.4.4 @ 2026-09-24T22:40:59.297407+00:00
  0
VISUALSTYLE
  5
5A
102
{ACAD_REACTORS
330
16
102
}
330
16
100
AcDbVisualStyle
  2
2dWireframe
 70
4
 90
0
 40
0.6
 62
7
290
0
291
0
  0
VISUALSTYLE
  5
5B
102
{ACAD_REACTORS
330
16
102
}
330
16
100
AcDbVisualStyle
  2
Basic
 70
7
 90
1
 40
0.6
 62
7
290
0
291
1
  0
VISUALSTYLE
  5
5C
102
{ACAD_REACTORS
330
16
102
}
330
16
100
AcDbVisualStyle
  2
Brighten
 70
12
 90
2
 40
0.6
 62
7
290
0
291
1
  0
VISUALSTYLE
  5
5D
102
{ACAD_REACTORS
330
16
102
}
330
16
100
AcDbVisualStyle
  2
ColorChange
 70
16
 90
2
 40
0.6
 62
8
290
0
291
1
  0
VISUALSTYLE
  5
5E
102
{ACAD_REACTORS
330
16
102
}
330
16
100
AcDbVisualStyle
  2
Conceptual
 70
9
 90
3
 40
0.6
 62
7
290
0
291
0
  0
VISUALSTYLE
  5
5F
102
{ACAD_REACTORS
330
16
102
}
330
16
100
AcDbVisualStyle
  2
Dim
 70
11
 90
2
 40
0.6
 62
7
290
0
291
1
  0
VISUALSTYLE
  5
60
102
{ACAD_REACTORS
330
16
102
}
330
16
100
AcDbVisualStyle
  2
EdgeColorOff
 70
22
 90
2
 40
0.6
 62
7
290
0
291
1
  0
VISUALSTYLE
  5
61
102
{ACAD_REACTORS
330
16
102
}
330
16
100
AcDbVisualStyle
  2
Facepattern
 70
15
 90
2
 40
0.6
 62
7
290
0
291
1
  0
VISUALSTYLE
  5
62
102
{ACAD_REACTORS
330
16
102
}
330
16
100
AcDbVisualStyle
  2
Flat
 70
0
 90
2
 40
0.6
 62
7
290
0
291
1
  0
VISUALSTYLE
  5
63
102
{ACAD_REACTORS
330
16
102
}
330
16
100
AcDbVisualStyle
  2
FlatWithEdges
 70
1
 90
2
 40
0.6
 62
7
290
0
291
1
  0
VISUALSTYLE
  5
64
102
{ACAD_REACTORS
330
16
102
}
330
16
100
AcDbVisualStyle
  2
Gouraud
 70
2
 90
2
 40
0.6
 62
7
290
0
291
1
  0
VISUALSTYLE
  5
65
102
{ACAD_REACTORS
330
16
102
}
330
16
100
AcDbVisualStyle
  2
GouraudWithEdges
 70
3
 90
2
 40
0.6
 62
7
290
0
291
1
  0
VISUALSTYLE
  5
66
102
{ACAD_REACTORS
330
16
102
}
330
16
100
AcDbVisualStyle
  2
Hidden
 70
6
 90
1
 40
0.6
 62
7
290
0
291
0
  0
VISUALSTYLE
  5
67
102
{ACAD_REACTORS
330
16
102
}
330
16
100
AcDbVisualStyle
  2
JitterOff
 70
20
 90
2
 40
0.6
 62
7
290
0
291
1
  0
VISUALSTYLE
  5
68
102
{ACAD_REACTORS
330
16
102
}
330
16
100
AcDbVisualStyle
  2
Linepattern
 70
14
 90
2
 40
0.6
 62
7
290
0
291
1
  0
VISUALSTYLE
  5
69
102
{ACAD_REACTORS
330
16
102
}
330
16
100
AcDbVisualStyle
  2
Modeling
 70
10
 90
2
 40
0.6
 62
7
290
0
291
0
  0
VISUALSTYLE
  5
6A
102
{ACAD_REACTORS
330
16
102
}
330
16
100
AcDbVisualStyle
  2
OverhangOff
 70
21
 90
2
 40
0.6
 62
7
290
0
291
1
  0
VISUALSTYLE
  5
6B
102
{ACAD_REACTORS
330
16
102
}
330
16
100
AcDbVisualStyle
  2
Realistic
 70
8
 90
2
 40
0.6
 62
7
290
0
291
0
  0
VISUALSTYLE
  5
6C
102
{ACAD_REACTORS
330
16
102
}
330
16
100
AcDbVisualStyle
  2
Shaded
 70
27
 90
2
 40
0.6
 62
7
290
0
291
0
  0
VISUALSTYLE
  5
6D
102
{ACAD_REACTORS
330
16
102
}
330
16
100
AcDbVisualStyle
  2
Shaded with edges
 70
26
 90
2
 40
0.6
 62
7
290
0
291
0
  0
VISUALSTYLE
  5
6E
102
{ACAD_REACTORS
330
16
102
}
330
16
100
AcDbVisualStyle
  2
Shades of Gray
 70
23
 90
2
 40
0.6
 62
7
290
0
291
0
  0
VISUALSTYLE
  5
6F
102
{ACAD_REACTORS
330
16
102
}
330
16
100
AcDbVisualStyle
  2
Sketchy
 70
24
 90
1
 40
0.6
 62
7
290
0
291
0
  0
VISUALSTYLE
  5
70
102
{ACAD_REACTORS
330
16
102
}
330
16
100
AcDbVisualStyle
  2
Thicken
 70
13
 90
2
 40
0.6
 62
7
290
0
291
1
  0
VISUALSTYLE
  5
71
102
{ACAD_REACTORS
330
16
102
}
330
16
100
AcDbVisualStyle
  2
Wireframe
 70
5
 90
0
 40
0.6
 62
7
290
0
291
0
  0
VISUALSTYLE
  5
72
102
{ACAD_REACTORS
330
16
102
}
330
16
100
AcDbVisualStyle
  2
X-Ray
 70
25
 90
2
 40
0.5
 62
7
290
0
291
0
  0
DICTIONARYVAR
  5
92
330
2D
100
DictionaryVariables
280
0
  1
1.4.4 @ 2026-09-24T22:40:59.310462+00:00
  0
ENDSEC
  0
EOF
